M48
; DRILL file KiCad 10.0.0 date 2026-08-08T12:03:41
; FORMAT={-:-/ absolute / metric / decimal}
; #@! TF.CreationDate,2026-08-08T12:03:41-05:00
; #@! TF.GenerationSoftware,Kicad,Pcbnew,10.0.0
; #@! TF.FileFunction,Plated,1,4,PTH
FMAT,2
METRIC
; #@! TA.AperFunction,Plated,PTH,ViaDrill
T1C0.300
; #@! TA.AperFunction,Plated,PTH,ViaDrill
T2C0.500
; #@! TA.AperFunction,Plated,PTH,ComponentDrill
T3C0.800
; #@! TA.AperFunction,Plated,PTH,ComponentDrill
T4C1.000
; #@! TA.AperFunction,Plated,PTH,ComponentDrill
T5C1.500
; #@! TA.AperFunction,Plated,PTH,ComponentDrill
T6C3.200
%
G90
G05
T1
X31.0Y-47.0
X31.0Y-75.25
X33.5Y-151.0
X35.5Y-94.25
X38.25Y-113.5
X40.0Y-48.75
X40.25Y-59.25
X41.0Y-76.5
X42.5Y-132.25
X43.0Y-152.25
X44.75Y-95.5
X47.75Y-114.0
X48.5Y-147.25
X48.5Y-152.0
X50.5Y-54.0
X50.75Y-51.5
X51.75Y-74.0
X52.0Y-133.25
X55.0Y-109.25
X57.25Y-151.0
X59.0Y-77.75
X59.725Y-94.0
X64.0Y-129.0
X64.5Y-113.5
X66.5Y-153.0
X68.5Y-96.25
X69.25Y-75.25
X71.25Y-45.25
X72.75Y-58.0
X73.75Y-115.5
X75.5Y-130.75
X78.0Y-77.75
X78.5Y-48.25
X78.5Y-94.25
X80.75Y-151.25
X83.0Y-133.75
X83.25Y-113.5
X87.763Y-95.487
X88.0Y-75.0
X89.75Y-45.25
X90.25Y-152.5
X92.5Y-115.5
X93.0Y-132.5
X97.5Y-48.5
X97.5Y-94.25
X97.75Y-76.75
X102.25Y-133.5
X102.5Y-113.25
X107.35Y-47.25
X107.35Y-75.25
X107.5Y-95.75
X108.75Y-58.5
X110.0Y-83.0
X110.0Y-87.5
X111.4Y-132.25
X111.5Y-115.25
X116.25Y-48.0
X116.25Y-77.5
X116.5Y-94.5
X116.5Y-152.0
X116.75Y-146.75
X120.759Y-133.991
X121.5Y-113.5
X125.75Y-95.75
X126.25Y-46.75
X127.75Y-73.5
X130.75Y-114.75
X131.0Y-132.0
X135.25Y-93.75
X135.5Y-48.25
X135.5Y-77.5
X138.0Y-148.5
X140.0Y-133.5
X140.5Y-113.0
X144.75Y-96.25
X145.45Y-75.25
X145.75Y-52.25
X145.75Y-54.75
X149.5Y-115.5
X150.5Y-132.0
X152.5Y-151.25
X154.25Y-77.5
X154.75Y-94.5
X155.25Y-46.75
X159.25Y-133.75
X159.5Y-113.5
X161.75Y-153.0
X163.75Y-96.5
X164.0Y-48.0
X164.5Y-75.25
X168.5Y-115.0
X169.25Y-132.25
X170.5Y-58.0
X172.75Y-104.5
X173.5Y-93.75
X173.75Y-76.5
X174.0Y-46.75
X178.25Y-133.75
X178.75Y-113.5
X179.75Y-150.0
X182.75Y-95.5
X183.0Y-48.0
X183.25Y-75.25
X187.5Y-115.0
X189.5Y-131.0
X192.25Y-77.25
X192.75Y-94.5
X193.0Y-46.75
X197.231Y-134.269
X197.75Y-113.5
X201.25Y-129.0
X202.0Y-48.0
X202.0Y-95.0
X202.5Y-75.25
X206.731Y-115.519
X207.0Y-132.5
X211.0Y-149.5
X211.75Y-46.5
X211.75Y-77.5
X212.125Y-94.25
X212.75Y-111.0
X216.75Y-133.75
X218.25Y-111.75
X221.0Y-48.25
X221.0Y-75.75
X221.0Y-96.5
X222.5Y-58.25
X224.0Y-151.5
X226.25Y-114.75
X226.5Y-131.5
X228.75Y-57.0
X230.481Y-77.269
X230.5Y-94.0
X233.25Y-152.75
X235.5Y-134.0
X237.75Y-111.75
X240.0Y-96.75
X240.5Y-47.25
X240.5Y-75.5
X241.701Y-137.799
X245.25Y-114.75
X245.25Y-132.25
X248.0Y-151.25
X248.5Y-111.5
X249.5Y-48.25
X249.75Y-77.5
X250.0Y-94.25
X254.25Y-133.75
X255.25Y-112.75
X256.5Y-153.0
X259.0Y-95.75
X259.5Y-46.75
X259.75Y-75.5
X264.0Y-114.75
X264.5Y-124.25
X267.0Y-128.5
X269.0Y-48.0
X269.0Y-76.75
X269.0Y-94.5
X271.75Y-151.25
X272.5Y-128.0
X275.25Y-111.0
X278.25Y-95.0
X278.75Y-46.75
X280.25Y-152.75
X281.0Y-132.25
X281.5Y-99.5
X285.75Y-113.75
X287.5Y-48.0
X288.25Y-75.75
X290.0Y-95.0
X290.0Y-133.75
X293.25Y-94.25
X294.701Y-115.549
X295.25Y-151.0
X295.5Y-49.5
X296.75Y-61.5
X297.25Y-77.0
X298.0Y-46.5
X301.75Y-94.75
X302.75Y-61.5
X302.75Y-112.25
X304.25Y-152.75
X307.0Y-48.0
X307.5Y-131.0
X307.75Y-114.5
X308.75Y-106.75
X309.5Y-58.25
X312.5Y-37.75
X312.75Y-41.75
X313.0Y-45.5
X313.75Y-150.0
X314.0Y-46.7
X314.75Y-98.25
X315.25Y-47.1
X316.0Y-43.5
X317.299Y-47.951
X317.5Y-49.0
X318.799Y-51.201
X319.25Y-52.5
X319.75Y-54.0
X320.5Y-55.65
X320.5Y-67.5
X321.25Y-68.25
X321.25Y-151.5
X322.0Y-37.0
X322.0Y-69.0
X322.0Y-70.0
X322.25Y-38.25
X324.5Y-72.0
X326.5Y-76.0
X327.5Y-41.25
X330.5Y-153.25
X330.75Y-117.25
X333.75Y-63.5
X340.712Y-132.75
X340.75Y-150.75
X342.75Y-115.0
X344.5Y-61.25
X344.75Y-53.75
X346.0Y-74.25
X346.25Y-50.5
X348.0Y-109.5
X348.75Y-114.0
X349.5Y-93.75
X349.75Y-134.25
X349.75Y-152.75
X350.25Y-132.25
X350.75Y-98.25
X351.125Y-93.125
X353.0Y-42.75
X354.0Y-143.5
X356.25Y-110.75
X359.75Y-151.5
X360.5Y-134.0
X362.5Y-42.75
X362.5Y-44.75
X362.529Y-53.779
X363.25Y-50.5
X363.25Y-76.75
X364.25Y-63.75
X365.5Y-133.0
X368.5Y-153.0
X369.5Y-67.0
X371.5Y-49.5
X373.0Y-55.0
X374.75Y-48.0
X375.0Y-64.0
X375.25Y-49.5
X375.75Y-52.75
X376.5Y-58.25
X377.5Y-62.25
X377.5Y-73.25
X378.5Y-73.25
X379.25Y-66.25
X379.5Y-84.75
X380.009Y-66.503
X380.3Y-84.75
X380.75Y-35.25
X380.75Y-39.25
X380.75Y-51.0
X381.5Y-124.25
X381.75Y-119.0
X382.25Y-71.5
X383.0Y-91.75
X384.0Y-143.75
X385.5Y-115.5
X385.5Y-119.0
X385.5Y-124.0
X385.75Y-127.75
X387.5Y-86.0
X388.0Y-63.5
X388.0Y-68.0
X388.75Y-60.5
X389.0Y-76.75
X389.5Y-50.75
X391.25Y-117.25
X391.5Y-124.5
X391.5Y-128.25
X392.0Y-86.0
X392.0Y-115.0
X392.25Y-63.75
X392.5Y-136.5
X394.0Y-117.25
X394.5Y-124.5
X395.25Y-75.0
X395.25Y-87.5
X397.0Y-67.5
X398.5Y-73.75
X401.25Y-80.0
X401.75Y-79.0
X404.0Y-82.5
X405.5Y-76.75
T2
X314.25Y-43.25
X319.25Y-43.0
X320.25Y-38.0
X321.5Y-43.0
X384.0Y-122.0
T3
X33.75Y-157.5
X34.38Y-52.75
X36.512Y-81.28
X39.69Y-100.25
X41.37Y-157.5
X42.0Y-52.75
X43.656Y-119.38
X44.13Y-138.5
X44.133Y-81.28
X47.31Y-100.25
X51.276Y-119.38
X51.75Y-138.5
X56.44Y-81.25
X57.88Y-157.5
X64.06Y-81.25
X65.5Y-157.5
X66.04Y-100.33
X70.94Y-119.25
X71.19Y-52.75
X73.66Y-100.33
X75.13Y-138.5
X75.44Y-81.5
X78.56Y-119.25
X78.81Y-52.75
X81.756Y-157.48
X82.75Y-138.5
X83.06Y-81.5
X84.138Y-100.33
X88.9Y-81.28
X89.376Y-157.48
X89.69Y-52.75
X89.852Y-119.38
X91.757Y-100.33
X94.69Y-138.5
X96.52Y-81.28
X97.31Y-52.75
X97.472Y-119.38
X102.31Y-138.5
X103.188Y-100.33
X107.95Y-52.705
X108.902Y-119.38
X110.807Y-100.33
X113.69Y-81.25
X115.57Y-52.705
X116.522Y-119.38
X118.427Y-138.43
X119.75Y-100.25
X121.31Y-81.25
X126.047Y-138.43
X127.0Y-52.705
X127.37Y-100.25
X127.94Y-119.25
X131.762Y-138.43
X132.715Y-81.28
X134.62Y-52.705
X135.56Y-119.25
X139.382Y-138.43
X140.335Y-81.28
X142.19Y-100.25
X146.94Y-119.25
X149.81Y-100.25
X151.38Y-138.5
X151.94Y-81.25
X153.194Y-157.48
X154.56Y-119.25
X155.575Y-52.705
X159.0Y-138.5
X159.56Y-81.25
X160.814Y-157.48
X161.29Y-100.33
X163.195Y-52.705
X166.19Y-119.25
X168.91Y-100.33
X169.862Y-138.43
X170.94Y-81.25
X173.81Y-119.25
X174.625Y-52.705
X177.482Y-138.43
X177.69Y-100.25
X178.56Y-81.25
X182.245Y-52.705
X185.31Y-100.25
X185.69Y-119.25
X189.94Y-81.25
X193.31Y-119.25
X193.675Y-52.705
X194.44Y-138.25
X197.56Y-81.25
X198.438Y-100.33
X201.295Y-52.705
X202.06Y-138.25
X203.94Y-119.5
X206.058Y-100.33
X208.915Y-81.28
X208.94Y-52.75
X211.296Y-138.43
X211.56Y-119.5
X216.535Y-81.28
X216.56Y-52.75
X217.487Y-119.38
X218.19Y-100.25
X218.916Y-138.43
X224.631Y-157.48
X225.107Y-119.38
X225.81Y-100.25
X227.012Y-138.43
X227.94Y-81.5
X232.251Y-157.48
X234.632Y-138.43
X235.56Y-81.5
X236.38Y-119.25
X237.44Y-100.25
X241.38Y-52.75
X244.0Y-119.25
X245.06Y-100.25
X246.062Y-138.43
X247.015Y-81.28
X248.444Y-157.48
X249.0Y-52.75
X253.206Y-100.33
X253.682Y-138.43
X254.635Y-81.28
X255.44Y-119.5
X256.064Y-157.48
X260.35Y-52.705
X260.826Y-100.33
X263.06Y-119.5
X266.065Y-81.28
X267.97Y-52.705
X271.94Y-157.5
X273.685Y-81.28
X278.44Y-138.25
X278.94Y-52.75
X279.56Y-157.5
X283.25Y-87.94
X283.25Y-95.56
X286.06Y-138.25
X286.544Y-119.38
X286.56Y-52.75
X291.44Y-81.25
X293.19Y-99.75
X294.164Y-119.38
X295.63Y-157.5
X298.45Y-52.705
X299.06Y-81.25
X300.81Y-99.75
X303.25Y-157.5
X306.07Y-52.705
X321.69Y-109.0
X322.262Y-157.48
X329.31Y-109.0
X329.882Y-157.48
X337.502Y-138.43
X341.312Y-157.48
X345.123Y-138.43
X348.933Y-157.48
X352.69Y-50.0
X356.69Y-108.75
X359.75Y-58.5
X359.75Y-66.12
X360.31Y-50.0
X360.363Y-157.48
X364.31Y-108.75
X367.982Y-157.48
X391.75Y-108.5
X399.37Y-108.5
T4
X315.0Y-37.5
X315.0Y-40.04
X318.0Y-95.0
X318.0Y-97.5
X318.0Y-100.0
X330.47Y-33.0
X330.47Y-35.54
X330.47Y-38.08
X330.47Y-40.62
X330.47Y-43.16
X330.47Y-45.7
X330.47Y-48.24
X330.47Y-50.78
X330.47Y-53.32
X330.47Y-55.86
X330.47Y-58.4
X330.47Y-60.94
X330.47Y-63.48
X330.47Y-66.02
X330.47Y-68.56
X330.47Y-71.1
X330.47Y-73.64
X330.47Y-76.18
X330.47Y-78.72
X330.47Y-81.26
X332.5Y-95.0
X332.5Y-100.0
X348.25Y-33.0
X348.25Y-35.54
X348.25Y-38.08
X348.25Y-40.62
X348.25Y-43.16
X348.25Y-45.7
X348.25Y-48.24
X348.25Y-50.78
X348.25Y-53.32
X348.25Y-55.86
X348.25Y-58.4
X348.25Y-60.94
X348.25Y-63.48
X348.25Y-66.02
X348.25Y-68.56
X348.25Y-71.1
X348.25Y-73.64
X348.25Y-76.18
X348.25Y-78.72
X348.25Y-81.26
X353.0Y-95.0
X353.0Y-97.5
X353.0Y-100.0
X367.22Y-33.0
X367.22Y-35.54
X367.22Y-38.08
X367.22Y-40.62
X367.22Y-43.16
X367.22Y-45.7
X367.22Y-48.24
X367.22Y-50.78
X367.22Y-53.32
X367.22Y-55.86
X367.22Y-58.4
X367.22Y-60.94
X367.22Y-63.48
X367.22Y-66.02
X367.22Y-68.56
X367.22Y-71.1
X367.22Y-73.64
X367.22Y-76.18
X367.22Y-78.72
X367.22Y-81.26
X367.5Y-95.0
X367.5Y-100.0
X385.0Y-33.0
X385.0Y-35.54
X385.0Y-38.08
X385.0Y-40.62
X385.0Y-43.16
X385.0Y-45.7
X385.0Y-48.24
X385.0Y-50.78
X385.0Y-53.32
X385.0Y-55.86
X385.0Y-58.4
X385.0Y-60.94
X385.0Y-63.48
X385.0Y-66.02
X385.0Y-68.56
X385.0Y-71.1
X385.0Y-73.64
X385.0Y-76.18
X385.0Y-78.72
X385.0Y-81.26
X388.0Y-95.0
X388.0Y-97.5
X388.0Y-100.0
X388.5Y-114.15
X388.5Y-116.69
X388.5Y-119.23
X388.5Y-121.77
X388.5Y-124.31
X388.5Y-126.85
X397.25Y-119.235
X397.25Y-121.775
X401.5Y-41.49
X401.5Y-44.03
X401.5Y-46.57
X401.5Y-49.11
X401.5Y-51.65
X401.5Y-54.19
X401.5Y-56.73
X401.5Y-59.27
X401.5Y-61.81
X401.5Y-64.35
X401.5Y-66.89
X401.5Y-69.43
X401.5Y-71.97
X401.5Y-74.51
X402.5Y-95.0
X402.5Y-100.0
T5
X31.75Y-40.64
X31.75Y-69.215
X34.131Y-145.415
X36.512Y-88.265
X38.1Y-38.1
X38.1Y-66.675
X38.894Y-107.315
X40.481Y-142.875
X42.862Y-85.725
X43.656Y-126.365
X45.244Y-104.775
X50.006Y-123.825
X50.8Y-69.215
X57.15Y-66.675
X57.944Y-145.415
X60.325Y-88.265
X64.294Y-142.875
X65.087Y-107.315
X66.675Y-85.725
X69.85Y-40.64
X69.85Y-69.215
X71.438Y-104.775
X74.612Y-126.365
X76.2Y-38.1
X76.2Y-66.675
X79.375Y-88.265
X80.962Y-123.825
X81.756Y-145.415
X84.138Y-107.315
X85.725Y-85.725
X88.106Y-142.875
X88.9Y-40.64
X88.9Y-69.215
X90.487Y-104.775
X93.662Y-126.365
X95.25Y-38.1
X95.25Y-66.675
X98.425Y-88.265
X100.012Y-123.825
X103.188Y-107.315
X104.775Y-85.725
X107.95Y-40.64
X107.95Y-69.215
X109.537Y-104.775
X112.712Y-126.365
X114.3Y-38.1
X114.3Y-66.675
X117.475Y-88.265
X119.062Y-123.825
X122.237Y-107.315
X123.825Y-85.725
X127.0Y-40.64
X127.0Y-69.215
X128.588Y-104.775
X131.762Y-126.365
X133.35Y-38.1
X133.35Y-66.675
X136.525Y-88.265
X138.112Y-123.825
X141.287Y-107.315
X142.875Y-85.725
X146.05Y-69.215
X147.637Y-104.775
X150.812Y-126.365
X152.4Y-66.675
X153.194Y-145.415
X155.575Y-40.64
X155.575Y-88.265
X157.162Y-123.825
X159.544Y-142.875
X160.338Y-107.315
X161.925Y-38.1
X161.925Y-85.725
X165.1Y-69.215
X166.688Y-104.775
X169.862Y-126.365
X171.45Y-66.675
X174.625Y-40.64
X174.625Y-88.265
X176.213Y-123.825
X179.387Y-107.315
X180.975Y-38.1
X180.975Y-85.725
X184.15Y-69.215
X185.737Y-104.775
X188.912Y-126.365
X190.5Y-66.675
X193.675Y-40.64
X193.675Y-88.265
X195.262Y-123.825
X198.438Y-107.315
X200.025Y-38.1
X200.025Y-85.725
X203.2Y-69.215
X204.787Y-104.775
X207.962Y-126.365
X209.55Y-66.675
X212.725Y-40.64
X212.725Y-88.265
X214.312Y-123.825
X217.487Y-107.315
X219.075Y-38.1
X219.075Y-85.725
X222.25Y-69.215
X223.837Y-104.775
X224.631Y-145.415
X227.012Y-126.365
X228.6Y-66.675
X230.981Y-142.875
X231.775Y-88.265
X233.362Y-123.825
X236.537Y-107.315
X238.125Y-85.725
X241.3Y-40.64
X241.3Y-69.215
X242.887Y-104.775
X246.062Y-126.365
X247.65Y-38.1
X247.65Y-66.675
X248.444Y-145.415
X250.825Y-88.265
X252.412Y-123.825
X254.794Y-142.875
X255.587Y-107.315
X257.175Y-85.725
X260.35Y-40.64
X260.35Y-69.215
X261.938Y-104.775
X266.7Y-38.1
X266.7Y-66.675
X269.875Y-88.265
X272.256Y-145.415
X276.225Y-85.725
X278.606Y-142.875
X279.4Y-40.64
X281.781Y-126.365
X285.75Y-38.1
X286.544Y-107.315
X288.131Y-123.825
X288.925Y-69.215
X292.894Y-104.775
X293.688Y-88.265
X295.275Y-66.675
X296.069Y-145.415
X298.45Y-40.64
X300.037Y-85.725
X302.419Y-142.875
X304.8Y-38.1
X322.262Y-145.415
X328.613Y-142.875
X341.312Y-126.365
X341.312Y-145.415
X347.662Y-123.825
X347.662Y-142.875
X360.363Y-145.415
X366.712Y-142.875
T6
X54.5Y-42.0
X144.0Y-45.25
X231.25Y-46.5
X324.0Y-131.75
X394.75Y-38.75
X401.0Y-153.75
T5
G00X324.85Y-91.9
M15
G01X326.15Y-91.9
M16
G05
G00X324.85Y-103.1
M15
G01X326.15Y-103.1
M16
G05
G00X359.85Y-91.9
M15
G01X361.15Y-91.9
M16
G05
G00X359.85Y-103.1
M15
G01X361.15Y-103.1
M16
G05
G00X394.85Y-91.9
M15
G01X396.15Y-91.9
M16
G05
G00X394.85Y-103.1
M15
G01X396.15Y-103.1
M16
G05
M30
