%TF.GenerationSoftware,KiCad,Pcbnew,10.0.0*%
%TF.CreationDate,2026-08-08T12:03:53-05:00*%
%TF.ProjectId,keyboard,6b657962-6f61-4726-942e-6b696361645f,rev?*%
%TF.SameCoordinates,Original*%
%TF.FileFunction,Soldermask,Top*%
%TF.FilePolarity,Negative*%
%FSLAX46Y46*%
G04 Gerber Fmt 4.6, Leading zero omitted, Abs format (unit mm)*
G04 Created by KiCad (PCBNEW 10.0.0) date 2026-08-08 12:03:53*
%MOMM*%
%LPD*%
G01*
G04 APERTURE LIST*
G04 Aperture macros list*
%AMRoundRect*
0 Rectangle with rounded corners*
0 $1 Rounding radius*
0 $2 $3 $4 $5 $6 $7 $8 $9 X,Y pos of 4 corners*
0 Add a 4 corners polygon primitive as box body*
4,1,4,$2,$3,$4,$5,$6,$7,$8,$9,$2,$3,0*
0 Add four circle primitives for the rounded corners*
1,1,$1+$1,$2,$3*
1,1,$1+$1,$4,$5*
1,1,$1+$1,$6,$7*
1,1,$1+$1,$8,$9*
0 Add four rect primitives between the rounded corners*
20,1,$1+$1,$2,$3,$4,$5,0*
20,1,$1+$1,$4,$5,$6,$7,0*
20,1,$1+$1,$6,$7,$8,$9,0*
20,1,$1+$1,$8,$9,$2,$3,0*%
%AMFreePoly0*
4,1,37,0.603843,0.796157,0.639018,0.796157,0.711114,0.766294,0.766294,0.711114,0.796157,0.639018,0.796157,0.603843,0.800000,0.600000,0.800000,-0.600000,0.796157,-0.603843,0.796157,-0.639018,0.766294,-0.711114,0.711114,-0.766294,0.639018,-0.796157,0.603843,-0.796157,0.600000,-0.800000,0.000000,-0.800000,0.000000,-0.796148,-0.078414,-0.796148,-0.232228,-0.765552,-0.377117,-0.705537,
-0.507515,-0.618408,-0.618408,-0.507515,-0.705537,-0.377117,-0.765552,-0.232228,-0.796148,-0.078414,-0.796148,0.078414,-0.765552,0.232228,-0.705537,0.377117,-0.618408,0.507515,-0.507515,0.618408,-0.377117,0.705537,-0.232228,0.765552,-0.078414,0.796148,0.000000,0.796148,0.000000,0.800000,0.600000,0.800000,0.603843,0.796157,0.603843,0.796157,$1*%
%AMFreePoly1*
4,1,37,0.000000,0.796148,0.078414,0.796148,0.232228,0.765552,0.377117,0.705537,0.507515,0.618408,0.618408,0.507515,0.705537,0.377117,0.765552,0.232228,0.796148,0.078414,0.796148,-0.078414,0.765552,-0.232228,0.705537,-0.377117,0.618408,-0.507515,0.507515,-0.618408,0.377117,-0.705537,0.232228,-0.765552,0.078414,-0.796148,0.000000,-0.796148,0.000000,-0.800000,-0.600000,-0.800000,
-0.603843,-0.796157,-0.639018,-0.796157,-0.711114,-0.766294,-0.766294,-0.711114,-0.796157,-0.639018,-0.796157,-0.603843,-0.800000,-0.600000,-0.800000,0.600000,-0.796157,0.603843,-0.796157,0.639018,-0.766294,0.711114,-0.711114,0.766294,-0.639018,0.796157,-0.603843,0.796157,-0.600000,0.800000,0.000000,0.800000,0.000000,0.796148,0.000000,0.796148,$1*%
G04 Aperture macros list end*
%ADD10C,1.700000*%
%ADD11C,4.000000*%
%ADD12C,2.200000*%
%ADD13R,1.700000X1.700000*%
%ADD14C,5.700000*%
%ADD15RoundRect,0.250000X-0.450000X0.350000X-0.450000X-0.350000X0.450000X-0.350000X0.450000X0.350000X0*%
%ADD16RoundRect,0.250000X0.412500X0.650000X-0.412500X0.650000X-0.412500X-0.650000X0.412500X-0.650000X0*%
%ADD17RoundRect,0.250000X-0.350000X-0.450000X0.350000X-0.450000X0.350000X0.450000X-0.350000X0.450000X0*%
%ADD18C,3.050000*%
%ADD19R,2.000000X2.000000*%
%ADD20C,2.000000*%
%ADD21R,3.200000X2.000000*%
%ADD22RoundRect,0.250000X0.350000X0.450000X-0.350000X0.450000X-0.350000X-0.450000X0.350000X-0.450000X0*%
%ADD23RoundRect,0.102000X-0.525000X-0.325000X0.525000X-0.325000X0.525000X0.325000X-0.525000X0.325000X0*%
%ADD24RoundRect,0.250000X0.475000X-0.337500X0.475000X0.337500X-0.475000X0.337500X-0.475000X-0.337500X0*%
%ADD25RoundRect,0.250000X-0.550000X-0.550000X0.550000X-0.550000X0.550000X0.550000X-0.550000X0.550000X0*%
%ADD26C,1.600000*%
%ADD27RoundRect,0.250000X0.550000X0.550000X-0.550000X0.550000X-0.550000X-0.550000X0.550000X-0.550000X0*%
%ADD28RoundRect,0.200000X0.600000X0.600000X-0.600000X0.600000X-0.600000X-0.600000X0.600000X-0.600000X0*%
%ADD29FreePoly0,180.000000*%
%ADD30FreePoly1,180.000000*%
%ADD31RoundRect,0.250000X0.550000X-0.550000X0.550000X0.550000X-0.550000X0.550000X-0.550000X-0.550000X0*%
%ADD32RoundRect,0.250000X-0.550000X0.550000X-0.550000X-0.550000X0.550000X-0.550000X0.550000X0.550000X0*%
G04 APERTURE END LIST*
D10*
%TO.C,SW28*%
X35242500Y-90805000D03*
D11*
X40322500Y-90805000D03*
D10*
X45402500Y-90805000D03*
D12*
X42862500Y-85725000D03*
X36512500Y-88265000D03*
%TD*%
D10*
%TO.C,SW25*%
X240030000Y-71755000D03*
D11*
X245110000Y-71755000D03*
D10*
X250190000Y-71755000D03*
D12*
X247650000Y-66675000D03*
X241300000Y-69215000D03*
%TD*%
D10*
%TO.C,SW7*%
X173355000Y-43180000D03*
D11*
X178435000Y-43180000D03*
D10*
X183515000Y-43180000D03*
D12*
X180975000Y-38100000D03*
X174625000Y-40640000D03*
%TD*%
D10*
%TO.C,SW69*%
X56673750Y-147955000D03*
D11*
X61753750Y-147955000D03*
D10*
X66833750Y-147955000D03*
D12*
X64293750Y-142875000D03*
X57943750Y-145415000D03*
%TD*%
D10*
%TO.C,SW49*%
X178117500Y-109855000D03*
D11*
X183197500Y-109855000D03*
D10*
X188277500Y-109855000D03*
D12*
X185737500Y-104775000D03*
X179387500Y-107315000D03*
%TD*%
D13*
%TO.C,J4*%
X397250000Y-121775000D03*
D10*
X397250000Y-119235000D03*
%TD*%
%TO.C,SW59*%
X130492500Y-128905000D03*
D11*
X135572500Y-128905000D03*
D10*
X140652500Y-128905000D03*
D12*
X138112500Y-123825000D03*
X131762500Y-126365000D03*
%TD*%
D10*
%TO.C,SW65*%
X244792500Y-128905000D03*
D11*
X249872500Y-128905000D03*
D10*
X254952500Y-128905000D03*
D12*
X252412500Y-123825000D03*
X246062500Y-126365000D03*
%TD*%
D10*
%TO.C,SW63*%
X206692500Y-128905000D03*
D11*
X211772500Y-128905000D03*
D10*
X216852500Y-128905000D03*
D12*
X214312500Y-123825000D03*
X207962500Y-126365000D03*
%TD*%
D10*
%TO.C,SW77*%
X340042500Y-147955000D03*
D11*
X345122500Y-147955000D03*
D10*
X350202500Y-147955000D03*
D12*
X347662500Y-142875000D03*
X341312500Y-145415000D03*
%TD*%
D14*
%TO.C,REF\u002A\u002A*%
X54500000Y-42000000D03*
%TD*%
D10*
%TO.C,SW47*%
X140017500Y-109855000D03*
D11*
X145097500Y-109855000D03*
D10*
X150177500Y-109855000D03*
D12*
X147637500Y-104775000D03*
X141287500Y-107315000D03*
%TD*%
D15*
%TO.C,R9*%
X371500000Y-50750000D03*
X371500000Y-52750000D03*
%TD*%
D10*
%TO.C,SW9*%
X211455000Y-43180000D03*
D11*
X216535000Y-43180000D03*
D10*
X221615000Y-43180000D03*
D12*
X219075000Y-38100000D03*
X212725000Y-40640000D03*
%TD*%
D13*
%TO.C,J1*%
X401500000Y-41490000D03*
D10*
X401500000Y-44030000D03*
X401500000Y-46570000D03*
X401500000Y-49110000D03*
X401500000Y-51650000D03*
X401500000Y-54190000D03*
X401500000Y-56730000D03*
X401500000Y-59270000D03*
X401500000Y-61810000D03*
X401500000Y-64350000D03*
X401500000Y-66890000D03*
X401500000Y-69430000D03*
X401500000Y-71970000D03*
X401500000Y-74510000D03*
%TD*%
%TO.C,SW1*%
X30480000Y-43180000D03*
D11*
X35560000Y-43180000D03*
D10*
X40640000Y-43180000D03*
D12*
X38100000Y-38100000D03*
X31750000Y-40640000D03*
%TD*%
D15*
%TO.C,R3*%
X375750000Y-54250000D03*
X375750000Y-56250000D03*
%TD*%
D10*
%TO.C,SW67*%
X340042500Y-128905000D03*
D11*
X345122500Y-128905000D03*
D10*
X350202500Y-128905000D03*
D12*
X347662500Y-123825000D03*
X341312500Y-126365000D03*
%TD*%
D16*
%TO.C,C1*%
X321562500Y-40250000D03*
X318437500Y-40250000D03*
%TD*%
D10*
%TO.C,SW19*%
X125730000Y-71755000D03*
D11*
X130810000Y-71755000D03*
D10*
X135890000Y-71755000D03*
D12*
X133350000Y-66675000D03*
X127000000Y-69215000D03*
%TD*%
D10*
%TO.C,SW23*%
X201930000Y-71755000D03*
D11*
X207010000Y-71755000D03*
D10*
X212090000Y-71755000D03*
D12*
X209550000Y-66675000D03*
X203200000Y-69215000D03*
%TD*%
D17*
%TO.C,R4*%
X376500000Y-49250000D03*
X378500000Y-49250000D03*
%TD*%
D10*
%TO.C,SW8*%
X192405000Y-43180000D03*
D11*
X197485000Y-43180000D03*
D10*
X202565000Y-43180000D03*
D12*
X200025000Y-38100000D03*
X193675000Y-40640000D03*
%TD*%
D10*
%TO.C,SW30*%
X78105000Y-90805000D03*
D11*
X83185000Y-90805000D03*
D10*
X88265000Y-90805000D03*
D12*
X85725000Y-85725000D03*
X79375000Y-88265000D03*
%TD*%
D10*
%TO.C,SW73*%
X247173750Y-147955000D03*
D11*
X252253750Y-147955000D03*
D10*
X257333750Y-147955000D03*
D12*
X254793750Y-142875000D03*
X248443750Y-145415000D03*
%TD*%
D10*
%TO.C,SW32*%
X116205000Y-90805000D03*
D11*
X121285000Y-90805000D03*
D10*
X126365000Y-90805000D03*
D12*
X123825000Y-85725000D03*
X117475000Y-88265000D03*
%TD*%
D10*
%TO.C,SW76*%
X320992500Y-147955000D03*
D11*
X326072500Y-147955000D03*
D10*
X331152500Y-147955000D03*
D12*
X328612500Y-142875000D03*
X322262500Y-145415000D03*
%TD*%
D10*
%TO.C,SW51*%
X216217500Y-109855000D03*
D11*
X221297500Y-109855000D03*
D10*
X226377500Y-109855000D03*
D12*
X223837500Y-104775000D03*
X217487500Y-107315000D03*
%TD*%
D10*
%TO.C,SW35*%
X173355000Y-90805000D03*
D11*
X178435000Y-90805000D03*
D10*
X183515000Y-90805000D03*
D12*
X180975000Y-85725000D03*
X174625000Y-88265000D03*
%TD*%
D10*
%TO.C,SW41*%
X292417500Y-90805000D03*
D11*
X297497500Y-90805000D03*
D10*
X302577500Y-90805000D03*
D12*
X300037500Y-85725000D03*
X293687500Y-88265000D03*
%TD*%
D10*
%TO.C,SW45*%
X101917500Y-109855000D03*
D11*
X106997500Y-109855000D03*
D10*
X112077500Y-109855000D03*
D12*
X109537500Y-104775000D03*
X103187500Y-107315000D03*
%TD*%
D10*
%TO.C,SW34*%
X154305000Y-90805000D03*
D11*
X159385000Y-90805000D03*
D10*
X164465000Y-90805000D03*
D12*
X161925000Y-85725000D03*
X155575000Y-88265000D03*
%TD*%
D10*
%TO.C,SW6*%
X154305000Y-43180000D03*
D11*
X159385000Y-43180000D03*
D10*
X164465000Y-43180000D03*
D12*
X161925000Y-38100000D03*
X155575000Y-40640000D03*
%TD*%
D18*
%TO.C,SW71*%
X107003750Y-140955000D03*
D11*
X107003750Y-156195000D03*
D10*
X151923750Y-147955000D03*
D11*
X157003750Y-147955000D03*
D10*
X162083750Y-147955000D03*
D18*
X207003750Y-140955000D03*
D11*
X207003750Y-156195000D03*
D12*
X159543750Y-142875000D03*
X153193750Y-145415000D03*
%TD*%
D10*
%TO.C,SW26*%
X259080000Y-71755000D03*
D11*
X264160000Y-71755000D03*
D10*
X269240000Y-71755000D03*
D12*
X266700000Y-66675000D03*
X260350000Y-69215000D03*
%TD*%
D10*
%TO.C,SW78*%
X359092500Y-147955000D03*
D11*
X364172500Y-147955000D03*
D10*
X369252500Y-147955000D03*
D12*
X366712500Y-142875000D03*
X360362500Y-145415000D03*
%TD*%
D10*
%TO.C,SW4*%
X106680000Y-43180000D03*
D11*
X111760000Y-43180000D03*
D10*
X116840000Y-43180000D03*
D12*
X114300000Y-38100000D03*
X107950000Y-40640000D03*
%TD*%
D10*
%TO.C,SW60*%
X149542500Y-128905000D03*
D11*
X154622500Y-128905000D03*
D10*
X159702500Y-128905000D03*
D12*
X157162500Y-123825000D03*
X150812500Y-126365000D03*
%TD*%
D10*
%TO.C,SW20*%
X144780000Y-71755000D03*
D11*
X149860000Y-71755000D03*
D10*
X154940000Y-71755000D03*
D12*
X152400000Y-66675000D03*
X146050000Y-69215000D03*
%TD*%
D10*
%TO.C,SW37*%
X211455000Y-90805000D03*
D11*
X216535000Y-90805000D03*
D10*
X221615000Y-90805000D03*
D12*
X219075000Y-85725000D03*
X212725000Y-88265000D03*
%TD*%
D10*
%TO.C,SW48*%
X159067500Y-109855000D03*
D11*
X164147500Y-109855000D03*
D10*
X169227500Y-109855000D03*
D12*
X166687500Y-104775000D03*
X160337500Y-107315000D03*
%TD*%
D10*
%TO.C,SW56*%
X73342500Y-128905000D03*
D11*
X78422500Y-128905000D03*
D10*
X83502500Y-128905000D03*
D12*
X80962500Y-123825000D03*
X74612500Y-126365000D03*
%TD*%
D10*
%TO.C,SW75*%
X294798750Y-147955000D03*
D11*
X299878750Y-147955000D03*
D10*
X304958750Y-147955000D03*
D12*
X302418750Y-142875000D03*
X296068750Y-145415000D03*
%TD*%
D18*
%TO.C,SW55*%
X35566250Y-121905000D03*
D11*
X35566250Y-137145000D03*
D10*
X42386250Y-128905000D03*
D11*
X47466250Y-128905000D03*
D10*
X52546250Y-128905000D03*
D18*
X59366250Y-121905000D03*
D11*
X59366250Y-137145000D03*
D12*
X50006250Y-123825000D03*
X43656250Y-126365000D03*
%TD*%
D14*
%TO.C,*%
X144000000Y-45250000D03*
%TD*%
D10*
%TO.C,SW3*%
X87630000Y-43180000D03*
D11*
X92710000Y-43180000D03*
D10*
X97790000Y-43180000D03*
D12*
X95250000Y-38100000D03*
X88900000Y-40640000D03*
%TD*%
D10*
%TO.C,SW39*%
X249555000Y-90805000D03*
D11*
X254635000Y-90805000D03*
D10*
X259715000Y-90805000D03*
D12*
X257175000Y-85725000D03*
X250825000Y-88265000D03*
%TD*%
D10*
%TO.C,SW21*%
X163830000Y-71755000D03*
D11*
X168910000Y-71755000D03*
D10*
X173990000Y-71755000D03*
D12*
X171450000Y-66675000D03*
X165100000Y-69215000D03*
%TD*%
D18*
%TO.C,SW66*%
X273691250Y-121905000D03*
D11*
X273691250Y-137145000D03*
D10*
X280511250Y-128905000D03*
D11*
X285591250Y-128905000D03*
D10*
X290671250Y-128905000D03*
D18*
X297491250Y-121905000D03*
D11*
X297491250Y-137145000D03*
D12*
X288131250Y-123825000D03*
X281781250Y-126365000D03*
%TD*%
D10*
%TO.C,SW64*%
X225742500Y-128905000D03*
D11*
X230822500Y-128905000D03*
D10*
X235902500Y-128905000D03*
D12*
X233362500Y-123825000D03*
X227012500Y-126365000D03*
%TD*%
D19*
%TO.C,EC4*%
X353000000Y-95000000D03*
D20*
X353000000Y-100000000D03*
X353000000Y-97500000D03*
D21*
X360500000Y-91900000D03*
X360500000Y-103100000D03*
D20*
X367500000Y-100000000D03*
X367500000Y-95000000D03*
%TD*%
D10*
%TO.C,SW12*%
X278130000Y-43180000D03*
D11*
X283210000Y-43180000D03*
D10*
X288290000Y-43180000D03*
D12*
X285750000Y-38100000D03*
X279400000Y-40640000D03*
%TD*%
D10*
%TO.C,SW2*%
X68580000Y-43180000D03*
D11*
X73660000Y-43180000D03*
D10*
X78740000Y-43180000D03*
D12*
X76200000Y-38100000D03*
X69850000Y-40640000D03*
%TD*%
D10*
%TO.C,SW5*%
X125730000Y-43180000D03*
D11*
X130810000Y-43180000D03*
D10*
X135890000Y-43180000D03*
D12*
X133350000Y-38100000D03*
X127000000Y-40640000D03*
%TD*%
D10*
%TO.C,SW44*%
X82867500Y-109855000D03*
D11*
X87947500Y-109855000D03*
D10*
X93027500Y-109855000D03*
D12*
X90487500Y-104775000D03*
X84137500Y-107315000D03*
%TD*%
D10*
%TO.C,SW42*%
X37623750Y-109855000D03*
D11*
X42703750Y-109855000D03*
D10*
X47783750Y-109855000D03*
D12*
X45243750Y-104775000D03*
X38893750Y-107315000D03*
%TD*%
D22*
%TO.C,R5*%
X390750000Y-86000000D03*
X388750000Y-86000000D03*
%TD*%
D19*
%TO.C,EC3*%
X318000000Y-95000000D03*
D20*
X318000000Y-100000000D03*
X318000000Y-97500000D03*
D21*
X325500000Y-91900000D03*
X325500000Y-103100000D03*
D20*
X332500000Y-100000000D03*
X332500000Y-95000000D03*
%TD*%
D15*
%TO.C,R11*%
X372500000Y-56500000D03*
X372500000Y-58500000D03*
%TD*%
D10*
%TO.C,SW38*%
X230505000Y-90805000D03*
D11*
X235585000Y-90805000D03*
D10*
X240665000Y-90805000D03*
D12*
X238125000Y-85725000D03*
X231775000Y-88265000D03*
%TD*%
D10*
%TO.C,SW10*%
X240030000Y-43180000D03*
D11*
X245110000Y-43180000D03*
D10*
X250190000Y-43180000D03*
D12*
X247650000Y-38100000D03*
X241300000Y-40640000D03*
%TD*%
D10*
%TO.C,SW18*%
X106680000Y-71755000D03*
D11*
X111760000Y-71755000D03*
D10*
X116840000Y-71755000D03*
D12*
X114300000Y-66675000D03*
X107950000Y-69215000D03*
%TD*%
D22*
%TO.C,R10*%
X374750000Y-46500000D03*
X372750000Y-46500000D03*
%TD*%
D10*
%TO.C,SW52*%
X235267500Y-109855000D03*
D11*
X240347500Y-109855000D03*
D10*
X245427500Y-109855000D03*
D12*
X242887500Y-104775000D03*
X236537500Y-107315000D03*
%TD*%
D14*
%TO.C,*%
X401000000Y-153750000D03*
%TD*%
D10*
%TO.C,SW43*%
X63817500Y-109855000D03*
D11*
X68897500Y-109855000D03*
D10*
X73977500Y-109855000D03*
D12*
X71437500Y-104775000D03*
X65087500Y-107315000D03*
%TD*%
D10*
%TO.C,SW11*%
X259080000Y-43180000D03*
D11*
X264160000Y-43180000D03*
D10*
X269240000Y-43180000D03*
D12*
X266700000Y-38100000D03*
X260350000Y-40640000D03*
%TD*%
D10*
%TO.C,SW36*%
X192405000Y-90805000D03*
D11*
X197485000Y-90805000D03*
D10*
X202565000Y-90805000D03*
D12*
X200025000Y-85725000D03*
X193675000Y-88265000D03*
%TD*%
D10*
%TO.C,SW33*%
X135255000Y-90805000D03*
D11*
X140335000Y-90805000D03*
D10*
X145415000Y-90805000D03*
D12*
X142875000Y-85725000D03*
X136525000Y-88265000D03*
%TD*%
D10*
%TO.C,SW53*%
X254317500Y-109855000D03*
D11*
X259397500Y-109855000D03*
D10*
X264477500Y-109855000D03*
D12*
X261937500Y-104775000D03*
X255587500Y-107315000D03*
%TD*%
D10*
%TO.C,SW50*%
X197167500Y-109855000D03*
D11*
X202247500Y-109855000D03*
D10*
X207327500Y-109855000D03*
D12*
X204787500Y-104775000D03*
X198437500Y-107315000D03*
%TD*%
D19*
%TO.C,EC5*%
X388000000Y-95000000D03*
D20*
X388000000Y-100000000D03*
X388000000Y-97500000D03*
D21*
X395500000Y-91900000D03*
X395500000Y-103100000D03*
D20*
X402500000Y-100000000D03*
X402500000Y-95000000D03*
%TD*%
D23*
%TO.C,LEDDEBUG1*%
X399100000Y-85350000D03*
X399100000Y-87500000D03*
X403250000Y-85350000D03*
X403250000Y-87500000D03*
%TD*%
D10*
%TO.C,SW13*%
X297180000Y-43180000D03*
D11*
X302260000Y-43180000D03*
D10*
X307340000Y-43180000D03*
D12*
X304800000Y-38100000D03*
X298450000Y-40640000D03*
%TD*%
D10*
%TO.C,SW31*%
X97155000Y-90805000D03*
D11*
X102235000Y-90805000D03*
D10*
X107315000Y-90805000D03*
D12*
X104775000Y-85725000D03*
X98425000Y-88265000D03*
%TD*%
D14*
%TO.C,*%
X324000000Y-131750000D03*
%TD*%
D10*
%TO.C,SW40*%
X268605000Y-90805000D03*
D11*
X273685000Y-90805000D03*
D10*
X278765000Y-90805000D03*
D12*
X276225000Y-85725000D03*
X269875000Y-88265000D03*
%TD*%
D10*
%TO.C,SW68*%
X32861250Y-147955000D03*
D11*
X37941250Y-147955000D03*
D10*
X43021250Y-147955000D03*
D12*
X40481250Y-142875000D03*
X34131250Y-145415000D03*
%TD*%
D10*
%TO.C,SW24*%
X220980000Y-71755000D03*
D11*
X226060000Y-71755000D03*
D10*
X231140000Y-71755000D03*
D12*
X228600000Y-66675000D03*
X222250000Y-69215000D03*
%TD*%
D18*
%TO.C,SW54*%
X278453750Y-102855000D03*
D11*
X278453750Y-118095000D03*
D10*
X285273750Y-109855000D03*
D11*
X290353750Y-109855000D03*
D10*
X295433750Y-109855000D03*
D18*
X302253750Y-102855000D03*
D11*
X302253750Y-118095000D03*
D12*
X292893750Y-104775000D03*
X286543750Y-107315000D03*
%TD*%
D10*
%TO.C,SW29*%
X59055000Y-90805000D03*
D11*
X64135000Y-90805000D03*
D10*
X69215000Y-90805000D03*
D12*
X66675000Y-85725000D03*
X60325000Y-88265000D03*
%TD*%
D17*
%TO.C,R7*%
X370750000Y-43500000D03*
X372750000Y-43500000D03*
%TD*%
D13*
%TO.C,J3*%
X388500000Y-126850000D03*
D10*
X388500000Y-124310000D03*
X388500000Y-121770000D03*
X388500000Y-119230000D03*
X388500000Y-116690000D03*
X388500000Y-114150000D03*
%TD*%
%TO.C,SW15*%
X49530000Y-71755000D03*
D11*
X54610000Y-71755000D03*
D10*
X59690000Y-71755000D03*
D12*
X57150000Y-66675000D03*
X50800000Y-69215000D03*
%TD*%
D18*
%TO.C,SW27*%
X280835000Y-64755000D03*
D11*
X280835000Y-79995000D03*
D10*
X287655000Y-71755000D03*
D11*
X292735000Y-71755000D03*
D10*
X297815000Y-71755000D03*
D18*
X304635000Y-64755000D03*
D11*
X304635000Y-79995000D03*
D12*
X295275000Y-66675000D03*
X288925000Y-69215000D03*
%TD*%
D10*
%TO.C,SW61*%
X168592500Y-128905000D03*
D11*
X173672500Y-128905000D03*
D10*
X178752500Y-128905000D03*
D12*
X176212500Y-123825000D03*
X169862500Y-126365000D03*
%TD*%
D10*
%TO.C,SW72*%
X223361250Y-147955000D03*
D11*
X228441250Y-147955000D03*
D10*
X233521250Y-147955000D03*
D12*
X230981250Y-142875000D03*
X224631250Y-145415000D03*
%TD*%
D10*
%TO.C,SW57*%
X92392500Y-128905000D03*
D11*
X97472500Y-128905000D03*
D10*
X102552500Y-128905000D03*
D12*
X100012500Y-123825000D03*
X93662500Y-126365000D03*
%TD*%
D10*
%TO.C,SW58*%
X111442500Y-128905000D03*
D11*
X116522500Y-128905000D03*
D10*
X121602500Y-128905000D03*
D12*
X119062500Y-123825000D03*
X112712500Y-126365000D03*
%TD*%
D10*
%TO.C,SW46*%
X120967500Y-109855000D03*
D11*
X126047500Y-109855000D03*
D10*
X131127500Y-109855000D03*
D12*
X128587500Y-104775000D03*
X122237500Y-107315000D03*
%TD*%
D24*
%TO.C,C12*%
X363000000Y-48537500D03*
X363000000Y-46462500D03*
%TD*%
D14*
%TO.C,*%
X394750000Y-38750000D03*
%TD*%
D10*
%TO.C,SW22*%
X182880000Y-71755000D03*
D11*
X187960000Y-71755000D03*
D10*
X193040000Y-71755000D03*
D12*
X190500000Y-66675000D03*
X184150000Y-69215000D03*
%TD*%
D10*
%TO.C,SW16*%
X68580000Y-71755000D03*
D11*
X73660000Y-71755000D03*
D10*
X78740000Y-71755000D03*
D12*
X76200000Y-66675000D03*
X69850000Y-69215000D03*
%TD*%
D10*
%TO.C,SW62*%
X187642500Y-128905000D03*
D11*
X192722500Y-128905000D03*
D10*
X197802500Y-128905000D03*
D12*
X195262500Y-123825000D03*
X188912500Y-126365000D03*
%TD*%
D10*
%TO.C,SW17*%
X87630000Y-71755000D03*
D11*
X92710000Y-71755000D03*
D10*
X97790000Y-71755000D03*
D12*
X95250000Y-66675000D03*
X88900000Y-69215000D03*
%TD*%
D14*
%TO.C,*%
X231250000Y-46500000D03*
%TD*%
D10*
%TO.C,SW74*%
X270986250Y-147955000D03*
D11*
X276066250Y-147955000D03*
D10*
X281146250Y-147955000D03*
D12*
X278606250Y-142875000D03*
X272256250Y-145415000D03*
%TD*%
D10*
%TO.C,SW70*%
X80486250Y-147955000D03*
D11*
X85566250Y-147955000D03*
D10*
X90646250Y-147955000D03*
D12*
X88106250Y-142875000D03*
X81756250Y-145415000D03*
%TD*%
D13*
%TO.C,J5*%
X315000000Y-37500000D03*
D10*
X315000000Y-40040000D03*
%TD*%
%TO.C,SW14*%
X30480000Y-71755000D03*
D11*
X35560000Y-71755000D03*
D10*
X40640000Y-71755000D03*
D12*
X38100000Y-66675000D03*
X31750000Y-69215000D03*
%TD*%
D25*
%TO.C,D79*%
X360362500Y-157480000D03*
D26*
X367982500Y-157480000D03*
%TD*%
D25*
%TO.C,D75*%
X291440000Y-81250000D03*
D26*
X299060000Y-81250000D03*
%TD*%
D25*
%TO.C,D25*%
X247015000Y-81280000D03*
D26*
X254635000Y-81280000D03*
%TD*%
D25*
%TO.C,D57*%
X131762500Y-138430000D03*
D26*
X139382500Y-138430000D03*
%TD*%
D25*
%TO.C,D46*%
X166190000Y-119250000D03*
D26*
X173810000Y-119250000D03*
%TD*%
D25*
%TO.C,D60*%
X194440000Y-138250000D03*
D26*
X202060000Y-138250000D03*
%TD*%
D25*
%TO.C,D51*%
X255440000Y-119500000D03*
D26*
X263060000Y-119500000D03*
%TD*%
D25*
%TO.C,D58*%
X151380000Y-138500000D03*
D26*
X159000000Y-138500000D03*
%TD*%
D25*
%TO.C,D19*%
X132715000Y-81280000D03*
D26*
X140335000Y-81280000D03*
%TD*%
D25*
%TO.C,D55*%
X94690000Y-138500000D03*
D26*
X102310000Y-138500000D03*
%TD*%
D25*
%TO.C,D10*%
X241380000Y-52750000D03*
D26*
X249000000Y-52750000D03*
%TD*%
D27*
%TO.C,D157*%
X360310000Y-50000000D03*
D26*
X352690000Y-50000000D03*
%TD*%
D25*
%TO.C,D13*%
X298450000Y-52705000D03*
D26*
X306070000Y-52705000D03*
%TD*%
D25*
%TO.C,D43*%
X108902500Y-119380000D03*
D26*
X116522500Y-119380000D03*
%TD*%
D27*
%TO.C,D66*%
X41370000Y-157500000D03*
D26*
X33750000Y-157500000D03*
%TD*%
D25*
%TO.C,D44*%
X127940000Y-119250000D03*
D26*
X135560000Y-119250000D03*
%TD*%
D25*
%TO.C,D17*%
X88900000Y-81280000D03*
D26*
X96520000Y-81280000D03*
%TD*%
D25*
%TO.C,D48*%
X203940000Y-119500000D03*
D26*
X211560000Y-119500000D03*
%TD*%
D27*
%TO.C,D67*%
X65500000Y-157500000D03*
D26*
X57880000Y-157500000D03*
%TD*%
D28*
%TO.C,A2*%
X385000000Y-33000000D03*
D26*
X385000000Y-35540000D03*
D29*
X385000000Y-38080000D03*
D26*
X385000000Y-40620000D03*
X385000000Y-43160000D03*
X385000000Y-45700000D03*
X385000000Y-48240000D03*
D29*
X385000000Y-50780000D03*
D26*
X385000000Y-53320000D03*
X385000000Y-55860000D03*
X385000000Y-58400000D03*
X385000000Y-60940000D03*
D29*
X385000000Y-63480000D03*
D26*
X385000000Y-66020000D03*
X385000000Y-68560000D03*
X385000000Y-71100000D03*
X385000000Y-73640000D03*
D29*
X385000000Y-76180000D03*
D26*
X385000000Y-78720000D03*
X385000000Y-81260000D03*
X367220000Y-81260000D03*
X367220000Y-78720000D03*
D30*
X367220000Y-76180000D03*
D26*
X367220000Y-73640000D03*
X367220000Y-71100000D03*
X367220000Y-68560000D03*
X367220000Y-66020000D03*
D30*
X367220000Y-63480000D03*
D26*
X367220000Y-60940000D03*
X367220000Y-58400000D03*
X367220000Y-55860000D03*
X367220000Y-53320000D03*
D30*
X367220000Y-50780000D03*
D26*
X367220000Y-48240000D03*
X367220000Y-45700000D03*
X367220000Y-43160000D03*
X367220000Y-40620000D03*
D30*
X367220000Y-38080000D03*
D26*
X367220000Y-35540000D03*
X367220000Y-33000000D03*
%TD*%
D25*
%TO.C,D74*%
X293190000Y-99750000D03*
D26*
X300810000Y-99750000D03*
%TD*%
D25*
%TO.C,D29*%
X84137500Y-100330000D03*
D26*
X91757500Y-100330000D03*
%TD*%
D25*
%TO.C,D53*%
X44130000Y-138500000D03*
D26*
X51750000Y-138500000D03*
%TD*%
D25*
%TO.C,D61*%
X211296250Y-138430000D03*
D26*
X218916250Y-138430000D03*
%TD*%
D25*
%TO.C,D14*%
X36512500Y-81280000D03*
D26*
X44132500Y-81280000D03*
%TD*%
D25*
%TO.C,D70*%
X224631250Y-157480000D03*
D26*
X232251250Y-157480000D03*
%TD*%
D25*
%TO.C,D24*%
X227940000Y-81500000D03*
D26*
X235560000Y-81500000D03*
%TD*%
D25*
%TO.C,D56*%
X118427500Y-138430000D03*
D26*
X126047500Y-138430000D03*
%TD*%
D25*
%TO.C,D9*%
X208940000Y-52750000D03*
D26*
X216560000Y-52750000D03*
%TD*%
D25*
%TO.C,D7*%
X174625000Y-52705000D03*
D26*
X182245000Y-52705000D03*
%TD*%
D31*
%TO.C,D39*%
X283250000Y-95560000D03*
D26*
X283250000Y-87940000D03*
%TD*%
D25*
%TO.C,D50*%
X236380000Y-119250000D03*
D26*
X244000000Y-119250000D03*
%TD*%
D25*
%TO.C,D62*%
X227012500Y-138430000D03*
D26*
X234632500Y-138430000D03*
%TD*%
D25*
%TO.C,D52*%
X286543750Y-119380000D03*
D26*
X294163750Y-119380000D03*
%TD*%
D25*
%TO.C,D45*%
X146940000Y-119250000D03*
D26*
X154560000Y-119250000D03*
%TD*%
D25*
%TO.C,D36*%
X218190000Y-100250000D03*
D26*
X225810000Y-100250000D03*
%TD*%
D25*
%TO.C,D22*%
X189940000Y-81250000D03*
D26*
X197560000Y-81250000D03*
%TD*%
D25*
%TO.C,D1*%
X34380000Y-52750000D03*
D26*
X42000000Y-52750000D03*
%TD*%
D25*
%TO.C,D32*%
X142190000Y-100250000D03*
D26*
X149810000Y-100250000D03*
%TD*%
D25*
%TO.C,D12*%
X278940000Y-52750000D03*
D26*
X286560000Y-52750000D03*
%TD*%
D25*
%TO.C,D72*%
X271940000Y-157500000D03*
D26*
X279560000Y-157500000D03*
%TD*%
D25*
%TO.C,D54*%
X75130000Y-138500000D03*
D26*
X82750000Y-138500000D03*
%TD*%
D25*
%TO.C,D160*%
X391750000Y-108500000D03*
D26*
X399370000Y-108500000D03*
%TD*%
D25*
%TO.C,D40*%
X43656250Y-119380000D03*
D26*
X51276250Y-119380000D03*
%TD*%
D25*
%TO.C,D77*%
X322262500Y-157480000D03*
D26*
X329882500Y-157480000D03*
%TD*%
D25*
%TO.C,D34*%
X177690000Y-100250000D03*
D26*
X185310000Y-100250000D03*
%TD*%
D25*
%TO.C,D37*%
X237440000Y-100250000D03*
D26*
X245060000Y-100250000D03*
%TD*%
D25*
%TO.C,D21*%
X170940000Y-81250000D03*
D26*
X178560000Y-81250000D03*
%TD*%
D25*
%TO.C,D27*%
X39690000Y-100250000D03*
D26*
X47310000Y-100250000D03*
%TD*%
D25*
%TO.C,D71*%
X248443750Y-157480000D03*
D26*
X256063750Y-157480000D03*
%TD*%
D25*
%TO.C,D65*%
X337502500Y-138430000D03*
D26*
X345122500Y-138430000D03*
%TD*%
D25*
%TO.C,D64*%
X278440000Y-138250000D03*
D26*
X286060000Y-138250000D03*
%TD*%
D25*
%TO.C,D59*%
X169862500Y-138430000D03*
D26*
X177482500Y-138430000D03*
%TD*%
D25*
%TO.C,D20*%
X151940000Y-81250000D03*
D26*
X159560000Y-81250000D03*
%TD*%
D25*
%TO.C,D42*%
X89852500Y-119380000D03*
D26*
X97472500Y-119380000D03*
%TD*%
D25*
%TO.C,D16*%
X75440000Y-81500000D03*
D26*
X83060000Y-81500000D03*
%TD*%
D25*
%TO.C,D3*%
X89690000Y-52750000D03*
D26*
X97310000Y-52750000D03*
%TD*%
D25*
%TO.C,D33*%
X161290000Y-100330000D03*
D26*
X168910000Y-100330000D03*
%TD*%
D25*
%TO.C,D2*%
X71190000Y-52750000D03*
D26*
X78810000Y-52750000D03*
%TD*%
D25*
%TO.C,D11*%
X260350000Y-52705000D03*
D26*
X267970000Y-52705000D03*
%TD*%
D25*
%TO.C,D41*%
X70940000Y-119250000D03*
D26*
X78560000Y-119250000D03*
%TD*%
D25*
%TO.C,D158*%
X321690000Y-109000000D03*
D26*
X329310000Y-109000000D03*
%TD*%
D25*
%TO.C,D6*%
X155575000Y-52705000D03*
D26*
X163195000Y-52705000D03*
%TD*%
D27*
%TO.C,D68*%
X89376250Y-157480000D03*
D26*
X81756250Y-157480000D03*
%TD*%
D25*
%TO.C,D18*%
X113690000Y-81250000D03*
D26*
X121310000Y-81250000D03*
%TD*%
D32*
%TO.C,D161*%
X359750000Y-58500000D03*
D26*
X359750000Y-66120000D03*
%TD*%
D25*
%TO.C,D31*%
X119750000Y-100250000D03*
D26*
X127370000Y-100250000D03*
%TD*%
D27*
%TO.C,D69*%
X160813750Y-157480000D03*
D26*
X153193750Y-157480000D03*
%TD*%
D25*
%TO.C,D35*%
X198437500Y-100330000D03*
D26*
X206057500Y-100330000D03*
%TD*%
D25*
%TO.C,D38*%
X253206250Y-100330000D03*
D26*
X260826250Y-100330000D03*
%TD*%
D25*
%TO.C,D63*%
X246062500Y-138430000D03*
D26*
X253682500Y-138430000D03*
%TD*%
D25*
%TO.C,D26*%
X266065000Y-81280000D03*
D26*
X273685000Y-81280000D03*
%TD*%
D25*
%TO.C,D30*%
X103187500Y-100330000D03*
D26*
X110807500Y-100330000D03*
%TD*%
D25*
%TO.C,D73*%
X295630000Y-157500000D03*
D26*
X303250000Y-157500000D03*
%TD*%
D25*
%TO.C,D49*%
X217487500Y-119380000D03*
D26*
X225107500Y-119380000D03*
%TD*%
D25*
%TO.C,D15*%
X56440000Y-81250000D03*
D26*
X64060000Y-81250000D03*
%TD*%
D25*
%TO.C,D47*%
X185690000Y-119250000D03*
D26*
X193310000Y-119250000D03*
%TD*%
D25*
%TO.C,D8*%
X193675000Y-52705000D03*
D26*
X201295000Y-52705000D03*
%TD*%
D25*
%TO.C,D159*%
X356690000Y-108750000D03*
D26*
X364310000Y-108750000D03*
%TD*%
D25*
%TO.C,D78*%
X341312500Y-157480000D03*
D26*
X348932500Y-157480000D03*
%TD*%
D25*
%TO.C,D5*%
X127000000Y-52705000D03*
D26*
X134620000Y-52705000D03*
%TD*%
D28*
%TO.C,A1*%
X348250000Y-33000000D03*
D26*
X348250000Y-35540000D03*
D29*
X348250000Y-38080000D03*
D26*
X348250000Y-40620000D03*
X348250000Y-43160000D03*
X348250000Y-45700000D03*
X348250000Y-48240000D03*
D29*
X348250000Y-50780000D03*
D26*
X348250000Y-53320000D03*
X348250000Y-55860000D03*
X348250000Y-58400000D03*
X348250000Y-60940000D03*
D29*
X348250000Y-63480000D03*
D26*
X348250000Y-66020000D03*
X348250000Y-68560000D03*
X348250000Y-71100000D03*
X348250000Y-73640000D03*
D29*
X348250000Y-76180000D03*
D26*
X348250000Y-78720000D03*
X348250000Y-81260000D03*
X330470000Y-81260000D03*
X330470000Y-78720000D03*
D30*
X330470000Y-76180000D03*
D26*
X330470000Y-73640000D03*
X330470000Y-71100000D03*
X330470000Y-68560000D03*
X330470000Y-66020000D03*
D30*
X330470000Y-63480000D03*
D26*
X330470000Y-60940000D03*
X330470000Y-58400000D03*
X330470000Y-55860000D03*
X330470000Y-53320000D03*
D30*
X330470000Y-50780000D03*
D26*
X330470000Y-48240000D03*
X330470000Y-45700000D03*
X330470000Y-43160000D03*
X330470000Y-40620000D03*
D30*
X330470000Y-38080000D03*
D26*
X330470000Y-35540000D03*
X330470000Y-33000000D03*
%TD*%
D25*
%TO.C,D28*%
X66040000Y-100330000D03*
D26*
X73660000Y-100330000D03*
%TD*%
D25*
%TO.C,D4*%
X107950000Y-52705000D03*
D26*
X115570000Y-52705000D03*
%TD*%
D25*
%TO.C,D23*%
X208915000Y-81280000D03*
D26*
X216535000Y-81280000D03*
%TD*%
M02*
