%TF.GenerationSoftware,KiCad,Pcbnew,10.0.0*%
%TF.CreationDate,2026-08-08T12:03:53-05:00*%
%TF.ProjectId,keyboard,6b657962-6f61-4726-942e-6b696361645f,rev?*%
%TF.SameCoordinates,Original*%
%TF.FileFunction,Copper,L4,Bot*%
%TF.FilePolarity,Positive*%
%FSLAX46Y46*%
G04 Gerber Fmt 4.6, Leading zero omitted, Abs format (unit mm)*
G04 Created by KiCad (PCBNEW 10.0.0) date 2026-08-08 12:03:53*
%MOMM*%
%LPD*%
G01*
G04 APERTURE LIST*
G04 Aperture macros list*
%AMRoundRect*
0 Rectangle with rounded corners*
0 $1 Rounding radius*
0 $2 $3 $4 $5 $6 $7 $8 $9 X,Y pos of 4 corners*
0 Add a 4 corners polygon primitive as box body*
4,1,4,$2,$3,$4,$5,$6,$7,$8,$9,$2,$3,0*
0 Add four circle primitives for the rounded corners*
1,1,$1+$1,$2,$3*
1,1,$1+$1,$4,$5*
1,1,$1+$1,$6,$7*
1,1,$1+$1,$8,$9*
0 Add four rect primitives between the rounded corners*
20,1,$1+$1,$2,$3,$4,$5,0*
20,1,$1+$1,$4,$5,$6,$7,0*
20,1,$1+$1,$6,$7,$8,$9,0*
20,1,$1+$1,$8,$9,$2,$3,0*%
%AMFreePoly0*
4,1,37,0.603843,0.796157,0.639018,0.796157,0.711114,0.766294,0.766294,0.711114,0.796157,0.639018,0.796157,0.603843,0.800000,0.600000,0.800000,-0.600000,0.796157,-0.603843,0.796157,-0.639018,0.766294,-0.711114,0.711114,-0.766294,0.639018,-0.796157,0.603843,-0.796157,0.600000,-0.800000,0.000000,-0.800000,0.000000,-0.796148,-0.078414,-0.796148,-0.232228,-0.765552,-0.377117,-0.705537,
-0.507515,-0.618408,-0.618408,-0.507515,-0.705537,-0.377117,-0.765552,-0.232228,-0.796148,-0.078414,-0.796148,0.078414,-0.765552,0.232228,-0.705537,0.377117,-0.618408,0.507515,-0.507515,0.618408,-0.377117,0.705537,-0.232228,0.765552,-0.078414,0.796148,0.000000,0.796148,0.000000,0.800000,0.600000,0.800000,0.603843,0.796157,0.603843,0.796157,$1*%
%AMFreePoly1*
4,1,37,0.000000,0.796148,0.078414,0.796148,0.232228,0.765552,0.377117,0.705537,0.507515,0.618408,0.618408,0.507515,0.705537,0.377117,0.765552,0.232228,0.796148,0.078414,0.796148,-0.078414,0.765552,-0.232228,0.705537,-0.377117,0.618408,-0.507515,0.507515,-0.618408,0.377117,-0.705537,0.232228,-0.765552,0.078414,-0.796148,0.000000,-0.796148,0.000000,-0.800000,-0.600000,-0.800000,
-0.603843,-0.796157,-0.639018,-0.796157,-0.711114,-0.766294,-0.766294,-0.711114,-0.796157,-0.639018,-0.796157,-0.603843,-0.800000,-0.600000,-0.800000,0.600000,-0.796157,0.603843,-0.796157,0.639018,-0.766294,0.711114,-0.711114,0.766294,-0.639018,0.796157,-0.603843,0.796157,-0.600000,0.800000,0.000000,0.800000,0.000000,0.796148,0.000000,0.796148,$1*%
G04 Aperture macros list end*
%TA.AperFunction,ComponentPad*%
%ADD10C,2.200000*%
%TD*%
%TA.AperFunction,ComponentPad*%
%ADD11R,1.700000X1.700000*%
%TD*%
%TA.AperFunction,ComponentPad*%
%ADD12C,1.700000*%
%TD*%
%TA.AperFunction,ComponentPad*%
%ADD13C,5.700000*%
%TD*%
%TA.AperFunction,ComponentPad*%
%ADD14R,2.000000X2.000000*%
%TD*%
%TA.AperFunction,ComponentPad*%
%ADD15C,2.000000*%
%TD*%
%TA.AperFunction,ComponentPad*%
%ADD16R,3.200000X2.000000*%
%TD*%
%TA.AperFunction,SMDPad,CuDef*%
%ADD17RoundRect,0.205000X0.470000X0.205000X-0.470000X0.205000X-0.470000X-0.205000X0.470000X-0.205000X0*%
%TD*%
%TA.AperFunction,ComponentPad*%
%ADD18RoundRect,0.250000X-0.550000X-0.550000X0.550000X-0.550000X0.550000X0.550000X-0.550000X0.550000X0*%
%TD*%
%TA.AperFunction,ComponentPad*%
%ADD19C,1.600000*%
%TD*%
%TA.AperFunction,SMDPad,CuDef*%
%ADD20RoundRect,0.250000X0.337500X0.475000X-0.337500X0.475000X-0.337500X-0.475000X0.337500X-0.475000X0*%
%TD*%
%TA.AperFunction,SMDPad,CuDef*%
%ADD21RoundRect,0.250000X0.450000X-0.350000X0.450000X0.350000X-0.450000X0.350000X-0.450000X-0.350000X0*%
%TD*%
%TA.AperFunction,ComponentPad*%
%ADD22RoundRect,0.250000X0.550000X0.550000X-0.550000X0.550000X-0.550000X-0.550000X0.550000X-0.550000X0*%
%TD*%
%TA.AperFunction,SMDPad,CuDef*%
%ADD23RoundRect,0.250000X-0.475000X0.337500X-0.475000X-0.337500X0.475000X-0.337500X0.475000X0.337500X0*%
%TD*%
%TA.AperFunction,ComponentPad*%
%ADD24RoundRect,0.200000X0.600000X0.600000X-0.600000X0.600000X-0.600000X-0.600000X0.600000X-0.600000X0*%
%TD*%
%TA.AperFunction,ComponentPad*%
%ADD25FreePoly0,180.000000*%
%TD*%
%TA.AperFunction,ComponentPad*%
%ADD26FreePoly1,180.000000*%
%TD*%
%TA.AperFunction,SMDPad,CuDef*%
%ADD27RoundRect,0.250000X-0.650000X0.412500X-0.650000X-0.412500X0.650000X-0.412500X0.650000X0.412500X0*%
%TD*%
%TA.AperFunction,ComponentPad*%
%ADD28RoundRect,0.250000X0.550000X-0.550000X0.550000X0.550000X-0.550000X0.550000X-0.550000X-0.550000X0*%
%TD*%
%TA.AperFunction,SMDPad,CuDef*%
%ADD29RoundRect,0.250000X-0.350000X-0.450000X0.350000X-0.450000X0.350000X0.450000X-0.350000X0.450000X0*%
%TD*%
%TA.AperFunction,SMDPad,CuDef*%
%ADD30RoundRect,0.250000X0.350000X0.450000X-0.350000X0.450000X-0.350000X-0.450000X0.350000X-0.450000X0*%
%TD*%
%TA.AperFunction,SMDPad,CuDef*%
%ADD31RoundRect,0.250000X0.475000X-0.337500X0.475000X0.337500X-0.475000X0.337500X-0.475000X-0.337500X0*%
%TD*%
%TA.AperFunction,SMDPad,CuDef*%
%ADD32R,1.050000X0.650000*%
%TD*%
%TA.AperFunction,ComponentPad*%
%ADD33RoundRect,0.250000X-0.550000X0.550000X-0.550000X-0.550000X0.550000X-0.550000X0.550000X0.550000X0*%
%TD*%
%TA.AperFunction,SMDPad,CuDef*%
%ADD34RoundRect,0.250000X-0.450000X0.350000X-0.450000X-0.350000X0.450000X-0.350000X0.450000X0.350000X0*%
%TD*%
%TA.AperFunction,ViaPad*%
%ADD35C,0.600000*%
%TD*%
%TA.AperFunction,ViaPad*%
%ADD36C,1.000000*%
%TD*%
%TA.AperFunction,Conductor*%
%ADD37C,0.200000*%
%TD*%
%TA.AperFunction,Conductor*%
%ADD38C,1.500000*%
%TD*%
%TA.AperFunction,Conductor*%
%ADD39C,0.400000*%
%TD*%
G04 APERTURE END LIST*
D10*
%TO.P,SW28,1,1_1*%
%TO.N,Net-(D27-A)*%
X42862500Y-85725000D03*
%TO.P,SW28,2,2_2*%
%TO.N,COL0*%
X36512500Y-88265000D03*
%TD*%
%TO.P,SW25,1,1_1*%
%TO.N,Net-(D25-A)*%
X247650000Y-66675000D03*
%TO.P,SW25,2,2_2*%
%TO.N,COL11*%
X241300000Y-69215000D03*
%TD*%
%TO.P,SW7,1,1_1*%
%TO.N,Net-(D7-A)*%
X180975000Y-38100000D03*
%TO.P,SW7,2,2_2*%
%TO.N,COL6*%
X174625000Y-40640000D03*
%TD*%
%TO.P,SW69,1,1_1*%
%TO.N,Net-(D67-A)*%
X64293750Y-142875000D03*
%TO.P,SW69,2,2_2*%
%TO.N,COL1*%
X57943750Y-145415000D03*
%TD*%
%TO.P,SW49,1,1_1*%
%TO.N,Net-(D47-A)*%
X185737500Y-104775000D03*
%TO.P,SW49,2,2_2*%
%TO.N,COL7*%
X179387500Y-107315000D03*
%TD*%
D11*
%TO.P,J4,1,Pin_1_1*%
%TO.N,GND*%
X397250000Y-121775000D03*
D12*
%TO.P,J4,2,Pin_2_2*%
%TO.N,V+*%
X397250000Y-119235000D03*
%TD*%
D10*
%TO.P,SW59,1,1_1*%
%TO.N,Net-(D57-A)*%
X138112500Y-123825000D03*
%TO.P,SW59,2,2_2*%
%TO.N,COL4*%
X131762500Y-126365000D03*
%TD*%
%TO.P,SW65,1,1_1*%
%TO.N,Net-(D63-A)*%
X252412500Y-123825000D03*
%TO.P,SW65,2,2_2*%
%TO.N,COL10*%
X246062500Y-126365000D03*
%TD*%
%TO.P,SW63,1,1_1*%
%TO.N,Net-(D61-A)*%
X214312500Y-123825000D03*
%TO.P,SW63,2,2_2*%
%TO.N,COL8*%
X207962500Y-126365000D03*
%TD*%
%TO.P,SW77,1,1_1*%
%TO.N,Net-(D78-A)*%
X347662500Y-142875000D03*
%TO.P,SW77,2,2_2*%
%TO.N,COL12*%
X341312500Y-145415000D03*
%TD*%
D13*
%TO.P,REF\u002A\u002A,1*%
%TO.N,N/C*%
X54500000Y-42000000D03*
%TD*%
D10*
%TO.P,SW47,1,1_1*%
%TO.N,Net-(D45-A)*%
X147637500Y-104775000D03*
%TO.P,SW47,2,2_2*%
%TO.N,COL5*%
X141287500Y-107315000D03*
%TD*%
%TO.P,SW9,1,1_1*%
%TO.N,Net-(D9-A)*%
X219075000Y-38100000D03*
%TO.P,SW9,2,2_2*%
%TO.N,COL8*%
X212725000Y-40640000D03*
%TD*%
D11*
%TO.P,J1,1,Pin_1_1*%
%TO.N,T_INT*%
X401500000Y-41490000D03*
D12*
%TO.P,J1,2,Pin_2_2*%
%TO.N,T_MISO*%
X401500000Y-44030000D03*
%TO.P,J1,3,Pin_3_3*%
%TO.N,T_MOSI*%
X401500000Y-46570000D03*
%TO.P,J1,4,Pin_4_4*%
%TO.N,T_CS*%
X401500000Y-49110000D03*
%TO.P,J1,5,Pin_5_5*%
%TO.N,T_CLK*%
X401500000Y-51650000D03*
%TO.P,J1,6,Pin_6_6*%
%TO.N,MISO*%
X401500000Y-54190000D03*
%TO.P,J1,7,Pin_7_7*%
%TO.N,SLAVEPWR*%
X401500000Y-56730000D03*
%TO.P,J1,8,Pin_8_8*%
%TO.N,CLK*%
X401500000Y-59270000D03*
%TO.P,J1,9,Pin_9_9*%
%TO.N,MOSI*%
X401500000Y-61810000D03*
%TO.P,J1,10,Pin_10_10*%
%TO.N,DC*%
X401500000Y-64350000D03*
%TO.P,J1,11,Pin_11_11*%
%TO.N,Net-(J1-Pin_11)*%
X401500000Y-66890000D03*
%TO.P,J1,12,Pin_12_12*%
%TO.N,CS*%
X401500000Y-69430000D03*
%TO.P,J1,13,Pin_13_13*%
%TO.N,GND*%
X401500000Y-71970000D03*
%TO.P,J1,14,Pin_14_14*%
%TO.N,SLAVEPWR*%
X401500000Y-74510000D03*
%TD*%
D10*
%TO.P,SW1,1,1_1*%
%TO.N,Net-(D1-A)*%
X38100000Y-38100000D03*
%TO.P,SW1,2,2_2*%
%TO.N,COL0*%
X31750000Y-40640000D03*
%TD*%
%TO.P,SW67,1,1_1*%
%TO.N,Net-(D65-A)*%
X347662500Y-123825000D03*
%TO.P,SW67,2,2_2*%
%TO.N,COL12*%
X341312500Y-126365000D03*
%TD*%
%TO.P,SW19,1,1_1*%
%TO.N,Net-(D19-A)*%
X133350000Y-66675000D03*
%TO.P,SW19,2,2_2*%
%TO.N,COL5*%
X127000000Y-69215000D03*
%TD*%
%TO.P,SW23,1,1_1*%
%TO.N,Net-(D23-A)*%
X209550000Y-66675000D03*
%TO.P,SW23,2,2_2*%
%TO.N,COL9*%
X203200000Y-69215000D03*
%TD*%
%TO.P,SW8,1,1_1*%
%TO.N,Net-(D8-A)*%
X200025000Y-38100000D03*
%TO.P,SW8,2,2_2*%
%TO.N,COL7*%
X193675000Y-40640000D03*
%TD*%
%TO.P,SW30,1,1_1*%
%TO.N,Net-(D29-A)*%
X85725000Y-85725000D03*
%TO.P,SW30,2,2_2*%
%TO.N,COL2*%
X79375000Y-88265000D03*
%TD*%
%TO.P,SW73,1,1_1*%
%TO.N,Net-(D71-A)*%
X254793750Y-142875000D03*
%TO.P,SW73,2,2_2*%
%TO.N,COL8*%
X248443750Y-145415000D03*
%TD*%
%TO.P,SW32,1,1_1*%
%TO.N,Net-(D31-A)*%
X123825000Y-85725000D03*
%TO.P,SW32,2,2_2*%
%TO.N,COL4*%
X117475000Y-88265000D03*
%TD*%
%TO.P,SW76,1,1_1*%
%TO.N,Net-(D77-A)*%
X328612500Y-142875000D03*
%TO.P,SW76,2,2_2*%
%TO.N,COL11*%
X322262500Y-145415000D03*
%TD*%
%TO.P,SW51,1,1_1*%
%TO.N,Net-(D49-A)*%
X223837500Y-104775000D03*
%TO.P,SW51,2,2_2*%
%TO.N,COL9*%
X217487500Y-107315000D03*
%TD*%
%TO.P,SW35,1,1_1*%
%TO.N,Net-(D34-A)*%
X180975000Y-85725000D03*
%TO.P,SW35,2,2_2*%
%TO.N,COL7*%
X174625000Y-88265000D03*
%TD*%
%TO.P,SW41,1,1_1*%
%TO.N,Net-(D74-A)*%
X300037500Y-85725000D03*
%TO.P,SW41,2,2_2*%
%TO.N,COL13*%
X293687500Y-88265000D03*
%TD*%
%TO.P,SW45,1,1_1*%
%TO.N,Net-(D43-A)*%
X109537500Y-104775000D03*
%TO.P,SW45,2,2_2*%
%TO.N,COL3*%
X103187500Y-107315000D03*
%TD*%
%TO.P,SW34,1,1_1*%
%TO.N,Net-(D33-A)*%
X161925000Y-85725000D03*
%TO.P,SW34,2,2_2*%
%TO.N,COL6*%
X155575000Y-88265000D03*
%TD*%
%TO.P,SW6,1,1_1*%
%TO.N,Net-(D6-A)*%
X161925000Y-38100000D03*
%TO.P,SW6,2,2_2*%
%TO.N,COL5*%
X155575000Y-40640000D03*
%TD*%
%TO.P,SW71,1,1_1*%
%TO.N,Net-(D69-A)*%
X159543750Y-142875000D03*
%TO.P,SW71,2,2_2*%
%TO.N,COL3*%
X153193750Y-145415000D03*
%TD*%
%TO.P,SW26,1,1_1*%
%TO.N,Net-(D26-A)*%
X266700000Y-66675000D03*
%TO.P,SW26,2,2_2*%
%TO.N,COL12*%
X260350000Y-69215000D03*
%TD*%
%TO.P,SW78,1,1_1*%
%TO.N,Net-(D79-A)*%
X366712500Y-142875000D03*
%TO.P,SW78,2,2_2*%
%TO.N,COL13*%
X360362500Y-145415000D03*
%TD*%
%TO.P,SW4,1,1_1*%
%TO.N,Net-(D4-A)*%
X114300000Y-38100000D03*
%TO.P,SW4,2,2_2*%
%TO.N,COL3*%
X107950000Y-40640000D03*
%TD*%
%TO.P,SW60,1,1_1*%
%TO.N,Net-(D58-A)*%
X157162500Y-123825000D03*
%TO.P,SW60,2,2_2*%
%TO.N,COL5*%
X150812500Y-126365000D03*
%TD*%
%TO.P,SW20,1,1_1*%
%TO.N,Net-(D20-A)*%
X152400000Y-66675000D03*
%TO.P,SW20,2,2_2*%
%TO.N,COL6*%
X146050000Y-69215000D03*
%TD*%
%TO.P,SW37,1,1_1*%
%TO.N,Net-(D36-A)*%
X219075000Y-85725000D03*
%TO.P,SW37,2,2_2*%
%TO.N,COL9*%
X212725000Y-88265000D03*
%TD*%
%TO.P,SW48,1,1_1*%
%TO.N,Net-(D46-A)*%
X166687500Y-104775000D03*
%TO.P,SW48,2,2_2*%
%TO.N,COL6*%
X160337500Y-107315000D03*
%TD*%
%TO.P,SW56,1,1_1*%
%TO.N,Net-(D54-A)*%
X80962500Y-123825000D03*
%TO.P,SW56,2,2_2*%
%TO.N,COL1*%
X74612500Y-126365000D03*
%TD*%
%TO.P,SW75,1,1_1*%
%TO.N,Net-(D73-A)*%
X302418750Y-142875000D03*
%TO.P,SW75,2,2_2*%
%TO.N,COL10*%
X296068750Y-145415000D03*
%TD*%
%TO.P,SW55,1,1_1*%
%TO.N,Net-(D53-A)*%
X50006250Y-123825000D03*
%TO.P,SW55,2,2_2*%
%TO.N,COL0*%
X43656250Y-126365000D03*
%TD*%
D13*
%TO.P,,1*%
%TO.N,N/C*%
X144000000Y-45250000D03*
%TD*%
D10*
%TO.P,SW3,1,1_1*%
%TO.N,Net-(D3-A)*%
X95250000Y-38100000D03*
%TO.P,SW3,2,2_2*%
%TO.N,COL2*%
X88900000Y-40640000D03*
%TD*%
%TO.P,SW39,1,1_1*%
%TO.N,Net-(D38-A)*%
X257175000Y-85725000D03*
%TO.P,SW39,2,2_2*%
%TO.N,COL11*%
X250825000Y-88265000D03*
%TD*%
%TO.P,SW21,1,1_1*%
%TO.N,Net-(D21-A)*%
X171450000Y-66675000D03*
%TO.P,SW21,2,2_2*%
%TO.N,COL7*%
X165100000Y-69215000D03*
%TD*%
%TO.P,SW66,1,1_1*%
%TO.N,Net-(D64-A)*%
X288131250Y-123825000D03*
%TO.P,SW66,2,2_2*%
%TO.N,COL11*%
X281781250Y-126365000D03*
%TD*%
%TO.P,SW64,1,1_1*%
%TO.N,Net-(D62-A)*%
X233362500Y-123825000D03*
%TO.P,SW64,2,2_2*%
%TO.N,COL9*%
X227012500Y-126365000D03*
%TD*%
D14*
%TO.P,EC4,A,A_A*%
%TO.N,E2A*%
X353000000Y-95000000D03*
D15*
%TO.P,EC4,B,B_B*%
%TO.N,E2B*%
X353000000Y-100000000D03*
%TO.P,EC4,C,C_C*%
%TO.N,GND*%
X353000000Y-97500000D03*
D16*
%TO.P,EC4,MP*%
%TO.N,N/C*%
X360500000Y-91900000D03*
X360500000Y-103100000D03*
D15*
%TO.P,EC4,S1,S1_S1*%
%TO.N,Net-(D159-A)*%
X367500000Y-100000000D03*
%TO.P,EC4,S2,S2_S2*%
%TO.N,COL13*%
X367500000Y-95000000D03*
%TD*%
D10*
%TO.P,SW12,1,1_1*%
%TO.N,Net-(D12-A)*%
X285750000Y-38100000D03*
%TO.P,SW12,2,2_2*%
%TO.N,COL11*%
X279400000Y-40640000D03*
%TD*%
%TO.P,SW2,1,1_1*%
%TO.N,Net-(D2-A)*%
X76200000Y-38100000D03*
%TO.P,SW2,2,2_2*%
%TO.N,COL1*%
X69850000Y-40640000D03*
%TD*%
%TO.P,SW5,1,1_1*%
%TO.N,Net-(D5-A)*%
X133350000Y-38100000D03*
%TO.P,SW5,2,2_2*%
%TO.N,COL4*%
X127000000Y-40640000D03*
%TD*%
%TO.P,SW44,1,1_1*%
%TO.N,Net-(D42-A)*%
X90487500Y-104775000D03*
%TO.P,SW44,2,2_2*%
%TO.N,COL2*%
X84137500Y-107315000D03*
%TD*%
%TO.P,SW42,1,1_1*%
%TO.N,Net-(D40-A)*%
X45243750Y-104775000D03*
%TO.P,SW42,2,2_2*%
%TO.N,COL0*%
X38893750Y-107315000D03*
%TD*%
D14*
%TO.P,EC3,A,A_A*%
%TO.N,E1A*%
X318000000Y-95000000D03*
D15*
%TO.P,EC3,B,B_B*%
%TO.N,E1B*%
X318000000Y-100000000D03*
%TO.P,EC3,C,C_C*%
%TO.N,GND*%
X318000000Y-97500000D03*
D16*
%TO.P,EC3,MP*%
%TO.N,N/C*%
X325500000Y-91900000D03*
X325500000Y-103100000D03*
D15*
%TO.P,EC3,S1,S1_S1*%
%TO.N,Net-(D158-A)*%
X332500000Y-100000000D03*
%TO.P,EC3,S2,S2_S2*%
%TO.N,COL13*%
X332500000Y-95000000D03*
%TD*%
D10*
%TO.P,SW38,1,1_1*%
%TO.N,Net-(D37-A)*%
X238125000Y-85725000D03*
%TO.P,SW38,2,2_2*%
%TO.N,COL10*%
X231775000Y-88265000D03*
%TD*%
%TO.P,SW10,1,1_1*%
%TO.N,Net-(D10-A)*%
X247650000Y-38100000D03*
%TO.P,SW10,2,2_2*%
%TO.N,COL9*%
X241300000Y-40640000D03*
%TD*%
%TO.P,SW18,1,1_1*%
%TO.N,Net-(D18-A)*%
X114300000Y-66675000D03*
%TO.P,SW18,2,2_2*%
%TO.N,COL4*%
X107950000Y-69215000D03*
%TD*%
%TO.P,SW52,1,1_1*%
%TO.N,Net-(D50-A)*%
X242887500Y-104775000D03*
%TO.P,SW52,2,2_2*%
%TO.N,COL10*%
X236537500Y-107315000D03*
%TD*%
D13*
%TO.P,,1*%
%TO.N,N/C*%
X401000000Y-153750000D03*
%TD*%
D10*
%TO.P,SW43,1,1_1*%
%TO.N,Net-(D41-A)*%
X71437500Y-104775000D03*
%TO.P,SW43,2,2_2*%
%TO.N,COL1*%
X65087500Y-107315000D03*
%TD*%
%TO.P,SW11,1,1_1*%
%TO.N,Net-(D11-A)*%
X266700000Y-38100000D03*
%TO.P,SW11,2,2_2*%
%TO.N,COL10*%
X260350000Y-40640000D03*
%TD*%
%TO.P,SW36,1,1_1*%
%TO.N,Net-(D35-A)*%
X200025000Y-85725000D03*
%TO.P,SW36,2,2_2*%
%TO.N,COL8*%
X193675000Y-88265000D03*
%TD*%
%TO.P,SW33,1,1_1*%
%TO.N,Net-(D32-A)*%
X142875000Y-85725000D03*
%TO.P,SW33,2,2_2*%
%TO.N,COL5*%
X136525000Y-88265000D03*
%TD*%
%TO.P,SW53,1,1_1*%
%TO.N,Net-(D51-A)*%
X261937500Y-104775000D03*
%TO.P,SW53,2,2_2*%
%TO.N,COL11*%
X255587500Y-107315000D03*
%TD*%
%TO.P,SW50,1,1_1*%
%TO.N,Net-(D48-A)*%
X204787500Y-104775000D03*
%TO.P,SW50,2,2_2*%
%TO.N,COL8*%
X198437500Y-107315000D03*
%TD*%
D14*
%TO.P,EC5,A,A_A*%
%TO.N,E3A*%
X388000000Y-95000000D03*
D15*
%TO.P,EC5,B,B_B*%
%TO.N,E3B*%
X388000000Y-100000000D03*
%TO.P,EC5,C,C_C*%
%TO.N,GND*%
X388000000Y-97500000D03*
D16*
%TO.P,EC5,MP*%
%TO.N,N/C*%
X395500000Y-91900000D03*
X395500000Y-103100000D03*
D15*
%TO.P,EC5,S1,S1_S1*%
%TO.N,Net-(D160-A)*%
X402500000Y-100000000D03*
%TO.P,EC5,S2,S2_S2*%
%TO.N,COL13*%
X402500000Y-95000000D03*
%TD*%
D10*
%TO.P,SW13,1,1_1*%
%TO.N,Net-(D13-A)*%
X304800000Y-38100000D03*
%TO.P,SW13,2,2_2*%
%TO.N,COL12*%
X298450000Y-40640000D03*
%TD*%
%TO.P,SW31,1,1_1*%
%TO.N,Net-(D30-A)*%
X104775000Y-85725000D03*
%TO.P,SW31,2,2_2*%
%TO.N,COL3*%
X98425000Y-88265000D03*
%TD*%
D13*
%TO.P,,1*%
%TO.N,N/C*%
X324000000Y-131750000D03*
%TD*%
D10*
%TO.P,SW40,1,1_1*%
%TO.N,Net-(D39-A)*%
X276225000Y-85725000D03*
%TO.P,SW40,2,2_2*%
%TO.N,COL12*%
X269875000Y-88265000D03*
%TD*%
%TO.P,SW68,1,1_1*%
%TO.N,Net-(D66-A)*%
X40481250Y-142875000D03*
%TO.P,SW68,2,2_2*%
%TO.N,COL0*%
X34131250Y-145415000D03*
%TD*%
%TO.P,SW24,1,1_1*%
%TO.N,Net-(D24-A)*%
X228600000Y-66675000D03*
%TO.P,SW24,2,2_2*%
%TO.N,COL10*%
X222250000Y-69215000D03*
%TD*%
%TO.P,SW54,1,1_1*%
%TO.N,Net-(D52-A)*%
X292893750Y-104775000D03*
%TO.P,SW54,2,2_2*%
%TO.N,COL12*%
X286543750Y-107315000D03*
%TD*%
%TO.P,SW29,1,1_1*%
%TO.N,Net-(D28-A)*%
X66675000Y-85725000D03*
%TO.P,SW29,2,2_2*%
%TO.N,COL1*%
X60325000Y-88265000D03*
%TD*%
D11*
%TO.P,J3,1,Pin_1_1*%
%TO.N,unconnected-(J3-Pin_1-Pad1)*%
X388500000Y-126850000D03*
D12*
%TO.P,J3,2,Pin_2_2*%
%TO.N,unconnected-(J3-Pin_2-Pad2)*%
X388500000Y-124310000D03*
%TO.P,J3,3,Pin_3_3*%
%TO.N,GND*%
X388500000Y-121770000D03*
%TO.P,J3,4,Pin_4_4*%
%TO.N,V+*%
X388500000Y-119230000D03*
%TO.P,J3,5,SCL_5*%
%TO.N,SCL*%
X388500000Y-116690000D03*
%TO.P,J3,6,Pin_6_6*%
%TO.N,SDA*%
X388500000Y-114150000D03*
%TD*%
D10*
%TO.P,SW15,1,1_1*%
%TO.N,Net-(D15-A)*%
X57150000Y-66675000D03*
%TO.P,SW15,2,2_2*%
%TO.N,COL1*%
X50800000Y-69215000D03*
%TD*%
%TO.P,SW27,1,1_1*%
%TO.N,Net-(D75-A)*%
X295275000Y-66675000D03*
%TO.P,SW27,2,2_2*%
%TO.N,COL13*%
X288925000Y-69215000D03*
%TD*%
%TO.P,SW61,1,1_1*%
%TO.N,Net-(D59-A)*%
X176212500Y-123825000D03*
%TO.P,SW61,2,2_2*%
%TO.N,COL6*%
X169862500Y-126365000D03*
%TD*%
%TO.P,SW72,1,1_1*%
%TO.N,Net-(D70-A)*%
X230981250Y-142875000D03*
%TO.P,SW72,2,2_2*%
%TO.N,COL7*%
X224631250Y-145415000D03*
%TD*%
%TO.P,SW57,1,1_1*%
%TO.N,Net-(D55-A)*%
X100012500Y-123825000D03*
%TO.P,SW57,2,2_2*%
%TO.N,COL2*%
X93662500Y-126365000D03*
%TD*%
%TO.P,SW58,1,1_1*%
%TO.N,Net-(D56-A)*%
X119062500Y-123825000D03*
%TO.P,SW58,2,2_2*%
%TO.N,COL3*%
X112712500Y-126365000D03*
%TD*%
%TO.P,SW46,1,1_1*%
%TO.N,Net-(D44-A)*%
X128587500Y-104775000D03*
%TO.P,SW46,2,2_2*%
%TO.N,COL4*%
X122237500Y-107315000D03*
%TD*%
D13*
%TO.P,,1*%
%TO.N,N/C*%
X394750000Y-38750000D03*
%TD*%
D10*
%TO.P,SW22,1,1_1*%
%TO.N,Net-(D22-A)*%
X190500000Y-66675000D03*
%TO.P,SW22,2,2_2*%
%TO.N,COL8*%
X184150000Y-69215000D03*
%TD*%
%TO.P,SW16,1,1_1*%
%TO.N,Net-(D16-A)*%
X76200000Y-66675000D03*
%TO.P,SW16,2,2_2*%
%TO.N,COL2*%
X69850000Y-69215000D03*
%TD*%
%TO.P,SW62,1,1_1*%
%TO.N,Net-(D60-A)*%
X195262500Y-123825000D03*
%TO.P,SW62,2,2_2*%
%TO.N,COL7*%
X188912500Y-126365000D03*
%TD*%
%TO.P,SW17,1,1_1*%
%TO.N,Net-(D17-A)*%
X95250000Y-66675000D03*
%TO.P,SW17,2,2_2*%
%TO.N,COL3*%
X88900000Y-69215000D03*
%TD*%
D13*
%TO.P,,1*%
%TO.N,N/C*%
X231250000Y-46500000D03*
%TD*%
D10*
%TO.P,SW74,1,1_1*%
%TO.N,Net-(D72-A)*%
X278606250Y-142875000D03*
%TO.P,SW74,2,2_2*%
%TO.N,COL9*%
X272256250Y-145415000D03*
%TD*%
%TO.P,SW70,1,1_1*%
%TO.N,Net-(D68-A)*%
X88106250Y-142875000D03*
%TO.P,SW70,2,2_2*%
%TO.N,COL2*%
X81756250Y-145415000D03*
%TD*%
D11*
%TO.P,J5,1,Pin_1_1*%
%TO.N,GND*%
X315000000Y-37500000D03*
D12*
%TO.P,J5,2,Pin_2_2*%
%TO.N,LEDPWR*%
X315000000Y-40040000D03*
%TD*%
D10*
%TO.P,SW14,1,1_1*%
%TO.N,Net-(D14-A)*%
X38100000Y-66675000D03*
%TO.P,SW14,2,2_2*%
%TO.N,COL0*%
X31750000Y-69215000D03*
%TD*%
D17*
%TO.P,D153,1,VSS_1*%
%TO.N,GND*%
X328797500Y-153000000D03*
%TO.P,D153,2,DIN_2*%
%TO.N,Net-(D152-DOUT)*%
X328797500Y-151500000D03*
%TO.P,D153,3,VDD_3*%
%TO.N,LEDPWR*%
X323347500Y-151500000D03*
%TO.P,D153,4,DOUT_4*%
%TO.N,Net-(D153-DOUT)*%
X323347500Y-153000000D03*
%TD*%
D18*
%TO.P,D79,1,K_1*%
%TO.N,ROW5*%
X360362500Y-157480000D03*
D19*
%TO.P,D79,2,A_2*%
%TO.N,Net-(D79-A)*%
X367982500Y-157480000D03*
%TD*%
D17*
%TO.P,D97,1,VSS_1*%
%TO.N,GND*%
X133535000Y-77000000D03*
%TO.P,D97,2,DIN_2*%
%TO.N,Net-(D96-DOUT)*%
X133535000Y-75500000D03*
%TO.P,D97,3,VDD_3*%
%TO.N,LEDPWR*%
X128085000Y-75500000D03*
%TO.P,D97,4,DOUT_4*%
%TO.N,Net-(D97-DOUT)*%
X128085000Y-77000000D03*
%TD*%
D20*
%TO.P,C9,1*%
%TO.N,LEDPWR*%
X270787500Y-128250000D03*
%TO.P,C9,2*%
%TO.N,GND*%
X268712500Y-128250000D03*
%TD*%
D17*
%TO.P,D128,1,VSS_1*%
%TO.N,GND*%
X204975000Y-115000000D03*
%TO.P,D128,2,DIN_2*%
%TO.N,Net-(D127-DOUT)*%
X204975000Y-113500000D03*
%TO.P,D128,3,VDD_3*%
%TO.N,LEDPWR*%
X199525000Y-113500000D03*
%TO.P,D128,4,DOUT_4*%
%TO.N,Net-(D128-DOUT)*%
X199525000Y-115000000D03*
%TD*%
D18*
%TO.P,D75,1,K_1*%
%TO.N,ROW1*%
X291440000Y-81250000D03*
D19*
%TO.P,D75,2,A_2*%
%TO.N,Net-(D75-A)*%
X299060000Y-81250000D03*
%TD*%
D18*
%TO.P,D25,1,K_1*%
%TO.N,ROW1*%
X247015000Y-81280000D03*
D19*
%TO.P,D25,2,A_2*%
%TO.N,Net-(D25-A)*%
X254635000Y-81280000D03*
%TD*%
D21*
%TO.P,R6,1*%
%TO.N,SLAVEPWR*%
X389250000Y-58750000D03*
%TO.P,R6,2*%
%TO.N,T_CS*%
X389250000Y-56750000D03*
%TD*%
D18*
%TO.P,D57,1,K_1*%
%TO.N,ROW4*%
X131762500Y-138430000D03*
D19*
%TO.P,D57,2,A_2*%
%TO.N,Net-(D57-A)*%
X139382500Y-138430000D03*
%TD*%
D18*
%TO.P,D46,1,K_1*%
%TO.N,ROW3*%
X166190000Y-119250000D03*
D19*
%TO.P,D46,2,A_2*%
%TO.N,Net-(D46-A)*%
X173810000Y-119250000D03*
%TD*%
D17*
%TO.P,D150,1,VSS_1*%
%TO.N,GND*%
X254975000Y-153000000D03*
%TO.P,D150,2,DIN_2*%
%TO.N,Net-(D149-DOUT)*%
X254975000Y-151500000D03*
%TO.P,D150,3,VDD_3*%
%TO.N,LEDPWR*%
X249525000Y-151500000D03*
%TO.P,D150,4,DOUT_4*%
%TO.N,Net-(D150-DOUT)*%
X249525000Y-153000000D03*
%TD*%
D18*
%TO.P,D60,1,K_1*%
%TO.N,ROW4*%
X194440000Y-138250000D03*
D19*
%TO.P,D60,2,A_2*%
%TO.N,Net-(D60-A)*%
X202060000Y-138250000D03*
%TD*%
D17*
%TO.P,D85,1,VSS_1*%
%TO.N,GND*%
X181160000Y-48500000D03*
%TO.P,D85,2,DIN_2*%
%TO.N,Net-(D84-DOUT)*%
X181160000Y-47000000D03*
%TO.P,D85,3,VDD_3*%
%TO.N,LEDPWR*%
X175710000Y-47000000D03*
%TO.P,D85,4,DOUT_4*%
%TO.N,Net-(D85-DOUT)*%
X175710000Y-48500000D03*
%TD*%
D18*
%TO.P,D51,1,K_1*%
%TO.N,ROW3*%
X255440000Y-119500000D03*
D19*
%TO.P,D51,2,A_2*%
%TO.N,Net-(D51-A)*%
X263060000Y-119500000D03*
%TD*%
D18*
%TO.P,D58,1,K_1*%
%TO.N,ROW4*%
X151380000Y-138500000D03*
D19*
%TO.P,D58,2,A_2*%
%TO.N,Net-(D58-A)*%
X159000000Y-138500000D03*
%TD*%
D18*
%TO.P,D19,1,K_1*%
%TO.N,ROW1*%
X132715000Y-81280000D03*
D19*
%TO.P,D19,2,A_2*%
%TO.N,Net-(D19-A)*%
X140335000Y-81280000D03*
%TD*%
D17*
%TO.P,D147,1,VSS_1*%
%TO.N,GND*%
X88291250Y-153000000D03*
%TO.P,D147,2,DIN_2*%
%TO.N,Net-(D146-DOUT)*%
X88291250Y-151500000D03*
%TO.P,D147,3,VDD_3*%
%TO.N,LEDPWR*%
X82841250Y-151500000D03*
%TO.P,D147,4,DOUT_4*%
%TO.N,Net-(D147-DOUT)*%
X82841250Y-153000000D03*
%TD*%
%TO.P,D123,1,VSS_1*%
%TO.N,GND*%
X109725000Y-115000000D03*
%TO.P,D123,2,DIN_2*%
%TO.N,Net-(D122-DOUT)*%
X109725000Y-113500000D03*
%TO.P,D123,3,VDD_3*%
%TO.N,LEDPWR*%
X104275000Y-113500000D03*
%TO.P,D123,4,DOUT_4*%
%TO.N,Net-(D123-DOUT)*%
X104275000Y-115000000D03*
%TD*%
%TO.P,D139,1,VSS_1*%
%TO.N,GND*%
X176397500Y-134000000D03*
%TO.P,D139,2,DIN_2*%
%TO.N,Net-(D138-DOUT)*%
X176397500Y-132500000D03*
%TO.P,D139,3,VDD_3*%
%TO.N,LEDPWR*%
X170947500Y-132500000D03*
%TO.P,D139,4,DOUT_4*%
%TO.N,Net-(D139-DOUT)*%
X170947500Y-134000000D03*
%TD*%
D18*
%TO.P,D55,1,K_1*%
%TO.N,ROW4*%
X94690000Y-138500000D03*
D19*
%TO.P,D55,2,A_2*%
%TO.N,Net-(D55-A)*%
X102310000Y-138500000D03*
%TD*%
D18*
%TO.P,D10,1,K_1*%
%TO.N,ROW0*%
X241380000Y-52750000D03*
D19*
%TO.P,D10,2,A_2*%
%TO.N,Net-(D10-A)*%
X249000000Y-52750000D03*
%TD*%
D22*
%TO.P,D157,1,K_1*%
%TO.N,RUN*%
X360310000Y-50000000D03*
D19*
%TO.P,D157,2,A_2*%
%TO.N,Net-(A1-RUN)*%
X352690000Y-50000000D03*
%TD*%
D17*
%TO.P,D110,1,VSS_1*%
%TO.N,GND*%
X124010000Y-96000000D03*
%TO.P,D110,2,DIN_2*%
%TO.N,Net-(D109-DOUT)*%
X124010000Y-94500000D03*
%TO.P,D110,3,VDD_3*%
%TO.N,LEDPWR*%
X118560000Y-94500000D03*
%TO.P,D110,4,DOUT_4*%
%TO.N,Net-(D110-DOUT)*%
X118560000Y-96000000D03*
%TD*%
%TO.P,D136,1,VSS_1*%
%TO.N,GND*%
X119247500Y-134000000D03*
%TO.P,D136,2,DIN_2*%
%TO.N,Net-(D135-DOUT)*%
X119247500Y-132500000D03*
%TO.P,D136,3,VDD_3*%
%TO.N,LEDPWR*%
X113797500Y-132500000D03*
%TO.P,D136,4,DOUT_4*%
%TO.N,Net-(D136-DOUT)*%
X113797500Y-134000000D03*
%TD*%
%TO.P,D96,1,VSS_1*%
%TO.N,GND*%
X114485000Y-77000000D03*
%TO.P,D96,2,DIN_2*%
%TO.N,Net-(D95-DOUT)*%
X114485000Y-75500000D03*
%TO.P,D96,3,VDD_3*%
%TO.N,LEDPWR*%
X109035000Y-75500000D03*
%TO.P,D96,4,DOUT_4*%
%TO.N,Net-(D96-DOUT)*%
X109035000Y-77000000D03*
%TD*%
D23*
%TO.P,C6,1*%
%TO.N,LEDPWR*%
X147750000Y-52500000D03*
%TO.P,C6,2*%
%TO.N,GND*%
X147750000Y-54575000D03*
%TD*%
D17*
%TO.P,D133,1,VSS_1*%
%TO.N,GND*%
X50162000Y-134000000D03*
%TO.P,D133,2,DIN_2*%
%TO.N,LED4*%
X50162000Y-132500000D03*
%TO.P,D133,3,VDD_3*%
%TO.N,LEDPWR*%
X44712000Y-132500000D03*
%TO.P,D133,4,DOUT_4*%
%TO.N,Net-(D133-DOUT)*%
X44712000Y-134000000D03*
%TD*%
D18*
%TO.P,D13,1,K_1*%
%TO.N,ROW0*%
X298450000Y-52705000D03*
D19*
%TO.P,D13,2,A_2*%
%TO.N,Net-(D13-A)*%
X306070000Y-52705000D03*
%TD*%
D17*
%TO.P,D152,1,VSS_1*%
%TO.N,GND*%
X302603750Y-153000000D03*
%TO.P,D152,2,DIN_2*%
%TO.N,Net-(D151-DOUT)*%
X302603750Y-151500000D03*
%TO.P,D152,3,VDD_3*%
%TO.N,LEDPWR*%
X297153750Y-151500000D03*
%TO.P,D152,4,DOUT_4*%
%TO.N,Net-(D152-DOUT)*%
X297153750Y-153000000D03*
%TD*%
%TO.P,D102,1,VSS_1*%
%TO.N,GND*%
X228785000Y-77000000D03*
%TO.P,D102,2,DIN_2*%
%TO.N,Net-(D101-DOUT)*%
X228785000Y-75500000D03*
%TO.P,D102,3,VDD_3*%
%TO.N,LEDPWR*%
X223335000Y-75500000D03*
%TO.P,D102,4,DOUT_4*%
%TO.N,Net-(D102-DOUT)*%
X223335000Y-77000000D03*
%TD*%
D18*
%TO.P,D43,1,K_1*%
%TO.N,ROW3*%
X108902500Y-119380000D03*
D19*
%TO.P,D43,2,A_2*%
%TO.N,Net-(D43-A)*%
X116522500Y-119380000D03*
%TD*%
D22*
%TO.P,D66,1,K_1*%
%TO.N,ROW5*%
X41370000Y-157500000D03*
D19*
%TO.P,D66,2,A_2*%
%TO.N,Net-(D66-A)*%
X33750000Y-157500000D03*
%TD*%
D18*
%TO.P,D44,1,K_1*%
%TO.N,ROW3*%
X127940000Y-119250000D03*
D19*
%TO.P,D44,2,A_2*%
%TO.N,Net-(D44-A)*%
X135560000Y-119250000D03*
%TD*%
D17*
%TO.P,D151,1,VSS_1*%
%TO.N,GND*%
X278791250Y-153000000D03*
%TO.P,D151,2,DIN_2*%
%TO.N,Net-(D150-DOUT)*%
X278791250Y-151500000D03*
%TO.P,D151,3,VDD_3*%
%TO.N,LEDPWR*%
X273341250Y-151500000D03*
%TO.P,D151,4,DOUT_4*%
%TO.N,Net-(D151-DOUT)*%
X273341250Y-153000000D03*
%TD*%
D18*
%TO.P,D17,1,K_1*%
%TO.N,ROW1*%
X88900000Y-81280000D03*
D19*
%TO.P,D17,2,A_2*%
%TO.N,Net-(D17-A)*%
X96520000Y-81280000D03*
%TD*%
D17*
%TO.P,D134,1,VSS_1*%
%TO.N,GND*%
X81147500Y-134000000D03*
%TO.P,D134,2,DIN_2*%
%TO.N,Net-(D133-DOUT)*%
X81147500Y-132500000D03*
%TO.P,D134,3,VDD_3*%
%TO.N,LEDPWR*%
X75697500Y-132500000D03*
%TO.P,D134,4,DOUT_4*%
%TO.N,Net-(D134-DOUT)*%
X75697500Y-134000000D03*
%TD*%
D18*
%TO.P,D48,1,K_1*%
%TO.N,ROW3*%
X203940000Y-119500000D03*
D19*
%TO.P,D48,2,A_2*%
%TO.N,Net-(D48-A)*%
X211560000Y-119500000D03*
%TD*%
D22*
%TO.P,D67,1,K_1*%
%TO.N,ROW5*%
X65500000Y-157500000D03*
D19*
%TO.P,D67,2,A_2*%
%TO.N,Net-(D67-A)*%
X57880000Y-157500000D03*
%TD*%
D17*
%TO.P,D130,1,VSS_1*%
%TO.N,GND*%
X243072500Y-115000000D03*
%TO.P,D130,2,DIN_2*%
%TO.N,Net-(D129-DOUT)*%
X243072500Y-113500000D03*
%TO.P,D130,3,VDD_3*%
%TO.N,LEDPWR*%
X237622500Y-113500000D03*
%TO.P,D130,4,DOUT_4*%
%TO.N,Net-(D130-DOUT)*%
X237622500Y-115000000D03*
%TD*%
D24*
%TO.P,A2,1,UART0_TX_1*%
%TO.N,UART0_RX*%
X385000000Y-33000000D03*
D19*
%TO.P,A2,2,UART0_RX_2*%
%TO.N,UART0_TX*%
X385000000Y-35540000D03*
D25*
%TO.P,A2,3,GND_3*%
%TO.N,GND*%
X385000000Y-38080000D03*
D19*
%TO.P,A2,4,GPIO2_4*%
%TO.N,E1B*%
X385000000Y-40620000D03*
%TO.P,A2,5,GPIO3_5*%
%TO.N,E1A*%
X385000000Y-43160000D03*
%TO.P,A2,6,GPIO4_6*%
%TO.N,SDA*%
X385000000Y-45700000D03*
%TO.P,A2,7,GPIO5_7*%
%TO.N,SCL*%
X385000000Y-48240000D03*
D25*
%TO.P,A2,8,GND_8*%
%TO.N,GND*%
X385000000Y-50780000D03*
D19*
%TO.P,A2,9,GPIO6_9*%
%TO.N,unconnected-(A2-GPIO6-Pad9)*%
X385000000Y-53320000D03*
%TO.P,A2,10,GPIO7_10*%
%TO.N,unconnected-(A2-GPIO7-Pad10)*%
X385000000Y-55860000D03*
%TO.P,A2,11,GPIO8_11*%
%TO.N,unconnected-(A2-GPIO8-Pad11)*%
X385000000Y-58400000D03*
%TO.P,A2,12,GPIO9_12*%
%TO.N,unconnected-(A2-GPIO9-Pad12)*%
X385000000Y-60940000D03*
D25*
%TO.P,A2,13,GND_13*%
%TO.N,GND*%
X385000000Y-63480000D03*
D19*
%TO.P,A2,14,GPIO10_14*%
%TO.N,T_CLK*%
X385000000Y-66020000D03*
%TO.P,A2,15,GPIO11_15*%
%TO.N,T_MOSI*%
X385000000Y-68560000D03*
%TO.P,A2,16,GPIO12_16*%
%TO.N,T_MISO*%
X385000000Y-71100000D03*
%TO.P,A2,17,GPIO13_17*%
%TO.N,T_CS*%
X385000000Y-73640000D03*
D25*
%TO.P,A2,18,GND_18*%
%TO.N,GND*%
X385000000Y-76180000D03*
D19*
%TO.P,A2,19,GPIO14_19*%
%TO.N,T_INT*%
X385000000Y-78720000D03*
%TO.P,A2,20,GPIO15_20*%
%TO.N,E3A*%
X385000000Y-81260000D03*
%TO.P,A2,21,GPIO16_21*%
%TO.N,MISO*%
X367220000Y-81260000D03*
%TO.P,A2,22,GPIO17_22*%
%TO.N,CS*%
X367220000Y-78720000D03*
D26*
%TO.P,A2,23,GND_23*%
%TO.N,GND*%
X367220000Y-76180000D03*
D19*
%TO.P,A2,24,GPIO18_24*%
%TO.N,CLK*%
X367220000Y-73640000D03*
%TO.P,A2,25,GPIO19_25*%
%TO.N,MOSI*%
X367220000Y-71100000D03*
%TO.P,A2,26,GPIO20_26*%
%TO.N,E3B*%
X367220000Y-68560000D03*
%TO.P,A2,27,GPIO21_27*%
%TO.N,DC*%
X367220000Y-66020000D03*
D26*
%TO.P,A2,28,GND_28*%
%TO.N,GND*%
X367220000Y-63480000D03*
D19*
%TO.P,A2,29,GPIO22_29*%
%TO.N,LEDData*%
X367220000Y-60940000D03*
%TO.P,A2,30,RUN_30*%
%TO.N,Net-(A2-RUN)*%
X367220000Y-58400000D03*
%TO.P,A2,31,GPIO26_ADC0_31*%
%TO.N,unconnected-(A2-GPIO26_ADC0-Pad31)*%
X367220000Y-55860000D03*
%TO.P,A2,32,GPIO27_ADC1_32*%
%TO.N,E2B*%
X367220000Y-53320000D03*
D26*
%TO.P,A2,33,AGND_33*%
%TO.N,unconnected-(A2-AGND-Pad33)*%
X367220000Y-50780000D03*
D19*
%TO.P,A2,34,GPIO28_ADC2_34*%
%TO.N,E2A*%
X367220000Y-48240000D03*
%TO.P,A2,35,ADC_VREF_35*%
%TO.N,unconnected-(A2-ADC_VREF-Pad35)*%
X367220000Y-45700000D03*
%TO.P,A2,36,3V3_36*%
%TO.N,SLAVEPWR*%
X367220000Y-43160000D03*
%TO.P,A2,37,3V3_EN_37*%
%TO.N,unconnected-(A2-3V3_EN-Pad37)*%
X367220000Y-40620000D03*
D26*
%TO.P,A2,38,GND_38*%
%TO.N,GND*%
X367220000Y-38080000D03*
D19*
%TO.P,A2,39,VSYS_39*%
%TO.N,unconnected-(A2-VSYS-Pad39)*%
X367220000Y-35540000D03*
%TO.P,A2,40,VBUS_40*%
%TO.N,unconnected-(A2-VBUS-Pad40)*%
X367220000Y-33000000D03*
%TD*%
D18*
%TO.P,D74,1,K_1*%
%TO.N,ROW2*%
X293190000Y-99750000D03*
D19*
%TO.P,D74,2,A_2*%
%TO.N,Net-(D74-A)*%
X300810000Y-99750000D03*
%TD*%
D17*
%TO.P,D112,1,VSS_1*%
%TO.N,GND*%
X162110000Y-96000000D03*
%TO.P,D112,2,DIN_2*%
%TO.N,Net-(D111-DOUT)*%
X162110000Y-94500000D03*
%TO.P,D112,3,VDD_3*%
%TO.N,LEDPWR*%
X156660000Y-94500000D03*
%TO.P,D112,4,DOUT_4*%
%TO.N,Net-(D112-DOUT)*%
X156660000Y-96000000D03*
%TD*%
D18*
%TO.P,D29,1,K_1*%
%TO.N,ROW2*%
X84137500Y-100330000D03*
D19*
%TO.P,D29,2,A_2*%
%TO.N,Net-(D29-A)*%
X91757500Y-100330000D03*
%TD*%
D17*
%TO.P,D142,1,VSS_1*%
%TO.N,GND*%
X233547500Y-134000000D03*
%TO.P,D142,2,DIN_2*%
%TO.N,Net-(D141-DOUT)*%
X233547500Y-132500000D03*
%TO.P,D142,3,VDD_3*%
%TO.N,LEDPWR*%
X228097500Y-132500000D03*
%TO.P,D142,4,DOUT_4*%
%TO.N,Net-(D142-DOUT)*%
X228097500Y-134000000D03*
%TD*%
D18*
%TO.P,D53,1,K_1*%
%TO.N,ROW4*%
X44130000Y-138500000D03*
D19*
%TO.P,D53,2,A_2*%
%TO.N,Net-(D53-A)*%
X51750000Y-138500000D03*
%TD*%
D18*
%TO.P,D61,1,K_1*%
%TO.N,ROW4*%
X211296250Y-138430000D03*
D19*
%TO.P,D61,2,A_2*%
%TO.N,Net-(D61-A)*%
X218916250Y-138430000D03*
%TD*%
D17*
%TO.P,D103,1,VSS_1*%
%TO.N,GND*%
X247835000Y-77000000D03*
%TO.P,D103,2,DIN_2*%
%TO.N,Net-(D102-DOUT)*%
X247835000Y-75500000D03*
%TO.P,D103,3,VDD_3*%
%TO.N,LEDPWR*%
X242385000Y-75500000D03*
%TO.P,D103,4,DOUT_4*%
%TO.N,Net-(D103-DOUT)*%
X242385000Y-77000000D03*
%TD*%
D18*
%TO.P,D14,1,K_1*%
%TO.N,ROW1*%
X36512500Y-81280000D03*
D19*
%TO.P,D14,2,A_2*%
%TO.N,Net-(D14-A)*%
X44132500Y-81280000D03*
%TD*%
D17*
%TO.P,D87,1,VSS_1*%
%TO.N,GND*%
X219225000Y-48500000D03*
%TO.P,D87,2,DIN_2*%
%TO.N,Net-(D86-DOUT)*%
X219225000Y-47000000D03*
%TO.P,D87,3,VDD_3*%
%TO.N,LEDPWR*%
X213775000Y-47000000D03*
%TO.P,D87,4,DOUT_4*%
%TO.N,Net-(D87-DOUT)*%
X213775000Y-48500000D03*
%TD*%
D18*
%TO.P,D70,1,K_1*%
%TO.N,ROW5*%
X224631250Y-157480000D03*
D19*
%TO.P,D70,2,A_2*%
%TO.N,Net-(D70-A)*%
X232251250Y-157480000D03*
%TD*%
D17*
%TO.P,D116,1,VSS_1*%
%TO.N,GND*%
X238310000Y-96000000D03*
%TO.P,D116,2,DIN_2*%
%TO.N,Net-(D115-DOUT)*%
X238310000Y-94500000D03*
%TO.P,D116,3,VDD_3*%
%TO.N,LEDPWR*%
X232860000Y-94500000D03*
%TO.P,D116,4,DOUT_4*%
%TO.N,Net-(D116-DOUT)*%
X232860000Y-96000000D03*
%TD*%
%TO.P,D145,1,VSS_1*%
%TO.N,GND*%
X40666250Y-153000000D03*
%TO.P,D145,2,DIN_2*%
%TO.N,Net-(D144-DOUT)*%
X40666250Y-151500000D03*
%TO.P,D145,3,VDD_3*%
%TO.N,LEDPWR*%
X35216250Y-151500000D03*
%TO.P,D145,4,DOUT_4*%
%TO.N,LED5*%
X35216250Y-153000000D03*
%TD*%
%TO.P,D101,1,VSS_1*%
%TO.N,GND*%
X209725000Y-77000000D03*
%TO.P,D101,2,DIN_2*%
%TO.N,Net-(D100-DOUT)*%
X209725000Y-75500000D03*
%TO.P,D101,3,VDD_3*%
%TO.N,LEDPWR*%
X204275000Y-75500000D03*
%TO.P,D101,4,DOUT_4*%
%TO.N,Net-(D101-DOUT)*%
X204275000Y-77000000D03*
%TD*%
%TO.P,D122,1,VSS_1*%
%TO.N,GND*%
X90672500Y-115000000D03*
%TO.P,D122,2,DIN_2*%
%TO.N,Net-(D121-DOUT)*%
X90672500Y-113500000D03*
%TO.P,D122,3,VDD_3*%
%TO.N,LEDPWR*%
X85222500Y-113500000D03*
%TO.P,D122,4,DOUT_4*%
%TO.N,Net-(D122-DOUT)*%
X85222500Y-115000000D03*
%TD*%
%TO.P,D129,1,VSS_1*%
%TO.N,GND*%
X224022500Y-115000000D03*
%TO.P,D129,2,DIN_2*%
%TO.N,Net-(D128-DOUT)*%
X224022500Y-113500000D03*
%TO.P,D129,3,VDD_3*%
%TO.N,LEDPWR*%
X218572500Y-113500000D03*
%TO.P,D129,4,DOUT_4*%
%TO.N,Net-(D129-DOUT)*%
X218572500Y-115000000D03*
%TD*%
%TO.P,D149,1,VSS_1*%
%TO.N,GND*%
X231166250Y-153000000D03*
%TO.P,D149,2,DIN_2*%
%TO.N,Net-(D148-DOUT)*%
X231166250Y-151500000D03*
%TO.P,D149,3,VDD_3*%
%TO.N,LEDPWR*%
X225716250Y-151500000D03*
%TO.P,D149,4,DOUT_4*%
%TO.N,Net-(D149-DOUT)*%
X225716250Y-153000000D03*
%TD*%
D23*
%TO.P,C4,1*%
%TO.N,LEDPWR*%
X111750000Y-84962500D03*
%TO.P,C4,2*%
%TO.N,GND*%
X111750000Y-87037500D03*
%TD*%
D18*
%TO.P,D24,1,K_1*%
%TO.N,ROW1*%
X227940000Y-81500000D03*
D19*
%TO.P,D24,2,A_2*%
%TO.N,Net-(D24-A)*%
X235560000Y-81500000D03*
%TD*%
D23*
%TO.P,C11,1*%
%TO.N,LEDPWR*%
X48500000Y-148462500D03*
%TO.P,C11,2*%
%TO.N,GND*%
X48500000Y-150537500D03*
%TD*%
D17*
%TO.P,D113,1,VSS_1*%
%TO.N,GND*%
X181160000Y-96000000D03*
%TO.P,D113,2,DIN_2*%
%TO.N,Net-(D112-DOUT)*%
X181160000Y-94500000D03*
%TO.P,D113,3,VDD_3*%
%TO.N,LEDPWR*%
X175710000Y-94500000D03*
%TO.P,D113,4,DOUT_4*%
%TO.N,Net-(D113-DOUT)*%
X175710000Y-96000000D03*
%TD*%
D18*
%TO.P,D56,1,K_1*%
%TO.N,ROW4*%
X118427500Y-138430000D03*
D19*
%TO.P,D56,2,A_2*%
%TO.N,Net-(D56-A)*%
X126047500Y-138430000D03*
%TD*%
D17*
%TO.P,D132,1,VSS_1*%
%TO.N,GND*%
X293037000Y-115000000D03*
%TO.P,D132,2,DIN_2*%
%TO.N,Net-(D131-DOUT)*%
X293037000Y-113500000D03*
%TO.P,D132,3,VDD_3*%
%TO.N,LEDPWR*%
X287587000Y-113500000D03*
%TO.P,D132,4,DOUT_4*%
%TO.N,LED4*%
X287587000Y-115000000D03*
%TD*%
D18*
%TO.P,D9,1,K_1*%
%TO.N,ROW0*%
X208940000Y-52750000D03*
D19*
%TO.P,D9,2,A_2*%
%TO.N,Net-(D9-A)*%
X216560000Y-52750000D03*
%TD*%
D27*
%TO.P,C2,1*%
%TO.N,LEDPWR*%
X311250000Y-40187500D03*
%TO.P,C2,2*%
%TO.N,GND*%
X311250000Y-43312500D03*
%TD*%
D17*
%TO.P,D154,1,VSS_1*%
%TO.N,GND*%
X347847500Y-153000000D03*
%TO.P,D154,2,DIN_2*%
%TO.N,Net-(D153-DOUT)*%
X347847500Y-151500000D03*
%TO.P,D154,3,VDD_3*%
%TO.N,LEDPWR*%
X342397500Y-151500000D03*
%TO.P,D154,4,DOUT_4*%
%TO.N,Net-(D154-DOUT)*%
X342397500Y-153000000D03*
%TD*%
D18*
%TO.P,D7,1,K_1*%
%TO.N,ROW0*%
X174625000Y-52705000D03*
D19*
%TO.P,D7,2,A_2*%
%TO.N,Net-(D7-A)*%
X182245000Y-52705000D03*
%TD*%
D17*
%TO.P,D119,1,VSS_1*%
%TO.N,GND*%
X300225000Y-96000000D03*
%TO.P,D119,2,DIN_2*%
%TO.N,Net-(D118-DOUT)*%
X300225000Y-94500000D03*
%TO.P,D119,3,VDD_3*%
%TO.N,LEDPWR*%
X294775000Y-94500000D03*
%TO.P,D119,4,DOUT_4*%
%TO.N,LED3*%
X294775000Y-96000000D03*
%TD*%
D28*
%TO.P,D39,1,K_1*%
%TO.N,ROW2*%
X283250000Y-95560000D03*
D19*
%TO.P,D39,2,A_2*%
%TO.N,Net-(D39-A)*%
X283250000Y-87940000D03*
%TD*%
D17*
%TO.P,D127,1,VSS_1*%
%TO.N,GND*%
X185975000Y-115000000D03*
%TO.P,D127,2,DIN_2*%
%TO.N,Net-(D126-DOUT)*%
X185975000Y-113500000D03*
%TO.P,D127,3,VDD_3*%
%TO.N,LEDPWR*%
X180525000Y-113500000D03*
%TO.P,D127,4,DOUT_4*%
%TO.N,Net-(D127-DOUT)*%
X180525000Y-115000000D03*
%TD*%
D29*
%TO.P,R2,1*%
%TO.N,CS*%
X391500000Y-75500000D03*
%TO.P,R2,2*%
%TO.N,SLAVEPWR*%
X393500000Y-75500000D03*
%TD*%
D18*
%TO.P,D50,1,K_1*%
%TO.N,ROW3*%
X236380000Y-119250000D03*
D19*
%TO.P,D50,2,A_2*%
%TO.N,Net-(D50-A)*%
X244000000Y-119250000D03*
%TD*%
D30*
%TO.P,R12,1*%
%TO.N,SLAVEPWR*%
X391250000Y-80750000D03*
%TO.P,R12,2*%
%TO.N,E3A*%
X389250000Y-80750000D03*
%TD*%
D17*
%TO.P,D146,1,VSS_1*%
%TO.N,GND*%
X64478750Y-153000000D03*
%TO.P,D146,2,DIN_2*%
%TO.N,LED5*%
X64478750Y-151500000D03*
%TO.P,D146,3,VDD_3*%
%TO.N,LEDPWR*%
X59028750Y-151500000D03*
%TO.P,D146,4,DOUT_4*%
%TO.N,Net-(D146-DOUT)*%
X59028750Y-153000000D03*
%TD*%
%TO.P,D95,1,VSS_1*%
%TO.N,GND*%
X95435000Y-77000000D03*
%TO.P,D95,2,DIN_2*%
%TO.N,Net-(D94-DOUT)*%
X95435000Y-75500000D03*
%TO.P,D95,3,VDD_3*%
%TO.N,LEDPWR*%
X89985000Y-75500000D03*
%TO.P,D95,4,DOUT_4*%
%TO.N,Net-(D95-DOUT)*%
X89985000Y-77000000D03*
%TD*%
D18*
%TO.P,D62,1,K_1*%
%TO.N,ROW4*%
X227012500Y-138430000D03*
D19*
%TO.P,D62,2,A_2*%
%TO.N,Net-(D62-A)*%
X234632500Y-138430000D03*
%TD*%
D17*
%TO.P,D92,1,VSS_1*%
%TO.N,GND*%
X38285000Y-77000000D03*
%TO.P,D92,2,DIN_2*%
%TO.N,LED1*%
X38285000Y-75500000D03*
%TO.P,D92,3,VDD_3*%
%TO.N,LEDPWR*%
X32835000Y-75500000D03*
%TO.P,D92,4,DOUT_4*%
%TO.N,Net-(D92-DOUT)*%
X32835000Y-77000000D03*
%TD*%
D18*
%TO.P,D52,1,K_1*%
%TO.N,ROW3*%
X286543750Y-119380000D03*
D19*
%TO.P,D52,2,A_2*%
%TO.N,Net-(D52-A)*%
X294163750Y-119380000D03*
%TD*%
D18*
%TO.P,D45,1,K_1*%
%TO.N,ROW3*%
X146940000Y-119250000D03*
D19*
%TO.P,D45,2,A_2*%
%TO.N,Net-(D45-A)*%
X154560000Y-119250000D03*
%TD*%
D17*
%TO.P,D76,1,VSS_1*%
%TO.N,GND*%
X38225000Y-48250000D03*
%TO.P,D76,2,DIN_2*%
%TO.N,LEDData*%
X38225000Y-46750000D03*
%TO.P,D76,3,VDD_3*%
%TO.N,LEDPWR*%
X32775000Y-46750000D03*
%TO.P,D76,4,DOUT_4*%
%TO.N,Net-(D76-DOUT)*%
X32775000Y-48250000D03*
%TD*%
D20*
%TO.P,C3,1*%
%TO.N,LEDPWR*%
X301037500Y-61750000D03*
%TO.P,C3,2*%
%TO.N,GND*%
X298962500Y-61750000D03*
%TD*%
D18*
%TO.P,D36,1,K_1*%
%TO.N,ROW2*%
X218190000Y-100250000D03*
D19*
%TO.P,D36,2,A_2*%
%TO.N,Net-(D36-A)*%
X225810000Y-100250000D03*
%TD*%
D17*
%TO.P,D98,1,VSS_1*%
%TO.N,GND*%
X152585000Y-77000000D03*
%TO.P,D98,2,DIN_2*%
%TO.N,Net-(D97-DOUT)*%
X152585000Y-75500000D03*
%TO.P,D98,3,VDD_3*%
%TO.N,LEDPWR*%
X147135000Y-75500000D03*
%TO.P,D98,4,DOUT_4*%
%TO.N,Net-(D98-DOUT)*%
X147135000Y-77000000D03*
%TD*%
D18*
%TO.P,D22,1,K_1*%
%TO.N,ROW1*%
X189940000Y-81250000D03*
D19*
%TO.P,D22,2,A_2*%
%TO.N,Net-(D22-A)*%
X197560000Y-81250000D03*
%TD*%
D18*
%TO.P,D1,1,K_1*%
%TO.N,ROW0*%
X34380000Y-52750000D03*
D19*
%TO.P,D1,2,A_2*%
%TO.N,Net-(D1-A)*%
X42000000Y-52750000D03*
%TD*%
D18*
%TO.P,D32,1,K_1*%
%TO.N,ROW2*%
X142190000Y-100250000D03*
D19*
%TO.P,D32,2,A_2*%
%TO.N,Net-(D32-A)*%
X149810000Y-100250000D03*
%TD*%
D18*
%TO.P,D12,1,K_1*%
%TO.N,ROW0*%
X278940000Y-52750000D03*
D19*
%TO.P,D12,2,A_2*%
%TO.N,Net-(D12-A)*%
X286560000Y-52750000D03*
%TD*%
D18*
%TO.P,D72,1,K_1*%
%TO.N,ROW5*%
X271940000Y-157500000D03*
D19*
%TO.P,D72,2,A_2*%
%TO.N,Net-(D72-A)*%
X279560000Y-157500000D03*
%TD*%
D17*
%TO.P,D126,1,VSS_1*%
%TO.N,GND*%
X166872500Y-115000000D03*
%TO.P,D126,2,DIN_2*%
%TO.N,Net-(D125-DOUT)*%
X166872500Y-113500000D03*
%TO.P,D126,3,VDD_3*%
%TO.N,LEDPWR*%
X161422500Y-113500000D03*
%TO.P,D126,4,DOUT_4*%
%TO.N,Net-(D126-DOUT)*%
X161422500Y-115000000D03*
%TD*%
%TO.P,D111,1,VSS_1*%
%TO.N,GND*%
X143060000Y-96000000D03*
%TO.P,D111,2,DIN_2*%
%TO.N,Net-(D110-DOUT)*%
X143060000Y-94500000D03*
%TO.P,D111,3,VDD_3*%
%TO.N,LEDPWR*%
X137610000Y-94500000D03*
%TO.P,D111,4,DOUT_4*%
%TO.N,Net-(D111-DOUT)*%
X137610000Y-96000000D03*
%TD*%
%TO.P,D105,1,VSS_1*%
%TO.N,GND*%
X295475000Y-77000000D03*
%TO.P,D105,2,DIN_2*%
%TO.N,Net-(D104-DOUT)*%
X295475000Y-75500000D03*
%TO.P,D105,3,VDD_3*%
%TO.N,LEDPWR*%
X290025000Y-75500000D03*
%TO.P,D105,4,DOUT_4*%
%TO.N,LED2*%
X290025000Y-77000000D03*
%TD*%
D18*
%TO.P,D54,1,K_1*%
%TO.N,ROW4*%
X75130000Y-138500000D03*
D19*
%TO.P,D54,2,A_2*%
%TO.N,Net-(D54-A)*%
X82750000Y-138500000D03*
%TD*%
D17*
%TO.P,D109,1,VSS_1*%
%TO.N,GND*%
X104960000Y-96000000D03*
%TO.P,D109,2,DIN_2*%
%TO.N,Net-(D108-DOUT)*%
X104960000Y-94500000D03*
%TO.P,D109,3,VDD_3*%
%TO.N,LEDPWR*%
X99510000Y-94500000D03*
%TO.P,D109,4,DOUT_4*%
%TO.N,Net-(D109-DOUT)*%
X99510000Y-96000000D03*
%TD*%
%TO.P,D107,1,VSS_1*%
%TO.N,GND*%
X66860000Y-96000000D03*
%TO.P,D107,2,DIN_2*%
%TO.N,Net-(D106-DOUT)*%
X66860000Y-94500000D03*
%TO.P,D107,3,VDD_3*%
%TO.N,LEDPWR*%
X61410000Y-94500000D03*
%TO.P,D107,4,DOUT_4*%
%TO.N,Net-(D107-DOUT)*%
X61410000Y-96000000D03*
%TD*%
%TO.P,D131,1,VSS_1*%
%TO.N,GND*%
X262122500Y-115000000D03*
%TO.P,D131,2,DIN_2*%
%TO.N,Net-(D130-DOUT)*%
X262122500Y-113500000D03*
%TO.P,D131,3,VDD_3*%
%TO.N,LEDPWR*%
X256672500Y-113500000D03*
%TO.P,D131,4,DOUT_4*%
%TO.N,Net-(D131-DOUT)*%
X256672500Y-115000000D03*
%TD*%
D18*
%TO.P,D160,1,K_1*%
%TO.N,ROW4*%
X391750000Y-108500000D03*
D19*
%TO.P,D160,2,A_2*%
%TO.N,Net-(D160-A)*%
X399370000Y-108500000D03*
%TD*%
D17*
%TO.P,D93,1,VSS_1*%
%TO.N,GND*%
X57335000Y-77000000D03*
%TO.P,D93,2,DIN_2*%
%TO.N,Net-(D92-DOUT)*%
X57335000Y-75500000D03*
%TO.P,D93,3,VDD_3*%
%TO.N,LEDPWR*%
X51885000Y-75500000D03*
%TO.P,D93,4,DOUT_4*%
%TO.N,Net-(D93-DOUT)*%
X51885000Y-77000000D03*
%TD*%
%TO.P,D104,1,VSS_1*%
%TO.N,GND*%
X266885000Y-77000000D03*
%TO.P,D104,2,DIN_2*%
%TO.N,Net-(D103-DOUT)*%
X266885000Y-75500000D03*
%TO.P,D104,3,VDD_3*%
%TO.N,LEDPWR*%
X261435000Y-75500000D03*
%TO.P,D104,4,DOUT_4*%
%TO.N,Net-(D104-DOUT)*%
X261435000Y-77000000D03*
%TD*%
D18*
%TO.P,D40,1,K_1*%
%TO.N,ROW3*%
X43656250Y-119380000D03*
D19*
%TO.P,D40,2,A_2*%
%TO.N,Net-(D40-A)*%
X51276250Y-119380000D03*
%TD*%
D17*
%TO.P,D141,1,VSS_1*%
%TO.N,GND*%
X214497500Y-134000000D03*
%TO.P,D141,2,DIN_2*%
%TO.N,Net-(D140-DOUT)*%
X214497500Y-132500000D03*
%TO.P,D141,3,VDD_3*%
%TO.N,LEDPWR*%
X209047500Y-132500000D03*
%TO.P,D141,4,DOUT_4*%
%TO.N,Net-(D141-DOUT)*%
X209047500Y-134000000D03*
%TD*%
D18*
%TO.P,D77,1,K_1*%
%TO.N,ROW5*%
X322262500Y-157480000D03*
D19*
%TO.P,D77,2,A_2*%
%TO.N,Net-(D77-A)*%
X329882500Y-157480000D03*
%TD*%
D18*
%TO.P,D34,1,K_1*%
%TO.N,ROW2*%
X177690000Y-100250000D03*
D19*
%TO.P,D34,2,A_2*%
%TO.N,Net-(D34-A)*%
X185310000Y-100250000D03*
%TD*%
D18*
%TO.P,D37,1,K_1*%
%TO.N,ROW2*%
X237440000Y-100250000D03*
D19*
%TO.P,D37,2,A_2*%
%TO.N,Net-(D37-A)*%
X245060000Y-100250000D03*
%TD*%
D18*
%TO.P,D21,1,K_1*%
%TO.N,ROW1*%
X170940000Y-81250000D03*
D19*
%TO.P,D21,2,A_2*%
%TO.N,Net-(D21-A)*%
X178560000Y-81250000D03*
%TD*%
D17*
%TO.P,D89,1,VSS_1*%
%TO.N,GND*%
X266885000Y-48500000D03*
%TO.P,D89,2,DIN_2*%
%TO.N,Net-(D88-DOUT)*%
X266885000Y-47000000D03*
%TO.P,D89,3,VDD_3*%
%TO.N,LEDPWR*%
X261435000Y-47000000D03*
%TO.P,D89,4,DOUT_4*%
%TO.N,Net-(D89-DOUT)*%
X261435000Y-48500000D03*
%TD*%
D31*
%TO.P,C10,1*%
%TO.N,LEDPWR*%
X116000000Y-150537500D03*
%TO.P,C10,2*%
%TO.N,GND*%
X116000000Y-148462500D03*
%TD*%
D18*
%TO.P,D27,1,K_1*%
%TO.N,ROW2*%
X39690000Y-100250000D03*
D19*
%TO.P,D27,2,A_2*%
%TO.N,Net-(D27-A)*%
X47310000Y-100250000D03*
%TD*%
D17*
%TO.P,D88,1,VSS_1*%
%TO.N,GND*%
X247835000Y-48500000D03*
%TO.P,D88,2,DIN_2*%
%TO.N,Net-(D87-DOUT)*%
X247835000Y-47000000D03*
%TO.P,D88,3,VDD_3*%
%TO.N,LEDPWR*%
X242385000Y-47000000D03*
%TO.P,D88,4,DOUT_4*%
%TO.N,Net-(D88-DOUT)*%
X242385000Y-48500000D03*
%TD*%
D18*
%TO.P,D71,1,K_1*%
%TO.N,ROW5*%
X248443750Y-157480000D03*
D19*
%TO.P,D71,2,A_2*%
%TO.N,Net-(D71-A)*%
X256063750Y-157480000D03*
%TD*%
D17*
%TO.P,D148,1,VSS_1*%
%TO.N,GND*%
X159725000Y-153000000D03*
%TO.P,D148,2,DIN_2*%
%TO.N,Net-(D147-DOUT)*%
X159725000Y-151500000D03*
%TO.P,D148,3,VDD_3*%
%TO.N,LEDPWR*%
X154275000Y-151500000D03*
%TO.P,D148,4,DOUT_4*%
%TO.N,Net-(D148-DOUT)*%
X154275000Y-153000000D03*
%TD*%
%TO.P,D135,1,VSS_1*%
%TO.N,GND*%
X100197500Y-134000000D03*
%TO.P,D135,2,DIN_2*%
%TO.N,Net-(D134-DOUT)*%
X100197500Y-132500000D03*
%TO.P,D135,3,VDD_3*%
%TO.N,LEDPWR*%
X94747500Y-132500000D03*
%TO.P,D135,4,DOUT_4*%
%TO.N,Net-(D135-DOUT)*%
X94747500Y-134000000D03*
%TD*%
%TO.P,D156,1,VSS_1*%
%TO.N,GND*%
X347847500Y-134000000D03*
%TO.P,D156,2,DIN_2*%
%TO.N,Net-(D155-DOUT)*%
X347847500Y-132500000D03*
%TO.P,D156,3,VDD_3*%
%TO.N,LEDPWR*%
X342397500Y-132500000D03*
%TO.P,D156,4,DOUT_4*%
%TO.N,unconnected-(D156-DOUT-Pad4)*%
X342397500Y-134000000D03*
%TD*%
%TO.P,D81,1,VSS_1*%
%TO.N,GND*%
X95475000Y-48500000D03*
%TO.P,D81,2,DIN_2*%
%TO.N,Net-(D80-DOUT)*%
X95475000Y-47000000D03*
%TO.P,D81,3,VDD_3*%
%TO.N,LEDPWR*%
X90025000Y-47000000D03*
%TO.P,D81,4,DOUT_4*%
%TO.N,Net-(D81-DOUT)*%
X90025000Y-48500000D03*
%TD*%
D18*
%TO.P,D65,1,K_1*%
%TO.N,ROW4*%
X337502500Y-138430000D03*
D19*
%TO.P,D65,2,A_2*%
%TO.N,Net-(D65-A)*%
X345122500Y-138430000D03*
%TD*%
D32*
%TO.P,DEBUG1,1,1_1*%
%TO.N,GND*%
X359825000Y-45825000D03*
X359825000Y-43675000D03*
%TO.P,DEBUG1,2,2_2*%
%TO.N,RUN*%
X355675000Y-45825000D03*
X355675000Y-43675000D03*
%TD*%
D18*
%TO.P,D64,1,K_1*%
%TO.N,ROW4*%
X278440000Y-138250000D03*
D19*
%TO.P,D64,2,A_2*%
%TO.N,Net-(D64-A)*%
X286060000Y-138250000D03*
%TD*%
D18*
%TO.P,D59,1,K_1*%
%TO.N,ROW4*%
X169862500Y-138430000D03*
D19*
%TO.P,D59,2,A_2*%
%TO.N,Net-(D59-A)*%
X177482500Y-138430000D03*
%TD*%
D17*
%TO.P,D84,1,VSS_1*%
%TO.N,GND*%
X162110000Y-48500000D03*
%TO.P,D84,2,DIN_2*%
%TO.N,Net-(D83-DOUT)*%
X162110000Y-47000000D03*
%TO.P,D84,3,VDD_3*%
%TO.N,LEDPWR*%
X156660000Y-47000000D03*
%TO.P,D84,4,DOUT_4*%
%TO.N,Net-(D84-DOUT)*%
X156660000Y-48500000D03*
%TD*%
D18*
%TO.P,D20,1,K_1*%
%TO.N,ROW1*%
X151940000Y-81250000D03*
D19*
%TO.P,D20,2,A_2*%
%TO.N,Net-(D20-A)*%
X159560000Y-81250000D03*
%TD*%
D17*
%TO.P,D124,1,VSS_1*%
%TO.N,GND*%
X128725000Y-115000000D03*
%TO.P,D124,2,DIN_2*%
%TO.N,Net-(D123-DOUT)*%
X128725000Y-113500000D03*
%TO.P,D124,3,VDD_3*%
%TO.N,LEDPWR*%
X123275000Y-113500000D03*
%TO.P,D124,4,DOUT_4*%
%TO.N,Net-(D124-DOUT)*%
X123275000Y-115000000D03*
%TD*%
%TO.P,D91,1,VSS_1*%
%TO.N,GND*%
X304975000Y-48500000D03*
%TO.P,D91,2,DIN_2*%
%TO.N,Net-(D90-DOUT)*%
X304975000Y-47000000D03*
%TO.P,D91,3,VDD_3*%
%TO.N,LEDPWR*%
X299525000Y-47000000D03*
%TO.P,D91,4,DOUT_4*%
%TO.N,LED1*%
X299525000Y-48500000D03*
%TD*%
%TO.P,D114,1,VSS_1*%
%TO.N,GND*%
X200225000Y-96000000D03*
%TO.P,D114,2,DIN_2*%
%TO.N,Net-(D113-DOUT)*%
X200225000Y-94500000D03*
%TO.P,D114,3,VDD_3*%
%TO.N,LEDPWR*%
X194775000Y-94500000D03*
%TO.P,D114,4,DOUT_4*%
%TO.N,Net-(D114-DOUT)*%
X194775000Y-96000000D03*
%TD*%
D18*
%TO.P,D42,1,K_1*%
%TO.N,ROW3*%
X89852500Y-119380000D03*
D19*
%TO.P,D42,2,A_2*%
%TO.N,Net-(D42-A)*%
X97472500Y-119380000D03*
%TD*%
D17*
%TO.P,D99,1,VSS_1*%
%TO.N,GND*%
X171635000Y-77000000D03*
%TO.P,D99,2,DIN_2*%
%TO.N,Net-(D98-DOUT)*%
X171635000Y-75500000D03*
%TO.P,D99,3,VDD_3*%
%TO.N,LEDPWR*%
X166185000Y-75500000D03*
%TO.P,D99,4,DOUT_4*%
%TO.N,Net-(D100-DIN)*%
X166185000Y-77000000D03*
%TD*%
D20*
%TO.P,C8,1*%
%TO.N,LEDPWR*%
X364287500Y-133500000D03*
%TO.P,C8,2*%
%TO.N,GND*%
X362212500Y-133500000D03*
%TD*%
D18*
%TO.P,D16,1,K_1*%
%TO.N,ROW1*%
X75440000Y-81500000D03*
D19*
%TO.P,D16,2,A_2*%
%TO.N,Net-(D16-A)*%
X83060000Y-81500000D03*
%TD*%
D17*
%TO.P,D90,1,VSS_1*%
%TO.N,GND*%
X285975000Y-48500000D03*
%TO.P,D90,2,DIN_2*%
%TO.N,Net-(D89-DOUT)*%
X285975000Y-47000000D03*
%TO.P,D90,3,VDD_3*%
%TO.N,LEDPWR*%
X280525000Y-47000000D03*
%TO.P,D90,4,DOUT_4*%
%TO.N,Net-(D90-DOUT)*%
X280525000Y-48500000D03*
%TD*%
%TO.P,D120,1,VSS_1*%
%TO.N,GND*%
X45475000Y-115000000D03*
%TO.P,D120,2,DIN_2*%
%TO.N,LED3*%
X45475000Y-113500000D03*
%TO.P,D120,3,VDD_3*%
%TO.N,LEDPWR*%
X40025000Y-113500000D03*
%TO.P,D120,4,DOUT_4*%
%TO.N,Net-(D120-DOUT)*%
X40025000Y-115000000D03*
%TD*%
%TO.P,D118,1,VSS_1*%
%TO.N,GND*%
X276475000Y-96000000D03*
%TO.P,D118,2,DIN_2*%
%TO.N,Net-(D117-DOUT)*%
X276475000Y-94500000D03*
%TO.P,D118,3,VDD_3*%
%TO.N,LEDPWR*%
X271025000Y-94500000D03*
%TO.P,D118,4,DOUT_4*%
%TO.N,Net-(D118-DOUT)*%
X271025000Y-96000000D03*
%TD*%
D18*
%TO.P,D3,1,K_1*%
%TO.N,ROW0*%
X89690000Y-52750000D03*
D19*
%TO.P,D3,2,A_2*%
%TO.N,Net-(D3-A)*%
X97310000Y-52750000D03*
%TD*%
D17*
%TO.P,D137,1,VSS_1*%
%TO.N,GND*%
X138297500Y-134000000D03*
%TO.P,D137,2,DIN_2*%
%TO.N,Net-(D136-DOUT)*%
X138297500Y-132500000D03*
%TO.P,D137,3,VDD_3*%
%TO.N,LEDPWR*%
X132847500Y-132500000D03*
%TO.P,D137,4,DOUT_4*%
%TO.N,Net-(D137-DOUT)*%
X132847500Y-134000000D03*
%TD*%
D18*
%TO.P,D33,1,K_1*%
%TO.N,ROW2*%
X161290000Y-100330000D03*
D19*
%TO.P,D33,2,A_2*%
%TO.N,Net-(D33-A)*%
X168910000Y-100330000D03*
%TD*%
D18*
%TO.P,D2,1,K_1*%
%TO.N,ROW0*%
X71190000Y-52750000D03*
D19*
%TO.P,D2,2,A_2*%
%TO.N,Net-(D2-A)*%
X78810000Y-52750000D03*
%TD*%
D18*
%TO.P,D11,1,K_1*%
%TO.N,ROW0*%
X260350000Y-52705000D03*
D19*
%TO.P,D11,2,A_2*%
%TO.N,Net-(D11-A)*%
X267970000Y-52705000D03*
%TD*%
D18*
%TO.P,D41,1,K_1*%
%TO.N,ROW3*%
X70940000Y-119250000D03*
D19*
%TO.P,D41,2,A_2*%
%TO.N,Net-(D41-A)*%
X78560000Y-119250000D03*
%TD*%
D17*
%TO.P,D115,1,VSS_1*%
%TO.N,GND*%
X219225000Y-96000000D03*
%TO.P,D115,2,DIN_2*%
%TO.N,Net-(D114-DOUT)*%
X219225000Y-94500000D03*
%TO.P,D115,3,VDD_3*%
%TO.N,LEDPWR*%
X213775000Y-94500000D03*
%TO.P,D115,4,DOUT_4*%
%TO.N,Net-(D115-DOUT)*%
X213775000Y-96000000D03*
%TD*%
D31*
%TO.P,C7,1*%
%TO.N,LEDPWR*%
X48000000Y-54075000D03*
%TO.P,C7,2*%
%TO.N,GND*%
X48000000Y-52000000D03*
%TD*%
D18*
%TO.P,D158,1,K_1*%
%TO.N,ROW0*%
X321690000Y-109000000D03*
D19*
%TO.P,D158,2,A_2*%
%TO.N,Net-(D158-A)*%
X329310000Y-109000000D03*
%TD*%
D17*
%TO.P,D138,1,VSS_1*%
%TO.N,GND*%
X157347500Y-134000000D03*
%TO.P,D138,2,DIN_2*%
%TO.N,Net-(D137-DOUT)*%
X157347500Y-132500000D03*
%TO.P,D138,3,VDD_3*%
%TO.N,LEDPWR*%
X151897500Y-132500000D03*
%TO.P,D138,4,DOUT_4*%
%TO.N,Net-(D138-DOUT)*%
X151897500Y-134000000D03*
%TD*%
%TO.P,D140,1,VSS_1*%
%TO.N,GND*%
X195475000Y-134000000D03*
%TO.P,D140,2,DIN_2*%
%TO.N,Net-(D139-DOUT)*%
X195475000Y-132500000D03*
%TO.P,D140,3,VDD_3*%
%TO.N,LEDPWR*%
X190025000Y-132500000D03*
%TO.P,D140,4,DOUT_4*%
%TO.N,Net-(D140-DOUT)*%
X190025000Y-134000000D03*
%TD*%
D18*
%TO.P,D6,1,K_1*%
%TO.N,ROW0*%
X155575000Y-52705000D03*
D19*
%TO.P,D6,2,A_2*%
%TO.N,Net-(D6-A)*%
X163195000Y-52705000D03*
%TD*%
D22*
%TO.P,D68,1,K_1*%
%TO.N,ROW5*%
X89376250Y-157480000D03*
D19*
%TO.P,D68,2,A_2*%
%TO.N,Net-(D68-A)*%
X81756250Y-157480000D03*
%TD*%
D17*
%TO.P,D143,1,VSS_1*%
%TO.N,GND*%
X252597500Y-134000000D03*
%TO.P,D143,2,DIN_2*%
%TO.N,Net-(D142-DOUT)*%
X252597500Y-132500000D03*
%TO.P,D143,3,VDD_3*%
%TO.N,LEDPWR*%
X247147500Y-132500000D03*
%TO.P,D143,4,DOUT_4*%
%TO.N,Net-(D143-DOUT)*%
X247147500Y-134000000D03*
%TD*%
D18*
%TO.P,D18,1,K_1*%
%TO.N,ROW1*%
X113690000Y-81250000D03*
D19*
%TO.P,D18,2,A_2*%
%TO.N,Net-(D18-A)*%
X121310000Y-81250000D03*
%TD*%
D33*
%TO.P,D161,1,K_1*%
%TO.N,RUN*%
X359750000Y-58500000D03*
D19*
%TO.P,D161,2,A_2*%
%TO.N,Net-(A2-RUN)*%
X359750000Y-66120000D03*
%TD*%
D18*
%TO.P,D31,1,K_1*%
%TO.N,ROW2*%
X119750000Y-100250000D03*
D19*
%TO.P,D31,2,A_2*%
%TO.N,Net-(D31-A)*%
X127370000Y-100250000D03*
%TD*%
D22*
%TO.P,D69,1,K_1*%
%TO.N,ROW5*%
X160813750Y-157480000D03*
D19*
%TO.P,D69,2,A_2*%
%TO.N,Net-(D69-A)*%
X153193750Y-157480000D03*
%TD*%
D18*
%TO.P,D35,1,K_1*%
%TO.N,ROW2*%
X198437500Y-100330000D03*
D19*
%TO.P,D35,2,A_2*%
%TO.N,Net-(D35-A)*%
X206057500Y-100330000D03*
%TD*%
D18*
%TO.P,D38,1,K_1*%
%TO.N,ROW2*%
X253206250Y-100330000D03*
D19*
%TO.P,D38,2,A_2*%
%TO.N,Net-(D38-A)*%
X260826250Y-100330000D03*
%TD*%
D17*
%TO.P,D121,1,VSS_1*%
%TO.N,GND*%
X71622500Y-115250000D03*
%TO.P,D121,2,DIN_2*%
%TO.N,Net-(D120-DOUT)*%
X71622500Y-113750000D03*
%TO.P,D121,3,VDD_3*%
%TO.N,LEDPWR*%
X66172500Y-113750000D03*
%TO.P,D121,4,DOUT_4*%
%TO.N,Net-(D121-DOUT)*%
X66172500Y-115250000D03*
%TD*%
%TO.P,D94,1,VSS_1*%
%TO.N,GND*%
X76385000Y-77000000D03*
%TO.P,D94,2,DIN_2*%
%TO.N,Net-(D93-DOUT)*%
X76385000Y-75500000D03*
%TO.P,D94,3,VDD_3*%
%TO.N,LEDPWR*%
X70935000Y-75500000D03*
%TO.P,D94,4,DOUT_4*%
%TO.N,Net-(D94-DOUT)*%
X70935000Y-77000000D03*
%TD*%
D34*
%TO.P,R1,1*%
%TO.N,SLAVEPWR*%
X405750000Y-78250000D03*
%TO.P,R1,2*%
%TO.N,Net-(J1-Pin_11)*%
X405750000Y-80250000D03*
%TD*%
D17*
%TO.P,D117,1,VSS_1*%
%TO.N,GND*%
X257360000Y-96000000D03*
%TO.P,D117,2,DIN_2*%
%TO.N,Net-(D116-DOUT)*%
X257360000Y-94500000D03*
%TO.P,D117,3,VDD_3*%
%TO.N,LEDPWR*%
X251910000Y-94500000D03*
%TO.P,D117,4,DOUT_4*%
%TO.N,Net-(D117-DOUT)*%
X251910000Y-96000000D03*
%TD*%
%TO.P,D106,1,VSS_1*%
%TO.N,GND*%
X43047500Y-96000000D03*
%TO.P,D106,2,DIN_2*%
%TO.N,LED2*%
X43047500Y-94500000D03*
%TO.P,D106,3,VDD_3*%
%TO.N,LEDPWR*%
X37597500Y-94500000D03*
%TO.P,D106,4,DOUT_4*%
%TO.N,Net-(D106-DOUT)*%
X37597500Y-96000000D03*
%TD*%
D18*
%TO.P,D63,1,K_1*%
%TO.N,ROW4*%
X246062500Y-138430000D03*
D19*
%TO.P,D63,2,A_2*%
%TO.N,Net-(D63-A)*%
X253682500Y-138430000D03*
%TD*%
D17*
%TO.P,D144,1,VSS_1*%
%TO.N,GND*%
X288287000Y-134000000D03*
%TO.P,D144,2,DIN_2*%
%TO.N,Net-(D143-DOUT)*%
X288287000Y-132500000D03*
%TO.P,D144,3,VDD_3*%
%TO.N,LEDPWR*%
X282837000Y-132500000D03*
%TO.P,D144,4,DOUT_4*%
%TO.N,Net-(D144-DOUT)*%
X282837000Y-134000000D03*
%TD*%
D18*
%TO.P,D26,1,K_1*%
%TO.N,ROW1*%
X266065000Y-81280000D03*
D19*
%TO.P,D26,2,A_2*%
%TO.N,Net-(D26-A)*%
X273685000Y-81280000D03*
%TD*%
D18*
%TO.P,D30,1,K_1*%
%TO.N,ROW2*%
X103187500Y-100330000D03*
D19*
%TO.P,D30,2,A_2*%
%TO.N,Net-(D30-A)*%
X110807500Y-100330000D03*
%TD*%
D18*
%TO.P,D73,1,K_1*%
%TO.N,ROW5*%
X295630000Y-157500000D03*
D19*
%TO.P,D73,2,A_2*%
%TO.N,Net-(D73-A)*%
X303250000Y-157500000D03*
%TD*%
D18*
%TO.P,D49,1,K_1*%
%TO.N,ROW3*%
X217487500Y-119380000D03*
D19*
%TO.P,D49,2,A_2*%
%TO.N,Net-(D49-A)*%
X225107500Y-119380000D03*
%TD*%
D18*
%TO.P,D15,1,K_1*%
%TO.N,ROW1*%
X56440000Y-81250000D03*
D19*
%TO.P,D15,2,A_2*%
%TO.N,Net-(D15-A)*%
X64060000Y-81250000D03*
%TD*%
D17*
%TO.P,D108,1,VSS_1*%
%TO.N,GND*%
X85910000Y-96000000D03*
%TO.P,D108,2,DIN_2*%
%TO.N,Net-(D107-DOUT)*%
X85910000Y-94500000D03*
%TO.P,D108,3,VDD_3*%
%TO.N,LEDPWR*%
X80460000Y-94500000D03*
%TO.P,D108,4,DOUT_4*%
%TO.N,Net-(D108-DOUT)*%
X80460000Y-96000000D03*
%TD*%
D18*
%TO.P,D47,1,K_1*%
%TO.N,ROW3*%
X185690000Y-119250000D03*
D19*
%TO.P,D47,2,A_2*%
%TO.N,Net-(D47-A)*%
X193310000Y-119250000D03*
%TD*%
D18*
%TO.P,D8,1,K_1*%
%TO.N,ROW0*%
X193675000Y-52705000D03*
D19*
%TO.P,D8,2,A_2*%
%TO.N,Net-(D8-A)*%
X201295000Y-52705000D03*
%TD*%
D18*
%TO.P,D159,1,K_1*%
%TO.N,ROW3*%
X356690000Y-108750000D03*
D19*
%TO.P,D159,2,A_2*%
%TO.N,Net-(D159-A)*%
X364310000Y-108750000D03*
%TD*%
D18*
%TO.P,D78,1,K_1*%
%TO.N,ROW5*%
X341312500Y-157480000D03*
D19*
%TO.P,D78,2,A_2*%
%TO.N,Net-(D78-A)*%
X348932500Y-157480000D03*
%TD*%
D17*
%TO.P,D80,1,VSS_1*%
%TO.N,GND*%
X76475000Y-48500000D03*
%TO.P,D80,2,DIN_2*%
%TO.N,Net-(D76-DOUT)*%
X76475000Y-47000000D03*
%TO.P,D80,3,VDD_3*%
%TO.N,LEDPWR*%
X71025000Y-47000000D03*
%TO.P,D80,4,DOUT_4*%
%TO.N,Net-(D80-DOUT)*%
X71025000Y-48500000D03*
%TD*%
D18*
%TO.P,D5,1,K_1*%
%TO.N,ROW0*%
X127000000Y-52705000D03*
D19*
%TO.P,D5,2,A_2*%
%TO.N,Net-(D5-A)*%
X134620000Y-52705000D03*
%TD*%
D24*
%TO.P,A1,1,UART0_TX_1*%
%TO.N,UART0_TX*%
X348250000Y-33000000D03*
D19*
%TO.P,A1,2,UART0_RX_2*%
%TO.N,UART0_RX*%
X348250000Y-35540000D03*
D25*
%TO.P,A1,3,GND_3*%
%TO.N,GND*%
X348250000Y-38080000D03*
D19*
%TO.P,A1,4,GPIO2_4*%
%TO.N,ROW0*%
X348250000Y-40620000D03*
%TO.P,A1,5,GPIO3_5*%
%TO.N,ROW1*%
X348250000Y-43160000D03*
%TO.P,A1,6,GPIO4_6*%
%TO.N,ROW2*%
X348250000Y-45700000D03*
%TO.P,A1,7,GPIO5_7*%
%TO.N,ROW3*%
X348250000Y-48240000D03*
D25*
%TO.P,A1,8,GND_8*%
%TO.N,GND*%
X348250000Y-50780000D03*
D19*
%TO.P,A1,9,GPIO6_9*%
%TO.N,ROW4*%
X348250000Y-53320000D03*
%TO.P,A1,10,GPIO7_10*%
%TO.N,ROW5*%
X348250000Y-55860000D03*
%TO.P,A1,11,GPIO8_11*%
%TO.N,COL0*%
X348250000Y-58400000D03*
%TO.P,A1,12,GPIO9_12*%
%TO.N,COL1*%
X348250000Y-60940000D03*
D25*
%TO.P,A1,13,GND_13*%
%TO.N,GND*%
X348250000Y-63480000D03*
D19*
%TO.P,A1,14,GPIO10_14*%
%TO.N,COL2*%
X348250000Y-66020000D03*
%TO.P,A1,15,GPIO11_15*%
%TO.N,COL3*%
X348250000Y-68560000D03*
%TO.P,A1,16,GPIO12_16*%
%TO.N,COL4*%
X348250000Y-71100000D03*
%TO.P,A1,17,GPIO13_17*%
%TO.N,COL5*%
X348250000Y-73640000D03*
D25*
%TO.P,A1,18,GND_18*%
%TO.N,GND*%
X348250000Y-76180000D03*
D19*
%TO.P,A1,19,GPIO14_19*%
%TO.N,COL6*%
X348250000Y-78720000D03*
%TO.P,A1,20,GPIO15_20*%
%TO.N,COL7*%
X348250000Y-81260000D03*
%TO.P,A1,21,GPIO16_21*%
%TO.N,unconnected-(A1-GPIO16-Pad21)*%
X330470000Y-81260000D03*
%TO.P,A1,22,GPIO17_22*%
%TO.N,COL13*%
X330470000Y-78720000D03*
D26*
%TO.P,A1,23,GND_23*%
%TO.N,GND*%
X330470000Y-76180000D03*
D19*
%TO.P,A1,24,GPIO18_24*%
%TO.N,COL12*%
X330470000Y-73640000D03*
%TO.P,A1,25,GPIO19_25*%
%TO.N,COL11*%
X330470000Y-71100000D03*
%TO.P,A1,26,GPIO20_26*%
%TO.N,COL10*%
X330470000Y-68560000D03*
%TO.P,A1,27,GPIO21_27*%
%TO.N,COL9*%
X330470000Y-66020000D03*
D26*
%TO.P,A1,28,GND_28*%
%TO.N,GND*%
X330470000Y-63480000D03*
D19*
%TO.P,A1,29,GPIO22_29*%
%TO.N,COL8*%
X330470000Y-60940000D03*
%TO.P,A1,30,RUN_30*%
%TO.N,Net-(A1-RUN)*%
X330470000Y-58400000D03*
%TO.P,A1,31,GPIO26_ADC0_31*%
%TO.N,unconnected-(A1-GPIO26_ADC0-Pad31)*%
X330470000Y-55860000D03*
%TO.P,A1,32,GPIO27_ADC1_32*%
%TO.N,unconnected-(A1-GPIO27_ADC1-Pad32)*%
X330470000Y-53320000D03*
D26*
%TO.P,A1,33,AGND_33*%
%TO.N,unconnected-(A1-AGND-Pad33)*%
X330470000Y-50780000D03*
D19*
%TO.P,A1,34,GPIO28_ADC2_34*%
%TO.N,unconnected-(A1-GPIO28_ADC2-Pad34)*%
X330470000Y-48240000D03*
%TO.P,A1,35,ADC_VREF_35*%
%TO.N,unconnected-(A1-ADC_VREF-Pad35)*%
X330470000Y-45700000D03*
%TO.P,A1,36,3V3_36*%
%TO.N,MASTERPWR*%
X330470000Y-43160000D03*
%TO.P,A1,37,3V3_EN_37*%
%TO.N,unconnected-(A1-3V3_EN-Pad37)*%
X330470000Y-40620000D03*
D26*
%TO.P,A1,38,GND_38*%
%TO.N,GND*%
X330470000Y-38080000D03*
D19*
%TO.P,A1,39,VSYS_39*%
%TO.N,unconnected-(A1-VSYS-Pad39)*%
X330470000Y-35540000D03*
%TO.P,A1,40,VBUS_40*%
%TO.N,unconnected-(A1-VBUS-Pad40)*%
X330470000Y-33000000D03*
%TD*%
D18*
%TO.P,D28,1,K_1*%
%TO.N,ROW2*%
X66040000Y-100330000D03*
D19*
%TO.P,D28,2,A_2*%
%TO.N,Net-(D28-A)*%
X73660000Y-100330000D03*
%TD*%
D18*
%TO.P,D4,1,K_1*%
%TO.N,ROW0*%
X107950000Y-52705000D03*
D19*
%TO.P,D4,2,A_2*%
%TO.N,Net-(D4-A)*%
X115570000Y-52705000D03*
%TD*%
D17*
%TO.P,D86,1,VSS_1*%
%TO.N,GND*%
X200225000Y-48500000D03*
%TO.P,D86,2,DIN_2*%
%TO.N,Net-(D85-DOUT)*%
X200225000Y-47000000D03*
%TO.P,D86,3,VDD_3*%
%TO.N,LEDPWR*%
X194775000Y-47000000D03*
%TO.P,D86,4,DOUT_4*%
%TO.N,Net-(D86-DOUT)*%
X194775000Y-48500000D03*
%TD*%
%TO.P,D125,1,VSS_1*%
%TO.N,GND*%
X147822500Y-115000000D03*
%TO.P,D125,2,DIN_2*%
%TO.N,Net-(D124-DOUT)*%
X147822500Y-113500000D03*
%TO.P,D125,3,VDD_3*%
%TO.N,LEDPWR*%
X142372500Y-113500000D03*
%TO.P,D125,4,DOUT_4*%
%TO.N,Net-(D125-DOUT)*%
X142372500Y-115000000D03*
%TD*%
%TO.P,D155,1,VSS_1*%
%TO.N,GND*%
X366897500Y-153000000D03*
%TO.P,D155,2,DIN_2*%
%TO.N,Net-(D154-DOUT)*%
X366897500Y-151500000D03*
%TO.P,D155,3,VDD_3*%
%TO.N,LEDPWR*%
X361447500Y-151500000D03*
%TO.P,D155,4,DOUT_4*%
%TO.N,Net-(D155-DOUT)*%
X361447500Y-153000000D03*
%TD*%
D18*
%TO.P,D23,1,K_1*%
%TO.N,ROW1*%
X208915000Y-81280000D03*
D19*
%TO.P,D23,2,A_2*%
%TO.N,Net-(D23-A)*%
X216535000Y-81280000D03*
%TD*%
D17*
%TO.P,D100,1,VSS_1*%
%TO.N,GND*%
X190685000Y-77000000D03*
%TO.P,D100,2,DIN_2*%
%TO.N,Net-(D100-DIN)*%
X190685000Y-75500000D03*
%TO.P,D100,3,VDD_3*%
%TO.N,LEDPWR*%
X185235000Y-75500000D03*
%TO.P,D100,4,DOUT_4*%
%TO.N,Net-(D100-DOUT)*%
X185235000Y-77000000D03*
%TD*%
D31*
%TO.P,C5,1*%
%TO.N,LEDPWR*%
X308250000Y-111037500D03*
%TO.P,C5,2*%
%TO.N,GND*%
X308250000Y-108962500D03*
%TD*%
D17*
%TO.P,D82,1,VSS_1*%
%TO.N,GND*%
X114475000Y-48500000D03*
%TO.P,D82,2,DIN_2*%
%TO.N,Net-(D81-DOUT)*%
X114475000Y-47000000D03*
%TO.P,D82,3,VDD_3*%
%TO.N,LEDPWR*%
X109025000Y-47000000D03*
%TO.P,D82,4,DOUT_4*%
%TO.N,Net-(D82-DOUT)*%
X109025000Y-48500000D03*
%TD*%
%TO.P,D83,1,VSS_1*%
%TO.N,GND*%
X133475000Y-48500000D03*
%TO.P,D83,2,DIN_2*%
%TO.N,Net-(D82-DOUT)*%
X133475000Y-47000000D03*
%TO.P,D83,3,VDD_3*%
%TO.N,LEDPWR*%
X128025000Y-47000000D03*
%TO.P,D83,4,DOUT_4*%
%TO.N,Net-(D83-DOUT)*%
X128025000Y-48500000D03*
%TD*%
D35*
%TO.N,COL0*%
X346250000Y-50500000D03*
%TO.N,COL11*%
X322000000Y-70000000D03*
%TO.N,COL6*%
X317299265Y-47950735D03*
%TO.N,COL1*%
X320500000Y-55650000D03*
%TO.N,COL7*%
X315250000Y-47100000D03*
%TO.N,GND*%
X230480735Y-77269265D03*
X391500000Y-128250000D03*
X385500000Y-124000000D03*
X389500000Y-50750000D03*
X395250000Y-87500000D03*
X294700735Y-115549265D03*
X377500000Y-62250000D03*
X307000000Y-48000000D03*
X290000000Y-133750000D03*
X313750000Y-150000000D03*
X350750000Y-98250000D03*
X47750000Y-114000000D03*
X346000000Y-74250000D03*
X362500000Y-42750000D03*
X211000000Y-149500000D03*
X110000000Y-87500000D03*
X178250000Y-133750000D03*
X330750000Y-117250000D03*
X125750000Y-95750000D03*
X296750000Y-61500000D03*
X391500000Y-124500000D03*
X159250000Y-133750000D03*
X269000000Y-48000000D03*
X301750000Y-94750000D03*
X249500000Y-48250000D03*
X130750000Y-114750000D03*
X297250000Y-77000000D03*
X221000000Y-96500000D03*
X222500000Y-58250000D03*
X381500000Y-124250000D03*
X202000000Y-95000000D03*
X312500000Y-37750000D03*
X48500000Y-152000000D03*
D36*
X321500000Y-43000000D03*
D35*
X394000000Y-117250000D03*
X342750000Y-115000000D03*
X173750000Y-76500000D03*
X92500000Y-115500000D03*
X192250000Y-77250000D03*
X44750000Y-95500000D03*
X302750000Y-112250000D03*
X41000000Y-76500000D03*
D36*
X314250000Y-43250000D03*
X320250000Y-38000000D03*
D35*
X304250000Y-152750000D03*
X326500000Y-76000000D03*
X327500000Y-41250000D03*
X245250000Y-114750000D03*
X182750000Y-95500000D03*
X149500000Y-115500000D03*
X97500000Y-48500000D03*
X240000000Y-96750000D03*
X381750000Y-119000000D03*
X72750000Y-58000000D03*
X116750000Y-146750000D03*
X322000000Y-37000000D03*
X161750000Y-153000000D03*
X333750000Y-63500000D03*
X145750000Y-54750000D03*
X308750000Y-106750000D03*
X66500000Y-153000000D03*
X90250000Y-152500000D03*
X322250000Y-38250000D03*
X216750000Y-133750000D03*
X248500000Y-111500000D03*
X385750000Y-127750000D03*
X201250000Y-129000000D03*
X87763015Y-95486985D03*
X68500000Y-96250000D03*
X116250000Y-77500000D03*
X391250000Y-117250000D03*
X312750000Y-41750000D03*
X389000000Y-76750000D03*
X363250000Y-76750000D03*
X164000000Y-48000000D03*
X330500000Y-153250000D03*
X275250000Y-111000000D03*
X235500000Y-134000000D03*
X83000000Y-133750000D03*
X353000000Y-42750000D03*
X394500000Y-124500000D03*
X108750000Y-58500000D03*
X384000000Y-143750000D03*
X187500000Y-115000000D03*
X43000000Y-152250000D03*
X202000000Y-48000000D03*
X40000000Y-48750000D03*
X363250000Y-50500000D03*
X278250000Y-95000000D03*
X154250000Y-77500000D03*
X383000000Y-91750000D03*
X392500000Y-136500000D03*
X233250000Y-152750000D03*
X344750000Y-53750000D03*
X226250000Y-114750000D03*
X78000000Y-77750000D03*
X313000000Y-45500000D03*
D36*
X384000000Y-122000000D03*
D35*
X55000000Y-109250000D03*
X269000000Y-76750000D03*
X163750000Y-96500000D03*
X267000000Y-128500000D03*
X107500000Y-95750000D03*
X316000000Y-43500000D03*
X287500000Y-48000000D03*
X256500000Y-153000000D03*
X344500000Y-61250000D03*
X172750000Y-104500000D03*
X52000000Y-133250000D03*
X102250000Y-133500000D03*
X116250000Y-48000000D03*
X385500000Y-115500000D03*
X144750000Y-96250000D03*
X392000000Y-115000000D03*
X40250000Y-59250000D03*
X362500000Y-44750000D03*
X249750000Y-77500000D03*
X368500000Y-153000000D03*
X385500000Y-119000000D03*
X259000000Y-95750000D03*
X50750000Y-51500000D03*
X135500000Y-48250000D03*
X398500000Y-73750000D03*
X228750000Y-57000000D03*
X221000000Y-48250000D03*
X179750000Y-150000000D03*
X307500000Y-131000000D03*
X138000000Y-148500000D03*
X211750000Y-77500000D03*
X64000000Y-129000000D03*
X360500000Y-134000000D03*
X349750000Y-152750000D03*
X212750000Y-111000000D03*
X183000000Y-48000000D03*
X197230735Y-134269265D03*
X73750000Y-115500000D03*
X375000000Y-64000000D03*
X280250000Y-152750000D03*
X314750000Y-98250000D03*
X264000000Y-114750000D03*
X59000000Y-77750000D03*
X120759485Y-133990515D03*
X140000000Y-133500000D03*
X97750000Y-76750000D03*
X380750000Y-39250000D03*
X349750000Y-134250000D03*
X170500000Y-58000000D03*
X264500000Y-124250000D03*
X78500000Y-48250000D03*
X111500000Y-115250000D03*
X206730735Y-115519265D03*
X254250000Y-133750000D03*
X168500000Y-115000000D03*
X135500000Y-77500000D03*
X364250000Y-63750000D03*
%TO.N,COL4*%
X318799265Y-51200735D03*
%TO.N,COL10*%
X322000000Y-69000000D03*
%TO.N,COL8*%
X314000000Y-46700000D03*
X320500000Y-67500000D03*
%TO.N,COL12*%
X324500000Y-72000000D03*
%TO.N,COL5*%
X317500000Y-49000000D03*
%TO.N,SLAVEPWR*%
X373000000Y-55000000D03*
X375250000Y-49500000D03*
X371500000Y-49500000D03*
X405500000Y-76750000D03*
X388750000Y-60500000D03*
X392000000Y-86000000D03*
X374750000Y-48000000D03*
X375750000Y-52750000D03*
X395250000Y-75000000D03*
X392250000Y-63750000D03*
%TO.N,T_INT*%
X401250000Y-80000000D03*
%TO.N,T_MISO*%
X397000000Y-67500000D03*
%TO.N,T_CS*%
X401750000Y-79000000D03*
%TO.N,CLK*%
X388000000Y-68000000D03*
%TO.N,Net-(J1-Pin_11)*%
X404000000Y-82500000D03*
%TO.N,SDA*%
X377500000Y-73250000D03*
X379500000Y-84750000D03*
X376500000Y-58250000D03*
X379250000Y-66250000D03*
%TO.N,LEDPWR*%
X155250000Y-46750000D03*
X189500000Y-131000000D03*
D36*
X319250000Y-43000000D03*
D35*
X135250000Y-93750000D03*
X93000000Y-132500000D03*
X31000000Y-47000000D03*
X50500000Y-54000000D03*
X202500000Y-75250000D03*
X75500000Y-130750000D03*
X240500000Y-75500000D03*
X159500000Y-113500000D03*
X154750000Y-94500000D03*
X80750000Y-151250000D03*
X150500000Y-132000000D03*
X278750000Y-46750000D03*
X121500000Y-113500000D03*
X307750000Y-114500000D03*
X51750000Y-74000000D03*
X69250000Y-75250000D03*
X152500000Y-151250000D03*
X245250000Y-132250000D03*
X197750000Y-113500000D03*
X107350000Y-47250000D03*
X42500000Y-132250000D03*
X269000000Y-94500000D03*
X321250000Y-151500000D03*
X97500000Y-94250000D03*
X230500000Y-94000000D03*
X33500000Y-151000000D03*
X183250000Y-75250000D03*
X237750000Y-111750000D03*
X211750000Y-46500000D03*
X340750000Y-150750000D03*
X126250000Y-46750000D03*
X365500000Y-133000000D03*
X193000000Y-46750000D03*
X107350000Y-75250000D03*
X240500000Y-47250000D03*
X259500000Y-46750000D03*
X259750000Y-75500000D03*
X255250000Y-112750000D03*
X111400000Y-132250000D03*
X285750000Y-113750000D03*
X140500000Y-113000000D03*
X127750000Y-73500000D03*
X271750000Y-151250000D03*
X298000000Y-46500000D03*
X38250000Y-113500000D03*
X145750000Y-52250000D03*
X218250000Y-111750000D03*
X340712500Y-132750000D03*
X248000000Y-151250000D03*
X226500000Y-131500000D03*
X293250000Y-94250000D03*
X272500000Y-128000000D03*
X83250000Y-113500000D03*
X89750000Y-45250000D03*
X88000000Y-75000000D03*
X110000000Y-83000000D03*
X192750000Y-94500000D03*
X250000000Y-94250000D03*
X57250000Y-151000000D03*
X169250000Y-132250000D03*
X212125000Y-94250000D03*
X173500000Y-93750000D03*
X145450000Y-75250000D03*
X116500000Y-94500000D03*
X359750000Y-151500000D03*
X59725000Y-94000000D03*
X224000000Y-151500000D03*
X174000000Y-46750000D03*
X295250000Y-151000000D03*
X131000000Y-132000000D03*
X64500000Y-113500000D03*
X116500000Y-152000000D03*
X302750000Y-61500000D03*
X281000000Y-132250000D03*
X48500000Y-147250000D03*
X78500000Y-94250000D03*
X178750000Y-113500000D03*
X71250000Y-45250000D03*
X288250000Y-75750000D03*
X164500000Y-75250000D03*
X207000000Y-132500000D03*
X102500000Y-113250000D03*
X31000000Y-75250000D03*
X221000000Y-75750000D03*
X35500000Y-94250000D03*
%TO.N,COL9*%
X321250000Y-68250000D03*
%TO.N,SCL*%
X380750000Y-51000000D03*
X378500000Y-73250000D03*
X380300003Y-84750000D03*
X380008949Y-66502983D03*
%TO.N,COL2*%
X319750000Y-54000000D03*
%TO.N,COL3*%
X319250000Y-52500000D03*
%TO.N,Net-(D62-A)*%
X241700735Y-137799265D03*
%TO.N,E1B*%
X387500000Y-86000000D03*
X388000000Y-63500000D03*
%TO.N,E1A*%
X382250000Y-71500000D03*
%TO.N,E3B*%
X369500000Y-67000000D03*
%TO.N,ROW5*%
X348000000Y-109500000D03*
X348750000Y-114000000D03*
%TO.N,ROW4*%
X356250000Y-110750000D03*
X349500000Y-93750000D03*
%TO.N,ROW0*%
X351125000Y-93125000D03*
%TO.N,RUN*%
X362529265Y-53779265D03*
%TO.N,UART0_TX*%
X380750000Y-35250000D03*
%TO.N,LED3*%
X290000000Y-95000000D03*
X281500000Y-99500000D03*
%TO.N,LED1*%
X309500000Y-58250000D03*
X295500000Y-49500000D03*
%TO.N,Net-(D155-DOUT)*%
X350250000Y-132250000D03*
X354000000Y-143500000D03*
%TD*%
%TO.N,COL0*%
D37*
X346250000Y-50500000D02*
X346250000Y-56400000D01*
X346250000Y-56400000D02*
X348250000Y-58400000D01*
%TO.N,COL11*%
X323100000Y-71100000D02*
X330470000Y-71100000D01*
X322000000Y-70000000D02*
X323100000Y-71100000D01*
%TO.N,COL6*%
X322984314Y-35050000D02*
X323950000Y-36015686D01*
X323950000Y-45000000D02*
X320999265Y-47950735D01*
X174625000Y-40640000D02*
X174625000Y-37425000D01*
X323950000Y-36015686D02*
X323950000Y-45000000D01*
X320999265Y-47950735D02*
X317299265Y-47950735D01*
X177000000Y-35050000D02*
X322984314Y-35050000D01*
X174625000Y-37425000D02*
X177000000Y-35050000D01*
%TO.N,COL1*%
X71250000Y-51000000D02*
X315850000Y-51000000D01*
X69850000Y-40640000D02*
X69750000Y-40740000D01*
X68750000Y-46000000D02*
X68750000Y-48500000D01*
X69850000Y-40640000D02*
X69850000Y-42100000D01*
X315850000Y-51000000D02*
X320500000Y-55650000D01*
X68750000Y-48500000D02*
X71250000Y-51000000D01*
X70500000Y-42750000D02*
X70500000Y-44250000D01*
X70500000Y-44250000D02*
X68750000Y-46000000D01*
X69850000Y-42100000D02*
X70500000Y-42750000D01*
%TO.N,COL7*%
X193675000Y-40640000D02*
X198865000Y-35450000D01*
X322818628Y-35450000D02*
X323500000Y-36131372D01*
X323500000Y-44250000D02*
X320650000Y-47100000D01*
X198865000Y-35450000D02*
X322818628Y-35450000D01*
X320650000Y-47100000D02*
X315250000Y-47100000D01*
X323500000Y-36131372D02*
X323500000Y-44250000D01*
%TO.N,GND*%
X38225000Y-48250000D02*
X39500000Y-48250000D01*
X220500000Y-96000000D02*
X221000000Y-96500000D01*
X243072500Y-115000000D02*
X245000000Y-115000000D01*
X97500000Y-77000000D02*
X97750000Y-76750000D01*
X116000000Y-148462500D02*
X116000000Y-147500000D01*
X289750000Y-134000000D02*
X290000000Y-133750000D01*
X85910000Y-96000000D02*
X87250000Y-96000000D01*
X133475000Y-48500000D02*
X135250000Y-48500000D01*
X68250000Y-96000000D02*
X68500000Y-96250000D01*
X44250000Y-96000000D02*
X44750000Y-95500000D01*
X166872500Y-115000000D02*
X168500000Y-115000000D01*
X104960000Y-96000000D02*
X107250000Y-96000000D01*
X152585000Y-77000000D02*
X154000000Y-77000000D01*
X115750000Y-77000000D02*
X116250000Y-77500000D01*
X228785000Y-77000000D02*
X230211470Y-77000000D01*
X128725000Y-115000000D02*
X130500000Y-115000000D01*
X257360000Y-96000000D02*
X258750000Y-96000000D01*
X219225000Y-96000000D02*
X220500000Y-96000000D01*
X301475000Y-94750000D02*
X301750000Y-94750000D01*
X349500000Y-134000000D02*
X349750000Y-134250000D01*
X76385000Y-77000000D02*
X77250000Y-77000000D01*
X268750000Y-77000000D02*
X269000000Y-76750000D01*
X385000000Y-50780000D02*
X389470000Y-50780000D01*
X239250000Y-96000000D02*
X240000000Y-96750000D01*
X42250000Y-153000000D02*
X43000000Y-152250000D01*
X154000000Y-77000000D02*
X154250000Y-77250000D01*
X347847500Y-153000000D02*
X349500000Y-153000000D01*
X231166250Y-153000000D02*
X233000000Y-153000000D01*
X233000000Y-153000000D02*
X233250000Y-152750000D01*
X147750000Y-54575000D02*
X145925000Y-54575000D01*
X114485000Y-77000000D02*
X115750000Y-77000000D01*
X81147500Y-134000000D02*
X82750000Y-134000000D01*
X111250000Y-115000000D02*
X111500000Y-115250000D01*
X204975000Y-115000000D02*
X206211470Y-115000000D01*
X359825000Y-45825000D02*
X360675000Y-45825000D01*
X40666250Y-153000000D02*
X42250000Y-153000000D01*
X130500000Y-115000000D02*
X130750000Y-114750000D01*
X294151470Y-115000000D02*
X294700735Y-115549265D01*
X149000000Y-115000000D02*
X149500000Y-115500000D01*
X266885000Y-48500000D02*
X268500000Y-48500000D01*
X361000000Y-133500000D02*
X360500000Y-134000000D01*
X349500000Y-153000000D02*
X349750000Y-152750000D01*
X201000000Y-96000000D02*
X202000000Y-95000000D01*
X249250000Y-48500000D02*
X249500000Y-48250000D01*
X254000000Y-134000000D02*
X254250000Y-133750000D01*
X50162000Y-134000000D02*
X51250000Y-134000000D01*
X182500000Y-48500000D02*
X183000000Y-48000000D01*
X143060000Y-96000000D02*
X144500000Y-96000000D01*
X280000000Y-153000000D02*
X280250000Y-152750000D01*
X116000000Y-147500000D02*
X116750000Y-146750000D01*
X252597500Y-134000000D02*
X254000000Y-134000000D01*
X159000000Y-134000000D02*
X159250000Y-133750000D01*
X314187500Y-43312500D02*
X314250000Y-43250000D01*
X308250000Y-108962500D02*
X308250000Y-107250000D01*
X308250000Y-107250000D02*
X308750000Y-106750000D01*
X145925000Y-54575000D02*
X145750000Y-54750000D01*
X162110000Y-96000000D02*
X163250000Y-96000000D01*
X100197500Y-134000000D02*
X102000000Y-134000000D01*
X76475000Y-48500000D02*
X78250000Y-48500000D01*
X247835000Y-48500000D02*
X249250000Y-48500000D01*
X360675000Y-43675000D02*
X361750000Y-44750000D01*
X211250000Y-77000000D02*
X211750000Y-77500000D01*
X38285000Y-77000000D02*
X40500000Y-77000000D01*
X45475000Y-115000000D02*
X46750000Y-115000000D01*
X245000000Y-115000000D02*
X245250000Y-114750000D01*
X87250000Y-96000000D02*
X87763015Y-95486985D01*
X114475000Y-48500000D02*
X115750000Y-48500000D01*
X173250000Y-77000000D02*
X173750000Y-76500000D01*
X58250000Y-77000000D02*
X59000000Y-77750000D01*
X71622500Y-115250000D02*
X73500000Y-115250000D01*
X192000000Y-77000000D02*
X192250000Y-77250000D01*
X147822500Y-115000000D02*
X149000000Y-115000000D01*
X249250000Y-77000000D02*
X249750000Y-77500000D01*
X216500000Y-134000000D02*
X216750000Y-133750000D01*
X328797500Y-153000000D02*
X330250000Y-153000000D01*
X40500000Y-77000000D02*
X41000000Y-76500000D01*
X190685000Y-77000000D02*
X192000000Y-77000000D01*
X157347500Y-134000000D02*
X159000000Y-134000000D01*
X181160000Y-96000000D02*
X182250000Y-96000000D01*
X115750000Y-48500000D02*
X116250000Y-48000000D01*
X238310000Y-96000000D02*
X239250000Y-96000000D01*
X73500000Y-115250000D02*
X73750000Y-115500000D01*
X267250000Y-128250000D02*
X267000000Y-128500000D01*
X163500000Y-48500000D02*
X164000000Y-48000000D01*
X278791250Y-153000000D02*
X280000000Y-153000000D01*
X298962500Y-61750000D02*
X297000000Y-61750000D01*
X366897500Y-153000000D02*
X368500000Y-153000000D01*
X297000000Y-61750000D02*
X296750000Y-61500000D01*
X233547500Y-134000000D02*
X235500000Y-134000000D01*
X154250000Y-77250000D02*
X154250000Y-77500000D01*
X95435000Y-77000000D02*
X97500000Y-77000000D01*
X196961470Y-134000000D02*
X197230735Y-134269265D01*
X64478750Y-153000000D02*
X66500000Y-153000000D01*
X206211470Y-115000000D02*
X206730735Y-115519265D01*
X306500000Y-48500000D02*
X307000000Y-48000000D01*
X125500000Y-96000000D02*
X125750000Y-95750000D01*
X361750000Y-44750000D02*
X362500000Y-44750000D01*
X219225000Y-48500000D02*
X220750000Y-48500000D01*
X201500000Y-48500000D02*
X202000000Y-48000000D01*
X120750000Y-134000000D02*
X120759485Y-133990515D01*
X88291250Y-153000000D02*
X89750000Y-153000000D01*
X304975000Y-48500000D02*
X306500000Y-48500000D01*
D38*
X315000000Y-37500000D02*
X319750000Y-37500000D01*
D37*
X171635000Y-77000000D02*
X173250000Y-77000000D01*
X111750000Y-87037500D02*
X110462500Y-87037500D01*
X304000000Y-153000000D02*
X304250000Y-152750000D01*
X139500000Y-134000000D02*
X140000000Y-133500000D01*
X300225000Y-96000000D02*
X301475000Y-94750000D01*
X51250000Y-134000000D02*
X52000000Y-133250000D01*
X295475000Y-77000000D02*
X297250000Y-77000000D01*
X266885000Y-77000000D02*
X268750000Y-77000000D01*
X119247500Y-134000000D02*
X120750000Y-134000000D01*
D38*
X319750000Y-37500000D02*
X320250000Y-38000000D01*
D37*
X268500000Y-48500000D02*
X269000000Y-48000000D01*
X181160000Y-48500000D02*
X182500000Y-48500000D01*
X285975000Y-48500000D02*
X287000000Y-48500000D01*
X133535000Y-77000000D02*
X135000000Y-77000000D01*
X258750000Y-96000000D02*
X259000000Y-95750000D01*
X82750000Y-134000000D02*
X83000000Y-133750000D01*
X135250000Y-48500000D02*
X135500000Y-48250000D01*
X389470000Y-50780000D02*
X389500000Y-50750000D01*
X95475000Y-48500000D02*
X97500000Y-48500000D01*
X89750000Y-153000000D02*
X90250000Y-152500000D01*
X92000000Y-115000000D02*
X92500000Y-115500000D01*
X288287000Y-134000000D02*
X289750000Y-134000000D01*
X163250000Y-96000000D02*
X163750000Y-96500000D01*
X182250000Y-96000000D02*
X182750000Y-95500000D01*
X224022500Y-115000000D02*
X226000000Y-115000000D01*
X185975000Y-115000000D02*
X187500000Y-115000000D01*
X66860000Y-96000000D02*
X68250000Y-96000000D01*
X57335000Y-77000000D02*
X58250000Y-77000000D01*
X276475000Y-96000000D02*
X277250000Y-96000000D01*
X39500000Y-48250000D02*
X40000000Y-48750000D01*
X268712500Y-128250000D02*
X267250000Y-128250000D01*
X247835000Y-77000000D02*
X249250000Y-77000000D01*
X78250000Y-48500000D02*
X78500000Y-48250000D01*
X287000000Y-48500000D02*
X287500000Y-48000000D01*
X43047500Y-96000000D02*
X44250000Y-96000000D01*
X254975000Y-153000000D02*
X256500000Y-153000000D01*
X277250000Y-96000000D02*
X278250000Y-95000000D01*
X48500000Y-150537500D02*
X48500000Y-152000000D01*
X360675000Y-45825000D02*
X361750000Y-44750000D01*
X330250000Y-153000000D02*
X330500000Y-153250000D01*
X293037000Y-115000000D02*
X294151470Y-115000000D01*
X109725000Y-115000000D02*
X111250000Y-115000000D01*
X220750000Y-48500000D02*
X221000000Y-48250000D01*
X302603750Y-153000000D02*
X304000000Y-153000000D01*
X48000000Y-52000000D02*
X50250000Y-52000000D01*
X209725000Y-77000000D02*
X211250000Y-77000000D01*
X262122500Y-115000000D02*
X263750000Y-115000000D01*
X162110000Y-48500000D02*
X163500000Y-48500000D01*
D38*
X311250000Y-43312500D02*
X314187500Y-43312500D01*
D37*
X102250000Y-133750000D02*
X102250000Y-133500000D01*
X226000000Y-115000000D02*
X226250000Y-114750000D01*
X144500000Y-96000000D02*
X144750000Y-96250000D01*
X135000000Y-77000000D02*
X135500000Y-77500000D01*
X362212500Y-133500000D02*
X361000000Y-133500000D01*
X50250000Y-52000000D02*
X50750000Y-51500000D01*
X107250000Y-96000000D02*
X107500000Y-95750000D01*
X263750000Y-115000000D02*
X264000000Y-114750000D01*
X176397500Y-134000000D02*
X178000000Y-134000000D01*
X159725000Y-153000000D02*
X161750000Y-153000000D01*
X124010000Y-96000000D02*
X125500000Y-96000000D01*
X214497500Y-134000000D02*
X216500000Y-134000000D01*
X200225000Y-96000000D02*
X201000000Y-96000000D01*
X230211470Y-77000000D02*
X230480735Y-77269265D01*
X77250000Y-77000000D02*
X78000000Y-77750000D01*
X110462500Y-87037500D02*
X110000000Y-87500000D01*
X102000000Y-134000000D02*
X102250000Y-133750000D01*
X138297500Y-134000000D02*
X139500000Y-134000000D01*
X347847500Y-134000000D02*
X349500000Y-134000000D01*
X195475000Y-134000000D02*
X196961470Y-134000000D01*
X90672500Y-115000000D02*
X92000000Y-115000000D01*
X200225000Y-48500000D02*
X201500000Y-48500000D01*
X178000000Y-134000000D02*
X178250000Y-133750000D01*
X359825000Y-43675000D02*
X360675000Y-43675000D01*
X46750000Y-115000000D02*
X47750000Y-114000000D01*
%TO.N,COL4*%
X324750000Y-35065686D02*
X324750000Y-46434314D01*
X323934314Y-34250000D02*
X324750000Y-35065686D01*
X324750000Y-46434314D02*
X319983579Y-51200735D01*
X127000000Y-40640000D02*
X127000000Y-37900000D01*
X318516421Y-51200735D02*
X318799265Y-51200735D01*
X127000000Y-37900000D02*
X130750000Y-34150000D01*
X130850000Y-34250000D02*
X323934314Y-34250000D01*
X319983579Y-51200735D02*
X318799265Y-51200735D01*
X130750000Y-34150000D02*
X130850000Y-34250000D01*
%TO.N,COL10*%
X322000000Y-69000000D02*
X322440000Y-68560000D01*
X322440000Y-68560000D02*
X330470000Y-68560000D01*
%TO.N,Net-(D61-A)*%
X219250000Y-138096250D02*
X218916250Y-138430000D01*
%TO.N,COL8*%
X320500000Y-67500000D02*
X327060000Y-60940000D01*
X323100000Y-36450000D02*
X323100000Y-44084314D01*
X322500000Y-35850000D02*
X323100000Y-36450000D01*
X323100000Y-44084314D02*
X321717157Y-45467157D01*
X217515000Y-35850000D02*
X322500000Y-35850000D01*
X327060000Y-60940000D02*
X330470000Y-60940000D01*
X321717157Y-45467157D02*
X315232843Y-45467157D01*
X315232843Y-45467157D02*
X314000000Y-46700000D01*
X212725000Y-40640000D02*
X217515000Y-35850000D01*
%TO.N,COL12*%
X326140000Y-73640000D02*
X330470000Y-73640000D01*
X324500000Y-72000000D02*
X326140000Y-73640000D01*
%TO.N,COL5*%
X321000000Y-49000000D02*
X317500000Y-49000000D01*
X155575000Y-40640000D02*
X155575000Y-38075000D01*
X159000000Y-34650000D02*
X323150000Y-34650000D01*
X324350000Y-45650000D02*
X321000000Y-49000000D01*
X324350000Y-35850000D02*
X324350000Y-45650000D01*
X323150000Y-34650000D02*
X324350000Y-35850000D01*
X155575000Y-38075000D02*
X159000000Y-34650000D01*
%TO.N,SLAVEPWR*%
X388750000Y-59250000D02*
X389250000Y-58750000D01*
X395250000Y-78250000D02*
X392750000Y-80750000D01*
X392750000Y-80750000D02*
X391250000Y-80750000D01*
X405500000Y-76750000D02*
X405500000Y-78000000D01*
X394480000Y-63750000D02*
X392250000Y-63750000D01*
X395250000Y-75000000D02*
X395250000Y-78250000D01*
X395250000Y-75000000D02*
X394000000Y-75000000D01*
X388750000Y-60500000D02*
X388750000Y-59250000D01*
X394000000Y-75000000D02*
X393500000Y-75500000D01*
X405500000Y-78000000D02*
X405750000Y-78250000D01*
X401500000Y-56730000D02*
X394480000Y-63750000D01*
%TO.N,T_INT*%
X404550000Y-44540000D02*
X401500000Y-41490000D01*
X401250000Y-80000000D02*
X401750000Y-80000000D01*
X401750000Y-80000000D02*
X404550000Y-77200000D01*
X404550000Y-77200000D02*
X404550000Y-44540000D01*
%TO.N,T_CS*%
X389250000Y-56750000D02*
X393860000Y-56750000D01*
X401750000Y-79000000D02*
X404150000Y-76600000D01*
X404150000Y-51760000D02*
X401500000Y-49110000D01*
X393860000Y-56750000D02*
X401500000Y-49110000D01*
X404150000Y-76600000D02*
X404150000Y-51760000D01*
%TO.N,T_CLK*%
X401500000Y-51650000D02*
X387130000Y-66020000D01*
X387130000Y-66020000D02*
X385000000Y-66020000D01*
%TO.N,MISO*%
X403750000Y-56440000D02*
X401500000Y-54190000D01*
X368320000Y-82360000D02*
X397390000Y-82360000D01*
X397390000Y-82360000D02*
X403750000Y-76000000D01*
X403750000Y-76000000D02*
X403750000Y-56440000D01*
X367220000Y-81260000D02*
X368320000Y-82360000D01*
%TO.N,CLK*%
X386000000Y-70000000D02*
X388000000Y-68000000D01*
X370860000Y-70000000D02*
X386000000Y-70000000D01*
X367220000Y-73640000D02*
X370860000Y-70000000D01*
%TO.N,MOSI*%
X367220000Y-71100000D02*
X371070000Y-67250000D01*
X371070000Y-67250000D02*
X396060000Y-67250000D01*
X396060000Y-67250000D02*
X401500000Y-61810000D01*
%TO.N,Net-(J1-Pin_11)*%
X405750000Y-80750000D02*
X404000000Y-82500000D01*
X405750000Y-80250000D02*
X405750000Y-80750000D01*
%TO.N,CS*%
X373440000Y-72500000D02*
X391750000Y-72500000D01*
X391500000Y-72750000D02*
X391750000Y-72500000D01*
X398430000Y-72500000D02*
X401500000Y-69430000D01*
X367220000Y-78720000D02*
X373440000Y-72500000D01*
X391750000Y-72500000D02*
X398430000Y-72500000D01*
X391500000Y-75500000D02*
X391500000Y-72750000D01*
%TO.N,SDA*%
X379250000Y-58750000D02*
X379250000Y-51450000D01*
X377000000Y-58750000D02*
X379250000Y-58750000D01*
X376500000Y-58250000D02*
X377000000Y-58750000D01*
X379250000Y-51450000D02*
X385000000Y-45700000D01*
X379250000Y-66250000D02*
X379250000Y-58750000D01*
X388500000Y-114150000D02*
X379500000Y-105150000D01*
X379500000Y-105150000D02*
X379500000Y-84750000D01*
%TO.N,LEDPWR*%
X301037500Y-61750000D02*
X302500000Y-61750000D01*
X308250000Y-111037500D02*
X308250000Y-113500000D01*
D39*
X60225000Y-94500000D02*
X59725000Y-94000000D01*
X90025000Y-45525000D02*
X89750000Y-45250000D01*
X259750000Y-47000000D02*
X259500000Y-46750000D01*
X280525000Y-47000000D02*
X279000000Y-47000000D01*
X248250000Y-151500000D02*
X248000000Y-151250000D01*
X237622500Y-111877500D02*
X237750000Y-111750000D01*
X78750000Y-94500000D02*
X78500000Y-94250000D01*
X212250000Y-47000000D02*
X211750000Y-46500000D01*
D37*
X48000000Y-54075000D02*
X50425000Y-54075000D01*
D39*
X247147500Y-132500000D02*
X245500000Y-132500000D01*
X231000000Y-94500000D02*
X230500000Y-94000000D01*
X221250000Y-75500000D02*
X221000000Y-75750000D01*
X156660000Y-94500000D02*
X154750000Y-94500000D01*
X126500000Y-47000000D02*
X126250000Y-46750000D01*
D37*
X116000000Y-150537500D02*
X116000000Y-151500000D01*
D39*
X169500000Y-132500000D02*
X169250000Y-132250000D01*
X147135000Y-75500000D02*
X145700000Y-75500000D01*
X75697500Y-132500000D02*
X75697500Y-130947500D01*
D37*
X110000000Y-83212500D02*
X110000000Y-83000000D01*
D39*
X35750000Y-94500000D02*
X35500000Y-94250000D01*
X290025000Y-75500000D02*
X288500000Y-75500000D01*
X288500000Y-75500000D02*
X288250000Y-75750000D01*
X111650000Y-132500000D02*
X111400000Y-132250000D01*
X190025000Y-131525000D02*
X189500000Y-131000000D01*
X102750000Y-113500000D02*
X102500000Y-113250000D01*
X151000000Y-132500000D02*
X150500000Y-132000000D01*
X94747500Y-132500000D02*
X93000000Y-132500000D01*
X361447500Y-151500000D02*
X359750000Y-151500000D01*
X256672500Y-113500000D02*
X256000000Y-113500000D01*
X223335000Y-75500000D02*
X221250000Y-75500000D01*
D37*
X51885000Y-74135000D02*
X51750000Y-74000000D01*
X364287500Y-133500000D02*
X365000000Y-133500000D01*
D39*
X81000000Y-151250000D02*
X80750000Y-151250000D01*
X85222500Y-113500000D02*
X83250000Y-113500000D01*
X261435000Y-75500000D02*
X259750000Y-75500000D01*
X66172500Y-113750000D02*
X64750000Y-113750000D01*
X286000000Y-113500000D02*
X285750000Y-113750000D01*
X75697500Y-130947500D02*
X75500000Y-130750000D01*
X183500000Y-75500000D02*
X183250000Y-75250000D01*
X180525000Y-113500000D02*
X178750000Y-113500000D01*
D37*
X116000000Y-151500000D02*
X116500000Y-152000000D01*
D38*
X311397500Y-40040000D02*
X311250000Y-40187500D01*
D39*
X250250000Y-94500000D02*
X250000000Y-94250000D01*
X272000000Y-151500000D02*
X271750000Y-151250000D01*
X80460000Y-94500000D02*
X78750000Y-94500000D01*
X31250000Y-46750000D02*
X31000000Y-47000000D01*
D38*
X315000000Y-40040000D02*
X317960000Y-43000000D01*
D39*
X57750000Y-151500000D02*
X57250000Y-151000000D01*
X245500000Y-132500000D02*
X245250000Y-132250000D01*
X40025000Y-113500000D02*
X38250000Y-113500000D01*
X82841250Y-151500000D02*
X81250000Y-151500000D01*
X227097500Y-131500000D02*
X226500000Y-131500000D01*
X152750000Y-151500000D02*
X152500000Y-151250000D01*
X294775000Y-94500000D02*
X293500000Y-94500000D01*
X225716250Y-151500000D02*
X224000000Y-151500000D01*
X118560000Y-94500000D02*
X116500000Y-94500000D01*
X199525000Y-113500000D02*
X197750000Y-113500000D01*
X109025000Y-47000000D02*
X107600000Y-47000000D01*
X174250000Y-47000000D02*
X174000000Y-46750000D01*
X249525000Y-151500000D02*
X248250000Y-151500000D01*
X97750000Y-94500000D02*
X97500000Y-94250000D01*
X281250000Y-132500000D02*
X281000000Y-132250000D01*
D37*
X342397500Y-132500000D02*
X340962500Y-132500000D01*
D39*
X151897500Y-132500000D02*
X151000000Y-132500000D01*
X89985000Y-75500000D02*
X88500000Y-75500000D01*
X213775000Y-47000000D02*
X212250000Y-47000000D01*
X218572500Y-112072500D02*
X218250000Y-111750000D01*
X51885000Y-75500000D02*
X51885000Y-74135000D01*
X37597500Y-94500000D02*
X35750000Y-94500000D01*
X137610000Y-94500000D02*
X136000000Y-94500000D01*
D37*
X307750000Y-114000000D02*
X307750000Y-114500000D01*
D39*
X282837000Y-132500000D02*
X281250000Y-132500000D01*
X154275000Y-151500000D02*
X152750000Y-151500000D01*
X242385000Y-47000000D02*
X240750000Y-47000000D01*
X341500000Y-151500000D02*
X340750000Y-150750000D01*
X193250000Y-47000000D02*
X193000000Y-46750000D01*
X209047500Y-132500000D02*
X207000000Y-132500000D01*
X293500000Y-94500000D02*
X293250000Y-94250000D01*
X107600000Y-47000000D02*
X107350000Y-47250000D01*
X71025000Y-45475000D02*
X71250000Y-45250000D01*
X88500000Y-75500000D02*
X88000000Y-75000000D01*
X174250000Y-94500000D02*
X173500000Y-93750000D01*
X228097500Y-132500000D02*
X227097500Y-131500000D01*
X64750000Y-113750000D02*
X64500000Y-113500000D01*
D37*
X48500000Y-148462500D02*
X48500000Y-147250000D01*
D39*
X107600000Y-75500000D02*
X107350000Y-75250000D01*
D37*
X111750000Y-84962500D02*
X110000000Y-83212500D01*
D39*
X204275000Y-75500000D02*
X202750000Y-75500000D01*
X256000000Y-113500000D02*
X255250000Y-112750000D01*
X240750000Y-47000000D02*
X240500000Y-47250000D01*
D37*
X302500000Y-61750000D02*
X302750000Y-61500000D01*
D39*
X90025000Y-47000000D02*
X90025000Y-45525000D01*
X109035000Y-75500000D02*
X107600000Y-75500000D01*
X136000000Y-94500000D02*
X135250000Y-93750000D01*
X61410000Y-94500000D02*
X60225000Y-94500000D01*
X123275000Y-113500000D02*
X121500000Y-113500000D01*
X261435000Y-47000000D02*
X259750000Y-47000000D01*
X164750000Y-75500000D02*
X164500000Y-75250000D01*
X32835000Y-75500000D02*
X31250000Y-75500000D01*
X59028750Y-151500000D02*
X57750000Y-151500000D01*
X298500000Y-47000000D02*
X298000000Y-46500000D01*
D37*
X50425000Y-54075000D02*
X50500000Y-54000000D01*
X272250000Y-128250000D02*
X272500000Y-128000000D01*
X365000000Y-133500000D02*
X365500000Y-133000000D01*
X270787500Y-128250000D02*
X272250000Y-128250000D01*
X340962500Y-132500000D02*
X340712500Y-132750000D01*
D39*
X295750000Y-151500000D02*
X295250000Y-151000000D01*
X342397500Y-151500000D02*
X341500000Y-151500000D01*
X99510000Y-94500000D02*
X97750000Y-94500000D01*
X213775000Y-94500000D02*
X212375000Y-94500000D01*
X212375000Y-94500000D02*
X212125000Y-94250000D01*
X271025000Y-94500000D02*
X269000000Y-94500000D01*
X202750000Y-75500000D02*
X202500000Y-75250000D01*
X113797500Y-132500000D02*
X111650000Y-132500000D01*
X323347500Y-151500000D02*
X321250000Y-151500000D01*
X273341250Y-151500000D02*
X272000000Y-151500000D01*
X34000000Y-151500000D02*
X33500000Y-151000000D01*
D38*
X317960000Y-43000000D02*
X319250000Y-43000000D01*
D39*
X194775000Y-47000000D02*
X193250000Y-47000000D01*
X141000000Y-113500000D02*
X140500000Y-113000000D01*
X32775000Y-46750000D02*
X31250000Y-46750000D01*
D37*
X147750000Y-52500000D02*
X146000000Y-52500000D01*
D39*
X299525000Y-47000000D02*
X298500000Y-47000000D01*
X128025000Y-47000000D02*
X126500000Y-47000000D01*
X132847500Y-132500000D02*
X131500000Y-132500000D01*
X156660000Y-47000000D02*
X155500000Y-47000000D01*
X161422500Y-113500000D02*
X159500000Y-113500000D01*
X279000000Y-47000000D02*
X278750000Y-46750000D01*
X35216250Y-151500000D02*
X34000000Y-151500000D01*
X190025000Y-132500000D02*
X190025000Y-131525000D01*
X237622500Y-113500000D02*
X237622500Y-111877500D01*
X185235000Y-75500000D02*
X183500000Y-75500000D01*
X31250000Y-75500000D02*
X31000000Y-75250000D01*
X287587000Y-113500000D02*
X286000000Y-113500000D01*
X128085000Y-73835000D02*
X127750000Y-73500000D01*
X145700000Y-75500000D02*
X145450000Y-75250000D01*
X194775000Y-94500000D02*
X192750000Y-94500000D01*
X81250000Y-151500000D02*
X81000000Y-151250000D01*
D37*
X308250000Y-113500000D02*
X307750000Y-114000000D01*
D39*
X166185000Y-75500000D02*
X164750000Y-75500000D01*
X69500000Y-75500000D02*
X69250000Y-75250000D01*
D38*
X315000000Y-40040000D02*
X311397500Y-40040000D01*
D39*
X170947500Y-132500000D02*
X169500000Y-132500000D01*
X175710000Y-47000000D02*
X174250000Y-47000000D01*
X131500000Y-132500000D02*
X131000000Y-132000000D01*
X44712000Y-132500000D02*
X42750000Y-132500000D01*
X242385000Y-75500000D02*
X240500000Y-75500000D01*
D37*
X146000000Y-52500000D02*
X145750000Y-52250000D01*
D39*
X155500000Y-47000000D02*
X155250000Y-46750000D01*
X232860000Y-94500000D02*
X231000000Y-94500000D01*
X128085000Y-75500000D02*
X128085000Y-73835000D01*
X175710000Y-94500000D02*
X174250000Y-94500000D01*
X70935000Y-75500000D02*
X69500000Y-75500000D01*
X297153750Y-151500000D02*
X295750000Y-151500000D01*
X142372500Y-113500000D02*
X141000000Y-113500000D01*
X104275000Y-113500000D02*
X102750000Y-113500000D01*
X42750000Y-132500000D02*
X42500000Y-132250000D01*
X71025000Y-47000000D02*
X71025000Y-45475000D01*
X251910000Y-94500000D02*
X250250000Y-94500000D01*
X218572500Y-113500000D02*
X218572500Y-112072500D01*
%TO.N,COL9*%
D37*
X321250000Y-68250000D02*
X321750000Y-68250000D01*
X321750000Y-68250000D02*
X323980000Y-66020000D01*
X323980000Y-66020000D02*
X330470000Y-66020000D01*
%TO.N,SCL*%
X391250000Y-115500000D02*
X390060000Y-116690000D01*
X380750000Y-51000000D02*
X380870000Y-51120000D01*
X385000000Y-48240000D02*
X380870000Y-52370000D01*
X380008949Y-53231051D02*
X380008949Y-66502983D01*
X380870000Y-52370000D02*
X380008949Y-53231051D01*
X390060000Y-116690000D02*
X388500000Y-116690000D01*
X380300003Y-84750000D02*
X380300003Y-102800003D01*
X380870000Y-51120000D02*
X380870000Y-52370000D01*
X391250000Y-113750000D02*
X391250000Y-115500000D01*
X380300003Y-102800003D02*
X391250000Y-113750000D01*
%TO.N,COL2*%
X100250000Y-40000000D02*
X100250000Y-47000000D01*
X100250000Y-47000000D02*
X103750000Y-50500000D01*
X93540000Y-36000000D02*
X96250000Y-36000000D01*
X316250000Y-50500000D02*
X319750000Y-54000000D01*
X96250000Y-36000000D02*
X100250000Y-40000000D01*
X103750000Y-50500000D02*
X316250000Y-50500000D01*
X88900000Y-40640000D02*
X93540000Y-36000000D01*
%TO.N,COL3*%
X325250000Y-35000000D02*
X325250000Y-46500000D01*
X107950000Y-40640000D02*
X107950000Y-35800000D01*
X107950000Y-35800000D02*
X110000000Y-33750000D01*
X110000000Y-33750000D02*
X324000000Y-33750000D01*
X325250000Y-46500000D02*
X319250000Y-52500000D01*
X324000000Y-33750000D02*
X325250000Y-35000000D01*
%TO.N,Net-(D62-A)*%
X241070000Y-138430000D02*
X234632500Y-138430000D01*
X241700735Y-137799265D02*
X241070000Y-138430000D01*
%TO.N,E2A*%
X353000000Y-62460000D02*
X367220000Y-48240000D01*
X353000000Y-95000000D02*
X353000000Y-62460000D01*
%TO.N,E3B*%
X368780000Y-67000000D02*
X367220000Y-68560000D01*
X369500000Y-67000000D02*
X368780000Y-67000000D01*
%TO.N,E3A*%
X389250000Y-80750000D02*
X385510000Y-80750000D01*
X385510000Y-80750000D02*
X385000000Y-81260000D01*
%TO.N,Net-(D52-A)*%
X295500000Y-115827500D02*
X294163750Y-117163750D01*
X293500000Y-108000000D02*
X293500000Y-111000000D01*
X295500000Y-113000000D02*
X295500000Y-115827500D01*
X293500000Y-111000000D02*
X295500000Y-113000000D01*
X292893750Y-107393750D02*
X293500000Y-108000000D01*
X294163750Y-117163750D02*
X294163750Y-119380000D01*
X292893750Y-104775000D02*
X292893750Y-107393750D01*
%TO.N,Net-(D152-DOUT)*%
X295250000Y-141000000D02*
X322500000Y-141000000D01*
X328250000Y-144750000D02*
X329250000Y-145750000D01*
X326250000Y-144750000D02*
X328250000Y-144750000D01*
X292500000Y-143750000D02*
X295250000Y-141000000D01*
X294500000Y-153000000D02*
X292500000Y-151000000D01*
X329250000Y-145750000D02*
X329250000Y-151047500D01*
X329250000Y-151047500D02*
X328797500Y-151500000D01*
X297153750Y-153000000D02*
X294500000Y-153000000D01*
X292500000Y-151000000D02*
X292500000Y-143750000D01*
X322500000Y-141000000D02*
X326250000Y-144750000D01*
%TO.N,Net-(D153-DOUT)*%
X350750000Y-150750000D02*
X348597500Y-150750000D01*
X349750000Y-155250000D02*
X351750000Y-153250000D01*
X351750000Y-151750000D02*
X350750000Y-150750000D01*
X323347500Y-153597500D02*
X325000000Y-155250000D01*
X348597500Y-150750000D02*
X347847500Y-151500000D01*
X325000000Y-155250000D02*
X349750000Y-155250000D01*
X351750000Y-153250000D02*
X351750000Y-151750000D01*
X323347500Y-153000000D02*
X323347500Y-153597500D01*
%TO.N,ROW5*%
X348000000Y-113250000D02*
X348750000Y-114000000D01*
X348000000Y-109500000D02*
X348000000Y-113250000D01*
%TO.N,Net-(D96-DOUT)*%
X137750000Y-76250000D02*
X136750000Y-75250000D01*
X136750000Y-75250000D02*
X136000000Y-75250000D01*
X137750000Y-77500000D02*
X137750000Y-76250000D01*
X136000000Y-75250000D02*
X135750000Y-75500000D01*
X136000000Y-79250000D02*
X137750000Y-77500000D01*
X109035000Y-77000000D02*
X109035000Y-78035000D01*
X135750000Y-75500000D02*
X133535000Y-75500000D01*
X110250000Y-79250000D02*
X136000000Y-79250000D01*
X109035000Y-78035000D02*
X110250000Y-79250000D01*
%TO.N,Net-(D97-DOUT)*%
X149250000Y-67000000D02*
X153000000Y-70750000D01*
X145000000Y-67000000D02*
X149250000Y-67000000D01*
X130250000Y-67000000D02*
X132000000Y-68750000D01*
X153000000Y-70750000D02*
X153000000Y-75085000D01*
X127250000Y-77000000D02*
X123500000Y-73250000D01*
X123500000Y-73250000D02*
X123500000Y-69000000D01*
X128085000Y-77000000D02*
X127250000Y-77000000D01*
X153000000Y-75085000D02*
X152585000Y-75500000D01*
X123500000Y-69000000D02*
X125500000Y-67000000D01*
X132000000Y-68750000D02*
X143250000Y-68750000D01*
X125500000Y-67000000D02*
X130250000Y-67000000D01*
X143250000Y-68750000D02*
X145000000Y-67000000D01*
%TO.N,Net-(D127-DOUT)*%
X175000000Y-112000000D02*
X175000000Y-108500000D01*
X178750000Y-104750000D02*
X182250000Y-104750000D01*
X204975000Y-107975000D02*
X204975000Y-113500000D01*
X184000000Y-106500000D02*
X195000000Y-106500000D01*
X195000000Y-106500000D02*
X196500000Y-105000000D01*
X202000000Y-105000000D02*
X204975000Y-107975000D01*
X175000000Y-108500000D02*
X178750000Y-104750000D01*
X178000000Y-115000000D02*
X175000000Y-112000000D01*
X196500000Y-105000000D02*
X202000000Y-105000000D01*
X182250000Y-104750000D02*
X184000000Y-106500000D01*
X180525000Y-115000000D02*
X178000000Y-115000000D01*
%TO.N,Net-(D128-DOUT)*%
X229500000Y-115750000D02*
X229500000Y-114250000D01*
X200250000Y-117250000D02*
X228000000Y-117250000D01*
X228000000Y-117250000D02*
X229500000Y-115750000D01*
X228750000Y-113500000D02*
X224022500Y-113500000D01*
X229500000Y-114250000D02*
X228750000Y-113500000D01*
X199525000Y-116525000D02*
X200250000Y-117250000D01*
X199525000Y-115000000D02*
X199525000Y-116525000D01*
%TO.N,ROW1*%
X169190000Y-83000000D02*
X152750000Y-83000000D01*
X200220000Y-81280000D02*
X198250000Y-83250000D01*
X75500000Y-81500000D02*
X77250000Y-83250000D01*
X291440000Y-81250000D02*
X297000000Y-81250000D01*
X90870000Y-83250000D02*
X88900000Y-81280000D01*
X56440000Y-81250000D02*
X54690000Y-83000000D01*
X307000000Y-83250000D02*
X311250000Y-79000000D01*
X249235000Y-83500000D02*
X247015000Y-81280000D01*
X134500000Y-83250000D02*
X147500000Y-83250000D01*
X36512500Y-81512500D02*
X36512500Y-81280000D01*
X132715000Y-81280000D02*
X132715000Y-81465000D01*
X245695000Y-82600000D02*
X229040000Y-82600000D01*
X208915000Y-81665000D02*
X208915000Y-81280000D01*
X122250000Y-83000000D02*
X115440000Y-83000000D01*
X147500000Y-83250000D02*
X149500000Y-81250000D01*
X59500000Y-83250000D02*
X57500000Y-81250000D01*
X336660000Y-54750000D02*
X348250000Y-43160000D01*
X75440000Y-81500000D02*
X73690000Y-83250000D01*
X191940000Y-83250000D02*
X189940000Y-81250000D01*
X299000000Y-83250000D02*
X307000000Y-83250000D01*
X188190000Y-83000000D02*
X172250000Y-83000000D01*
X226440000Y-83000000D02*
X210250000Y-83000000D01*
X132715000Y-81280000D02*
X123970000Y-81280000D01*
X77250000Y-83250000D02*
X86930000Y-83250000D01*
X198250000Y-83250000D02*
X191940000Y-83250000D01*
X170940000Y-81250000D02*
X169190000Y-83000000D01*
X123970000Y-81280000D02*
X122250000Y-83000000D01*
X170940000Y-81690000D02*
X170940000Y-81250000D01*
X291440000Y-81250000D02*
X290310000Y-82380000D01*
X73690000Y-83250000D02*
X59500000Y-83250000D01*
X311250000Y-79000000D02*
X311250000Y-73000000D01*
X152750000Y-83000000D02*
X151940000Y-82190000D01*
X227940000Y-81500000D02*
X226440000Y-83000000D01*
X329500000Y-54750000D02*
X336660000Y-54750000D01*
X149500000Y-81250000D02*
X151940000Y-81250000D01*
X38000000Y-83000000D02*
X36512500Y-81512500D01*
X311250000Y-73000000D02*
X329500000Y-54750000D01*
X290310000Y-82380000D02*
X267165000Y-82380000D01*
X115440000Y-83000000D02*
X113690000Y-81250000D01*
X229040000Y-82600000D02*
X227940000Y-81500000D01*
X172250000Y-83000000D02*
X170940000Y-81690000D01*
X208915000Y-81280000D02*
X200220000Y-81280000D01*
X267165000Y-82380000D02*
X266065000Y-81280000D01*
X297000000Y-81250000D02*
X299000000Y-83250000D01*
X132715000Y-81465000D02*
X134500000Y-83250000D01*
X113690000Y-81250000D02*
X99000000Y-81250000D01*
X210250000Y-83000000D02*
X208915000Y-81665000D01*
X151940000Y-82190000D02*
X151940000Y-81250000D01*
X266065000Y-81280000D02*
X263845000Y-83500000D01*
X189940000Y-81250000D02*
X188190000Y-83000000D01*
X247015000Y-81280000D02*
X245695000Y-82600000D01*
X263845000Y-83500000D02*
X249235000Y-83500000D01*
X75440000Y-81500000D02*
X75500000Y-81500000D01*
X97000000Y-83250000D02*
X90870000Y-83250000D01*
X57500000Y-81250000D02*
X56440000Y-81250000D01*
X54690000Y-83000000D02*
X38000000Y-83000000D01*
X99000000Y-81250000D02*
X97000000Y-83250000D01*
X86930000Y-83250000D02*
X88900000Y-81280000D01*
%TO.N,ROW4*%
X373500000Y-128000000D02*
X383500000Y-128000000D01*
X76880000Y-140250000D02*
X85750000Y-140250000D01*
X225912500Y-139530000D02*
X227012500Y-138430000D01*
X227012500Y-138430000D02*
X231930000Y-138430000D01*
X339432500Y-136500000D02*
X352000000Y-136500000D01*
X212396250Y-139530000D02*
X225912500Y-139530000D01*
X109500000Y-138000000D02*
X109930000Y-138430000D01*
X94690000Y-138500000D02*
X96440000Y-140250000D01*
X144500000Y-140250000D02*
X146250000Y-138500000D01*
X400000000Y-129500000D02*
X400000000Y-114500000D01*
X87500000Y-138500000D02*
X94690000Y-138500000D01*
X51000000Y-141250000D02*
X72380000Y-141250000D01*
X305500000Y-140250000D02*
X307320000Y-138430000D01*
X129750000Y-140500000D02*
X129750000Y-140442500D01*
X161500000Y-140750000D02*
X164250000Y-138000000D01*
X394000000Y-108500000D02*
X391750000Y-108500000D01*
X132930000Y-138430000D02*
X134750000Y-140250000D01*
X164250000Y-138000000D02*
X166500000Y-138000000D01*
X96440000Y-140250000D02*
X104000000Y-140250000D01*
X169862500Y-138430000D02*
X170962500Y-139530000D01*
X250930000Y-138430000D02*
X253250000Y-140750000D01*
X106250000Y-138000000D02*
X109500000Y-138000000D01*
X278440000Y-138250000D02*
X280440000Y-140250000D01*
X253250000Y-140750000D02*
X275940000Y-140750000D01*
X280440000Y-140250000D02*
X305500000Y-140250000D01*
X129750000Y-140442500D02*
X131762500Y-138430000D01*
X243992500Y-140500000D02*
X246062500Y-138430000D01*
X44130000Y-138500000D02*
X48250000Y-138500000D01*
X205820000Y-138430000D02*
X211296250Y-138430000D01*
X211296250Y-138430000D02*
X212396250Y-139530000D01*
X246062500Y-138430000D02*
X250930000Y-138430000D01*
X134750000Y-140250000D02*
X144500000Y-140250000D01*
X151380000Y-138500000D02*
X154000000Y-138500000D01*
X400000000Y-114500000D02*
X394000000Y-108500000D01*
X166500000Y-138000000D02*
X166930000Y-138430000D01*
X170962500Y-139530000D02*
X193160000Y-139530000D01*
X109930000Y-138430000D02*
X118427500Y-138430000D01*
X48250000Y-138500000D02*
X51000000Y-141250000D01*
X156250000Y-140750000D02*
X161500000Y-140750000D01*
X154000000Y-138500000D02*
X156250000Y-140750000D01*
X166930000Y-138430000D02*
X169862500Y-138430000D01*
X383500000Y-128000000D02*
X386500000Y-131000000D01*
X118427500Y-138430000D02*
X120497500Y-140500000D01*
X337502500Y-138430000D02*
X339432500Y-136500000D01*
X356250000Y-110750000D02*
X373500000Y-128000000D01*
X348250000Y-53320000D02*
X349500000Y-54570000D01*
X352000000Y-136500000D02*
X360500000Y-128000000D01*
X349500000Y-54570000D02*
X349500000Y-93750000D01*
X231930000Y-138430000D02*
X234000000Y-140500000D01*
X120497500Y-140500000D02*
X129750000Y-140500000D01*
X275940000Y-140750000D02*
X278440000Y-138250000D01*
X360500000Y-128000000D02*
X373500000Y-128000000D01*
X398500000Y-131000000D02*
X400000000Y-129500000D01*
X146250000Y-138500000D02*
X151380000Y-138500000D01*
X131762500Y-138430000D02*
X132930000Y-138430000D01*
X75130000Y-138500000D02*
X76880000Y-140250000D01*
X85750000Y-140250000D02*
X87500000Y-138500000D01*
X72380000Y-141250000D02*
X75130000Y-138500000D01*
X194440000Y-138250000D02*
X195940000Y-139750000D01*
X204500000Y-139750000D02*
X205820000Y-138430000D01*
X193160000Y-139530000D02*
X194440000Y-138250000D01*
X234000000Y-140500000D02*
X243992500Y-140500000D01*
X386500000Y-131000000D02*
X398500000Y-131000000D01*
X307320000Y-138430000D02*
X337502500Y-138430000D01*
X195940000Y-139750000D02*
X204500000Y-139750000D01*
X104000000Y-140250000D02*
X106250000Y-138000000D01*
%TO.N,ROW3*%
X166190000Y-119250000D02*
X168750000Y-119250000D01*
X185690000Y-119250000D02*
X190250000Y-119250000D01*
X95500000Y-121250000D02*
X107032500Y-121250000D01*
X199500000Y-119500000D02*
X203940000Y-119500000D01*
X218380000Y-119380000D02*
X220250000Y-121250000D01*
X110002500Y-120480000D02*
X126710000Y-120480000D01*
X293250000Y-121000000D02*
X295000000Y-121000000D01*
X220250000Y-121250000D02*
X234380000Y-121250000D01*
X348250000Y-48240000D02*
X352000000Y-51990000D01*
X197750000Y-121250000D02*
X199500000Y-119500000D01*
X236380000Y-119250000D02*
X239500000Y-119250000D01*
X87982500Y-121250000D02*
X89852500Y-119380000D01*
X286543750Y-119380000D02*
X291630000Y-119380000D01*
X146940000Y-119250000D02*
X151000000Y-119250000D01*
X275000000Y-119000000D02*
X277250000Y-121250000D01*
X153250000Y-121500000D02*
X165000000Y-121500000D01*
X352000000Y-93250000D02*
X351700000Y-93550000D01*
X203940000Y-119500000D02*
X207250000Y-119500000D01*
X108902500Y-119380000D02*
X110002500Y-120480000D01*
X209000000Y-121250000D02*
X215617500Y-121250000D01*
X89852500Y-119380000D02*
X93630000Y-119380000D01*
X283250000Y-121250000D02*
X285120000Y-119380000D01*
X285120000Y-119380000D02*
X286543750Y-119380000D01*
X300000000Y-119750000D02*
X302500000Y-122250000D01*
X207250000Y-119500000D02*
X209000000Y-121250000D01*
X49380000Y-119380000D02*
X51500000Y-121500000D01*
X234380000Y-121250000D02*
X236380000Y-119250000D01*
X107032500Y-121250000D02*
X108902500Y-119380000D01*
X165000000Y-121500000D02*
X166190000Y-120310000D01*
X43656250Y-119380000D02*
X49380000Y-119380000D01*
X127940000Y-119250000D02*
X129940000Y-121250000D01*
X190250000Y-119250000D02*
X192250000Y-121250000D01*
X353250000Y-108750000D02*
X355250000Y-108750000D01*
X63000000Y-119250000D02*
X70940000Y-119250000D01*
X241500000Y-121250000D02*
X253690000Y-121250000D01*
X277250000Y-121250000D02*
X283250000Y-121250000D01*
X351700000Y-107200000D02*
X353250000Y-108750000D01*
X355250000Y-108750000D02*
X356690000Y-108750000D01*
X93630000Y-119380000D02*
X95500000Y-121250000D01*
X55000000Y-121500000D02*
X58000000Y-118500000D01*
X255440000Y-119500000D02*
X257440000Y-121500000D01*
X266750000Y-121500000D02*
X269250000Y-119000000D01*
X295000000Y-121000000D02*
X296250000Y-119750000D01*
X217487500Y-119380000D02*
X218380000Y-119380000D01*
X192250000Y-121250000D02*
X197750000Y-121250000D01*
X183690000Y-121250000D02*
X185690000Y-119250000D01*
X215617500Y-121250000D02*
X217487500Y-119380000D01*
X166190000Y-120310000D02*
X166190000Y-119250000D01*
X75000000Y-119250000D02*
X77000000Y-121250000D01*
X70940000Y-119250000D02*
X75000000Y-119250000D01*
X291630000Y-119380000D02*
X293250000Y-121000000D01*
X62250000Y-118500000D02*
X63000000Y-119250000D01*
X126710000Y-120480000D02*
X127940000Y-119250000D01*
X77000000Y-121250000D02*
X87982500Y-121250000D01*
X51500000Y-121500000D02*
X55000000Y-121500000D01*
X239500000Y-119250000D02*
X241500000Y-121250000D01*
X302500000Y-122250000D02*
X341750000Y-122250000D01*
X144940000Y-121250000D02*
X146940000Y-119250000D01*
X129940000Y-121250000D02*
X144940000Y-121250000D01*
X352000000Y-51990000D02*
X352000000Y-93250000D01*
X257440000Y-121500000D02*
X266750000Y-121500000D01*
X58000000Y-118500000D02*
X62250000Y-118500000D01*
X253690000Y-121250000D02*
X255440000Y-119500000D01*
X296250000Y-119750000D02*
X300000000Y-119750000D01*
X269250000Y-119000000D02*
X275000000Y-119000000D01*
X170750000Y-121250000D02*
X183690000Y-121250000D01*
X168750000Y-119250000D02*
X170750000Y-121250000D01*
X351700000Y-93550000D02*
X351700000Y-107200000D01*
X151000000Y-119250000D02*
X153250000Y-121500000D01*
X341750000Y-122250000D02*
X355250000Y-108750000D01*
%TO.N,Net-(D149-DOUT)*%
X224250000Y-153000000D02*
X225716250Y-153000000D01*
X256500000Y-155500000D02*
X255750000Y-155500000D01*
X257250000Y-151500000D02*
X258250000Y-152500000D01*
X258250000Y-152500000D02*
X258250000Y-153750000D01*
X224000000Y-153250000D02*
X224250000Y-153000000D01*
X255500000Y-155250000D02*
X224750000Y-155250000D01*
X255750000Y-155500000D02*
X255500000Y-155250000D01*
X224000000Y-154500000D02*
X224000000Y-153250000D01*
X258250000Y-153750000D02*
X256500000Y-155500000D01*
X224750000Y-155250000D02*
X224000000Y-154500000D01*
X254975000Y-151500000D02*
X257250000Y-151500000D01*
%TO.N,Net-(D150-DOUT)*%
X252250000Y-143250000D02*
X254000000Y-145000000D01*
X279500000Y-150791250D02*
X278791250Y-151500000D01*
X279500000Y-146500000D02*
X279500000Y-150791250D01*
X246750000Y-143250000D02*
X252250000Y-143250000D01*
X244250000Y-145750000D02*
X246750000Y-143250000D01*
X247000000Y-153000000D02*
X244250000Y-150250000D01*
X267250000Y-145000000D02*
X269500000Y-142750000D01*
X269500000Y-142750000D02*
X275750000Y-142750000D01*
X244250000Y-150250000D02*
X244250000Y-145750000D01*
X249525000Y-153000000D02*
X247000000Y-153000000D01*
X254000000Y-145000000D02*
X267250000Y-145000000D01*
X275750000Y-142750000D02*
X279500000Y-146500000D01*
%TO.N,Net-(D84-DOUT)*%
X184000000Y-48750000D02*
X182750000Y-50000000D01*
X184000000Y-47500000D02*
X184000000Y-48750000D01*
X181160000Y-47000000D02*
X181410000Y-46750000D01*
X181410000Y-46750000D02*
X183250000Y-46750000D01*
X157250000Y-50000000D02*
X156660000Y-49410000D01*
X182750000Y-50000000D02*
X157250000Y-50000000D01*
X183250000Y-46750000D02*
X184000000Y-47500000D01*
X156660000Y-49410000D02*
X156660000Y-48500000D01*
%TO.N,Net-(D85-DOUT)*%
X175750000Y-42541598D02*
X175750000Y-42250000D01*
X200750000Y-42500000D02*
X198750000Y-40500000D01*
X190500000Y-43750000D02*
X190500000Y-42972056D01*
X196250000Y-40500000D02*
X194250000Y-42500000D01*
X187777944Y-40250000D02*
X190500000Y-42972056D01*
X194250000Y-42500000D02*
X194250000Y-44000000D01*
X172750000Y-45000000D02*
X173291598Y-45000000D01*
X172750000Y-48500000D02*
X172250000Y-48000000D01*
X172250000Y-45500000D02*
X172750000Y-45000000D01*
X172250000Y-48000000D02*
X172250000Y-45500000D01*
X175710000Y-48500000D02*
X172750000Y-48500000D01*
X191750000Y-45000000D02*
X190500000Y-43750000D01*
X200225000Y-47000000D02*
X200750000Y-46475000D01*
X194250000Y-44000000D02*
X193250000Y-45000000D01*
X173291598Y-45000000D02*
X175750000Y-42541598D01*
X193250000Y-45000000D02*
X191750000Y-45000000D01*
X200750000Y-46475000D02*
X200750000Y-42500000D01*
X175750000Y-42250000D02*
X177750000Y-40250000D01*
X198750000Y-40500000D02*
X196250000Y-40500000D01*
X177750000Y-40250000D02*
X187777944Y-40250000D01*
%TO.N,Net-(D146-DOUT)*%
X53750000Y-146000000D02*
X57500000Y-142250000D01*
X61500000Y-142250000D02*
X64250000Y-145000000D01*
X80250000Y-143750000D02*
X86000000Y-143750000D01*
X64250000Y-145000000D02*
X79000000Y-145000000D01*
X86000000Y-143750000D02*
X88291250Y-146041250D01*
X53750000Y-150000000D02*
X53750000Y-146000000D01*
X56750000Y-153000000D02*
X53750000Y-150000000D01*
X59028750Y-153000000D02*
X56750000Y-153000000D01*
X57500000Y-142250000D02*
X61500000Y-142250000D01*
X79000000Y-145000000D02*
X80250000Y-143750000D01*
X88291250Y-146041250D02*
X88291250Y-151500000D01*
%TO.N,Net-(D147-DOUT)*%
X163500000Y-151500000D02*
X159725000Y-151500000D01*
X150500000Y-155250000D02*
X163500000Y-155250000D01*
X164750000Y-152750000D02*
X163500000Y-151500000D01*
X82841250Y-153000000D02*
X82841250Y-154591250D01*
X164750000Y-154000000D02*
X164750000Y-152750000D01*
X82841250Y-154591250D02*
X83250000Y-155000000D01*
X163500000Y-155250000D02*
X164750000Y-154000000D01*
X96250000Y-155000000D02*
X96500000Y-154750000D01*
X101000000Y-154750000D02*
X106250000Y-160000000D01*
X106250000Y-160000000D02*
X145750000Y-160000000D01*
X83250000Y-155000000D02*
X96250000Y-155000000D01*
X145750000Y-160000000D02*
X150500000Y-155250000D01*
X96500000Y-154750000D02*
X101000000Y-154750000D01*
%TO.N,Net-(D122-DOUT)*%
X105750000Y-105000000D02*
X107500000Y-106750000D01*
X85500000Y-117250000D02*
X94000000Y-117250000D01*
X94000000Y-117250000D02*
X95500000Y-115750000D01*
X95500000Y-115750000D02*
X95500000Y-112000000D01*
X114750000Y-108750000D02*
X114750000Y-110500000D01*
X85222500Y-116972500D02*
X85500000Y-117250000D01*
X102500000Y-105000000D02*
X105750000Y-105000000D01*
X112750000Y-106750000D02*
X114750000Y-108750000D01*
X85222500Y-115000000D02*
X85222500Y-116972500D01*
X107500000Y-106750000D02*
X112750000Y-106750000D01*
X114750000Y-110500000D02*
X111750000Y-113500000D01*
X95500000Y-112000000D02*
X102500000Y-105000000D01*
X111750000Y-113500000D02*
X109725000Y-113500000D01*
%TO.N,Net-(D123-DOUT)*%
X105000000Y-117250000D02*
X115500000Y-117250000D01*
X128725000Y-107975000D02*
X128725000Y-113500000D01*
X118750000Y-107250000D02*
X121000000Y-105000000D01*
X125750000Y-105000000D02*
X128725000Y-107975000D01*
X121000000Y-105000000D02*
X125750000Y-105000000D01*
X115500000Y-117250000D02*
X118750000Y-114000000D01*
X104275000Y-116525000D02*
X105000000Y-117250000D01*
X104275000Y-115000000D02*
X104275000Y-116525000D01*
X118750000Y-114000000D02*
X118750000Y-107250000D01*
%TO.N,Net-(D138-DOUT)*%
X147000000Y-123750000D02*
X154500000Y-123750000D01*
X173500000Y-124250000D02*
X176397500Y-127147500D01*
X145250000Y-125500000D02*
X147000000Y-123750000D01*
X151897500Y-134000000D02*
X148750000Y-134000000D01*
X168750000Y-124250000D02*
X173500000Y-124250000D01*
X157000000Y-126250000D02*
X166750000Y-126250000D01*
X148750000Y-134000000D02*
X145250000Y-130500000D01*
X145250000Y-130500000D02*
X145250000Y-125500000D01*
X154500000Y-123750000D02*
X157000000Y-126250000D01*
X176397500Y-127147500D02*
X176397500Y-132500000D01*
X166750000Y-126250000D02*
X168750000Y-124250000D01*
%TO.N,Net-(D139-DOUT)*%
X170947500Y-134000000D02*
X170947500Y-135447500D01*
X171500000Y-136000000D02*
X197500000Y-136000000D01*
X198250000Y-135250000D02*
X198250000Y-133750000D01*
X198250000Y-133750000D02*
X197000000Y-132500000D01*
X197500000Y-136000000D02*
X198250000Y-135250000D01*
X170947500Y-135447500D02*
X171500000Y-136000000D01*
X197000000Y-132500000D02*
X195475000Y-132500000D01*
%TO.N,ROW0*%
X107950000Y-53200000D02*
X111000000Y-56250000D01*
X325500000Y-109000000D02*
X321690000Y-109000000D01*
X260350000Y-52705000D02*
X260350000Y-54850000D01*
X155575000Y-52705000D02*
X155575000Y-54325000D01*
X329250000Y-112750000D02*
X325500000Y-109000000D01*
X346880000Y-40620000D02*
X348250000Y-40620000D01*
X208940000Y-52750000D02*
X208940000Y-53690000D01*
X298450000Y-52705000D02*
X298450000Y-54450000D01*
X241380000Y-52750000D02*
X241380000Y-53630000D01*
X261750000Y-56250000D02*
X280500000Y-56250000D01*
X89690000Y-52750000D02*
X93190000Y-56250000D01*
X127000000Y-53750000D02*
X129500000Y-56250000D01*
X280500000Y-56250000D02*
X300250000Y-56250000D01*
X241380000Y-53630000D02*
X244000000Y-56250000D01*
X300250000Y-56250000D02*
X320750000Y-56250000D01*
X71190000Y-52750000D02*
X71190000Y-53690000D01*
X278940000Y-52750000D02*
X278940000Y-54690000D01*
X208940000Y-53690000D02*
X211500000Y-56250000D01*
X193675000Y-52705000D02*
X193675000Y-54175000D01*
X155575000Y-54325000D02*
X157500000Y-56250000D01*
X335500000Y-52000000D02*
X346880000Y-40620000D01*
X177000000Y-56250000D02*
X195750000Y-56250000D01*
X195750000Y-56250000D02*
X211500000Y-56250000D01*
X111000000Y-56250000D02*
X129500000Y-56250000D01*
X174625000Y-52705000D02*
X174625000Y-53875000D01*
X93190000Y-56250000D02*
X111000000Y-56250000D01*
X260350000Y-54850000D02*
X261750000Y-56250000D01*
X320750000Y-56250000D02*
X325000000Y-52000000D01*
X73750000Y-56250000D02*
X93190000Y-56250000D01*
X298450000Y-54450000D02*
X300250000Y-56250000D01*
X174625000Y-53875000D02*
X177000000Y-56250000D01*
X34380000Y-52750000D02*
X37880000Y-56250000D01*
X325000000Y-52000000D02*
X335500000Y-52000000D01*
X71190000Y-53690000D02*
X73750000Y-56250000D01*
X331500000Y-112750000D02*
X329250000Y-112750000D01*
X157500000Y-56250000D02*
X177000000Y-56250000D01*
X351125000Y-93125000D02*
X331500000Y-112750000D01*
X129500000Y-56250000D02*
X157500000Y-56250000D01*
X278940000Y-54690000D02*
X280500000Y-56250000D01*
X244000000Y-56250000D02*
X261750000Y-56250000D01*
X193675000Y-54175000D02*
X195750000Y-56250000D01*
X211500000Y-56250000D02*
X244000000Y-56250000D01*
X127000000Y-52705000D02*
X127000000Y-53750000D01*
X37880000Y-56250000D02*
X73750000Y-56250000D01*
X107950000Y-52705000D02*
X107950000Y-53200000D01*
%TO.N,RUN*%
X355675000Y-45825000D02*
X355375000Y-45825000D01*
X356135000Y-45825000D02*
X355675000Y-45825000D01*
X354500000Y-44000000D02*
X354825000Y-43675000D01*
X355375000Y-45825000D02*
X354500000Y-44950000D01*
X360310000Y-50000000D02*
X356135000Y-45825000D01*
X354500000Y-44950000D02*
X354500000Y-44000000D01*
X359750000Y-56558530D02*
X362529265Y-53779265D01*
X359750000Y-58500000D02*
X359750000Y-56558530D01*
X354825000Y-43675000D02*
X355675000Y-43675000D01*
%TO.N,Net-(D109-DOUT)*%
X113500000Y-88750000D02*
X116000000Y-86250000D01*
X97250000Y-96000000D02*
X95000000Y-93750000D01*
X96750000Y-85750000D02*
X100750000Y-85750000D01*
X95000000Y-87500000D02*
X96750000Y-85750000D01*
X116000000Y-86250000D02*
X121250000Y-86250000D01*
X100750000Y-85750000D02*
X103750000Y-88750000D01*
X121250000Y-86250000D02*
X124010000Y-89010000D01*
X103750000Y-88750000D02*
X113500000Y-88750000D01*
X99510000Y-96000000D02*
X97250000Y-96000000D01*
X95000000Y-93750000D02*
X95000000Y-87500000D01*
X124010000Y-89010000D02*
X124010000Y-94500000D01*
%TO.N,Net-(D110-DOUT)*%
X145750000Y-95250000D02*
X145000000Y-94500000D01*
X118560000Y-97310000D02*
X119250000Y-98000000D01*
X145750000Y-96750000D02*
X145750000Y-95250000D01*
X145000000Y-94500000D02*
X143060000Y-94500000D01*
X144500000Y-98000000D02*
X145750000Y-96750000D01*
X118560000Y-96000000D02*
X118560000Y-97310000D01*
X119250000Y-98000000D02*
X144500000Y-98000000D01*
%TO.N,Net-(D135-DOUT)*%
X94747500Y-134000000D02*
X94747500Y-134997500D01*
X122500000Y-136000000D02*
X123250000Y-135250000D01*
X123250000Y-133750000D02*
X122000000Y-132500000D01*
X95750000Y-136000000D02*
X122500000Y-136000000D01*
X94747500Y-134997500D02*
X95750000Y-136000000D01*
X123250000Y-135250000D02*
X123250000Y-133750000D01*
X122000000Y-132500000D02*
X119247500Y-132500000D01*
%TO.N,Net-(D136-DOUT)*%
X127500000Y-125750000D02*
X129250000Y-124000000D01*
X113150000Y-123250000D02*
X115650000Y-125750000D01*
X108500000Y-126250000D02*
X111500000Y-123250000D01*
X110750000Y-134000000D02*
X108500000Y-131750000D01*
X108500000Y-131750000D02*
X108500000Y-126250000D01*
X129250000Y-124000000D02*
X135500000Y-124000000D01*
X138750000Y-127250000D02*
X138750000Y-132047500D01*
X111500000Y-123250000D02*
X113150000Y-123250000D01*
X135500000Y-124000000D02*
X138750000Y-127250000D01*
X138750000Y-132047500D02*
X138297500Y-132500000D01*
X115650000Y-125750000D02*
X127500000Y-125750000D01*
X113797500Y-134000000D02*
X110750000Y-134000000D01*
%TO.N,Net-(D95-DOUT)*%
X93250000Y-68345101D02*
X97345101Y-68345101D01*
X105000000Y-69250000D02*
X107500000Y-66750000D01*
X85000000Y-70250000D02*
X87750000Y-67500000D01*
X87250000Y-77000000D02*
X85000000Y-74750000D01*
X115000000Y-74985000D02*
X114485000Y-75500000D01*
X98250000Y-69250000D02*
X105000000Y-69250000D01*
X85000000Y-74750000D02*
X85000000Y-70250000D01*
X92404899Y-67500000D02*
X93250000Y-68345101D01*
X89985000Y-77000000D02*
X87250000Y-77000000D01*
X107500000Y-66750000D02*
X111500000Y-66750000D01*
X115000000Y-70250000D02*
X115000000Y-74985000D01*
X97345101Y-68345101D02*
X98250000Y-69250000D01*
X87750000Y-67500000D02*
X92404899Y-67500000D01*
X111500000Y-66750000D02*
X115000000Y-70250000D01*
%TO.N,LED4*%
X39750000Y-122500000D02*
X41750000Y-124500000D01*
X39750000Y-118250000D02*
X39750000Y-122500000D01*
X275250000Y-115000000D02*
X272000000Y-118250000D01*
X260500000Y-121000000D02*
X257250000Y-117750000D01*
X272000000Y-118250000D02*
X267000000Y-118250000D01*
X50162000Y-131588000D02*
X50162000Y-132500000D01*
X41750000Y-124500000D02*
X47750000Y-124500000D01*
X50500000Y-127250000D02*
X50500000Y-131250000D01*
X257250000Y-117750000D02*
X40250000Y-117750000D01*
X267000000Y-118250000D02*
X264250000Y-121000000D01*
X264250000Y-121000000D02*
X260500000Y-121000000D01*
X47750000Y-124500000D02*
X50500000Y-127250000D01*
X40250000Y-117750000D02*
X39750000Y-118250000D01*
X50500000Y-131250000D02*
X50162000Y-131588000D01*
X287587000Y-115000000D02*
X275250000Y-115000000D01*
%TO.N,Net-(D133-DOUT)*%
X84000000Y-133250000D02*
X83250000Y-132500000D01*
X68500000Y-136250000D02*
X81750000Y-136250000D01*
X83250000Y-132500000D02*
X81147500Y-132500000D01*
X46000000Y-136250000D02*
X54500000Y-136250000D01*
X44712000Y-134000000D02*
X44712000Y-134962000D01*
X65000000Y-139750000D02*
X68500000Y-136250000D01*
X44712000Y-134962000D02*
X46000000Y-136250000D01*
X81750000Y-136250000D02*
X84000000Y-134000000D01*
X84000000Y-134000000D02*
X84000000Y-133250000D01*
X54500000Y-136250000D02*
X58000000Y-139750000D01*
X58000000Y-139750000D02*
X65000000Y-139750000D01*
%TO.N,Net-(D151-DOUT)*%
X305250000Y-155250000D02*
X307000000Y-153500000D01*
X273341250Y-154841250D02*
X273750000Y-155250000D01*
X273750000Y-155250000D02*
X305250000Y-155250000D01*
X307000000Y-152000000D02*
X306000000Y-151000000D01*
X307000000Y-153500000D02*
X307000000Y-152000000D01*
X306000000Y-151000000D02*
X305000000Y-151000000D01*
X273341250Y-153000000D02*
X273341250Y-154841250D01*
X304500000Y-151500000D02*
X302603750Y-151500000D01*
X305000000Y-151000000D02*
X304500000Y-151500000D01*
%TO.N,Net-(D101-DOUT)*%
X230000000Y-75500000D02*
X228785000Y-75500000D01*
X229000000Y-64250000D02*
X233000000Y-68250000D01*
X199750000Y-74000000D02*
X199750000Y-68500000D01*
X233000000Y-72500000D02*
X230000000Y-75500000D01*
X199750000Y-68500000D02*
X204000000Y-64250000D01*
X233000000Y-68250000D02*
X233000000Y-72500000D01*
X204000000Y-64250000D02*
X229000000Y-64250000D01*
X204275000Y-77000000D02*
X202750000Y-77000000D01*
X202750000Y-77000000D02*
X199750000Y-74000000D01*
%TO.N,Net-(D102-DOUT)*%
X223335000Y-78335000D02*
X224500000Y-79500000D01*
X251250000Y-76250000D02*
X250250000Y-75250000D01*
X249000000Y-75500000D02*
X247835000Y-75500000D01*
X250250000Y-75250000D02*
X249250000Y-75250000D01*
X249250000Y-75250000D02*
X249000000Y-75500000D01*
X251250000Y-78000000D02*
X251250000Y-76250000D01*
X249750000Y-79500000D02*
X251250000Y-78000000D01*
X223335000Y-77000000D02*
X223335000Y-78335000D01*
X224500000Y-79500000D02*
X249750000Y-79500000D01*
%TO.N,Net-(D134-DOUT)*%
X74250000Y-134000000D02*
X70000000Y-129750000D01*
X100197500Y-127197500D02*
X100197500Y-132500000D01*
X77750000Y-123500000D02*
X80000000Y-125750000D01*
X97250000Y-124250000D02*
X100197500Y-127197500D01*
X91750000Y-124250000D02*
X97250000Y-124250000D01*
X74250000Y-123500000D02*
X77750000Y-123500000D01*
X75697500Y-134000000D02*
X74250000Y-134000000D01*
X80000000Y-125750000D02*
X90250000Y-125750000D01*
X70000000Y-129750000D02*
X70000000Y-127750000D01*
X90250000Y-125750000D02*
X91750000Y-124250000D01*
X70000000Y-127750000D02*
X74250000Y-123500000D01*
%TO.N,Net-(D129-DOUT)*%
X232500000Y-107000000D02*
X233750000Y-105750000D01*
X218572500Y-115000000D02*
X216000000Y-115000000D01*
X216000000Y-115000000D02*
X213750000Y-112750000D01*
X233750000Y-105750000D02*
X241000000Y-105750000D01*
X216000000Y-105000000D02*
X221000000Y-105000000D01*
X221000000Y-105000000D02*
X223000000Y-107000000D01*
X243072500Y-107822500D02*
X243072500Y-113500000D01*
X241000000Y-105750000D02*
X243072500Y-107822500D01*
X223000000Y-107000000D02*
X232500000Y-107000000D01*
X213750000Y-112750000D02*
X213750000Y-107250000D01*
X213750000Y-107250000D02*
X216000000Y-105000000D01*
%TO.N,Net-(D130-DOUT)*%
X265750000Y-115500000D02*
X265750000Y-113750000D01*
X265000000Y-113000000D02*
X264000000Y-113000000D01*
X264250000Y-117000000D02*
X265750000Y-115500000D01*
X237622500Y-115000000D02*
X237622500Y-116122500D01*
X265750000Y-113750000D02*
X265000000Y-113000000D01*
X238500000Y-117000000D02*
X264250000Y-117000000D01*
X237622500Y-116122500D02*
X238500000Y-117000000D01*
X263500000Y-113500000D02*
X262122500Y-113500000D01*
X264000000Y-113000000D02*
X263500000Y-113500000D01*
%TO.N,UART0_TX*%
X380750000Y-35250000D02*
X381040000Y-35540000D01*
X381040000Y-35540000D02*
X385000000Y-35540000D01*
%TO.N,LEDData*%
X369000000Y-59160000D02*
X369000000Y-42500000D01*
X354500000Y-41750000D02*
X349500000Y-36750000D01*
X367220000Y-60940000D02*
X369000000Y-59160000D01*
X40500000Y-46750000D02*
X38225000Y-46750000D01*
X368250000Y-41750000D02*
X354500000Y-41750000D01*
X54000000Y-33250000D02*
X40500000Y-46750000D01*
X325250000Y-33250000D02*
X54000000Y-33250000D01*
X328750000Y-36750000D02*
X325250000Y-33250000D01*
X349500000Y-36750000D02*
X328750000Y-36750000D01*
X369000000Y-42500000D02*
X368250000Y-41750000D01*
%TO.N,ROW2*%
X64120000Y-102250000D02*
X66040000Y-100330000D01*
X181500000Y-102250000D02*
X194750000Y-102250000D01*
X200830000Y-100330000D02*
X202750000Y-102250000D01*
X329974365Y-57000000D02*
X336950000Y-57000000D01*
X84137500Y-100330000D02*
X87830000Y-100330000D01*
X282190000Y-95560000D02*
X283250000Y-95560000D01*
X218190000Y-100250000D02*
X219500000Y-100250000D01*
X216190000Y-102250000D02*
X218190000Y-100250000D01*
X108750000Y-102500000D02*
X117500000Y-102500000D01*
X198437500Y-100330000D02*
X200830000Y-100330000D01*
X236750000Y-100250000D02*
X237440000Y-100250000D01*
X159370000Y-102250000D02*
X161290000Y-100330000D01*
X103187500Y-100330000D02*
X106580000Y-100330000D01*
X177690000Y-100250000D02*
X179500000Y-100250000D01*
X177690000Y-101060000D02*
X177690000Y-100250000D01*
X241250000Y-100250000D02*
X243250000Y-102250000D01*
X219500000Y-100250000D02*
X221500000Y-102250000D01*
X293190000Y-99750000D02*
X299250000Y-99750000D01*
X289000000Y-95560000D02*
X293190000Y-99750000D01*
X251286250Y-102250000D02*
X253206250Y-100330000D01*
X46500000Y-102250000D02*
X64120000Y-102250000D01*
X253206250Y-100330000D02*
X254626250Y-101750000D01*
X194750000Y-102250000D02*
X196670000Y-100330000D01*
X161290000Y-100330000D02*
X165830000Y-100330000D01*
X165830000Y-100330000D02*
X167750000Y-102250000D01*
X299250000Y-99750000D02*
X305250000Y-93750000D01*
X67960000Y-102250000D02*
X82217500Y-102250000D01*
X314750000Y-72224365D02*
X329974365Y-57000000D01*
X87830000Y-100330000D02*
X90000000Y-102500000D01*
X101017500Y-102500000D02*
X103187500Y-100330000D01*
X254626250Y-101750000D02*
X265500000Y-101750000D01*
X196670000Y-100330000D02*
X198437500Y-100330000D01*
X243250000Y-102250000D02*
X251286250Y-102250000D01*
X117500000Y-102500000D02*
X119750000Y-100250000D01*
X90000000Y-102500000D02*
X101017500Y-102500000D01*
X66040000Y-100330000D02*
X67960000Y-102250000D01*
X167750000Y-102250000D02*
X176500000Y-102250000D01*
X314750000Y-77500000D02*
X314750000Y-72224365D01*
X44500000Y-100250000D02*
X46500000Y-102250000D01*
X179500000Y-100250000D02*
X181500000Y-102250000D01*
X140250000Y-100250000D02*
X142190000Y-100250000D01*
X221500000Y-102250000D02*
X234750000Y-102250000D01*
X176500000Y-102250000D02*
X177690000Y-101060000D01*
X142190000Y-100250000D02*
X146250000Y-100250000D01*
X278000000Y-99750000D02*
X282190000Y-95560000D01*
X39690000Y-100250000D02*
X44500000Y-100250000D01*
X283250000Y-95560000D02*
X289000000Y-95560000D01*
X336950000Y-57000000D02*
X348250000Y-45700000D01*
X148250000Y-102250000D02*
X159370000Y-102250000D01*
X305250000Y-87000000D02*
X314750000Y-77500000D01*
X146250000Y-100250000D02*
X148250000Y-102250000D01*
X82217500Y-102250000D02*
X84137500Y-100330000D01*
X305250000Y-93750000D02*
X305250000Y-87000000D01*
X106580000Y-100330000D02*
X108750000Y-102500000D01*
X234750000Y-102250000D02*
X236750000Y-100250000D01*
X267500000Y-99750000D02*
X278000000Y-99750000D01*
X121750000Y-100250000D02*
X123750000Y-102250000D01*
X138250000Y-102250000D02*
X140250000Y-100250000D01*
X237440000Y-100250000D02*
X241250000Y-100250000D01*
X123750000Y-102250000D02*
X138250000Y-102250000D01*
X202750000Y-102250000D02*
X216190000Y-102250000D01*
X119750000Y-100250000D02*
X121750000Y-100250000D01*
X265500000Y-101750000D02*
X267500000Y-99750000D01*
%TO.N,Net-(D111-DOUT)*%
X135000000Y-85750000D02*
X139000000Y-85750000D01*
X140750000Y-87500000D02*
X152250000Y-87500000D01*
X153750000Y-86000000D02*
X159500000Y-86000000D01*
X152250000Y-87500000D02*
X153750000Y-86000000D01*
X162110000Y-88610000D02*
X162110000Y-94500000D01*
X159500000Y-86000000D02*
X162110000Y-88610000D01*
X137610000Y-96000000D02*
X134250000Y-96000000D01*
X134250000Y-96000000D02*
X132750000Y-94500000D01*
X139000000Y-85750000D02*
X140750000Y-87500000D01*
X132750000Y-88000000D02*
X135000000Y-85750000D01*
X132750000Y-94500000D02*
X132750000Y-88000000D01*
%TO.N,Net-(D112-DOUT)*%
X156660000Y-97160000D02*
X157750000Y-98250000D01*
X183250000Y-94500000D02*
X181160000Y-94500000D01*
X157750000Y-98250000D02*
X182000000Y-98250000D01*
X156660000Y-96000000D02*
X156660000Y-97160000D01*
X184250000Y-95500000D02*
X183250000Y-94500000D01*
X184250000Y-96000000D02*
X184250000Y-95500000D01*
X182000000Y-98250000D02*
X184250000Y-96000000D01*
%TO.N,Net-(D141-DOUT)*%
X237750000Y-134750000D02*
X237750000Y-133000000D01*
X237750000Y-133000000D02*
X237250000Y-132500000D01*
X209047500Y-135297500D02*
X210250000Y-136500000D01*
X210250000Y-136500000D02*
X236000000Y-136500000D01*
X209047500Y-134000000D02*
X209047500Y-135297500D01*
X237250000Y-132500000D02*
X233547500Y-132500000D01*
X236000000Y-136500000D02*
X237750000Y-134750000D01*
%TO.N,Net-(D142-DOUT)*%
X227000000Y-134000000D02*
X222250000Y-129250000D01*
X226500000Y-123000000D02*
X227750000Y-123000000D01*
X227750000Y-123000000D02*
X228750000Y-122000000D01*
X222250000Y-127250000D02*
X226500000Y-123000000D01*
X228750000Y-122000000D02*
X247750000Y-122000000D01*
X228097500Y-134000000D02*
X227000000Y-134000000D01*
X247750000Y-122000000D02*
X252597500Y-126847500D01*
X222250000Y-129250000D02*
X222250000Y-127250000D01*
X252597500Y-126847500D02*
X252597500Y-132500000D01*
%TO.N,Net-(D103-DOUT)*%
X269500000Y-64250000D02*
X271500000Y-66250000D01*
X270500000Y-75500000D02*
X266885000Y-75500000D01*
X237750000Y-74500000D02*
X237750000Y-65750000D01*
X271500000Y-66250000D02*
X271500000Y-74500000D01*
X237750000Y-65750000D02*
X239250000Y-64250000D01*
X239250000Y-64250000D02*
X269500000Y-64250000D01*
X271500000Y-74500000D02*
X270500000Y-75500000D01*
X242385000Y-77000000D02*
X240250000Y-77000000D01*
X240250000Y-77000000D02*
X237750000Y-74500000D01*
%TO.N,Net-(D86-DOUT)*%
X195500000Y-50000000D02*
X221250000Y-50000000D01*
X194775000Y-48500000D02*
X194775000Y-49275000D01*
X194775000Y-49275000D02*
X195500000Y-50000000D01*
X221750000Y-47000000D02*
X219225000Y-47000000D01*
X222500000Y-47750000D02*
X221750000Y-47000000D01*
X222500000Y-48750000D02*
X222500000Y-47750000D01*
X221250000Y-50000000D02*
X222500000Y-48750000D01*
%TO.N,Net-(D87-DOUT)*%
X239750000Y-38500000D02*
X244000000Y-38500000D01*
X248750000Y-46085000D02*
X247835000Y-47000000D01*
X244000000Y-38500000D02*
X246000000Y-40500000D01*
X248750000Y-43750000D02*
X248750000Y-46085000D01*
X213775000Y-48500000D02*
X211250000Y-48500000D01*
X210750000Y-44750000D02*
X212500000Y-44750000D01*
X209750000Y-47000000D02*
X209750000Y-45750000D01*
X211250000Y-48500000D02*
X209750000Y-47000000D01*
X213500000Y-43750000D02*
X213500000Y-42250000D01*
X213500000Y-42250000D02*
X215500000Y-40250000D01*
X246000000Y-40500000D02*
X247250000Y-40500000D01*
X248500000Y-41750000D02*
X248500000Y-43500000D01*
X212500000Y-44750000D02*
X213500000Y-43750000D01*
X209750000Y-45750000D02*
X210750000Y-44750000D01*
X248500000Y-43500000D02*
X248750000Y-43750000D01*
X215500000Y-40250000D02*
X238000000Y-40250000D01*
X238000000Y-40250000D02*
X239750000Y-38500000D01*
X247250000Y-40500000D02*
X248500000Y-41750000D01*
%TO.N,Net-(D115-DOUT)*%
X215500000Y-86000000D02*
X218250000Y-88750000D01*
X236000000Y-86250000D02*
X238310000Y-88560000D01*
X210750000Y-86000000D02*
X215500000Y-86000000D01*
X218250000Y-88750000D02*
X224000000Y-88750000D01*
X211500000Y-96000000D02*
X209000000Y-93500000D01*
X238310000Y-88560000D02*
X238310000Y-94500000D01*
X209000000Y-93500000D02*
X209000000Y-87750000D01*
X226500000Y-86250000D02*
X236000000Y-86250000D01*
X224000000Y-88750000D02*
X226500000Y-86250000D01*
X209000000Y-87750000D02*
X210750000Y-86000000D01*
X213775000Y-96000000D02*
X211500000Y-96000000D01*
%TO.N,Net-(D116-DOUT)*%
X258000000Y-98750000D02*
X260000000Y-96750000D01*
X260000000Y-95500000D02*
X259000000Y-94500000D01*
X260000000Y-96750000D02*
X260000000Y-95500000D01*
X259000000Y-94500000D02*
X257360000Y-94500000D01*
X232860000Y-98110000D02*
X233500000Y-98750000D01*
X232860000Y-96000000D02*
X232860000Y-98110000D01*
X233500000Y-98750000D02*
X258000000Y-98750000D01*
%TO.N,Net-(D144-DOUT)*%
X245250000Y-136750000D02*
X245000000Y-137000000D01*
X42500000Y-137000000D02*
X41000000Y-138500000D01*
X40666250Y-147833750D02*
X40666250Y-151500000D01*
X51250000Y-140500000D02*
X47750000Y-137000000D01*
X282837000Y-134000000D02*
X279500000Y-134000000D01*
X276750000Y-136750000D02*
X276750000Y-138250000D01*
X253065686Y-140000000D02*
X249815686Y-136750000D01*
X41000000Y-138500000D02*
X41000000Y-140500000D01*
X249815686Y-136750000D02*
X245250000Y-136750000D01*
X42750000Y-145750000D02*
X40666250Y-147833750D01*
X245000000Y-137000000D02*
X68750000Y-137000000D01*
X279500000Y-134000000D02*
X276750000Y-136750000D01*
X276750000Y-138250000D02*
X275000000Y-140000000D01*
X275000000Y-140000000D02*
X253065686Y-140000000D01*
X65250000Y-140500000D02*
X51250000Y-140500000D01*
X42750000Y-142250000D02*
X42750000Y-145750000D01*
X68750000Y-137000000D02*
X65250000Y-140500000D01*
X47750000Y-137000000D02*
X42500000Y-137000000D01*
X41000000Y-140500000D02*
X42750000Y-142250000D01*
%TO.N,LED5*%
X68250000Y-154500000D02*
X68250000Y-152750000D01*
X35216250Y-153000000D02*
X35216250Y-153966250D01*
X35216250Y-153966250D02*
X36250000Y-155000000D01*
X67000000Y-151500000D02*
X64478750Y-151500000D01*
X67750000Y-155000000D02*
X68250000Y-154500000D01*
X36250000Y-155000000D02*
X67750000Y-155000000D01*
X68250000Y-152750000D02*
X67000000Y-151500000D01*
%TO.N,Net-(D100-DOUT)*%
X213250000Y-75500000D02*
X209725000Y-75500000D01*
X185235000Y-77568370D02*
X186666630Y-79000000D01*
X212750000Y-79000000D02*
X213750000Y-78000000D01*
X186666630Y-79000000D02*
X212750000Y-79000000D01*
X213750000Y-76000000D02*
X213250000Y-75500000D01*
X185235000Y-77000000D02*
X185235000Y-77568370D01*
X213750000Y-78000000D02*
X213750000Y-76000000D01*
%TO.N,Net-(D121-DOUT)*%
X82750000Y-105250000D02*
X87500000Y-105250000D01*
X66172500Y-115250000D02*
X64250000Y-115250000D01*
X69000000Y-105500000D02*
X69750000Y-106250000D01*
X69750000Y-106250000D02*
X81750000Y-106250000D01*
X62000000Y-106250000D02*
X62750000Y-105500000D01*
X62750000Y-105500000D02*
X69000000Y-105500000D01*
X81750000Y-106250000D02*
X82750000Y-105250000D01*
X91250000Y-112922500D02*
X90672500Y-113500000D01*
X62000000Y-113000000D02*
X62000000Y-106250000D01*
X87500000Y-105250000D02*
X91250000Y-109000000D01*
X64250000Y-115250000D02*
X62000000Y-113000000D01*
X91250000Y-109000000D02*
X91250000Y-112922500D01*
%TO.N,Net-(D148-DOUT)*%
X149500000Y-149750000D02*
X149500000Y-145000000D01*
X159250000Y-146000000D02*
X219000000Y-146000000D01*
X149500000Y-145000000D02*
X151000000Y-143500000D01*
X151000000Y-143500000D02*
X156750000Y-143500000D01*
X154275000Y-153000000D02*
X152750000Y-153000000D01*
X222250000Y-142750000D02*
X227500000Y-142750000D01*
X219000000Y-146000000D02*
X222250000Y-142750000D01*
X152750000Y-153000000D02*
X149500000Y-149750000D01*
X156750000Y-143500000D02*
X159250000Y-146000000D01*
X227500000Y-142750000D02*
X231166250Y-146416250D01*
X231166250Y-146416250D02*
X231166250Y-151500000D01*
%TO.N,Net-(D113-DOUT)*%
X191750000Y-85750000D02*
X196750000Y-85750000D01*
X175750000Y-85750000D02*
X177750000Y-87750000D01*
X200225000Y-92775000D02*
X200225000Y-94500000D01*
X196750000Y-85750000D02*
X200500000Y-89500000D01*
X200500000Y-89500000D02*
X200500000Y-92500000D01*
X200500000Y-92500000D02*
X200225000Y-92775000D01*
X171500000Y-94000000D02*
X171500000Y-88500000D01*
X189750000Y-87750000D02*
X191750000Y-85750000D01*
X173500000Y-96000000D02*
X171500000Y-94000000D01*
X171500000Y-88500000D02*
X174250000Y-85750000D01*
X175710000Y-96000000D02*
X173500000Y-96000000D01*
X174250000Y-85750000D02*
X175750000Y-85750000D01*
X177750000Y-87750000D02*
X189750000Y-87750000D01*
%TO.N,Net-(D131-DOUT)*%
X282250000Y-101000000D02*
X285750000Y-101000000D01*
X254000000Y-113750000D02*
X254000000Y-112750000D01*
X258250000Y-104250000D02*
X260750000Y-106750000D01*
X285750000Y-101000000D02*
X293037000Y-108287000D01*
X255750000Y-104250000D02*
X258250000Y-104250000D01*
X270750000Y-106750000D02*
X276750000Y-100750000D01*
X255250000Y-115000000D02*
X254000000Y-113750000D01*
X254000000Y-112750000D02*
X251000000Y-109750000D01*
X260750000Y-106750000D02*
X270750000Y-106750000D01*
X256672500Y-115000000D02*
X255250000Y-115000000D01*
X251000000Y-109000000D02*
X255750000Y-104250000D01*
X293037000Y-108287000D02*
X293037000Y-113500000D01*
X282000000Y-100750000D02*
X282250000Y-101000000D01*
X276750000Y-100750000D02*
X282000000Y-100750000D01*
X251000000Y-109750000D02*
X251000000Y-109000000D01*
%TO.N,Net-(D154-DOUT)*%
X367000000Y-149500000D02*
X366897500Y-149602500D01*
X349000000Y-141000000D02*
X350500000Y-142500000D01*
X367000000Y-147000000D02*
X367000000Y-149500000D01*
X338750000Y-143500000D02*
X341250000Y-141000000D01*
X362500000Y-142500000D02*
X367000000Y-147000000D01*
X350500000Y-142500000D02*
X362500000Y-142500000D01*
X342397500Y-153000000D02*
X339750000Y-153000000D01*
X338750000Y-152000000D02*
X338750000Y-143500000D01*
X341250000Y-141000000D02*
X349000000Y-141000000D01*
X366897500Y-149602500D02*
X366897500Y-151500000D01*
X339750000Y-153000000D02*
X338750000Y-152000000D01*
%TO.N,Net-(D118-DOUT)*%
X271025000Y-97775000D02*
X271500000Y-98250000D01*
X271500000Y-98250000D02*
X277000000Y-98250000D01*
X289750000Y-85500000D02*
X296250000Y-85500000D01*
X277000000Y-98250000D02*
X289750000Y-85500000D01*
X271025000Y-96000000D02*
X271025000Y-97775000D01*
X300225000Y-89475000D02*
X300225000Y-94500000D01*
X296250000Y-85500000D02*
X300225000Y-89475000D01*
%TO.N,LED3*%
X281500000Y-99500000D02*
X280750000Y-100250000D01*
X294775000Y-96000000D02*
X291000000Y-96000000D01*
X240157500Y-103000000D02*
X240157500Y-103208402D01*
X273000000Y-100250000D02*
X270750000Y-102500000D01*
X270750000Y-102500000D02*
X257250000Y-102500000D01*
X235457500Y-103208402D02*
X235457500Y-103000000D01*
X51500000Y-103000000D02*
X45475000Y-109025000D01*
X238780902Y-104585000D02*
X236834098Y-104585000D01*
X236834098Y-104585000D02*
X235457500Y-103208402D01*
X280750000Y-100250000D02*
X273000000Y-100250000D01*
X291000000Y-96000000D02*
X290000000Y-95000000D01*
X240157500Y-103208402D02*
X238780902Y-104585000D01*
X256750000Y-103000000D02*
X240157500Y-103000000D01*
X235457500Y-103000000D02*
X51500000Y-103000000D01*
X257250000Y-102500000D02*
X256750000Y-103000000D01*
X45475000Y-109025000D02*
X45475000Y-113500000D01*
%TO.N,Net-(D126-DOUT)*%
X161422500Y-115000000D02*
X161422500Y-116922500D01*
X187750000Y-117250000D02*
X188500000Y-116500000D01*
X161750000Y-117250000D02*
X187750000Y-117250000D01*
X161422500Y-116922500D02*
X161750000Y-117250000D01*
X187500000Y-113500000D02*
X185975000Y-113500000D01*
X188500000Y-114500000D02*
X187500000Y-113500000D01*
X188500000Y-116500000D02*
X188500000Y-114500000D01*
%TO.N,Net-(D94-DOUT)*%
X70935000Y-77000000D02*
X70500000Y-77435000D01*
X99750000Y-76000000D02*
X99250000Y-75500000D01*
X70500000Y-77435000D02*
X70500000Y-79000000D01*
X70500000Y-79000000D02*
X98750000Y-79000000D01*
X98750000Y-79000000D02*
X99750000Y-78000000D01*
X99750000Y-78000000D02*
X99750000Y-76000000D01*
X99250000Y-75500000D02*
X95435000Y-75500000D01*
%TO.N,LED1*%
X299525000Y-48500000D02*
X296500000Y-48500000D01*
X309500000Y-58250000D02*
X308250000Y-59500000D01*
X40250000Y-69000000D02*
X38285000Y-70965000D01*
X42000000Y-69000000D02*
X40250000Y-69000000D01*
X308250000Y-59500000D02*
X51500000Y-59500000D01*
X38285000Y-70965000D02*
X38285000Y-75500000D01*
X51500000Y-59500000D02*
X42000000Y-69000000D01*
X296500000Y-48500000D02*
X295500000Y-49500000D01*
%TO.N,Net-(D92-DOUT)*%
X61750000Y-76000000D02*
X61250000Y-75500000D01*
X61750000Y-78000000D02*
X61750000Y-76000000D01*
X61250000Y-75500000D02*
X57335000Y-75500000D01*
X33250000Y-79000000D02*
X60750000Y-79000000D01*
X60750000Y-79000000D02*
X61750000Y-78000000D01*
X32835000Y-78585000D02*
X33250000Y-79000000D01*
X32835000Y-77000000D02*
X32835000Y-78585000D01*
%TO.N,Net-(D76-DOUT)*%
X74000000Y-38750000D02*
X76475000Y-41225000D01*
X33500000Y-50000000D02*
X56750000Y-50000000D01*
X32775000Y-48250000D02*
X32750000Y-48275000D01*
X76475000Y-41225000D02*
X76475000Y-47000000D01*
X68000000Y-38750000D02*
X74000000Y-38750000D01*
X56750000Y-50000000D02*
X68000000Y-38750000D01*
X32750000Y-48275000D02*
X32750000Y-49250000D01*
X32750000Y-49250000D02*
X33500000Y-50000000D01*
%TO.N,Net-(D98-DOUT)*%
X174250000Y-79000000D02*
X175500000Y-77750000D01*
X175500000Y-77750000D02*
X175500000Y-76500000D01*
X174500000Y-75500000D02*
X171635000Y-75500000D01*
X148000000Y-79000000D02*
X174250000Y-79000000D01*
X147135000Y-78135000D02*
X148000000Y-79000000D01*
X175500000Y-76500000D02*
X174500000Y-75500000D01*
X147135000Y-77000000D02*
X147135000Y-78135000D01*
%TO.N,Net-(D125-DOUT)*%
X140250000Y-115000000D02*
X137750000Y-112500000D01*
X138750000Y-104750000D02*
X144000000Y-104750000D01*
X166872500Y-107872500D02*
X166872500Y-113500000D01*
X137750000Y-105750000D02*
X138750000Y-104750000D01*
X158500000Y-105000000D02*
X164000000Y-105000000D01*
X146000000Y-106750000D02*
X156750000Y-106750000D01*
X137750000Y-112500000D02*
X137750000Y-105750000D01*
X144000000Y-104750000D02*
X146000000Y-106750000D01*
X164000000Y-105000000D02*
X166872500Y-107872500D01*
X156750000Y-106750000D02*
X158500000Y-105000000D01*
X142372500Y-115000000D02*
X140250000Y-115000000D01*
%TO.N,Net-(D104-DOUT)*%
X300250000Y-68000000D02*
X300250000Y-73000000D01*
X297750000Y-75500000D02*
X295475000Y-75500000D01*
X278124000Y-62876000D02*
X290126000Y-62876000D01*
X276750000Y-78000000D02*
X276750000Y-64250000D01*
X261000000Y-79250000D02*
X275500000Y-79250000D01*
X260750000Y-79000000D02*
X261000000Y-79250000D01*
X260750000Y-77685000D02*
X260750000Y-79000000D01*
X275500000Y-79250000D02*
X276750000Y-78000000D01*
X261435000Y-77000000D02*
X260750000Y-77685000D01*
X300250000Y-73000000D02*
X297750000Y-75500000D01*
X290126000Y-62876000D02*
X290750000Y-63500000D01*
X276750000Y-64250000D02*
X278124000Y-62876000D01*
X290750000Y-63500000D02*
X295750000Y-63500000D01*
X295750000Y-63500000D02*
X300250000Y-68000000D01*
%TO.N,LED2*%
X40000000Y-86000000D02*
X43047500Y-89047500D01*
X34750000Y-80000000D02*
X32500000Y-82250000D01*
X43047500Y-89047500D02*
X43047500Y-94500000D01*
X35500000Y-86000000D02*
X40000000Y-86000000D01*
X278750000Y-77000000D02*
X275750000Y-80000000D01*
X275750000Y-80000000D02*
X34750000Y-80000000D01*
X32500000Y-82250000D02*
X32500000Y-83000000D01*
X32500000Y-83000000D02*
X35500000Y-86000000D01*
X290025000Y-77000000D02*
X278750000Y-77000000D01*
%TO.N,Net-(D108-DOUT)*%
X109000000Y-95250000D02*
X108250000Y-94500000D01*
X80750000Y-98000000D02*
X107750000Y-98000000D01*
X80460000Y-97710000D02*
X80750000Y-98000000D01*
X107750000Y-98000000D02*
X109000000Y-96750000D01*
X80460000Y-96000000D02*
X80460000Y-97710000D01*
X109000000Y-96750000D02*
X109000000Y-95250000D01*
X108250000Y-94500000D02*
X104960000Y-94500000D01*
%TO.N,Net-(D106-DOUT)*%
X37597500Y-97097500D02*
X38750000Y-98250000D01*
X37597500Y-96000000D02*
X37597500Y-97097500D01*
X38750000Y-98250000D02*
X70000000Y-98250000D01*
X71500000Y-95500000D02*
X70500000Y-94500000D01*
X70000000Y-98250000D02*
X71500000Y-96750000D01*
X71500000Y-96750000D02*
X71500000Y-95500000D01*
X70500000Y-94500000D02*
X66860000Y-94500000D01*
%TO.N,Net-(D107-DOUT)*%
X75500000Y-87500000D02*
X77250000Y-85750000D01*
X86500000Y-93910000D02*
X85910000Y-94500000D01*
X55750000Y-92000000D02*
X55750000Y-89500000D01*
X82500000Y-85750000D02*
X86500000Y-89750000D01*
X63500000Y-86000000D02*
X65000000Y-87500000D01*
X61410000Y-96000000D02*
X59750000Y-96000000D01*
X86500000Y-89750000D02*
X86500000Y-93910000D01*
X77250000Y-85750000D02*
X82500000Y-85750000D01*
X55750000Y-89500000D02*
X59250000Y-86000000D01*
X59250000Y-86000000D02*
X63500000Y-86000000D01*
X65000000Y-87500000D02*
X75500000Y-87500000D01*
X59750000Y-96000000D02*
X55750000Y-92000000D01*
%TO.N,Net-(D93-DOUT)*%
X51500000Y-77000000D02*
X49750000Y-75250000D01*
X73250000Y-67000000D02*
X77000000Y-70750000D01*
X77000000Y-70750000D02*
X77000000Y-74885000D01*
X51750000Y-71000000D02*
X54000000Y-68750000D01*
X69250000Y-67000000D02*
X73250000Y-67000000D01*
X54000000Y-68750000D02*
X67500000Y-68750000D01*
X49750000Y-75250000D02*
X49750000Y-73750000D01*
X49750000Y-73750000D02*
X51750000Y-71750000D01*
X67500000Y-68750000D02*
X69250000Y-67000000D01*
X77000000Y-74885000D02*
X76385000Y-75500000D01*
X51750000Y-71750000D02*
X51750000Y-71000000D01*
X51885000Y-77000000D02*
X51500000Y-77000000D01*
%TO.N,Net-(D140-DOUT)*%
X184500000Y-126750000D02*
X189500000Y-121750000D01*
X214750000Y-128250000D02*
X214750000Y-132247500D01*
X214750000Y-132247500D02*
X214497500Y-132500000D01*
X216750000Y-126250000D02*
X214750000Y-128250000D01*
X216750000Y-122500000D02*
X216750000Y-126250000D01*
X189500000Y-121750000D02*
X216000000Y-121750000D01*
X216000000Y-121750000D02*
X216750000Y-122500000D01*
X190025000Y-134000000D02*
X184500000Y-128475000D01*
X184500000Y-128475000D02*
X184500000Y-126750000D01*
%TO.N,Net-(D88-DOUT)*%
X242600000Y-50100000D02*
X269900000Y-50100000D01*
X242385000Y-49885000D02*
X242600000Y-50100000D01*
X271250000Y-47500000D02*
X270750000Y-47000000D01*
X270750000Y-47000000D02*
X266885000Y-47000000D01*
X242385000Y-48500000D02*
X242385000Y-49885000D01*
X269900000Y-50100000D02*
X271250000Y-48750000D01*
X271250000Y-48750000D02*
X271250000Y-47500000D01*
%TO.N,Net-(D89-DOUT)*%
X261250000Y-42250000D02*
X263000000Y-40500000D01*
X259500000Y-44500000D02*
X260500000Y-44500000D01*
X286250000Y-41750000D02*
X286250000Y-45500000D01*
X263000000Y-40500000D02*
X276500000Y-40500000D01*
X276500000Y-40500000D02*
X278250000Y-38750000D01*
X286250000Y-45500000D02*
X285975000Y-45775000D01*
X260500000Y-44500000D02*
X261250000Y-43750000D01*
X258250000Y-45750000D02*
X259500000Y-44500000D01*
X284000000Y-40500000D02*
X285000000Y-40500000D01*
X285000000Y-40500000D02*
X286250000Y-41750000D01*
X285975000Y-45775000D02*
X285975000Y-47000000D01*
X258500000Y-48500000D02*
X258250000Y-48250000D01*
X261250000Y-43750000D02*
X261250000Y-42250000D01*
X258250000Y-48250000D02*
X258250000Y-45750000D01*
X282250000Y-38750000D02*
X284000000Y-40500000D01*
X278250000Y-38750000D02*
X282250000Y-38750000D01*
X261435000Y-48500000D02*
X258500000Y-48500000D01*
%TO.N,Net-(D155-DOUT)*%
X354000000Y-149000000D02*
X354000000Y-143500000D01*
X361447500Y-153000000D02*
X358000000Y-153000000D01*
X350000000Y-132500000D02*
X347847500Y-132500000D01*
X358000000Y-153000000D02*
X354000000Y-149000000D01*
X350250000Y-132250000D02*
X350000000Y-132500000D01*
%TO.N,Net-(D80-DOUT)*%
X71025000Y-50025000D02*
X71250000Y-50250000D01*
X99500000Y-48500000D02*
X98000000Y-47000000D01*
X99500000Y-49250000D02*
X99500000Y-48500000D01*
X71025000Y-48500000D02*
X71025000Y-50025000D01*
X98000000Y-47000000D02*
X95475000Y-47000000D01*
X98500000Y-50250000D02*
X99500000Y-49250000D01*
X71250000Y-50250000D02*
X98500000Y-50250000D01*
%TO.N,Net-(D81-DOUT)*%
X114030000Y-45530000D02*
X114475000Y-45975000D01*
X114475000Y-45975000D02*
X114475000Y-47000000D01*
X86250000Y-44725000D02*
X86250000Y-40500000D01*
X92000000Y-34750000D02*
X96250000Y-34750000D01*
X90025000Y-48500000D02*
X86250000Y-44725000D01*
X86250000Y-40500000D02*
X92000000Y-34750000D01*
X96250000Y-34750000D02*
X107030000Y-45530000D01*
X107030000Y-45530000D02*
X114030000Y-45530000D01*
%TO.N,Net-(D83-DOUT)*%
X162750000Y-46360000D02*
X162110000Y-47000000D01*
X161500000Y-40500000D02*
X162750000Y-41750000D01*
X128025000Y-48500000D02*
X125750000Y-48500000D01*
X144750000Y-40500000D02*
X149500000Y-45250000D01*
X162750000Y-41750000D02*
X162750000Y-46360000D01*
X157000000Y-42250000D02*
X157000000Y-41500000D01*
X125750000Y-48500000D02*
X124500000Y-47250000D01*
X124500000Y-46500000D02*
X127750000Y-43250000D01*
X158000000Y-40500000D02*
X161500000Y-40500000D01*
X124500000Y-47250000D02*
X124500000Y-46500000D01*
X127750000Y-43250000D02*
X127750000Y-42250000D01*
X127750000Y-42250000D02*
X129500000Y-40500000D01*
X157000000Y-41500000D02*
X158000000Y-40500000D01*
X129500000Y-40500000D02*
X144750000Y-40500000D01*
X149500000Y-45250000D02*
X154000000Y-45250000D01*
X154000000Y-45250000D02*
X157000000Y-42250000D01*
%TO.N,Net-(D124-DOUT)*%
X123275000Y-116025000D02*
X124250000Y-117000000D01*
X150750000Y-113500000D02*
X147822500Y-113500000D01*
X150250000Y-117000000D02*
X151500000Y-115750000D01*
X123275000Y-115000000D02*
X123275000Y-116025000D01*
X151500000Y-115750000D02*
X151500000Y-114250000D01*
X124250000Y-117000000D02*
X150250000Y-117000000D01*
X151500000Y-114250000D02*
X150750000Y-113500000D01*
%TO.N,Net-(D90-DOUT)*%
X308000000Y-48500000D02*
X308000000Y-47250000D01*
X280525000Y-49125000D02*
X281500000Y-50100000D01*
X281500000Y-50100000D02*
X306400000Y-50100000D01*
X307750000Y-47000000D02*
X304975000Y-47000000D01*
X306400000Y-50100000D02*
X308000000Y-48500000D01*
X308000000Y-47250000D02*
X307750000Y-47000000D01*
X280525000Y-48500000D02*
X280525000Y-49125000D01*
%TO.N,Net-(D114-DOUT)*%
X222000000Y-95500000D02*
X221000000Y-94500000D01*
X222000000Y-97000000D02*
X222000000Y-95500000D01*
X195250000Y-98000000D02*
X221000000Y-98000000D01*
X221000000Y-98000000D02*
X222000000Y-97000000D01*
X221000000Y-94500000D02*
X219225000Y-94500000D01*
X194775000Y-96000000D02*
X194775000Y-97525000D01*
X194775000Y-97525000D02*
X195250000Y-98000000D01*
%TO.N,Net-(D100-DIN)*%
X167250000Y-66250000D02*
X169500000Y-68500000D01*
X164500000Y-77000000D02*
X160250000Y-72750000D01*
X180500000Y-68500000D02*
X182500000Y-66500000D01*
X169500000Y-68500000D02*
X180500000Y-68500000D01*
X160250000Y-68250000D02*
X162250000Y-66250000D01*
X191250000Y-74935000D02*
X190685000Y-75500000D01*
X187250000Y-66500000D02*
X191250000Y-70500000D01*
X166185000Y-77000000D02*
X164500000Y-77000000D01*
X162250000Y-66250000D02*
X167250000Y-66250000D01*
X160250000Y-72750000D02*
X160250000Y-68250000D01*
X182500000Y-66500000D02*
X187250000Y-66500000D01*
X191250000Y-70500000D02*
X191250000Y-74935000D01*
%TO.N,Net-(D120-DOUT)*%
X74750000Y-117250000D02*
X75500000Y-116500000D01*
X40025000Y-116275000D02*
X41000000Y-117250000D01*
X40025000Y-115000000D02*
X40025000Y-116275000D01*
X75500000Y-116500000D02*
X75500000Y-114500000D01*
X41000000Y-117250000D02*
X74750000Y-117250000D01*
X74750000Y-113750000D02*
X71622500Y-113750000D01*
X75500000Y-114500000D02*
X74750000Y-113750000D01*
%TO.N,Net-(D117-DOUT)*%
X256500000Y-88000000D02*
X264250000Y-88000000D01*
X247750000Y-94000000D02*
X247750000Y-86750000D01*
X264250000Y-88000000D02*
X266250000Y-86000000D01*
X251910000Y-96000000D02*
X249750000Y-96000000D01*
X276475000Y-88475000D02*
X276475000Y-94500000D01*
X274000000Y-86000000D02*
X276475000Y-88475000D01*
X266250000Y-86000000D02*
X274000000Y-86000000D01*
X249750000Y-96000000D02*
X247750000Y-94000000D01*
X248750000Y-85750000D02*
X254250000Y-85750000D01*
X254250000Y-85750000D02*
X256500000Y-88000000D01*
X247750000Y-86750000D02*
X248750000Y-85750000D01*
%TO.N,Net-(D137-DOUT)*%
X134250000Y-136000000D02*
X159000000Y-136000000D01*
X159750000Y-132500000D02*
X157347500Y-132500000D01*
X132847500Y-134597500D02*
X134250000Y-136000000D01*
X160250000Y-133000000D02*
X159750000Y-132500000D01*
X159000000Y-136000000D02*
X160250000Y-134750000D01*
X132847500Y-134000000D02*
X132847500Y-134597500D01*
X160250000Y-134750000D02*
X160250000Y-133000000D01*
%TO.N,Net-(D143-DOUT)*%
X272500000Y-119500000D02*
X274500000Y-119500000D01*
X285750000Y-124250000D02*
X288287000Y-126787000D01*
X288287000Y-126787000D02*
X288287000Y-132500000D01*
X247147500Y-134000000D02*
X247147500Y-135397500D01*
X274500000Y-119500000D02*
X279250000Y-124250000D01*
X256250000Y-135750000D02*
X272500000Y-119500000D01*
X247500000Y-135750000D02*
X256250000Y-135750000D01*
X279250000Y-124250000D02*
X285750000Y-124250000D01*
X247147500Y-135397500D02*
X247500000Y-135750000D01*
%TO.N,Net-(D82-DOUT)*%
X109025000Y-49525000D02*
X109500000Y-50000000D01*
X109025000Y-48500000D02*
X109025000Y-49525000D01*
X135750000Y-47000000D02*
X133475000Y-47000000D01*
X109500000Y-50000000D02*
X135500000Y-50000000D01*
X136500000Y-47750000D02*
X135750000Y-47000000D01*
X135500000Y-50000000D02*
X136500000Y-49000000D01*
X136500000Y-49000000D02*
X136500000Y-47750000D01*
%TD*%
M02*
