%TF.GenerationSoftware,KiCad,Pcbnew,10.0.0*%
%TF.CreationDate,2026-06-23T17:52:41-05:00*%
%TF.ProjectId,keyboard,6b657962-6f61-4726-942e-6b696361645f,rev?*%
%TF.SameCoordinates,Original*%
%TF.FileFunction,Profile,NP*%
%FSLAX46Y46*%
G04 Gerber Fmt 4.6, Leading zero omitted, Abs format (unit mm)*
G04 Created by KiCad (PCBNEW 10.0.0) date 2026-06-23 17:52:41*
%MOMM*%
%LPD*%
G01*
G04 APERTURE LIST*
%TA.AperFunction,Profile*%
%ADD10C,0.050000*%
%TD*%
%TA.AperFunction,Profile*%
%ADD11C,0.120000*%
%TD*%
G04 APERTURE END LIST*
D10*
X26035000Y-31000000D02*
X408500000Y-31000000D01*
X408500000Y-161500000D01*
X26035000Y-161500000D01*
X26035000Y-31000000D01*
%TO.C,D153*%
D11*
X324372500Y-152250000D02*
X324372500Y-151549647D01*
X324372500Y-152250000D02*
X324372500Y-152950353D01*
X326072500Y-150750000D02*
X325172147Y-150750000D01*
X326072500Y-150750000D02*
X326972853Y-150750000D01*
X326072500Y-153750000D02*
X325172147Y-153750000D01*
X326072500Y-153750000D02*
X326972853Y-153750000D01*
X327772500Y-152250000D02*
X327772500Y-151549647D01*
X327772500Y-152250000D02*
X327772500Y-152950353D01*
X324328566Y-151393345D02*
G75*
G02*
X324372476Y-151549647I-256066J-156255D01*
G01*
X324328566Y-151393345D02*
G75*
G02*
X325015845Y-150706066I426774J260505D01*
G01*
X324372500Y-152950353D02*
G75*
G02*
X324328565Y-153106654I-299680J-87D01*
G01*
X325015845Y-153793934D02*
G75*
G02*
X324328566Y-153106655I-260505J426774D01*
G01*
X325015845Y-153793934D02*
G75*
G02*
X325172147Y-153750024I156255J-256066D01*
G01*
X325172147Y-150750000D02*
G75*
G02*
X325015844Y-150706067I3J300020D01*
G01*
X326972853Y-153750000D02*
G75*
G02*
X327129155Y-153793934I3J-299992D01*
G01*
X327129155Y-150706066D02*
G75*
G02*
X326972853Y-150750000I-156299J256058D01*
G01*
X327129155Y-150706066D02*
G75*
G02*
X327816434Y-151393345I260503J-426776D01*
G01*
X327772500Y-151549647D02*
G75*
G02*
X327816434Y-151393345I299992J3D01*
G01*
X327816434Y-153106655D02*
G75*
G02*
X327129155Y-153793934I-426776J-260503D01*
G01*
X327816434Y-153106655D02*
G75*
G02*
X327772500Y-152950353I256058J156299D01*
G01*
%TO.C,D97*%
X129110000Y-76250000D02*
X129110000Y-75549647D01*
X129110000Y-76250000D02*
X129110000Y-76950353D01*
X130810000Y-74750000D02*
X129909647Y-74750000D01*
X130810000Y-74750000D02*
X131710353Y-74750000D01*
X130810000Y-77750000D02*
X129909647Y-77750000D01*
X130810000Y-77750000D02*
X131710353Y-77750000D01*
X132510000Y-76250000D02*
X132510000Y-75549647D01*
X132510000Y-76250000D02*
X132510000Y-76950353D01*
X129066066Y-75393345D02*
G75*
G02*
X129109976Y-75549647I-256066J-156255D01*
G01*
X129066066Y-75393345D02*
G75*
G02*
X129753345Y-74706066I426774J260505D01*
G01*
X129110000Y-76950353D02*
G75*
G02*
X129066065Y-77106654I-299680J-87D01*
G01*
X129753345Y-77793934D02*
G75*
G02*
X129066066Y-77106655I-260505J426774D01*
G01*
X129753345Y-77793934D02*
G75*
G02*
X129909647Y-77750024I156255J-256066D01*
G01*
X129909647Y-74750000D02*
G75*
G02*
X129753344Y-74706067I3J300020D01*
G01*
X131710353Y-77750000D02*
G75*
G02*
X131866655Y-77793934I3J-299992D01*
G01*
X131866655Y-74706066D02*
G75*
G02*
X131710353Y-74750000I-156299J256058D01*
G01*
X131866655Y-74706066D02*
G75*
G02*
X132553934Y-75393345I260503J-426776D01*
G01*
X132510000Y-75549647D02*
G75*
G02*
X132553934Y-75393345I299992J3D01*
G01*
X132553934Y-77106655D02*
G75*
G02*
X131866655Y-77793934I-426776J-260503D01*
G01*
X132553934Y-77106655D02*
G75*
G02*
X132510000Y-76950353I256058J156299D01*
G01*
%TO.C,D128*%
X200550000Y-114250000D02*
X200550000Y-113549647D01*
X200550000Y-114250000D02*
X200550000Y-114950353D01*
X202250000Y-112750000D02*
X201349647Y-112750000D01*
X202250000Y-112750000D02*
X203150353Y-112750000D01*
X202250000Y-115750000D02*
X201349647Y-115750000D01*
X202250000Y-115750000D02*
X203150353Y-115750000D01*
X203950000Y-114250000D02*
X203950000Y-113549647D01*
X203950000Y-114250000D02*
X203950000Y-114950353D01*
X200506066Y-113393345D02*
G75*
G02*
X200549976Y-113549647I-256066J-156255D01*
G01*
X200506066Y-113393345D02*
G75*
G02*
X201193345Y-112706066I426774J260505D01*
G01*
X200550000Y-114950353D02*
G75*
G02*
X200506065Y-115106654I-299680J-87D01*
G01*
X201193345Y-115793934D02*
G75*
G02*
X200506066Y-115106655I-260505J426774D01*
G01*
X201193345Y-115793934D02*
G75*
G02*
X201349647Y-115750024I156255J-256066D01*
G01*
X201349647Y-112750000D02*
G75*
G02*
X201193344Y-112706067I3J300020D01*
G01*
X203150353Y-115750000D02*
G75*
G02*
X203306655Y-115793934I3J-299992D01*
G01*
X203306655Y-112706066D02*
G75*
G02*
X203150353Y-112750000I-156299J256058D01*
G01*
X203306655Y-112706066D02*
G75*
G02*
X203993934Y-113393345I260503J-426776D01*
G01*
X203950000Y-113549647D02*
G75*
G02*
X203993934Y-113393345I299992J3D01*
G01*
X203993934Y-115106655D02*
G75*
G02*
X203306655Y-115793934I-426776J-260503D01*
G01*
X203993934Y-115106655D02*
G75*
G02*
X203950000Y-114950353I256058J156299D01*
G01*
%TO.C,D150*%
X250550000Y-152250000D02*
X250550000Y-151549647D01*
X250550000Y-152250000D02*
X250550000Y-152950353D01*
X252250000Y-150750000D02*
X251349647Y-150750000D01*
X252250000Y-150750000D02*
X253150353Y-150750000D01*
X252250000Y-153750000D02*
X251349647Y-153750000D01*
X252250000Y-153750000D02*
X253150353Y-153750000D01*
X253950000Y-152250000D02*
X253950000Y-151549647D01*
X253950000Y-152250000D02*
X253950000Y-152950353D01*
X250506066Y-151393345D02*
G75*
G02*
X250549976Y-151549647I-256066J-156255D01*
G01*
X250506066Y-151393345D02*
G75*
G02*
X251193345Y-150706066I426774J260505D01*
G01*
X250550000Y-152950353D02*
G75*
G02*
X250506065Y-153106654I-299680J-87D01*
G01*
X251193345Y-153793934D02*
G75*
G02*
X250506066Y-153106655I-260505J426774D01*
G01*
X251193345Y-153793934D02*
G75*
G02*
X251349647Y-153750024I156255J-256066D01*
G01*
X251349647Y-150750000D02*
G75*
G02*
X251193344Y-150706067I3J300020D01*
G01*
X253150353Y-153750000D02*
G75*
G02*
X253306655Y-153793934I3J-299992D01*
G01*
X253306655Y-150706066D02*
G75*
G02*
X253150353Y-150750000I-156299J256058D01*
G01*
X253306655Y-150706066D02*
G75*
G02*
X253993934Y-151393345I260503J-426776D01*
G01*
X253950000Y-151549647D02*
G75*
G02*
X253993934Y-151393345I299992J3D01*
G01*
X253993934Y-153106655D02*
G75*
G02*
X253306655Y-153793934I-426776J-260503D01*
G01*
X253993934Y-153106655D02*
G75*
G02*
X253950000Y-152950353I256058J156299D01*
G01*
%TO.C,D85*%
X176735000Y-47750000D02*
X176735000Y-47049647D01*
X176735000Y-47750000D02*
X176735000Y-48450353D01*
X178435000Y-46250000D02*
X177534647Y-46250000D01*
X178435000Y-46250000D02*
X179335353Y-46250000D01*
X178435000Y-49250000D02*
X177534647Y-49250000D01*
X178435000Y-49250000D02*
X179335353Y-49250000D01*
X180135000Y-47750000D02*
X180135000Y-47049647D01*
X180135000Y-47750000D02*
X180135000Y-48450353D01*
X176691066Y-46893345D02*
G75*
G02*
X176734976Y-47049647I-256066J-156255D01*
G01*
X176691066Y-46893345D02*
G75*
G02*
X177378345Y-46206066I426774J260505D01*
G01*
X176735000Y-48450353D02*
G75*
G02*
X176691065Y-48606654I-299680J-87D01*
G01*
X177378345Y-49293934D02*
G75*
G02*
X176691066Y-48606655I-260505J426774D01*
G01*
X177378345Y-49293934D02*
G75*
G02*
X177534647Y-49250024I156255J-256066D01*
G01*
X177534647Y-46250000D02*
G75*
G02*
X177378344Y-46206067I3J300020D01*
G01*
X179335353Y-49250000D02*
G75*
G02*
X179491655Y-49293934I3J-299992D01*
G01*
X179491655Y-46206066D02*
G75*
G02*
X179335353Y-46250000I-156299J256058D01*
G01*
X179491655Y-46206066D02*
G75*
G02*
X180178934Y-46893345I260503J-426776D01*
G01*
X180135000Y-47049647D02*
G75*
G02*
X180178934Y-46893345I299992J3D01*
G01*
X180178934Y-48606655D02*
G75*
G02*
X179491655Y-49293934I-426776J-260503D01*
G01*
X180178934Y-48606655D02*
G75*
G02*
X180135000Y-48450353I256058J156299D01*
G01*
%TO.C,D147*%
X83866250Y-152250000D02*
X83866250Y-151549647D01*
X83866250Y-152250000D02*
X83866250Y-152950353D01*
X85566250Y-150750000D02*
X84665897Y-150750000D01*
X85566250Y-150750000D02*
X86466603Y-150750000D01*
X85566250Y-153750000D02*
X84665897Y-153750000D01*
X85566250Y-153750000D02*
X86466603Y-153750000D01*
X87266250Y-152250000D02*
X87266250Y-151549647D01*
X87266250Y-152250000D02*
X87266250Y-152950353D01*
X83822316Y-151393345D02*
G75*
G02*
X83866226Y-151549647I-256066J-156255D01*
G01*
X83822316Y-151393345D02*
G75*
G02*
X84509595Y-150706066I426774J260505D01*
G01*
X83866250Y-152950353D02*
G75*
G02*
X83822315Y-153106654I-299680J-87D01*
G01*
X84509595Y-153793934D02*
G75*
G02*
X83822316Y-153106655I-260505J426774D01*
G01*
X84509595Y-153793934D02*
G75*
G02*
X84665897Y-153750024I156255J-256066D01*
G01*
X84665897Y-150750000D02*
G75*
G02*
X84509594Y-150706067I3J300020D01*
G01*
X86466603Y-153750000D02*
G75*
G02*
X86622905Y-153793934I3J-299992D01*
G01*
X86622905Y-150706066D02*
G75*
G02*
X86466603Y-150750000I-156299J256058D01*
G01*
X86622905Y-150706066D02*
G75*
G02*
X87310184Y-151393345I260503J-426776D01*
G01*
X87266250Y-151549647D02*
G75*
G02*
X87310184Y-151393345I299992J3D01*
G01*
X87310184Y-153106655D02*
G75*
G02*
X86622905Y-153793934I-426776J-260503D01*
G01*
X87310184Y-153106655D02*
G75*
G02*
X87266250Y-152950353I256058J156299D01*
G01*
%TO.C,D123*%
X105300000Y-114250000D02*
X105300000Y-113549647D01*
X105300000Y-114250000D02*
X105300000Y-114950353D01*
X107000000Y-112750000D02*
X106099647Y-112750000D01*
X107000000Y-112750000D02*
X107900353Y-112750000D01*
X107000000Y-115750000D02*
X106099647Y-115750000D01*
X107000000Y-115750000D02*
X107900353Y-115750000D01*
X108700000Y-114250000D02*
X108700000Y-113549647D01*
X108700000Y-114250000D02*
X108700000Y-114950353D01*
X105256066Y-113393345D02*
G75*
G02*
X105299976Y-113549647I-256066J-156255D01*
G01*
X105256066Y-113393345D02*
G75*
G02*
X105943345Y-112706066I426774J260505D01*
G01*
X105300000Y-114950353D02*
G75*
G02*
X105256065Y-115106654I-299680J-87D01*
G01*
X105943345Y-115793934D02*
G75*
G02*
X105256066Y-115106655I-260505J426774D01*
G01*
X105943345Y-115793934D02*
G75*
G02*
X106099647Y-115750024I156255J-256066D01*
G01*
X106099647Y-112750000D02*
G75*
G02*
X105943344Y-112706067I3J300020D01*
G01*
X107900353Y-115750000D02*
G75*
G02*
X108056655Y-115793934I3J-299992D01*
G01*
X108056655Y-112706066D02*
G75*
G02*
X107900353Y-112750000I-156299J256058D01*
G01*
X108056655Y-112706066D02*
G75*
G02*
X108743934Y-113393345I260503J-426776D01*
G01*
X108700000Y-113549647D02*
G75*
G02*
X108743934Y-113393345I299992J3D01*
G01*
X108743934Y-115106655D02*
G75*
G02*
X108056655Y-115793934I-426776J-260503D01*
G01*
X108743934Y-115106655D02*
G75*
G02*
X108700000Y-114950353I256058J156299D01*
G01*
%TO.C,D139*%
X171972500Y-133250000D02*
X171972500Y-132549647D01*
X171972500Y-133250000D02*
X171972500Y-133950353D01*
X173672500Y-131750000D02*
X172772147Y-131750000D01*
X173672500Y-131750000D02*
X174572853Y-131750000D01*
X173672500Y-134750000D02*
X172772147Y-134750000D01*
X173672500Y-134750000D02*
X174572853Y-134750000D01*
X175372500Y-133250000D02*
X175372500Y-132549647D01*
X175372500Y-133250000D02*
X175372500Y-133950353D01*
X171928566Y-132393345D02*
G75*
G02*
X171972476Y-132549647I-256066J-156255D01*
G01*
X171928566Y-132393345D02*
G75*
G02*
X172615845Y-131706066I426774J260505D01*
G01*
X171972500Y-133950353D02*
G75*
G02*
X171928565Y-134106654I-299680J-87D01*
G01*
X172615845Y-134793934D02*
G75*
G02*
X171928566Y-134106655I-260505J426774D01*
G01*
X172615845Y-134793934D02*
G75*
G02*
X172772147Y-134750024I156255J-256066D01*
G01*
X172772147Y-131750000D02*
G75*
G02*
X172615844Y-131706067I3J300020D01*
G01*
X174572853Y-134750000D02*
G75*
G02*
X174729155Y-134793934I3J-299992D01*
G01*
X174729155Y-131706066D02*
G75*
G02*
X174572853Y-131750000I-156299J256058D01*
G01*
X174729155Y-131706066D02*
G75*
G02*
X175416434Y-132393345I260503J-426776D01*
G01*
X175372500Y-132549647D02*
G75*
G02*
X175416434Y-132393345I299992J3D01*
G01*
X175416434Y-134106655D02*
G75*
G02*
X174729155Y-134793934I-426776J-260503D01*
G01*
X175416434Y-134106655D02*
G75*
G02*
X175372500Y-133950353I256058J156299D01*
G01*
%TO.C,D110*%
X119585000Y-95250000D02*
X119585000Y-94549647D01*
X119585000Y-95250000D02*
X119585000Y-95950353D01*
X121285000Y-93750000D02*
X120384647Y-93750000D01*
X121285000Y-93750000D02*
X122185353Y-93750000D01*
X121285000Y-96750000D02*
X120384647Y-96750000D01*
X121285000Y-96750000D02*
X122185353Y-96750000D01*
X122985000Y-95250000D02*
X122985000Y-94549647D01*
X122985000Y-95250000D02*
X122985000Y-95950353D01*
X119541066Y-94393345D02*
G75*
G02*
X119584976Y-94549647I-256066J-156255D01*
G01*
X119541066Y-94393345D02*
G75*
G02*
X120228345Y-93706066I426774J260505D01*
G01*
X119585000Y-95950353D02*
G75*
G02*
X119541065Y-96106654I-299680J-87D01*
G01*
X120228345Y-96793934D02*
G75*
G02*
X119541066Y-96106655I-260505J426774D01*
G01*
X120228345Y-96793934D02*
G75*
G02*
X120384647Y-96750024I156255J-256066D01*
G01*
X120384647Y-93750000D02*
G75*
G02*
X120228344Y-93706067I3J300020D01*
G01*
X122185353Y-96750000D02*
G75*
G02*
X122341655Y-96793934I3J-299992D01*
G01*
X122341655Y-93706066D02*
G75*
G02*
X122185353Y-93750000I-156299J256058D01*
G01*
X122341655Y-93706066D02*
G75*
G02*
X123028934Y-94393345I260503J-426776D01*
G01*
X122985000Y-94549647D02*
G75*
G02*
X123028934Y-94393345I299992J3D01*
G01*
X123028934Y-96106655D02*
G75*
G02*
X122341655Y-96793934I-426776J-260503D01*
G01*
X123028934Y-96106655D02*
G75*
G02*
X122985000Y-95950353I256058J156299D01*
G01*
%TO.C,D136*%
X114822500Y-133250000D02*
X114822500Y-132549647D01*
X114822500Y-133250000D02*
X114822500Y-133950353D01*
X116522500Y-131750000D02*
X115622147Y-131750000D01*
X116522500Y-131750000D02*
X117422853Y-131750000D01*
X116522500Y-134750000D02*
X115622147Y-134750000D01*
X116522500Y-134750000D02*
X117422853Y-134750000D01*
X118222500Y-133250000D02*
X118222500Y-132549647D01*
X118222500Y-133250000D02*
X118222500Y-133950353D01*
X114778566Y-132393345D02*
G75*
G02*
X114822476Y-132549647I-256066J-156255D01*
G01*
X114778566Y-132393345D02*
G75*
G02*
X115465845Y-131706066I426774J260505D01*
G01*
X114822500Y-133950353D02*
G75*
G02*
X114778565Y-134106654I-299680J-87D01*
G01*
X115465845Y-134793934D02*
G75*
G02*
X114778566Y-134106655I-260505J426774D01*
G01*
X115465845Y-134793934D02*
G75*
G02*
X115622147Y-134750024I156255J-256066D01*
G01*
X115622147Y-131750000D02*
G75*
G02*
X115465844Y-131706067I3J300020D01*
G01*
X117422853Y-134750000D02*
G75*
G02*
X117579155Y-134793934I3J-299992D01*
G01*
X117579155Y-131706066D02*
G75*
G02*
X117422853Y-131750000I-156299J256058D01*
G01*
X117579155Y-131706066D02*
G75*
G02*
X118266434Y-132393345I260503J-426776D01*
G01*
X118222500Y-132549647D02*
G75*
G02*
X118266434Y-132393345I299992J3D01*
G01*
X118266434Y-134106655D02*
G75*
G02*
X117579155Y-134793934I-426776J-260503D01*
G01*
X118266434Y-134106655D02*
G75*
G02*
X118222500Y-133950353I256058J156299D01*
G01*
%TO.C,D96*%
X110060000Y-76250000D02*
X110060000Y-75549647D01*
X110060000Y-76250000D02*
X110060000Y-76950353D01*
X111760000Y-74750000D02*
X110859647Y-74750000D01*
X111760000Y-74750000D02*
X112660353Y-74750000D01*
X111760000Y-77750000D02*
X110859647Y-77750000D01*
X111760000Y-77750000D02*
X112660353Y-77750000D01*
X113460000Y-76250000D02*
X113460000Y-75549647D01*
X113460000Y-76250000D02*
X113460000Y-76950353D01*
X110016066Y-75393345D02*
G75*
G02*
X110059976Y-75549647I-256066J-156255D01*
G01*
X110016066Y-75393345D02*
G75*
G02*
X110703345Y-74706066I426774J260505D01*
G01*
X110060000Y-76950353D02*
G75*
G02*
X110016065Y-77106654I-299680J-87D01*
G01*
X110703345Y-77793934D02*
G75*
G02*
X110016066Y-77106655I-260505J426774D01*
G01*
X110703345Y-77793934D02*
G75*
G02*
X110859647Y-77750024I156255J-256066D01*
G01*
X110859647Y-74750000D02*
G75*
G02*
X110703344Y-74706067I3J300020D01*
G01*
X112660353Y-77750000D02*
G75*
G02*
X112816655Y-77793934I3J-299992D01*
G01*
X112816655Y-74706066D02*
G75*
G02*
X112660353Y-74750000I-156299J256058D01*
G01*
X112816655Y-74706066D02*
G75*
G02*
X113503934Y-75393345I260503J-426776D01*
G01*
X113460000Y-75549647D02*
G75*
G02*
X113503934Y-75393345I299992J3D01*
G01*
X113503934Y-77106655D02*
G75*
G02*
X112816655Y-77793934I-426776J-260503D01*
G01*
X113503934Y-77106655D02*
G75*
G02*
X113460000Y-76950353I256058J156299D01*
G01*
%TO.C,D133*%
X45737000Y-133250000D02*
X45737000Y-132549647D01*
X45737000Y-133250000D02*
X45737000Y-133950353D01*
X47437000Y-131750000D02*
X46536647Y-131750000D01*
X47437000Y-131750000D02*
X48337353Y-131750000D01*
X47437000Y-134750000D02*
X46536647Y-134750000D01*
X47437000Y-134750000D02*
X48337353Y-134750000D01*
X49137000Y-133250000D02*
X49137000Y-132549647D01*
X49137000Y-133250000D02*
X49137000Y-133950353D01*
X45693066Y-132393345D02*
G75*
G02*
X45736976Y-132549647I-256066J-156255D01*
G01*
X45693066Y-132393345D02*
G75*
G02*
X46380345Y-131706066I426774J260505D01*
G01*
X45737000Y-133950353D02*
G75*
G02*
X45693065Y-134106654I-299680J-87D01*
G01*
X46380345Y-134793934D02*
G75*
G02*
X45693066Y-134106655I-260505J426774D01*
G01*
X46380345Y-134793934D02*
G75*
G02*
X46536647Y-134750024I156255J-256066D01*
G01*
X46536647Y-131750000D02*
G75*
G02*
X46380344Y-131706067I3J300020D01*
G01*
X48337353Y-134750000D02*
G75*
G02*
X48493655Y-134793934I3J-299992D01*
G01*
X48493655Y-131706066D02*
G75*
G02*
X48337353Y-131750000I-156299J256058D01*
G01*
X48493655Y-131706066D02*
G75*
G02*
X49180934Y-132393345I260503J-426776D01*
G01*
X49137000Y-132549647D02*
G75*
G02*
X49180934Y-132393345I299992J3D01*
G01*
X49180934Y-134106655D02*
G75*
G02*
X48493655Y-134793934I-426776J-260503D01*
G01*
X49180934Y-134106655D02*
G75*
G02*
X49137000Y-133950353I256058J156299D01*
G01*
%TO.C,D152*%
X298178750Y-152250000D02*
X298178750Y-151549647D01*
X298178750Y-152250000D02*
X298178750Y-152950353D01*
X299878750Y-150750000D02*
X298978397Y-150750000D01*
X299878750Y-150750000D02*
X300779103Y-150750000D01*
X299878750Y-153750000D02*
X298978397Y-153750000D01*
X299878750Y-153750000D02*
X300779103Y-153750000D01*
X301578750Y-152250000D02*
X301578750Y-151549647D01*
X301578750Y-152250000D02*
X301578750Y-152950353D01*
X298134816Y-151393345D02*
G75*
G02*
X298178726Y-151549647I-256066J-156255D01*
G01*
X298134816Y-151393345D02*
G75*
G02*
X298822095Y-150706066I426774J260505D01*
G01*
X298178750Y-152950353D02*
G75*
G02*
X298134815Y-153106654I-299680J-87D01*
G01*
X298822095Y-153793934D02*
G75*
G02*
X298134816Y-153106655I-260505J426774D01*
G01*
X298822095Y-153793934D02*
G75*
G02*
X298978397Y-153750024I156255J-256066D01*
G01*
X298978397Y-150750000D02*
G75*
G02*
X298822094Y-150706067I3J300020D01*
G01*
X300779103Y-153750000D02*
G75*
G02*
X300935405Y-153793934I3J-299992D01*
G01*
X300935405Y-150706066D02*
G75*
G02*
X300779103Y-150750000I-156299J256058D01*
G01*
X300935405Y-150706066D02*
G75*
G02*
X301622684Y-151393345I260503J-426776D01*
G01*
X301578750Y-151549647D02*
G75*
G02*
X301622684Y-151393345I299992J3D01*
G01*
X301622684Y-153106655D02*
G75*
G02*
X300935405Y-153793934I-426776J-260503D01*
G01*
X301622684Y-153106655D02*
G75*
G02*
X301578750Y-152950353I256058J156299D01*
G01*
%TO.C,D102*%
X224360000Y-76250000D02*
X224360000Y-75549647D01*
X224360000Y-76250000D02*
X224360000Y-76950353D01*
X226060000Y-74750000D02*
X225159647Y-74750000D01*
X226060000Y-74750000D02*
X226960353Y-74750000D01*
X226060000Y-77750000D02*
X225159647Y-77750000D01*
X226060000Y-77750000D02*
X226960353Y-77750000D01*
X227760000Y-76250000D02*
X227760000Y-75549647D01*
X227760000Y-76250000D02*
X227760000Y-76950353D01*
X224316066Y-75393345D02*
G75*
G02*
X224359976Y-75549647I-256066J-156255D01*
G01*
X224316066Y-75393345D02*
G75*
G02*
X225003345Y-74706066I426774J260505D01*
G01*
X224360000Y-76950353D02*
G75*
G02*
X224316065Y-77106654I-299680J-87D01*
G01*
X225003345Y-77793934D02*
G75*
G02*
X224316066Y-77106655I-260505J426774D01*
G01*
X225003345Y-77793934D02*
G75*
G02*
X225159647Y-77750024I156255J-256066D01*
G01*
X225159647Y-74750000D02*
G75*
G02*
X225003344Y-74706067I3J300020D01*
G01*
X226960353Y-77750000D02*
G75*
G02*
X227116655Y-77793934I3J-299992D01*
G01*
X227116655Y-74706066D02*
G75*
G02*
X226960353Y-74750000I-156299J256058D01*
G01*
X227116655Y-74706066D02*
G75*
G02*
X227803934Y-75393345I260503J-426776D01*
G01*
X227760000Y-75549647D02*
G75*
G02*
X227803934Y-75393345I299992J3D01*
G01*
X227803934Y-77106655D02*
G75*
G02*
X227116655Y-77793934I-426776J-260503D01*
G01*
X227803934Y-77106655D02*
G75*
G02*
X227760000Y-76950353I256058J156299D01*
G01*
%TO.C,D151*%
X274366250Y-152250000D02*
X274366250Y-151549647D01*
X274366250Y-152250000D02*
X274366250Y-152950353D01*
X276066250Y-150750000D02*
X275165897Y-150750000D01*
X276066250Y-150750000D02*
X276966603Y-150750000D01*
X276066250Y-153750000D02*
X275165897Y-153750000D01*
X276066250Y-153750000D02*
X276966603Y-153750000D01*
X277766250Y-152250000D02*
X277766250Y-151549647D01*
X277766250Y-152250000D02*
X277766250Y-152950353D01*
X274322316Y-151393345D02*
G75*
G02*
X274366226Y-151549647I-256066J-156255D01*
G01*
X274322316Y-151393345D02*
G75*
G02*
X275009595Y-150706066I426774J260505D01*
G01*
X274366250Y-152950353D02*
G75*
G02*
X274322315Y-153106654I-299680J-87D01*
G01*
X275009595Y-153793934D02*
G75*
G02*
X274322316Y-153106655I-260505J426774D01*
G01*
X275009595Y-153793934D02*
G75*
G02*
X275165897Y-153750024I156255J-256066D01*
G01*
X275165897Y-150750000D02*
G75*
G02*
X275009594Y-150706067I3J300020D01*
G01*
X276966603Y-153750000D02*
G75*
G02*
X277122905Y-153793934I3J-299992D01*
G01*
X277122905Y-150706066D02*
G75*
G02*
X276966603Y-150750000I-156299J256058D01*
G01*
X277122905Y-150706066D02*
G75*
G02*
X277810184Y-151393345I260503J-426776D01*
G01*
X277766250Y-151549647D02*
G75*
G02*
X277810184Y-151393345I299992J3D01*
G01*
X277810184Y-153106655D02*
G75*
G02*
X277122905Y-153793934I-426776J-260503D01*
G01*
X277810184Y-153106655D02*
G75*
G02*
X277766250Y-152950353I256058J156299D01*
G01*
%TO.C,D134*%
X76722500Y-133250000D02*
X76722500Y-132549647D01*
X76722500Y-133250000D02*
X76722500Y-133950353D01*
X78422500Y-131750000D02*
X77522147Y-131750000D01*
X78422500Y-131750000D02*
X79322853Y-131750000D01*
X78422500Y-134750000D02*
X77522147Y-134750000D01*
X78422500Y-134750000D02*
X79322853Y-134750000D01*
X80122500Y-133250000D02*
X80122500Y-132549647D01*
X80122500Y-133250000D02*
X80122500Y-133950353D01*
X76678566Y-132393345D02*
G75*
G02*
X76722476Y-132549647I-256066J-156255D01*
G01*
X76678566Y-132393345D02*
G75*
G02*
X77365845Y-131706066I426774J260505D01*
G01*
X76722500Y-133950353D02*
G75*
G02*
X76678565Y-134106654I-299680J-87D01*
G01*
X77365845Y-134793934D02*
G75*
G02*
X76678566Y-134106655I-260505J426774D01*
G01*
X77365845Y-134793934D02*
G75*
G02*
X77522147Y-134750024I156255J-256066D01*
G01*
X77522147Y-131750000D02*
G75*
G02*
X77365844Y-131706067I3J300020D01*
G01*
X79322853Y-134750000D02*
G75*
G02*
X79479155Y-134793934I3J-299992D01*
G01*
X79479155Y-131706066D02*
G75*
G02*
X79322853Y-131750000I-156299J256058D01*
G01*
X79479155Y-131706066D02*
G75*
G02*
X80166434Y-132393345I260503J-426776D01*
G01*
X80122500Y-132549647D02*
G75*
G02*
X80166434Y-132393345I299992J3D01*
G01*
X80166434Y-134106655D02*
G75*
G02*
X79479155Y-134793934I-426776J-260503D01*
G01*
X80166434Y-134106655D02*
G75*
G02*
X80122500Y-133950353I256058J156299D01*
G01*
%TO.C,D130*%
X238647500Y-114250000D02*
X238647500Y-113549647D01*
X238647500Y-114250000D02*
X238647500Y-114950353D01*
X240347500Y-112750000D02*
X239447147Y-112750000D01*
X240347500Y-112750000D02*
X241247853Y-112750000D01*
X240347500Y-115750000D02*
X239447147Y-115750000D01*
X240347500Y-115750000D02*
X241247853Y-115750000D01*
X242047500Y-114250000D02*
X242047500Y-113549647D01*
X242047500Y-114250000D02*
X242047500Y-114950353D01*
X238603566Y-113393345D02*
G75*
G02*
X238647476Y-113549647I-256066J-156255D01*
G01*
X238603566Y-113393345D02*
G75*
G02*
X239290845Y-112706066I426774J260505D01*
G01*
X238647500Y-114950353D02*
G75*
G02*
X238603565Y-115106654I-299680J-87D01*
G01*
X239290845Y-115793934D02*
G75*
G02*
X238603566Y-115106655I-260505J426774D01*
G01*
X239290845Y-115793934D02*
G75*
G02*
X239447147Y-115750024I156255J-256066D01*
G01*
X239447147Y-112750000D02*
G75*
G02*
X239290844Y-112706067I3J300020D01*
G01*
X241247853Y-115750000D02*
G75*
G02*
X241404155Y-115793934I3J-299992D01*
G01*
X241404155Y-112706066D02*
G75*
G02*
X241247853Y-112750000I-156299J256058D01*
G01*
X241404155Y-112706066D02*
G75*
G02*
X242091434Y-113393345I260503J-426776D01*
G01*
X242047500Y-113549647D02*
G75*
G02*
X242091434Y-113393345I299992J3D01*
G01*
X242091434Y-115106655D02*
G75*
G02*
X241404155Y-115793934I-426776J-260503D01*
G01*
X242091434Y-115106655D02*
G75*
G02*
X242047500Y-114950353I256058J156299D01*
G01*
%TO.C,D112*%
X157685000Y-95250000D02*
X157685000Y-94549647D01*
X157685000Y-95250000D02*
X157685000Y-95950353D01*
X159385000Y-93750000D02*
X158484647Y-93750000D01*
X159385000Y-93750000D02*
X160285353Y-93750000D01*
X159385000Y-96750000D02*
X158484647Y-96750000D01*
X159385000Y-96750000D02*
X160285353Y-96750000D01*
X161085000Y-95250000D02*
X161085000Y-94549647D01*
X161085000Y-95250000D02*
X161085000Y-95950353D01*
X157641066Y-94393345D02*
G75*
G02*
X157684976Y-94549647I-256066J-156255D01*
G01*
X157641066Y-94393345D02*
G75*
G02*
X158328345Y-93706066I426774J260505D01*
G01*
X157685000Y-95950353D02*
G75*
G02*
X157641065Y-96106654I-299680J-87D01*
G01*
X158328345Y-96793934D02*
G75*
G02*
X157641066Y-96106655I-260505J426774D01*
G01*
X158328345Y-96793934D02*
G75*
G02*
X158484647Y-96750024I156255J-256066D01*
G01*
X158484647Y-93750000D02*
G75*
G02*
X158328344Y-93706067I3J300020D01*
G01*
X160285353Y-96750000D02*
G75*
G02*
X160441655Y-96793934I3J-299992D01*
G01*
X160441655Y-93706066D02*
G75*
G02*
X160285353Y-93750000I-156299J256058D01*
G01*
X160441655Y-93706066D02*
G75*
G02*
X161128934Y-94393345I260503J-426776D01*
G01*
X161085000Y-94549647D02*
G75*
G02*
X161128934Y-94393345I299992J3D01*
G01*
X161128934Y-96106655D02*
G75*
G02*
X160441655Y-96793934I-426776J-260503D01*
G01*
X161128934Y-96106655D02*
G75*
G02*
X161085000Y-95950353I256058J156299D01*
G01*
%TO.C,D142*%
X229122500Y-133250000D02*
X229122500Y-132549647D01*
X229122500Y-133250000D02*
X229122500Y-133950353D01*
X230822500Y-131750000D02*
X229922147Y-131750000D01*
X230822500Y-131750000D02*
X231722853Y-131750000D01*
X230822500Y-134750000D02*
X229922147Y-134750000D01*
X230822500Y-134750000D02*
X231722853Y-134750000D01*
X232522500Y-133250000D02*
X232522500Y-132549647D01*
X232522500Y-133250000D02*
X232522500Y-133950353D01*
X229078566Y-132393345D02*
G75*
G02*
X229122476Y-132549647I-256066J-156255D01*
G01*
X229078566Y-132393345D02*
G75*
G02*
X229765845Y-131706066I426774J260505D01*
G01*
X229122500Y-133950353D02*
G75*
G02*
X229078565Y-134106654I-299680J-87D01*
G01*
X229765845Y-134793934D02*
G75*
G02*
X229078566Y-134106655I-260505J426774D01*
G01*
X229765845Y-134793934D02*
G75*
G02*
X229922147Y-134750024I156255J-256066D01*
G01*
X229922147Y-131750000D02*
G75*
G02*
X229765844Y-131706067I3J300020D01*
G01*
X231722853Y-134750000D02*
G75*
G02*
X231879155Y-134793934I3J-299992D01*
G01*
X231879155Y-131706066D02*
G75*
G02*
X231722853Y-131750000I-156299J256058D01*
G01*
X231879155Y-131706066D02*
G75*
G02*
X232566434Y-132393345I260503J-426776D01*
G01*
X232522500Y-132549647D02*
G75*
G02*
X232566434Y-132393345I299992J3D01*
G01*
X232566434Y-134106655D02*
G75*
G02*
X231879155Y-134793934I-426776J-260503D01*
G01*
X232566434Y-134106655D02*
G75*
G02*
X232522500Y-133950353I256058J156299D01*
G01*
%TO.C,D103*%
X243410000Y-76250000D02*
X243410000Y-75549647D01*
X243410000Y-76250000D02*
X243410000Y-76950353D01*
X245110000Y-74750000D02*
X244209647Y-74750000D01*
X245110000Y-74750000D02*
X246010353Y-74750000D01*
X245110000Y-77750000D02*
X244209647Y-77750000D01*
X245110000Y-77750000D02*
X246010353Y-77750000D01*
X246810000Y-76250000D02*
X246810000Y-75549647D01*
X246810000Y-76250000D02*
X246810000Y-76950353D01*
X243366066Y-75393345D02*
G75*
G02*
X243409976Y-75549647I-256066J-156255D01*
G01*
X243366066Y-75393345D02*
G75*
G02*
X244053345Y-74706066I426774J260505D01*
G01*
X243410000Y-76950353D02*
G75*
G02*
X243366065Y-77106654I-299680J-87D01*
G01*
X244053345Y-77793934D02*
G75*
G02*
X243366066Y-77106655I-260505J426774D01*
G01*
X244053345Y-77793934D02*
G75*
G02*
X244209647Y-77750024I156255J-256066D01*
G01*
X244209647Y-74750000D02*
G75*
G02*
X244053344Y-74706067I3J300020D01*
G01*
X246010353Y-77750000D02*
G75*
G02*
X246166655Y-77793934I3J-299992D01*
G01*
X246166655Y-74706066D02*
G75*
G02*
X246010353Y-74750000I-156299J256058D01*
G01*
X246166655Y-74706066D02*
G75*
G02*
X246853934Y-75393345I260503J-426776D01*
G01*
X246810000Y-75549647D02*
G75*
G02*
X246853934Y-75393345I299992J3D01*
G01*
X246853934Y-77106655D02*
G75*
G02*
X246166655Y-77793934I-426776J-260503D01*
G01*
X246853934Y-77106655D02*
G75*
G02*
X246810000Y-76950353I256058J156299D01*
G01*
%TO.C,D87*%
X214800000Y-47750000D02*
X214800000Y-47049647D01*
X214800000Y-47750000D02*
X214800000Y-48450353D01*
X216500000Y-46250000D02*
X215599647Y-46250000D01*
X216500000Y-46250000D02*
X217400353Y-46250000D01*
X216500000Y-49250000D02*
X215599647Y-49250000D01*
X216500000Y-49250000D02*
X217400353Y-49250000D01*
X218200000Y-47750000D02*
X218200000Y-47049647D01*
X218200000Y-47750000D02*
X218200000Y-48450353D01*
X214756066Y-46893345D02*
G75*
G02*
X214799976Y-47049647I-256066J-156255D01*
G01*
X214756066Y-46893345D02*
G75*
G02*
X215443345Y-46206066I426774J260505D01*
G01*
X214800000Y-48450353D02*
G75*
G02*
X214756065Y-48606654I-299680J-87D01*
G01*
X215443345Y-49293934D02*
G75*
G02*
X214756066Y-48606655I-260505J426774D01*
G01*
X215443345Y-49293934D02*
G75*
G02*
X215599647Y-49250024I156255J-256066D01*
G01*
X215599647Y-46250000D02*
G75*
G02*
X215443344Y-46206067I3J300020D01*
G01*
X217400353Y-49250000D02*
G75*
G02*
X217556655Y-49293934I3J-299992D01*
G01*
X217556655Y-46206066D02*
G75*
G02*
X217400353Y-46250000I-156299J256058D01*
G01*
X217556655Y-46206066D02*
G75*
G02*
X218243934Y-46893345I260503J-426776D01*
G01*
X218200000Y-47049647D02*
G75*
G02*
X218243934Y-46893345I299992J3D01*
G01*
X218243934Y-48606655D02*
G75*
G02*
X217556655Y-49293934I-426776J-260503D01*
G01*
X218243934Y-48606655D02*
G75*
G02*
X218200000Y-48450353I256058J156299D01*
G01*
%TO.C,D116*%
X233885000Y-95250000D02*
X233885000Y-94549647D01*
X233885000Y-95250000D02*
X233885000Y-95950353D01*
X235585000Y-93750000D02*
X234684647Y-93750000D01*
X235585000Y-93750000D02*
X236485353Y-93750000D01*
X235585000Y-96750000D02*
X234684647Y-96750000D01*
X235585000Y-96750000D02*
X236485353Y-96750000D01*
X237285000Y-95250000D02*
X237285000Y-94549647D01*
X237285000Y-95250000D02*
X237285000Y-95950353D01*
X233841066Y-94393345D02*
G75*
G02*
X233884976Y-94549647I-256066J-156255D01*
G01*
X233841066Y-94393345D02*
G75*
G02*
X234528345Y-93706066I426774J260505D01*
G01*
X233885000Y-95950353D02*
G75*
G02*
X233841065Y-96106654I-299680J-87D01*
G01*
X234528345Y-96793934D02*
G75*
G02*
X233841066Y-96106655I-260505J426774D01*
G01*
X234528345Y-96793934D02*
G75*
G02*
X234684647Y-96750024I156255J-256066D01*
G01*
X234684647Y-93750000D02*
G75*
G02*
X234528344Y-93706067I3J300020D01*
G01*
X236485353Y-96750000D02*
G75*
G02*
X236641655Y-96793934I3J-299992D01*
G01*
X236641655Y-93706066D02*
G75*
G02*
X236485353Y-93750000I-156299J256058D01*
G01*
X236641655Y-93706066D02*
G75*
G02*
X237328934Y-94393345I260503J-426776D01*
G01*
X237285000Y-94549647D02*
G75*
G02*
X237328934Y-94393345I299992J3D01*
G01*
X237328934Y-96106655D02*
G75*
G02*
X236641655Y-96793934I-426776J-260503D01*
G01*
X237328934Y-96106655D02*
G75*
G02*
X237285000Y-95950353I256058J156299D01*
G01*
%TO.C,D145*%
X36241250Y-152250000D02*
X36241250Y-151549647D01*
X36241250Y-152250000D02*
X36241250Y-152950353D01*
X37941250Y-150750000D02*
X37040897Y-150750000D01*
X37941250Y-150750000D02*
X38841603Y-150750000D01*
X37941250Y-153750000D02*
X37040897Y-153750000D01*
X37941250Y-153750000D02*
X38841603Y-153750000D01*
X39641250Y-152250000D02*
X39641250Y-151549647D01*
X39641250Y-152250000D02*
X39641250Y-152950353D01*
X36197316Y-151393345D02*
G75*
G02*
X36241226Y-151549647I-256066J-156255D01*
G01*
X36197316Y-151393345D02*
G75*
G02*
X36884595Y-150706066I426774J260505D01*
G01*
X36241250Y-152950353D02*
G75*
G02*
X36197315Y-153106654I-299680J-87D01*
G01*
X36884595Y-153793934D02*
G75*
G02*
X36197316Y-153106655I-260505J426774D01*
G01*
X36884595Y-153793934D02*
G75*
G02*
X37040897Y-153750024I156255J-256066D01*
G01*
X37040897Y-150750000D02*
G75*
G02*
X36884594Y-150706067I3J300020D01*
G01*
X38841603Y-153750000D02*
G75*
G02*
X38997905Y-153793934I3J-299992D01*
G01*
X38997905Y-150706066D02*
G75*
G02*
X38841603Y-150750000I-156299J256058D01*
G01*
X38997905Y-150706066D02*
G75*
G02*
X39685184Y-151393345I260503J-426776D01*
G01*
X39641250Y-151549647D02*
G75*
G02*
X39685184Y-151393345I299992J3D01*
G01*
X39685184Y-153106655D02*
G75*
G02*
X38997905Y-153793934I-426776J-260503D01*
G01*
X39685184Y-153106655D02*
G75*
G02*
X39641250Y-152950353I256058J156299D01*
G01*
%TO.C,D101*%
X205300000Y-76250000D02*
X205300000Y-75549647D01*
X205300000Y-76250000D02*
X205300000Y-76950353D01*
X207000000Y-74750000D02*
X206099647Y-74750000D01*
X207000000Y-74750000D02*
X207900353Y-74750000D01*
X207000000Y-77750000D02*
X206099647Y-77750000D01*
X207000000Y-77750000D02*
X207900353Y-77750000D01*
X208700000Y-76250000D02*
X208700000Y-75549647D01*
X208700000Y-76250000D02*
X208700000Y-76950353D01*
X205256066Y-75393345D02*
G75*
G02*
X205299976Y-75549647I-256066J-156255D01*
G01*
X205256066Y-75393345D02*
G75*
G02*
X205943345Y-74706066I426774J260505D01*
G01*
X205300000Y-76950353D02*
G75*
G02*
X205256065Y-77106654I-299680J-87D01*
G01*
X205943345Y-77793934D02*
G75*
G02*
X205256066Y-77106655I-260505J426774D01*
G01*
X205943345Y-77793934D02*
G75*
G02*
X206099647Y-77750024I156255J-256066D01*
G01*
X206099647Y-74750000D02*
G75*
G02*
X205943344Y-74706067I3J300020D01*
G01*
X207900353Y-77750000D02*
G75*
G02*
X208056655Y-77793934I3J-299992D01*
G01*
X208056655Y-74706066D02*
G75*
G02*
X207900353Y-74750000I-156299J256058D01*
G01*
X208056655Y-74706066D02*
G75*
G02*
X208743934Y-75393345I260503J-426776D01*
G01*
X208700000Y-75549647D02*
G75*
G02*
X208743934Y-75393345I299992J3D01*
G01*
X208743934Y-77106655D02*
G75*
G02*
X208056655Y-77793934I-426776J-260503D01*
G01*
X208743934Y-77106655D02*
G75*
G02*
X208700000Y-76950353I256058J156299D01*
G01*
%TO.C,D122*%
X86247500Y-114250000D02*
X86247500Y-113549647D01*
X86247500Y-114250000D02*
X86247500Y-114950353D01*
X87947500Y-112750000D02*
X87047147Y-112750000D01*
X87947500Y-112750000D02*
X88847853Y-112750000D01*
X87947500Y-115750000D02*
X87047147Y-115750000D01*
X87947500Y-115750000D02*
X88847853Y-115750000D01*
X89647500Y-114250000D02*
X89647500Y-113549647D01*
X89647500Y-114250000D02*
X89647500Y-114950353D01*
X86203566Y-113393345D02*
G75*
G02*
X86247476Y-113549647I-256066J-156255D01*
G01*
X86203566Y-113393345D02*
G75*
G02*
X86890845Y-112706066I426774J260505D01*
G01*
X86247500Y-114950353D02*
G75*
G02*
X86203565Y-115106654I-299680J-87D01*
G01*
X86890845Y-115793934D02*
G75*
G02*
X86203566Y-115106655I-260505J426774D01*
G01*
X86890845Y-115793934D02*
G75*
G02*
X87047147Y-115750024I156255J-256066D01*
G01*
X87047147Y-112750000D02*
G75*
G02*
X86890844Y-112706067I3J300020D01*
G01*
X88847853Y-115750000D02*
G75*
G02*
X89004155Y-115793934I3J-299992D01*
G01*
X89004155Y-112706066D02*
G75*
G02*
X88847853Y-112750000I-156299J256058D01*
G01*
X89004155Y-112706066D02*
G75*
G02*
X89691434Y-113393345I260503J-426776D01*
G01*
X89647500Y-113549647D02*
G75*
G02*
X89691434Y-113393345I299992J3D01*
G01*
X89691434Y-115106655D02*
G75*
G02*
X89004155Y-115793934I-426776J-260503D01*
G01*
X89691434Y-115106655D02*
G75*
G02*
X89647500Y-114950353I256058J156299D01*
G01*
%TO.C,D129*%
X219597500Y-114250000D02*
X219597500Y-113549647D01*
X219597500Y-114250000D02*
X219597500Y-114950353D01*
X221297500Y-112750000D02*
X220397147Y-112750000D01*
X221297500Y-112750000D02*
X222197853Y-112750000D01*
X221297500Y-115750000D02*
X220397147Y-115750000D01*
X221297500Y-115750000D02*
X222197853Y-115750000D01*
X222997500Y-114250000D02*
X222997500Y-113549647D01*
X222997500Y-114250000D02*
X222997500Y-114950353D01*
X219553566Y-113393345D02*
G75*
G02*
X219597476Y-113549647I-256066J-156255D01*
G01*
X219553566Y-113393345D02*
G75*
G02*
X220240845Y-112706066I426774J260505D01*
G01*
X219597500Y-114950353D02*
G75*
G02*
X219553565Y-115106654I-299680J-87D01*
G01*
X220240845Y-115793934D02*
G75*
G02*
X219553566Y-115106655I-260505J426774D01*
G01*
X220240845Y-115793934D02*
G75*
G02*
X220397147Y-115750024I156255J-256066D01*
G01*
X220397147Y-112750000D02*
G75*
G02*
X220240844Y-112706067I3J300020D01*
G01*
X222197853Y-115750000D02*
G75*
G02*
X222354155Y-115793934I3J-299992D01*
G01*
X222354155Y-112706066D02*
G75*
G02*
X222197853Y-112750000I-156299J256058D01*
G01*
X222354155Y-112706066D02*
G75*
G02*
X223041434Y-113393345I260503J-426776D01*
G01*
X222997500Y-113549647D02*
G75*
G02*
X223041434Y-113393345I299992J3D01*
G01*
X223041434Y-115106655D02*
G75*
G02*
X222354155Y-115793934I-426776J-260503D01*
G01*
X223041434Y-115106655D02*
G75*
G02*
X222997500Y-114950353I256058J156299D01*
G01*
%TO.C,D149*%
X226741250Y-152250000D02*
X226741250Y-151549647D01*
X226741250Y-152250000D02*
X226741250Y-152950353D01*
X228441250Y-150750000D02*
X227540897Y-150750000D01*
X228441250Y-150750000D02*
X229341603Y-150750000D01*
X228441250Y-153750000D02*
X227540897Y-153750000D01*
X228441250Y-153750000D02*
X229341603Y-153750000D01*
X230141250Y-152250000D02*
X230141250Y-151549647D01*
X230141250Y-152250000D02*
X230141250Y-152950353D01*
X226697316Y-151393345D02*
G75*
G02*
X226741226Y-151549647I-256066J-156255D01*
G01*
X226697316Y-151393345D02*
G75*
G02*
X227384595Y-150706066I426774J260505D01*
G01*
X226741250Y-152950353D02*
G75*
G02*
X226697315Y-153106654I-299680J-87D01*
G01*
X227384595Y-153793934D02*
G75*
G02*
X226697316Y-153106655I-260505J426774D01*
G01*
X227384595Y-153793934D02*
G75*
G02*
X227540897Y-153750024I156255J-256066D01*
G01*
X227540897Y-150750000D02*
G75*
G02*
X227384594Y-150706067I3J300020D01*
G01*
X229341603Y-153750000D02*
G75*
G02*
X229497905Y-153793934I3J-299992D01*
G01*
X229497905Y-150706066D02*
G75*
G02*
X229341603Y-150750000I-156299J256058D01*
G01*
X229497905Y-150706066D02*
G75*
G02*
X230185184Y-151393345I260503J-426776D01*
G01*
X230141250Y-151549647D02*
G75*
G02*
X230185184Y-151393345I299992J3D01*
G01*
X230185184Y-153106655D02*
G75*
G02*
X229497905Y-153793934I-426776J-260503D01*
G01*
X230185184Y-153106655D02*
G75*
G02*
X230141250Y-152950353I256058J156299D01*
G01*
%TO.C,D113*%
X176735000Y-95250000D02*
X176735000Y-94549647D01*
X176735000Y-95250000D02*
X176735000Y-95950353D01*
X178435000Y-93750000D02*
X177534647Y-93750000D01*
X178435000Y-93750000D02*
X179335353Y-93750000D01*
X178435000Y-96750000D02*
X177534647Y-96750000D01*
X178435000Y-96750000D02*
X179335353Y-96750000D01*
X180135000Y-95250000D02*
X180135000Y-94549647D01*
X180135000Y-95250000D02*
X180135000Y-95950353D01*
X176691066Y-94393345D02*
G75*
G02*
X176734976Y-94549647I-256066J-156255D01*
G01*
X176691066Y-94393345D02*
G75*
G02*
X177378345Y-93706066I426774J260505D01*
G01*
X176735000Y-95950353D02*
G75*
G02*
X176691065Y-96106654I-299680J-87D01*
G01*
X177378345Y-96793934D02*
G75*
G02*
X176691066Y-96106655I-260505J426774D01*
G01*
X177378345Y-96793934D02*
G75*
G02*
X177534647Y-96750024I156255J-256066D01*
G01*
X177534647Y-93750000D02*
G75*
G02*
X177378344Y-93706067I3J300020D01*
G01*
X179335353Y-96750000D02*
G75*
G02*
X179491655Y-96793934I3J-299992D01*
G01*
X179491655Y-93706066D02*
G75*
G02*
X179335353Y-93750000I-156299J256058D01*
G01*
X179491655Y-93706066D02*
G75*
G02*
X180178934Y-94393345I260503J-426776D01*
G01*
X180135000Y-94549647D02*
G75*
G02*
X180178934Y-94393345I299992J3D01*
G01*
X180178934Y-96106655D02*
G75*
G02*
X179491655Y-96793934I-426776J-260503D01*
G01*
X180178934Y-96106655D02*
G75*
G02*
X180135000Y-95950353I256058J156299D01*
G01*
%TO.C,D132*%
X288612000Y-114250000D02*
X288612000Y-113549647D01*
X288612000Y-114250000D02*
X288612000Y-114950353D01*
X290312000Y-112750000D02*
X289411647Y-112750000D01*
X290312000Y-112750000D02*
X291212353Y-112750000D01*
X290312000Y-115750000D02*
X289411647Y-115750000D01*
X290312000Y-115750000D02*
X291212353Y-115750000D01*
X292012000Y-114250000D02*
X292012000Y-113549647D01*
X292012000Y-114250000D02*
X292012000Y-114950353D01*
X288568066Y-113393345D02*
G75*
G02*
X288611976Y-113549647I-256066J-156255D01*
G01*
X288568066Y-113393345D02*
G75*
G02*
X289255345Y-112706066I426774J260505D01*
G01*
X288612000Y-114950353D02*
G75*
G02*
X288568065Y-115106654I-299680J-87D01*
G01*
X289255345Y-115793934D02*
G75*
G02*
X288568066Y-115106655I-260505J426774D01*
G01*
X289255345Y-115793934D02*
G75*
G02*
X289411647Y-115750024I156255J-256066D01*
G01*
X289411647Y-112750000D02*
G75*
G02*
X289255344Y-112706067I3J300020D01*
G01*
X291212353Y-115750000D02*
G75*
G02*
X291368655Y-115793934I3J-299992D01*
G01*
X291368655Y-112706066D02*
G75*
G02*
X291212353Y-112750000I-156299J256058D01*
G01*
X291368655Y-112706066D02*
G75*
G02*
X292055934Y-113393345I260503J-426776D01*
G01*
X292012000Y-113549647D02*
G75*
G02*
X292055934Y-113393345I299992J3D01*
G01*
X292055934Y-115106655D02*
G75*
G02*
X291368655Y-115793934I-426776J-260503D01*
G01*
X292055934Y-115106655D02*
G75*
G02*
X292012000Y-114950353I256058J156299D01*
G01*
%TO.C,D154*%
X343422500Y-152250000D02*
X343422500Y-151549647D01*
X343422500Y-152250000D02*
X343422500Y-152950353D01*
X345122500Y-150750000D02*
X344222147Y-150750000D01*
X345122500Y-150750000D02*
X346022853Y-150750000D01*
X345122500Y-153750000D02*
X344222147Y-153750000D01*
X345122500Y-153750000D02*
X346022853Y-153750000D01*
X346822500Y-152250000D02*
X346822500Y-151549647D01*
X346822500Y-152250000D02*
X346822500Y-152950353D01*
X343378566Y-151393345D02*
G75*
G02*
X343422476Y-151549647I-256066J-156255D01*
G01*
X343378566Y-151393345D02*
G75*
G02*
X344065845Y-150706066I426774J260505D01*
G01*
X343422500Y-152950353D02*
G75*
G02*
X343378565Y-153106654I-299680J-87D01*
G01*
X344065845Y-153793934D02*
G75*
G02*
X343378566Y-153106655I-260505J426774D01*
G01*
X344065845Y-153793934D02*
G75*
G02*
X344222147Y-153750024I156255J-256066D01*
G01*
X344222147Y-150750000D02*
G75*
G02*
X344065844Y-150706067I3J300020D01*
G01*
X346022853Y-153750000D02*
G75*
G02*
X346179155Y-153793934I3J-299992D01*
G01*
X346179155Y-150706066D02*
G75*
G02*
X346022853Y-150750000I-156299J256058D01*
G01*
X346179155Y-150706066D02*
G75*
G02*
X346866434Y-151393345I260503J-426776D01*
G01*
X346822500Y-151549647D02*
G75*
G02*
X346866434Y-151393345I299992J3D01*
G01*
X346866434Y-153106655D02*
G75*
G02*
X346179155Y-153793934I-426776J-260503D01*
G01*
X346866434Y-153106655D02*
G75*
G02*
X346822500Y-152950353I256058J156299D01*
G01*
%TO.C,D119*%
X295800000Y-95250000D02*
X295800000Y-94549647D01*
X295800000Y-95250000D02*
X295800000Y-95950353D01*
X297500000Y-93750000D02*
X296599647Y-93750000D01*
X297500000Y-93750000D02*
X298400353Y-93750000D01*
X297500000Y-96750000D02*
X296599647Y-96750000D01*
X297500000Y-96750000D02*
X298400353Y-96750000D01*
X299200000Y-95250000D02*
X299200000Y-94549647D01*
X299200000Y-95250000D02*
X299200000Y-95950353D01*
X295756066Y-94393345D02*
G75*
G02*
X295799976Y-94549647I-256066J-156255D01*
G01*
X295756066Y-94393345D02*
G75*
G02*
X296443345Y-93706066I426774J260505D01*
G01*
X295800000Y-95950353D02*
G75*
G02*
X295756065Y-96106654I-299680J-87D01*
G01*
X296443345Y-96793934D02*
G75*
G02*
X295756066Y-96106655I-260505J426774D01*
G01*
X296443345Y-96793934D02*
G75*
G02*
X296599647Y-96750024I156255J-256066D01*
G01*
X296599647Y-93750000D02*
G75*
G02*
X296443344Y-93706067I3J300020D01*
G01*
X298400353Y-96750000D02*
G75*
G02*
X298556655Y-96793934I3J-299992D01*
G01*
X298556655Y-93706066D02*
G75*
G02*
X298400353Y-93750000I-156299J256058D01*
G01*
X298556655Y-93706066D02*
G75*
G02*
X299243934Y-94393345I260503J-426776D01*
G01*
X299200000Y-94549647D02*
G75*
G02*
X299243934Y-94393345I299992J3D01*
G01*
X299243934Y-96106655D02*
G75*
G02*
X298556655Y-96793934I-426776J-260503D01*
G01*
X299243934Y-96106655D02*
G75*
G02*
X299200000Y-95950353I256058J156299D01*
G01*
%TO.C,D127*%
X181550000Y-114250000D02*
X181550000Y-113549647D01*
X181550000Y-114250000D02*
X181550000Y-114950353D01*
X183250000Y-112750000D02*
X182349647Y-112750000D01*
X183250000Y-112750000D02*
X184150353Y-112750000D01*
X183250000Y-115750000D02*
X182349647Y-115750000D01*
X183250000Y-115750000D02*
X184150353Y-115750000D01*
X184950000Y-114250000D02*
X184950000Y-113549647D01*
X184950000Y-114250000D02*
X184950000Y-114950353D01*
X181506066Y-113393345D02*
G75*
G02*
X181549976Y-113549647I-256066J-156255D01*
G01*
X181506066Y-113393345D02*
G75*
G02*
X182193345Y-112706066I426774J260505D01*
G01*
X181550000Y-114950353D02*
G75*
G02*
X181506065Y-115106654I-299680J-87D01*
G01*
X182193345Y-115793934D02*
G75*
G02*
X181506066Y-115106655I-260505J426774D01*
G01*
X182193345Y-115793934D02*
G75*
G02*
X182349647Y-115750024I156255J-256066D01*
G01*
X182349647Y-112750000D02*
G75*
G02*
X182193344Y-112706067I3J300020D01*
G01*
X184150353Y-115750000D02*
G75*
G02*
X184306655Y-115793934I3J-299992D01*
G01*
X184306655Y-112706066D02*
G75*
G02*
X184150353Y-112750000I-156299J256058D01*
G01*
X184306655Y-112706066D02*
G75*
G02*
X184993934Y-113393345I260503J-426776D01*
G01*
X184950000Y-113549647D02*
G75*
G02*
X184993934Y-113393345I299992J3D01*
G01*
X184993934Y-115106655D02*
G75*
G02*
X184306655Y-115793934I-426776J-260503D01*
G01*
X184993934Y-115106655D02*
G75*
G02*
X184950000Y-114950353I256058J156299D01*
G01*
%TO.C,D146*%
X60053750Y-152250000D02*
X60053750Y-151549647D01*
X60053750Y-152250000D02*
X60053750Y-152950353D01*
X61753750Y-150750000D02*
X60853397Y-150750000D01*
X61753750Y-150750000D02*
X62654103Y-150750000D01*
X61753750Y-153750000D02*
X60853397Y-153750000D01*
X61753750Y-153750000D02*
X62654103Y-153750000D01*
X63453750Y-152250000D02*
X63453750Y-151549647D01*
X63453750Y-152250000D02*
X63453750Y-152950353D01*
X60009816Y-151393345D02*
G75*
G02*
X60053726Y-151549647I-256066J-156255D01*
G01*
X60009816Y-151393345D02*
G75*
G02*
X60697095Y-150706066I426774J260505D01*
G01*
X60053750Y-152950353D02*
G75*
G02*
X60009815Y-153106654I-299680J-87D01*
G01*
X60697095Y-153793934D02*
G75*
G02*
X60009816Y-153106655I-260505J426774D01*
G01*
X60697095Y-153793934D02*
G75*
G02*
X60853397Y-153750024I156255J-256066D01*
G01*
X60853397Y-150750000D02*
G75*
G02*
X60697094Y-150706067I3J300020D01*
G01*
X62654103Y-153750000D02*
G75*
G02*
X62810405Y-153793934I3J-299992D01*
G01*
X62810405Y-150706066D02*
G75*
G02*
X62654103Y-150750000I-156299J256058D01*
G01*
X62810405Y-150706066D02*
G75*
G02*
X63497684Y-151393345I260503J-426776D01*
G01*
X63453750Y-151549647D02*
G75*
G02*
X63497684Y-151393345I299992J3D01*
G01*
X63497684Y-153106655D02*
G75*
G02*
X62810405Y-153793934I-426776J-260503D01*
G01*
X63497684Y-153106655D02*
G75*
G02*
X63453750Y-152950353I256058J156299D01*
G01*
%TO.C,D95*%
X91010000Y-76250000D02*
X91010000Y-75549647D01*
X91010000Y-76250000D02*
X91010000Y-76950353D01*
X92710000Y-74750000D02*
X91809647Y-74750000D01*
X92710000Y-74750000D02*
X93610353Y-74750000D01*
X92710000Y-77750000D02*
X91809647Y-77750000D01*
X92710000Y-77750000D02*
X93610353Y-77750000D01*
X94410000Y-76250000D02*
X94410000Y-75549647D01*
X94410000Y-76250000D02*
X94410000Y-76950353D01*
X90966066Y-75393345D02*
G75*
G02*
X91009976Y-75549647I-256066J-156255D01*
G01*
X90966066Y-75393345D02*
G75*
G02*
X91653345Y-74706066I426774J260505D01*
G01*
X91010000Y-76950353D02*
G75*
G02*
X90966065Y-77106654I-299680J-87D01*
G01*
X91653345Y-77793934D02*
G75*
G02*
X90966066Y-77106655I-260505J426774D01*
G01*
X91653345Y-77793934D02*
G75*
G02*
X91809647Y-77750024I156255J-256066D01*
G01*
X91809647Y-74750000D02*
G75*
G02*
X91653344Y-74706067I3J300020D01*
G01*
X93610353Y-77750000D02*
G75*
G02*
X93766655Y-77793934I3J-299992D01*
G01*
X93766655Y-74706066D02*
G75*
G02*
X93610353Y-74750000I-156299J256058D01*
G01*
X93766655Y-74706066D02*
G75*
G02*
X94453934Y-75393345I260503J-426776D01*
G01*
X94410000Y-75549647D02*
G75*
G02*
X94453934Y-75393345I299992J3D01*
G01*
X94453934Y-77106655D02*
G75*
G02*
X93766655Y-77793934I-426776J-260503D01*
G01*
X94453934Y-77106655D02*
G75*
G02*
X94410000Y-76950353I256058J156299D01*
G01*
%TO.C,D92*%
X33860000Y-76250000D02*
X33860000Y-75549647D01*
X33860000Y-76250000D02*
X33860000Y-76950353D01*
X35560000Y-74750000D02*
X34659647Y-74750000D01*
X35560000Y-74750000D02*
X36460353Y-74750000D01*
X35560000Y-77750000D02*
X34659647Y-77750000D01*
X35560000Y-77750000D02*
X36460353Y-77750000D01*
X37260000Y-76250000D02*
X37260000Y-75549647D01*
X37260000Y-76250000D02*
X37260000Y-76950353D01*
X33816066Y-75393345D02*
G75*
G02*
X33859976Y-75549647I-256066J-156255D01*
G01*
X33816066Y-75393345D02*
G75*
G02*
X34503345Y-74706066I426774J260505D01*
G01*
X33860000Y-76950353D02*
G75*
G02*
X33816065Y-77106654I-299680J-87D01*
G01*
X34503345Y-77793934D02*
G75*
G02*
X33816066Y-77106655I-260505J426774D01*
G01*
X34503345Y-77793934D02*
G75*
G02*
X34659647Y-77750024I156255J-256066D01*
G01*
X34659647Y-74750000D02*
G75*
G02*
X34503344Y-74706067I3J300020D01*
G01*
X36460353Y-77750000D02*
G75*
G02*
X36616655Y-77793934I3J-299992D01*
G01*
X36616655Y-74706066D02*
G75*
G02*
X36460353Y-74750000I-156299J256058D01*
G01*
X36616655Y-74706066D02*
G75*
G02*
X37303934Y-75393345I260503J-426776D01*
G01*
X37260000Y-75549647D02*
G75*
G02*
X37303934Y-75393345I299992J3D01*
G01*
X37303934Y-77106655D02*
G75*
G02*
X36616655Y-77793934I-426776J-260503D01*
G01*
X37303934Y-77106655D02*
G75*
G02*
X37260000Y-76950353I256058J156299D01*
G01*
%TO.C,D76*%
X33800000Y-47500000D02*
X33800000Y-46799647D01*
X33800000Y-47500000D02*
X33800000Y-48200353D01*
X35500000Y-46000000D02*
X34599647Y-46000000D01*
X35500000Y-46000000D02*
X36400353Y-46000000D01*
X35500000Y-49000000D02*
X34599647Y-49000000D01*
X35500000Y-49000000D02*
X36400353Y-49000000D01*
X37200000Y-47500000D02*
X37200000Y-46799647D01*
X37200000Y-47500000D02*
X37200000Y-48200353D01*
X33756066Y-46643345D02*
G75*
G02*
X33799976Y-46799647I-256066J-156255D01*
G01*
X33756066Y-46643345D02*
G75*
G02*
X34443345Y-45956066I426774J260505D01*
G01*
X33800000Y-48200353D02*
G75*
G02*
X33756065Y-48356654I-299680J-87D01*
G01*
X34443345Y-49043934D02*
G75*
G02*
X33756066Y-48356655I-260505J426774D01*
G01*
X34443345Y-49043934D02*
G75*
G02*
X34599647Y-49000024I156255J-256066D01*
G01*
X34599647Y-46000000D02*
G75*
G02*
X34443344Y-45956067I3J300020D01*
G01*
X36400353Y-49000000D02*
G75*
G02*
X36556655Y-49043934I3J-299992D01*
G01*
X36556655Y-45956066D02*
G75*
G02*
X36400353Y-46000000I-156299J256058D01*
G01*
X36556655Y-45956066D02*
G75*
G02*
X37243934Y-46643345I260503J-426776D01*
G01*
X37200000Y-46799647D02*
G75*
G02*
X37243934Y-46643345I299992J3D01*
G01*
X37243934Y-48356655D02*
G75*
G02*
X36556655Y-49043934I-426776J-260503D01*
G01*
X37243934Y-48356655D02*
G75*
G02*
X37200000Y-48200353I256058J156299D01*
G01*
%TO.C,D98*%
X148160000Y-76250000D02*
X148160000Y-75549647D01*
X148160000Y-76250000D02*
X148160000Y-76950353D01*
X149860000Y-74750000D02*
X148959647Y-74750000D01*
X149860000Y-74750000D02*
X150760353Y-74750000D01*
X149860000Y-77750000D02*
X148959647Y-77750000D01*
X149860000Y-77750000D02*
X150760353Y-77750000D01*
X151560000Y-76250000D02*
X151560000Y-75549647D01*
X151560000Y-76250000D02*
X151560000Y-76950353D01*
X148116066Y-75393345D02*
G75*
G02*
X148159976Y-75549647I-256066J-156255D01*
G01*
X148116066Y-75393345D02*
G75*
G02*
X148803345Y-74706066I426774J260505D01*
G01*
X148160000Y-76950353D02*
G75*
G02*
X148116065Y-77106654I-299680J-87D01*
G01*
X148803345Y-77793934D02*
G75*
G02*
X148116066Y-77106655I-260505J426774D01*
G01*
X148803345Y-77793934D02*
G75*
G02*
X148959647Y-77750024I156255J-256066D01*
G01*
X148959647Y-74750000D02*
G75*
G02*
X148803344Y-74706067I3J300020D01*
G01*
X150760353Y-77750000D02*
G75*
G02*
X150916655Y-77793934I3J-299992D01*
G01*
X150916655Y-74706066D02*
G75*
G02*
X150760353Y-74750000I-156299J256058D01*
G01*
X150916655Y-74706066D02*
G75*
G02*
X151603934Y-75393345I260503J-426776D01*
G01*
X151560000Y-75549647D02*
G75*
G02*
X151603934Y-75393345I299992J3D01*
G01*
X151603934Y-77106655D02*
G75*
G02*
X150916655Y-77793934I-426776J-260503D01*
G01*
X151603934Y-77106655D02*
G75*
G02*
X151560000Y-76950353I256058J156299D01*
G01*
%TO.C,D126*%
X162447500Y-114250000D02*
X162447500Y-113549647D01*
X162447500Y-114250000D02*
X162447500Y-114950353D01*
X164147500Y-112750000D02*
X163247147Y-112750000D01*
X164147500Y-112750000D02*
X165047853Y-112750000D01*
X164147500Y-115750000D02*
X163247147Y-115750000D01*
X164147500Y-115750000D02*
X165047853Y-115750000D01*
X165847500Y-114250000D02*
X165847500Y-113549647D01*
X165847500Y-114250000D02*
X165847500Y-114950353D01*
X162403566Y-113393345D02*
G75*
G02*
X162447476Y-113549647I-256066J-156255D01*
G01*
X162403566Y-113393345D02*
G75*
G02*
X163090845Y-112706066I426774J260505D01*
G01*
X162447500Y-114950353D02*
G75*
G02*
X162403565Y-115106654I-299680J-87D01*
G01*
X163090845Y-115793934D02*
G75*
G02*
X162403566Y-115106655I-260505J426774D01*
G01*
X163090845Y-115793934D02*
G75*
G02*
X163247147Y-115750024I156255J-256066D01*
G01*
X163247147Y-112750000D02*
G75*
G02*
X163090844Y-112706067I3J300020D01*
G01*
X165047853Y-115750000D02*
G75*
G02*
X165204155Y-115793934I3J-299992D01*
G01*
X165204155Y-112706066D02*
G75*
G02*
X165047853Y-112750000I-156299J256058D01*
G01*
X165204155Y-112706066D02*
G75*
G02*
X165891434Y-113393345I260503J-426776D01*
G01*
X165847500Y-113549647D02*
G75*
G02*
X165891434Y-113393345I299992J3D01*
G01*
X165891434Y-115106655D02*
G75*
G02*
X165204155Y-115793934I-426776J-260503D01*
G01*
X165891434Y-115106655D02*
G75*
G02*
X165847500Y-114950353I256058J156299D01*
G01*
%TO.C,D111*%
X138635000Y-95250000D02*
X138635000Y-94549647D01*
X138635000Y-95250000D02*
X138635000Y-95950353D01*
X140335000Y-93750000D02*
X139434647Y-93750000D01*
X140335000Y-93750000D02*
X141235353Y-93750000D01*
X140335000Y-96750000D02*
X139434647Y-96750000D01*
X140335000Y-96750000D02*
X141235353Y-96750000D01*
X142035000Y-95250000D02*
X142035000Y-94549647D01*
X142035000Y-95250000D02*
X142035000Y-95950353D01*
X138591066Y-94393345D02*
G75*
G02*
X138634976Y-94549647I-256066J-156255D01*
G01*
X138591066Y-94393345D02*
G75*
G02*
X139278345Y-93706066I426774J260505D01*
G01*
X138635000Y-95950353D02*
G75*
G02*
X138591065Y-96106654I-299680J-87D01*
G01*
X139278345Y-96793934D02*
G75*
G02*
X138591066Y-96106655I-260505J426774D01*
G01*
X139278345Y-96793934D02*
G75*
G02*
X139434647Y-96750024I156255J-256066D01*
G01*
X139434647Y-93750000D02*
G75*
G02*
X139278344Y-93706067I3J300020D01*
G01*
X141235353Y-96750000D02*
G75*
G02*
X141391655Y-96793934I3J-299992D01*
G01*
X141391655Y-93706066D02*
G75*
G02*
X141235353Y-93750000I-156299J256058D01*
G01*
X141391655Y-93706066D02*
G75*
G02*
X142078934Y-94393345I260503J-426776D01*
G01*
X142035000Y-94549647D02*
G75*
G02*
X142078934Y-94393345I299992J3D01*
G01*
X142078934Y-96106655D02*
G75*
G02*
X141391655Y-96793934I-426776J-260503D01*
G01*
X142078934Y-96106655D02*
G75*
G02*
X142035000Y-95950353I256058J156299D01*
G01*
%TO.C,D105*%
X291050000Y-76250000D02*
X291050000Y-75549647D01*
X291050000Y-76250000D02*
X291050000Y-76950353D01*
X292750000Y-74750000D02*
X291849647Y-74750000D01*
X292750000Y-74750000D02*
X293650353Y-74750000D01*
X292750000Y-77750000D02*
X291849647Y-77750000D01*
X292750000Y-77750000D02*
X293650353Y-77750000D01*
X294450000Y-76250000D02*
X294450000Y-75549647D01*
X294450000Y-76250000D02*
X294450000Y-76950353D01*
X291006066Y-75393345D02*
G75*
G02*
X291049976Y-75549647I-256066J-156255D01*
G01*
X291006066Y-75393345D02*
G75*
G02*
X291693345Y-74706066I426774J260505D01*
G01*
X291050000Y-76950353D02*
G75*
G02*
X291006065Y-77106654I-299680J-87D01*
G01*
X291693345Y-77793934D02*
G75*
G02*
X291006066Y-77106655I-260505J426774D01*
G01*
X291693345Y-77793934D02*
G75*
G02*
X291849647Y-77750024I156255J-256066D01*
G01*
X291849647Y-74750000D02*
G75*
G02*
X291693344Y-74706067I3J300020D01*
G01*
X293650353Y-77750000D02*
G75*
G02*
X293806655Y-77793934I3J-299992D01*
G01*
X293806655Y-74706066D02*
G75*
G02*
X293650353Y-74750000I-156299J256058D01*
G01*
X293806655Y-74706066D02*
G75*
G02*
X294493934Y-75393345I260503J-426776D01*
G01*
X294450000Y-75549647D02*
G75*
G02*
X294493934Y-75393345I299992J3D01*
G01*
X294493934Y-77106655D02*
G75*
G02*
X293806655Y-77793934I-426776J-260503D01*
G01*
X294493934Y-77106655D02*
G75*
G02*
X294450000Y-76950353I256058J156299D01*
G01*
%TO.C,D109*%
X100535000Y-95250000D02*
X100535000Y-94549647D01*
X100535000Y-95250000D02*
X100535000Y-95950353D01*
X102235000Y-93750000D02*
X101334647Y-93750000D01*
X102235000Y-93750000D02*
X103135353Y-93750000D01*
X102235000Y-96750000D02*
X101334647Y-96750000D01*
X102235000Y-96750000D02*
X103135353Y-96750000D01*
X103935000Y-95250000D02*
X103935000Y-94549647D01*
X103935000Y-95250000D02*
X103935000Y-95950353D01*
X100491066Y-94393345D02*
G75*
G02*
X100534976Y-94549647I-256066J-156255D01*
G01*
X100491066Y-94393345D02*
G75*
G02*
X101178345Y-93706066I426774J260505D01*
G01*
X100535000Y-95950353D02*
G75*
G02*
X100491065Y-96106654I-299680J-87D01*
G01*
X101178345Y-96793934D02*
G75*
G02*
X100491066Y-96106655I-260505J426774D01*
G01*
X101178345Y-96793934D02*
G75*
G02*
X101334647Y-96750024I156255J-256066D01*
G01*
X101334647Y-93750000D02*
G75*
G02*
X101178344Y-93706067I3J300020D01*
G01*
X103135353Y-96750000D02*
G75*
G02*
X103291655Y-96793934I3J-299992D01*
G01*
X103291655Y-93706066D02*
G75*
G02*
X103135353Y-93750000I-156299J256058D01*
G01*
X103291655Y-93706066D02*
G75*
G02*
X103978934Y-94393345I260503J-426776D01*
G01*
X103935000Y-94549647D02*
G75*
G02*
X103978934Y-94393345I299992J3D01*
G01*
X103978934Y-96106655D02*
G75*
G02*
X103291655Y-96793934I-426776J-260503D01*
G01*
X103978934Y-96106655D02*
G75*
G02*
X103935000Y-95950353I256058J156299D01*
G01*
%TO.C,D107*%
X62435000Y-95250000D02*
X62435000Y-94549647D01*
X62435000Y-95250000D02*
X62435000Y-95950353D01*
X64135000Y-93750000D02*
X63234647Y-93750000D01*
X64135000Y-93750000D02*
X65035353Y-93750000D01*
X64135000Y-96750000D02*
X63234647Y-96750000D01*
X64135000Y-96750000D02*
X65035353Y-96750000D01*
X65835000Y-95250000D02*
X65835000Y-94549647D01*
X65835000Y-95250000D02*
X65835000Y-95950353D01*
X62391066Y-94393345D02*
G75*
G02*
X62434976Y-94549647I-256066J-156255D01*
G01*
X62391066Y-94393345D02*
G75*
G02*
X63078345Y-93706066I426774J260505D01*
G01*
X62435000Y-95950353D02*
G75*
G02*
X62391065Y-96106654I-299680J-87D01*
G01*
X63078345Y-96793934D02*
G75*
G02*
X62391066Y-96106655I-260505J426774D01*
G01*
X63078345Y-96793934D02*
G75*
G02*
X63234647Y-96750024I156255J-256066D01*
G01*
X63234647Y-93750000D02*
G75*
G02*
X63078344Y-93706067I3J300020D01*
G01*
X65035353Y-96750000D02*
G75*
G02*
X65191655Y-96793934I3J-299992D01*
G01*
X65191655Y-93706066D02*
G75*
G02*
X65035353Y-93750000I-156299J256058D01*
G01*
X65191655Y-93706066D02*
G75*
G02*
X65878934Y-94393345I260503J-426776D01*
G01*
X65835000Y-94549647D02*
G75*
G02*
X65878934Y-94393345I299992J3D01*
G01*
X65878934Y-96106655D02*
G75*
G02*
X65191655Y-96793934I-426776J-260503D01*
G01*
X65878934Y-96106655D02*
G75*
G02*
X65835000Y-95950353I256058J156299D01*
G01*
%TO.C,D131*%
X257697500Y-114250000D02*
X257697500Y-113549647D01*
X257697500Y-114250000D02*
X257697500Y-114950353D01*
X259397500Y-112750000D02*
X258497147Y-112750000D01*
X259397500Y-112750000D02*
X260297853Y-112750000D01*
X259397500Y-115750000D02*
X258497147Y-115750000D01*
X259397500Y-115750000D02*
X260297853Y-115750000D01*
X261097500Y-114250000D02*
X261097500Y-113549647D01*
X261097500Y-114250000D02*
X261097500Y-114950353D01*
X257653566Y-113393345D02*
G75*
G02*
X257697476Y-113549647I-256066J-156255D01*
G01*
X257653566Y-113393345D02*
G75*
G02*
X258340845Y-112706066I426774J260505D01*
G01*
X257697500Y-114950353D02*
G75*
G02*
X257653565Y-115106654I-299680J-87D01*
G01*
X258340845Y-115793934D02*
G75*
G02*
X257653566Y-115106655I-260505J426774D01*
G01*
X258340845Y-115793934D02*
G75*
G02*
X258497147Y-115750024I156255J-256066D01*
G01*
X258497147Y-112750000D02*
G75*
G02*
X258340844Y-112706067I3J300020D01*
G01*
X260297853Y-115750000D02*
G75*
G02*
X260454155Y-115793934I3J-299992D01*
G01*
X260454155Y-112706066D02*
G75*
G02*
X260297853Y-112750000I-156299J256058D01*
G01*
X260454155Y-112706066D02*
G75*
G02*
X261141434Y-113393345I260503J-426776D01*
G01*
X261097500Y-113549647D02*
G75*
G02*
X261141434Y-113393345I299992J3D01*
G01*
X261141434Y-115106655D02*
G75*
G02*
X260454155Y-115793934I-426776J-260503D01*
G01*
X261141434Y-115106655D02*
G75*
G02*
X261097500Y-114950353I256058J156299D01*
G01*
%TO.C,D93*%
X52910000Y-76250000D02*
X52910000Y-75549647D01*
X52910000Y-76250000D02*
X52910000Y-76950353D01*
X54610000Y-74750000D02*
X53709647Y-74750000D01*
X54610000Y-74750000D02*
X55510353Y-74750000D01*
X54610000Y-77750000D02*
X53709647Y-77750000D01*
X54610000Y-77750000D02*
X55510353Y-77750000D01*
X56310000Y-76250000D02*
X56310000Y-75549647D01*
X56310000Y-76250000D02*
X56310000Y-76950353D01*
X52866066Y-75393345D02*
G75*
G02*
X52909976Y-75549647I-256066J-156255D01*
G01*
X52866066Y-75393345D02*
G75*
G02*
X53553345Y-74706066I426774J260505D01*
G01*
X52910000Y-76950353D02*
G75*
G02*
X52866065Y-77106654I-299680J-87D01*
G01*
X53553345Y-77793934D02*
G75*
G02*
X52866066Y-77106655I-260505J426774D01*
G01*
X53553345Y-77793934D02*
G75*
G02*
X53709647Y-77750024I156255J-256066D01*
G01*
X53709647Y-74750000D02*
G75*
G02*
X53553344Y-74706067I3J300020D01*
G01*
X55510353Y-77750000D02*
G75*
G02*
X55666655Y-77793934I3J-299992D01*
G01*
X55666655Y-74706066D02*
G75*
G02*
X55510353Y-74750000I-156299J256058D01*
G01*
X55666655Y-74706066D02*
G75*
G02*
X56353934Y-75393345I260503J-426776D01*
G01*
X56310000Y-75549647D02*
G75*
G02*
X56353934Y-75393345I299992J3D01*
G01*
X56353934Y-77106655D02*
G75*
G02*
X55666655Y-77793934I-426776J-260503D01*
G01*
X56353934Y-77106655D02*
G75*
G02*
X56310000Y-76950353I256058J156299D01*
G01*
%TO.C,D104*%
X262460000Y-76250000D02*
X262460000Y-75549647D01*
X262460000Y-76250000D02*
X262460000Y-76950353D01*
X264160000Y-74750000D02*
X263259647Y-74750000D01*
X264160000Y-74750000D02*
X265060353Y-74750000D01*
X264160000Y-77750000D02*
X263259647Y-77750000D01*
X264160000Y-77750000D02*
X265060353Y-77750000D01*
X265860000Y-76250000D02*
X265860000Y-75549647D01*
X265860000Y-76250000D02*
X265860000Y-76950353D01*
X262416066Y-75393345D02*
G75*
G02*
X262459976Y-75549647I-256066J-156255D01*
G01*
X262416066Y-75393345D02*
G75*
G02*
X263103345Y-74706066I426774J260505D01*
G01*
X262460000Y-76950353D02*
G75*
G02*
X262416065Y-77106654I-299680J-87D01*
G01*
X263103345Y-77793934D02*
G75*
G02*
X262416066Y-77106655I-260505J426774D01*
G01*
X263103345Y-77793934D02*
G75*
G02*
X263259647Y-77750024I156255J-256066D01*
G01*
X263259647Y-74750000D02*
G75*
G02*
X263103344Y-74706067I3J300020D01*
G01*
X265060353Y-77750000D02*
G75*
G02*
X265216655Y-77793934I3J-299992D01*
G01*
X265216655Y-74706066D02*
G75*
G02*
X265060353Y-74750000I-156299J256058D01*
G01*
X265216655Y-74706066D02*
G75*
G02*
X265903934Y-75393345I260503J-426776D01*
G01*
X265860000Y-75549647D02*
G75*
G02*
X265903934Y-75393345I299992J3D01*
G01*
X265903934Y-77106655D02*
G75*
G02*
X265216655Y-77793934I-426776J-260503D01*
G01*
X265903934Y-77106655D02*
G75*
G02*
X265860000Y-76950353I256058J156299D01*
G01*
%TO.C,D141*%
X210072500Y-133250000D02*
X210072500Y-132549647D01*
X210072500Y-133250000D02*
X210072500Y-133950353D01*
X211772500Y-131750000D02*
X210872147Y-131750000D01*
X211772500Y-131750000D02*
X212672853Y-131750000D01*
X211772500Y-134750000D02*
X210872147Y-134750000D01*
X211772500Y-134750000D02*
X212672853Y-134750000D01*
X213472500Y-133250000D02*
X213472500Y-132549647D01*
X213472500Y-133250000D02*
X213472500Y-133950353D01*
X210028566Y-132393345D02*
G75*
G02*
X210072476Y-132549647I-256066J-156255D01*
G01*
X210028566Y-132393345D02*
G75*
G02*
X210715845Y-131706066I426774J260505D01*
G01*
X210072500Y-133950353D02*
G75*
G02*
X210028565Y-134106654I-299680J-87D01*
G01*
X210715845Y-134793934D02*
G75*
G02*
X210028566Y-134106655I-260505J426774D01*
G01*
X210715845Y-134793934D02*
G75*
G02*
X210872147Y-134750024I156255J-256066D01*
G01*
X210872147Y-131750000D02*
G75*
G02*
X210715844Y-131706067I3J300020D01*
G01*
X212672853Y-134750000D02*
G75*
G02*
X212829155Y-134793934I3J-299992D01*
G01*
X212829155Y-131706066D02*
G75*
G02*
X212672853Y-131750000I-156299J256058D01*
G01*
X212829155Y-131706066D02*
G75*
G02*
X213516434Y-132393345I260503J-426776D01*
G01*
X213472500Y-132549647D02*
G75*
G02*
X213516434Y-132393345I299992J3D01*
G01*
X213516434Y-134106655D02*
G75*
G02*
X212829155Y-134793934I-426776J-260503D01*
G01*
X213516434Y-134106655D02*
G75*
G02*
X213472500Y-133950353I256058J156299D01*
G01*
%TO.C,D89*%
X262460000Y-47750000D02*
X262460000Y-47049647D01*
X262460000Y-47750000D02*
X262460000Y-48450353D01*
X264160000Y-46250000D02*
X263259647Y-46250000D01*
X264160000Y-46250000D02*
X265060353Y-46250000D01*
X264160000Y-49250000D02*
X263259647Y-49250000D01*
X264160000Y-49250000D02*
X265060353Y-49250000D01*
X265860000Y-47750000D02*
X265860000Y-47049647D01*
X265860000Y-47750000D02*
X265860000Y-48450353D01*
X262416066Y-46893345D02*
G75*
G02*
X262459976Y-47049647I-256066J-156255D01*
G01*
X262416066Y-46893345D02*
G75*
G02*
X263103345Y-46206066I426774J260505D01*
G01*
X262460000Y-48450353D02*
G75*
G02*
X262416065Y-48606654I-299680J-87D01*
G01*
X263103345Y-49293934D02*
G75*
G02*
X262416066Y-48606655I-260505J426774D01*
G01*
X263103345Y-49293934D02*
G75*
G02*
X263259647Y-49250024I156255J-256066D01*
G01*
X263259647Y-46250000D02*
G75*
G02*
X263103344Y-46206067I3J300020D01*
G01*
X265060353Y-49250000D02*
G75*
G02*
X265216655Y-49293934I3J-299992D01*
G01*
X265216655Y-46206066D02*
G75*
G02*
X265060353Y-46250000I-156299J256058D01*
G01*
X265216655Y-46206066D02*
G75*
G02*
X265903934Y-46893345I260503J-426776D01*
G01*
X265860000Y-47049647D02*
G75*
G02*
X265903934Y-46893345I299992J3D01*
G01*
X265903934Y-48606655D02*
G75*
G02*
X265216655Y-49293934I-426776J-260503D01*
G01*
X265903934Y-48606655D02*
G75*
G02*
X265860000Y-48450353I256058J156299D01*
G01*
%TO.C,D88*%
X243410000Y-47750000D02*
X243410000Y-47049647D01*
X243410000Y-47750000D02*
X243410000Y-48450353D01*
X245110000Y-46250000D02*
X244209647Y-46250000D01*
X245110000Y-46250000D02*
X246010353Y-46250000D01*
X245110000Y-49250000D02*
X244209647Y-49250000D01*
X245110000Y-49250000D02*
X246010353Y-49250000D01*
X246810000Y-47750000D02*
X246810000Y-47049647D01*
X246810000Y-47750000D02*
X246810000Y-48450353D01*
X243366066Y-46893345D02*
G75*
G02*
X243409976Y-47049647I-256066J-156255D01*
G01*
X243366066Y-46893345D02*
G75*
G02*
X244053345Y-46206066I426774J260505D01*
G01*
X243410000Y-48450353D02*
G75*
G02*
X243366065Y-48606654I-299680J-87D01*
G01*
X244053345Y-49293934D02*
G75*
G02*
X243366066Y-48606655I-260505J426774D01*
G01*
X244053345Y-49293934D02*
G75*
G02*
X244209647Y-49250024I156255J-256066D01*
G01*
X244209647Y-46250000D02*
G75*
G02*
X244053344Y-46206067I3J300020D01*
G01*
X246010353Y-49250000D02*
G75*
G02*
X246166655Y-49293934I3J-299992D01*
G01*
X246166655Y-46206066D02*
G75*
G02*
X246010353Y-46250000I-156299J256058D01*
G01*
X246166655Y-46206066D02*
G75*
G02*
X246853934Y-46893345I260503J-426776D01*
G01*
X246810000Y-47049647D02*
G75*
G02*
X246853934Y-46893345I299992J3D01*
G01*
X246853934Y-48606655D02*
G75*
G02*
X246166655Y-49293934I-426776J-260503D01*
G01*
X246853934Y-48606655D02*
G75*
G02*
X246810000Y-48450353I256058J156299D01*
G01*
%TO.C,D148*%
X155300000Y-152250000D02*
X155300000Y-151549647D01*
X155300000Y-152250000D02*
X155300000Y-152950353D01*
X157000000Y-150750000D02*
X156099647Y-150750000D01*
X157000000Y-150750000D02*
X157900353Y-150750000D01*
X157000000Y-153750000D02*
X156099647Y-153750000D01*
X157000000Y-153750000D02*
X157900353Y-153750000D01*
X158700000Y-152250000D02*
X158700000Y-151549647D01*
X158700000Y-152250000D02*
X158700000Y-152950353D01*
X155256066Y-151393345D02*
G75*
G02*
X155299976Y-151549647I-256066J-156255D01*
G01*
X155256066Y-151393345D02*
G75*
G02*
X155943345Y-150706066I426774J260505D01*
G01*
X155300000Y-152950353D02*
G75*
G02*
X155256065Y-153106654I-299680J-87D01*
G01*
X155943345Y-153793934D02*
G75*
G02*
X155256066Y-153106655I-260505J426774D01*
G01*
X155943345Y-153793934D02*
G75*
G02*
X156099647Y-153750024I156255J-256066D01*
G01*
X156099647Y-150750000D02*
G75*
G02*
X155943344Y-150706067I3J300020D01*
G01*
X157900353Y-153750000D02*
G75*
G02*
X158056655Y-153793934I3J-299992D01*
G01*
X158056655Y-150706066D02*
G75*
G02*
X157900353Y-150750000I-156299J256058D01*
G01*
X158056655Y-150706066D02*
G75*
G02*
X158743934Y-151393345I260503J-426776D01*
G01*
X158700000Y-151549647D02*
G75*
G02*
X158743934Y-151393345I299992J3D01*
G01*
X158743934Y-153106655D02*
G75*
G02*
X158056655Y-153793934I-426776J-260503D01*
G01*
X158743934Y-153106655D02*
G75*
G02*
X158700000Y-152950353I256058J156299D01*
G01*
%TO.C,D135*%
X95772500Y-133250000D02*
X95772500Y-132549647D01*
X95772500Y-133250000D02*
X95772500Y-133950353D01*
X97472500Y-131750000D02*
X96572147Y-131750000D01*
X97472500Y-131750000D02*
X98372853Y-131750000D01*
X97472500Y-134750000D02*
X96572147Y-134750000D01*
X97472500Y-134750000D02*
X98372853Y-134750000D01*
X99172500Y-133250000D02*
X99172500Y-132549647D01*
X99172500Y-133250000D02*
X99172500Y-133950353D01*
X95728566Y-132393345D02*
G75*
G02*
X95772476Y-132549647I-256066J-156255D01*
G01*
X95728566Y-132393345D02*
G75*
G02*
X96415845Y-131706066I426774J260505D01*
G01*
X95772500Y-133950353D02*
G75*
G02*
X95728565Y-134106654I-299680J-87D01*
G01*
X96415845Y-134793934D02*
G75*
G02*
X95728566Y-134106655I-260505J426774D01*
G01*
X96415845Y-134793934D02*
G75*
G02*
X96572147Y-134750024I156255J-256066D01*
G01*
X96572147Y-131750000D02*
G75*
G02*
X96415844Y-131706067I3J300020D01*
G01*
X98372853Y-134750000D02*
G75*
G02*
X98529155Y-134793934I3J-299992D01*
G01*
X98529155Y-131706066D02*
G75*
G02*
X98372853Y-131750000I-156299J256058D01*
G01*
X98529155Y-131706066D02*
G75*
G02*
X99216434Y-132393345I260503J-426776D01*
G01*
X99172500Y-132549647D02*
G75*
G02*
X99216434Y-132393345I299992J3D01*
G01*
X99216434Y-134106655D02*
G75*
G02*
X98529155Y-134793934I-426776J-260503D01*
G01*
X99216434Y-134106655D02*
G75*
G02*
X99172500Y-133950353I256058J156299D01*
G01*
%TO.C,D156*%
X343422500Y-133250000D02*
X343422500Y-132549647D01*
X343422500Y-133250000D02*
X343422500Y-133950353D01*
X345122500Y-131750000D02*
X344222147Y-131750000D01*
X345122500Y-131750000D02*
X346022853Y-131750000D01*
X345122500Y-134750000D02*
X344222147Y-134750000D01*
X345122500Y-134750000D02*
X346022853Y-134750000D01*
X346822500Y-133250000D02*
X346822500Y-132549647D01*
X346822500Y-133250000D02*
X346822500Y-133950353D01*
X343378566Y-132393345D02*
G75*
G02*
X343422476Y-132549647I-256066J-156255D01*
G01*
X343378566Y-132393345D02*
G75*
G02*
X344065845Y-131706066I426774J260505D01*
G01*
X343422500Y-133950353D02*
G75*
G02*
X343378565Y-134106654I-299680J-87D01*
G01*
X344065845Y-134793934D02*
G75*
G02*
X343378566Y-134106655I-260505J426774D01*
G01*
X344065845Y-134793934D02*
G75*
G02*
X344222147Y-134750024I156255J-256066D01*
G01*
X344222147Y-131750000D02*
G75*
G02*
X344065844Y-131706067I3J300020D01*
G01*
X346022853Y-134750000D02*
G75*
G02*
X346179155Y-134793934I3J-299992D01*
G01*
X346179155Y-131706066D02*
G75*
G02*
X346022853Y-131750000I-156299J256058D01*
G01*
X346179155Y-131706066D02*
G75*
G02*
X346866434Y-132393345I260503J-426776D01*
G01*
X346822500Y-132549647D02*
G75*
G02*
X346866434Y-132393345I299992J3D01*
G01*
X346866434Y-134106655D02*
G75*
G02*
X346179155Y-134793934I-426776J-260503D01*
G01*
X346866434Y-134106655D02*
G75*
G02*
X346822500Y-133950353I256058J156299D01*
G01*
%TO.C,D81*%
X91050000Y-47750000D02*
X91050000Y-47049647D01*
X91050000Y-47750000D02*
X91050000Y-48450353D01*
X92750000Y-46250000D02*
X91849647Y-46250000D01*
X92750000Y-46250000D02*
X93650353Y-46250000D01*
X92750000Y-49250000D02*
X91849647Y-49250000D01*
X92750000Y-49250000D02*
X93650353Y-49250000D01*
X94450000Y-47750000D02*
X94450000Y-47049647D01*
X94450000Y-47750000D02*
X94450000Y-48450353D01*
X91006066Y-46893345D02*
G75*
G02*
X91049976Y-47049647I-256066J-156255D01*
G01*
X91006066Y-46893345D02*
G75*
G02*
X91693345Y-46206066I426774J260505D01*
G01*
X91050000Y-48450353D02*
G75*
G02*
X91006065Y-48606654I-299680J-87D01*
G01*
X91693345Y-49293934D02*
G75*
G02*
X91006066Y-48606655I-260505J426774D01*
G01*
X91693345Y-49293934D02*
G75*
G02*
X91849647Y-49250024I156255J-256066D01*
G01*
X91849647Y-46250000D02*
G75*
G02*
X91693344Y-46206067I3J300020D01*
G01*
X93650353Y-49250000D02*
G75*
G02*
X93806655Y-49293934I3J-299992D01*
G01*
X93806655Y-46206066D02*
G75*
G02*
X93650353Y-46250000I-156299J256058D01*
G01*
X93806655Y-46206066D02*
G75*
G02*
X94493934Y-46893345I260503J-426776D01*
G01*
X94450000Y-47049647D02*
G75*
G02*
X94493934Y-46893345I299992J3D01*
G01*
X94493934Y-48606655D02*
G75*
G02*
X93806655Y-49293934I-426776J-260503D01*
G01*
X94493934Y-48606655D02*
G75*
G02*
X94450000Y-48450353I256058J156299D01*
G01*
%TO.C,D84*%
X157685000Y-47750000D02*
X157685000Y-47049647D01*
X157685000Y-47750000D02*
X157685000Y-48450353D01*
X159385000Y-46250000D02*
X158484647Y-46250000D01*
X159385000Y-46250000D02*
X160285353Y-46250000D01*
X159385000Y-49250000D02*
X158484647Y-49250000D01*
X159385000Y-49250000D02*
X160285353Y-49250000D01*
X161085000Y-47750000D02*
X161085000Y-47049647D01*
X161085000Y-47750000D02*
X161085000Y-48450353D01*
X157641066Y-46893345D02*
G75*
G02*
X157684976Y-47049647I-256066J-156255D01*
G01*
X157641066Y-46893345D02*
G75*
G02*
X158328345Y-46206066I426774J260505D01*
G01*
X157685000Y-48450353D02*
G75*
G02*
X157641065Y-48606654I-299680J-87D01*
G01*
X158328345Y-49293934D02*
G75*
G02*
X157641066Y-48606655I-260505J426774D01*
G01*
X158328345Y-49293934D02*
G75*
G02*
X158484647Y-49250024I156255J-256066D01*
G01*
X158484647Y-46250000D02*
G75*
G02*
X158328344Y-46206067I3J300020D01*
G01*
X160285353Y-49250000D02*
G75*
G02*
X160441655Y-49293934I3J-299992D01*
G01*
X160441655Y-46206066D02*
G75*
G02*
X160285353Y-46250000I-156299J256058D01*
G01*
X160441655Y-46206066D02*
G75*
G02*
X161128934Y-46893345I260503J-426776D01*
G01*
X161085000Y-47049647D02*
G75*
G02*
X161128934Y-46893345I299992J3D01*
G01*
X161128934Y-48606655D02*
G75*
G02*
X160441655Y-49293934I-426776J-260503D01*
G01*
X161128934Y-48606655D02*
G75*
G02*
X161085000Y-48450353I256058J156299D01*
G01*
%TO.C,D124*%
X124300000Y-114250000D02*
X124300000Y-113549647D01*
X124300000Y-114250000D02*
X124300000Y-114950353D01*
X126000000Y-112750000D02*
X125099647Y-112750000D01*
X126000000Y-112750000D02*
X126900353Y-112750000D01*
X126000000Y-115750000D02*
X125099647Y-115750000D01*
X126000000Y-115750000D02*
X126900353Y-115750000D01*
X127700000Y-114250000D02*
X127700000Y-113549647D01*
X127700000Y-114250000D02*
X127700000Y-114950353D01*
X124256066Y-113393345D02*
G75*
G02*
X124299976Y-113549647I-256066J-156255D01*
G01*
X124256066Y-113393345D02*
G75*
G02*
X124943345Y-112706066I426774J260505D01*
G01*
X124300000Y-114950353D02*
G75*
G02*
X124256065Y-115106654I-299680J-87D01*
G01*
X124943345Y-115793934D02*
G75*
G02*
X124256066Y-115106655I-260505J426774D01*
G01*
X124943345Y-115793934D02*
G75*
G02*
X125099647Y-115750024I156255J-256066D01*
G01*
X125099647Y-112750000D02*
G75*
G02*
X124943344Y-112706067I3J300020D01*
G01*
X126900353Y-115750000D02*
G75*
G02*
X127056655Y-115793934I3J-299992D01*
G01*
X127056655Y-112706066D02*
G75*
G02*
X126900353Y-112750000I-156299J256058D01*
G01*
X127056655Y-112706066D02*
G75*
G02*
X127743934Y-113393345I260503J-426776D01*
G01*
X127700000Y-113549647D02*
G75*
G02*
X127743934Y-113393345I299992J3D01*
G01*
X127743934Y-115106655D02*
G75*
G02*
X127056655Y-115793934I-426776J-260503D01*
G01*
X127743934Y-115106655D02*
G75*
G02*
X127700000Y-114950353I256058J156299D01*
G01*
%TO.C,D91*%
X300550000Y-47750000D02*
X300550000Y-47049647D01*
X300550000Y-47750000D02*
X300550000Y-48450353D01*
X302250000Y-46250000D02*
X301349647Y-46250000D01*
X302250000Y-46250000D02*
X303150353Y-46250000D01*
X302250000Y-49250000D02*
X301349647Y-49250000D01*
X302250000Y-49250000D02*
X303150353Y-49250000D01*
X303950000Y-47750000D02*
X303950000Y-47049647D01*
X303950000Y-47750000D02*
X303950000Y-48450353D01*
X300506066Y-46893345D02*
G75*
G02*
X300549976Y-47049647I-256066J-156255D01*
G01*
X300506066Y-46893345D02*
G75*
G02*
X301193345Y-46206066I426774J260505D01*
G01*
X300550000Y-48450353D02*
G75*
G02*
X300506065Y-48606654I-299680J-87D01*
G01*
X301193345Y-49293934D02*
G75*
G02*
X300506066Y-48606655I-260505J426774D01*
G01*
X301193345Y-49293934D02*
G75*
G02*
X301349647Y-49250024I156255J-256066D01*
G01*
X301349647Y-46250000D02*
G75*
G02*
X301193344Y-46206067I3J300020D01*
G01*
X303150353Y-49250000D02*
G75*
G02*
X303306655Y-49293934I3J-299992D01*
G01*
X303306655Y-46206066D02*
G75*
G02*
X303150353Y-46250000I-156299J256058D01*
G01*
X303306655Y-46206066D02*
G75*
G02*
X303993934Y-46893345I260503J-426776D01*
G01*
X303950000Y-47049647D02*
G75*
G02*
X303993934Y-46893345I299992J3D01*
G01*
X303993934Y-48606655D02*
G75*
G02*
X303306655Y-49293934I-426776J-260503D01*
G01*
X303993934Y-48606655D02*
G75*
G02*
X303950000Y-48450353I256058J156299D01*
G01*
%TO.C,D114*%
X195800000Y-95250000D02*
X195800000Y-94549647D01*
X195800000Y-95250000D02*
X195800000Y-95950353D01*
X197500000Y-93750000D02*
X196599647Y-93750000D01*
X197500000Y-93750000D02*
X198400353Y-93750000D01*
X197500000Y-96750000D02*
X196599647Y-96750000D01*
X197500000Y-96750000D02*
X198400353Y-96750000D01*
X199200000Y-95250000D02*
X199200000Y-94549647D01*
X199200000Y-95250000D02*
X199200000Y-95950353D01*
X195756066Y-94393345D02*
G75*
G02*
X195799976Y-94549647I-256066J-156255D01*
G01*
X195756066Y-94393345D02*
G75*
G02*
X196443345Y-93706066I426774J260505D01*
G01*
X195800000Y-95950353D02*
G75*
G02*
X195756065Y-96106654I-299680J-87D01*
G01*
X196443345Y-96793934D02*
G75*
G02*
X195756066Y-96106655I-260505J426774D01*
G01*
X196443345Y-96793934D02*
G75*
G02*
X196599647Y-96750024I156255J-256066D01*
G01*
X196599647Y-93750000D02*
G75*
G02*
X196443344Y-93706067I3J300020D01*
G01*
X198400353Y-96750000D02*
G75*
G02*
X198556655Y-96793934I3J-299992D01*
G01*
X198556655Y-93706066D02*
G75*
G02*
X198400353Y-93750000I-156299J256058D01*
G01*
X198556655Y-93706066D02*
G75*
G02*
X199243934Y-94393345I260503J-426776D01*
G01*
X199200000Y-94549647D02*
G75*
G02*
X199243934Y-94393345I299992J3D01*
G01*
X199243934Y-96106655D02*
G75*
G02*
X198556655Y-96793934I-426776J-260503D01*
G01*
X199243934Y-96106655D02*
G75*
G02*
X199200000Y-95950353I256058J156299D01*
G01*
%TO.C,D99*%
X167210000Y-76250000D02*
X167210000Y-75549647D01*
X167210000Y-76250000D02*
X167210000Y-76950353D01*
X168910000Y-74750000D02*
X168009647Y-74750000D01*
X168910000Y-74750000D02*
X169810353Y-74750000D01*
X168910000Y-77750000D02*
X168009647Y-77750000D01*
X168910000Y-77750000D02*
X169810353Y-77750000D01*
X170610000Y-76250000D02*
X170610000Y-75549647D01*
X170610000Y-76250000D02*
X170610000Y-76950353D01*
X167166066Y-75393345D02*
G75*
G02*
X167209976Y-75549647I-256066J-156255D01*
G01*
X167166066Y-75393345D02*
G75*
G02*
X167853345Y-74706066I426774J260505D01*
G01*
X167210000Y-76950353D02*
G75*
G02*
X167166065Y-77106654I-299680J-87D01*
G01*
X167853345Y-77793934D02*
G75*
G02*
X167166066Y-77106655I-260505J426774D01*
G01*
X167853345Y-77793934D02*
G75*
G02*
X168009647Y-77750024I156255J-256066D01*
G01*
X168009647Y-74750000D02*
G75*
G02*
X167853344Y-74706067I3J300020D01*
G01*
X169810353Y-77750000D02*
G75*
G02*
X169966655Y-77793934I3J-299992D01*
G01*
X169966655Y-74706066D02*
G75*
G02*
X169810353Y-74750000I-156299J256058D01*
G01*
X169966655Y-74706066D02*
G75*
G02*
X170653934Y-75393345I260503J-426776D01*
G01*
X170610000Y-75549647D02*
G75*
G02*
X170653934Y-75393345I299992J3D01*
G01*
X170653934Y-77106655D02*
G75*
G02*
X169966655Y-77793934I-426776J-260503D01*
G01*
X170653934Y-77106655D02*
G75*
G02*
X170610000Y-76950353I256058J156299D01*
G01*
%TO.C,D90*%
X281550000Y-47750000D02*
X281550000Y-47049647D01*
X281550000Y-47750000D02*
X281550000Y-48450353D01*
X283250000Y-46250000D02*
X282349647Y-46250000D01*
X283250000Y-46250000D02*
X284150353Y-46250000D01*
X283250000Y-49250000D02*
X282349647Y-49250000D01*
X283250000Y-49250000D02*
X284150353Y-49250000D01*
X284950000Y-47750000D02*
X284950000Y-47049647D01*
X284950000Y-47750000D02*
X284950000Y-48450353D01*
X281506066Y-46893345D02*
G75*
G02*
X281549976Y-47049647I-256066J-156255D01*
G01*
X281506066Y-46893345D02*
G75*
G02*
X282193345Y-46206066I426774J260505D01*
G01*
X281550000Y-48450353D02*
G75*
G02*
X281506065Y-48606654I-299680J-87D01*
G01*
X282193345Y-49293934D02*
G75*
G02*
X281506066Y-48606655I-260505J426774D01*
G01*
X282193345Y-49293934D02*
G75*
G02*
X282349647Y-49250024I156255J-256066D01*
G01*
X282349647Y-46250000D02*
G75*
G02*
X282193344Y-46206067I3J300020D01*
G01*
X284150353Y-49250000D02*
G75*
G02*
X284306655Y-49293934I3J-299992D01*
G01*
X284306655Y-46206066D02*
G75*
G02*
X284150353Y-46250000I-156299J256058D01*
G01*
X284306655Y-46206066D02*
G75*
G02*
X284993934Y-46893345I260503J-426776D01*
G01*
X284950000Y-47049647D02*
G75*
G02*
X284993934Y-46893345I299992J3D01*
G01*
X284993934Y-48606655D02*
G75*
G02*
X284306655Y-49293934I-426776J-260503D01*
G01*
X284993934Y-48606655D02*
G75*
G02*
X284950000Y-48450353I256058J156299D01*
G01*
%TO.C,D120*%
X41050000Y-114250000D02*
X41050000Y-113549647D01*
X41050000Y-114250000D02*
X41050000Y-114950353D01*
X42750000Y-112750000D02*
X41849647Y-112750000D01*
X42750000Y-112750000D02*
X43650353Y-112750000D01*
X42750000Y-115750000D02*
X41849647Y-115750000D01*
X42750000Y-115750000D02*
X43650353Y-115750000D01*
X44450000Y-114250000D02*
X44450000Y-113549647D01*
X44450000Y-114250000D02*
X44450000Y-114950353D01*
X41006066Y-113393345D02*
G75*
G02*
X41049976Y-113549647I-256066J-156255D01*
G01*
X41006066Y-113393345D02*
G75*
G02*
X41693345Y-112706066I426774J260505D01*
G01*
X41050000Y-114950353D02*
G75*
G02*
X41006065Y-115106654I-299680J-87D01*
G01*
X41693345Y-115793934D02*
G75*
G02*
X41006066Y-115106655I-260505J426774D01*
G01*
X41693345Y-115793934D02*
G75*
G02*
X41849647Y-115750024I156255J-256066D01*
G01*
X41849647Y-112750000D02*
G75*
G02*
X41693344Y-112706067I3J300020D01*
G01*
X43650353Y-115750000D02*
G75*
G02*
X43806655Y-115793934I3J-299992D01*
G01*
X43806655Y-112706066D02*
G75*
G02*
X43650353Y-112750000I-156299J256058D01*
G01*
X43806655Y-112706066D02*
G75*
G02*
X44493934Y-113393345I260503J-426776D01*
G01*
X44450000Y-113549647D02*
G75*
G02*
X44493934Y-113393345I299992J3D01*
G01*
X44493934Y-115106655D02*
G75*
G02*
X43806655Y-115793934I-426776J-260503D01*
G01*
X44493934Y-115106655D02*
G75*
G02*
X44450000Y-114950353I256058J156299D01*
G01*
%TO.C,D118*%
X272050000Y-95250000D02*
X272050000Y-94549647D01*
X272050000Y-95250000D02*
X272050000Y-95950353D01*
X273750000Y-93750000D02*
X272849647Y-93750000D01*
X273750000Y-93750000D02*
X274650353Y-93750000D01*
X273750000Y-96750000D02*
X272849647Y-96750000D01*
X273750000Y-96750000D02*
X274650353Y-96750000D01*
X275450000Y-95250000D02*
X275450000Y-94549647D01*
X275450000Y-95250000D02*
X275450000Y-95950353D01*
X272006066Y-94393345D02*
G75*
G02*
X272049976Y-94549647I-256066J-156255D01*
G01*
X272006066Y-94393345D02*
G75*
G02*
X272693345Y-93706066I426774J260505D01*
G01*
X272050000Y-95950353D02*
G75*
G02*
X272006065Y-96106654I-299680J-87D01*
G01*
X272693345Y-96793934D02*
G75*
G02*
X272006066Y-96106655I-260505J426774D01*
G01*
X272693345Y-96793934D02*
G75*
G02*
X272849647Y-96750024I156255J-256066D01*
G01*
X272849647Y-93750000D02*
G75*
G02*
X272693344Y-93706067I3J300020D01*
G01*
X274650353Y-96750000D02*
G75*
G02*
X274806655Y-96793934I3J-299992D01*
G01*
X274806655Y-93706066D02*
G75*
G02*
X274650353Y-93750000I-156299J256058D01*
G01*
X274806655Y-93706066D02*
G75*
G02*
X275493934Y-94393345I260503J-426776D01*
G01*
X275450000Y-94549647D02*
G75*
G02*
X275493934Y-94393345I299992J3D01*
G01*
X275493934Y-96106655D02*
G75*
G02*
X274806655Y-96793934I-426776J-260503D01*
G01*
X275493934Y-96106655D02*
G75*
G02*
X275450000Y-95950353I256058J156299D01*
G01*
%TO.C,D137*%
X133872500Y-133250000D02*
X133872500Y-132549647D01*
X133872500Y-133250000D02*
X133872500Y-133950353D01*
X135572500Y-131750000D02*
X134672147Y-131750000D01*
X135572500Y-131750000D02*
X136472853Y-131750000D01*
X135572500Y-134750000D02*
X134672147Y-134750000D01*
X135572500Y-134750000D02*
X136472853Y-134750000D01*
X137272500Y-133250000D02*
X137272500Y-132549647D01*
X137272500Y-133250000D02*
X137272500Y-133950353D01*
X133828566Y-132393345D02*
G75*
G02*
X133872476Y-132549647I-256066J-156255D01*
G01*
X133828566Y-132393345D02*
G75*
G02*
X134515845Y-131706066I426774J260505D01*
G01*
X133872500Y-133950353D02*
G75*
G02*
X133828565Y-134106654I-299680J-87D01*
G01*
X134515845Y-134793934D02*
G75*
G02*
X133828566Y-134106655I-260505J426774D01*
G01*
X134515845Y-134793934D02*
G75*
G02*
X134672147Y-134750024I156255J-256066D01*
G01*
X134672147Y-131750000D02*
G75*
G02*
X134515844Y-131706067I3J300020D01*
G01*
X136472853Y-134750000D02*
G75*
G02*
X136629155Y-134793934I3J-299992D01*
G01*
X136629155Y-131706066D02*
G75*
G02*
X136472853Y-131750000I-156299J256058D01*
G01*
X136629155Y-131706066D02*
G75*
G02*
X137316434Y-132393345I260503J-426776D01*
G01*
X137272500Y-132549647D02*
G75*
G02*
X137316434Y-132393345I299992J3D01*
G01*
X137316434Y-134106655D02*
G75*
G02*
X136629155Y-134793934I-426776J-260503D01*
G01*
X137316434Y-134106655D02*
G75*
G02*
X137272500Y-133950353I256058J156299D01*
G01*
%TO.C,D115*%
X214800000Y-95250000D02*
X214800000Y-94549647D01*
X214800000Y-95250000D02*
X214800000Y-95950353D01*
X216500000Y-93750000D02*
X215599647Y-93750000D01*
X216500000Y-93750000D02*
X217400353Y-93750000D01*
X216500000Y-96750000D02*
X215599647Y-96750000D01*
X216500000Y-96750000D02*
X217400353Y-96750000D01*
X218200000Y-95250000D02*
X218200000Y-94549647D01*
X218200000Y-95250000D02*
X218200000Y-95950353D01*
X214756066Y-94393345D02*
G75*
G02*
X214799976Y-94549647I-256066J-156255D01*
G01*
X214756066Y-94393345D02*
G75*
G02*
X215443345Y-93706066I426774J260505D01*
G01*
X214800000Y-95950353D02*
G75*
G02*
X214756065Y-96106654I-299680J-87D01*
G01*
X215443345Y-96793934D02*
G75*
G02*
X214756066Y-96106655I-260505J426774D01*
G01*
X215443345Y-96793934D02*
G75*
G02*
X215599647Y-96750024I156255J-256066D01*
G01*
X215599647Y-93750000D02*
G75*
G02*
X215443344Y-93706067I3J300020D01*
G01*
X217400353Y-96750000D02*
G75*
G02*
X217556655Y-96793934I3J-299992D01*
G01*
X217556655Y-93706066D02*
G75*
G02*
X217400353Y-93750000I-156299J256058D01*
G01*
X217556655Y-93706066D02*
G75*
G02*
X218243934Y-94393345I260503J-426776D01*
G01*
X218200000Y-94549647D02*
G75*
G02*
X218243934Y-94393345I299992J3D01*
G01*
X218243934Y-96106655D02*
G75*
G02*
X217556655Y-96793934I-426776J-260503D01*
G01*
X218243934Y-96106655D02*
G75*
G02*
X218200000Y-95950353I256058J156299D01*
G01*
%TO.C,D138*%
X152922500Y-133250000D02*
X152922500Y-132549647D01*
X152922500Y-133250000D02*
X152922500Y-133950353D01*
X154622500Y-131750000D02*
X153722147Y-131750000D01*
X154622500Y-131750000D02*
X155522853Y-131750000D01*
X154622500Y-134750000D02*
X153722147Y-134750000D01*
X154622500Y-134750000D02*
X155522853Y-134750000D01*
X156322500Y-133250000D02*
X156322500Y-132549647D01*
X156322500Y-133250000D02*
X156322500Y-133950353D01*
X152878566Y-132393345D02*
G75*
G02*
X152922476Y-132549647I-256066J-156255D01*
G01*
X152878566Y-132393345D02*
G75*
G02*
X153565845Y-131706066I426774J260505D01*
G01*
X152922500Y-133950353D02*
G75*
G02*
X152878565Y-134106654I-299680J-87D01*
G01*
X153565845Y-134793934D02*
G75*
G02*
X152878566Y-134106655I-260505J426774D01*
G01*
X153565845Y-134793934D02*
G75*
G02*
X153722147Y-134750024I156255J-256066D01*
G01*
X153722147Y-131750000D02*
G75*
G02*
X153565844Y-131706067I3J300020D01*
G01*
X155522853Y-134750000D02*
G75*
G02*
X155679155Y-134793934I3J-299992D01*
G01*
X155679155Y-131706066D02*
G75*
G02*
X155522853Y-131750000I-156299J256058D01*
G01*
X155679155Y-131706066D02*
G75*
G02*
X156366434Y-132393345I260503J-426776D01*
G01*
X156322500Y-132549647D02*
G75*
G02*
X156366434Y-132393345I299992J3D01*
G01*
X156366434Y-134106655D02*
G75*
G02*
X155679155Y-134793934I-426776J-260503D01*
G01*
X156366434Y-134106655D02*
G75*
G02*
X156322500Y-133950353I256058J156299D01*
G01*
%TO.C,D140*%
X191050000Y-133250000D02*
X191050000Y-132549647D01*
X191050000Y-133250000D02*
X191050000Y-133950353D01*
X192750000Y-131750000D02*
X191849647Y-131750000D01*
X192750000Y-131750000D02*
X193650353Y-131750000D01*
X192750000Y-134750000D02*
X191849647Y-134750000D01*
X192750000Y-134750000D02*
X193650353Y-134750000D01*
X194450000Y-133250000D02*
X194450000Y-132549647D01*
X194450000Y-133250000D02*
X194450000Y-133950353D01*
X191006066Y-132393345D02*
G75*
G02*
X191049976Y-132549647I-256066J-156255D01*
G01*
X191006066Y-132393345D02*
G75*
G02*
X191693345Y-131706066I426774J260505D01*
G01*
X191050000Y-133950353D02*
G75*
G02*
X191006065Y-134106654I-299680J-87D01*
G01*
X191693345Y-134793934D02*
G75*
G02*
X191006066Y-134106655I-260505J426774D01*
G01*
X191693345Y-134793934D02*
G75*
G02*
X191849647Y-134750024I156255J-256066D01*
G01*
X191849647Y-131750000D02*
G75*
G02*
X191693344Y-131706067I3J300020D01*
G01*
X193650353Y-134750000D02*
G75*
G02*
X193806655Y-134793934I3J-299992D01*
G01*
X193806655Y-131706066D02*
G75*
G02*
X193650353Y-131750000I-156299J256058D01*
G01*
X193806655Y-131706066D02*
G75*
G02*
X194493934Y-132393345I260503J-426776D01*
G01*
X194450000Y-132549647D02*
G75*
G02*
X194493934Y-132393345I299992J3D01*
G01*
X194493934Y-134106655D02*
G75*
G02*
X193806655Y-134793934I-426776J-260503D01*
G01*
X194493934Y-134106655D02*
G75*
G02*
X194450000Y-133950353I256058J156299D01*
G01*
%TO.C,D143*%
X248172500Y-133250000D02*
X248172500Y-132549647D01*
X248172500Y-133250000D02*
X248172500Y-133950353D01*
X249872500Y-131750000D02*
X248972147Y-131750000D01*
X249872500Y-131750000D02*
X250772853Y-131750000D01*
X249872500Y-134750000D02*
X248972147Y-134750000D01*
X249872500Y-134750000D02*
X250772853Y-134750000D01*
X251572500Y-133250000D02*
X251572500Y-132549647D01*
X251572500Y-133250000D02*
X251572500Y-133950353D01*
X248128566Y-132393345D02*
G75*
G02*
X248172476Y-132549647I-256066J-156255D01*
G01*
X248128566Y-132393345D02*
G75*
G02*
X248815845Y-131706066I426774J260505D01*
G01*
X248172500Y-133950353D02*
G75*
G02*
X248128565Y-134106654I-299680J-87D01*
G01*
X248815845Y-134793934D02*
G75*
G02*
X248128566Y-134106655I-260505J426774D01*
G01*
X248815845Y-134793934D02*
G75*
G02*
X248972147Y-134750024I156255J-256066D01*
G01*
X248972147Y-131750000D02*
G75*
G02*
X248815844Y-131706067I3J300020D01*
G01*
X250772853Y-134750000D02*
G75*
G02*
X250929155Y-134793934I3J-299992D01*
G01*
X250929155Y-131706066D02*
G75*
G02*
X250772853Y-131750000I-156299J256058D01*
G01*
X250929155Y-131706066D02*
G75*
G02*
X251616434Y-132393345I260503J-426776D01*
G01*
X251572500Y-132549647D02*
G75*
G02*
X251616434Y-132393345I299992J3D01*
G01*
X251616434Y-134106655D02*
G75*
G02*
X250929155Y-134793934I-426776J-260503D01*
G01*
X251616434Y-134106655D02*
G75*
G02*
X251572500Y-133950353I256058J156299D01*
G01*
%TO.C,D121*%
X67197500Y-114500000D02*
X67197500Y-113799647D01*
X67197500Y-114500000D02*
X67197500Y-115200353D01*
X68897500Y-113000000D02*
X67997147Y-113000000D01*
X68897500Y-113000000D02*
X69797853Y-113000000D01*
X68897500Y-116000000D02*
X67997147Y-116000000D01*
X68897500Y-116000000D02*
X69797853Y-116000000D01*
X70597500Y-114500000D02*
X70597500Y-113799647D01*
X70597500Y-114500000D02*
X70597500Y-115200353D01*
X67153566Y-113643345D02*
G75*
G02*
X67197476Y-113799647I-256066J-156255D01*
G01*
X67153566Y-113643345D02*
G75*
G02*
X67840845Y-112956066I426774J260505D01*
G01*
X67197500Y-115200353D02*
G75*
G02*
X67153565Y-115356654I-299680J-87D01*
G01*
X67840845Y-116043934D02*
G75*
G02*
X67153566Y-115356655I-260505J426774D01*
G01*
X67840845Y-116043934D02*
G75*
G02*
X67997147Y-116000024I156255J-256066D01*
G01*
X67997147Y-113000000D02*
G75*
G02*
X67840844Y-112956067I3J300020D01*
G01*
X69797853Y-116000000D02*
G75*
G02*
X69954155Y-116043934I3J-299992D01*
G01*
X69954155Y-112956066D02*
G75*
G02*
X69797853Y-113000000I-156299J256058D01*
G01*
X69954155Y-112956066D02*
G75*
G02*
X70641434Y-113643345I260503J-426776D01*
G01*
X70597500Y-113799647D02*
G75*
G02*
X70641434Y-113643345I299992J3D01*
G01*
X70641434Y-115356655D02*
G75*
G02*
X69954155Y-116043934I-426776J-260503D01*
G01*
X70641434Y-115356655D02*
G75*
G02*
X70597500Y-115200353I256058J156299D01*
G01*
%TO.C,D94*%
X71960000Y-76250000D02*
X71960000Y-75549647D01*
X71960000Y-76250000D02*
X71960000Y-76950353D01*
X73660000Y-74750000D02*
X72759647Y-74750000D01*
X73660000Y-74750000D02*
X74560353Y-74750000D01*
X73660000Y-77750000D02*
X72759647Y-77750000D01*
X73660000Y-77750000D02*
X74560353Y-77750000D01*
X75360000Y-76250000D02*
X75360000Y-75549647D01*
X75360000Y-76250000D02*
X75360000Y-76950353D01*
X71916066Y-75393345D02*
G75*
G02*
X71959976Y-75549647I-256066J-156255D01*
G01*
X71916066Y-75393345D02*
G75*
G02*
X72603345Y-74706066I426774J260505D01*
G01*
X71960000Y-76950353D02*
G75*
G02*
X71916065Y-77106654I-299680J-87D01*
G01*
X72603345Y-77793934D02*
G75*
G02*
X71916066Y-77106655I-260505J426774D01*
G01*
X72603345Y-77793934D02*
G75*
G02*
X72759647Y-77750024I156255J-256066D01*
G01*
X72759647Y-74750000D02*
G75*
G02*
X72603344Y-74706067I3J300020D01*
G01*
X74560353Y-77750000D02*
G75*
G02*
X74716655Y-77793934I3J-299992D01*
G01*
X74716655Y-74706066D02*
G75*
G02*
X74560353Y-74750000I-156299J256058D01*
G01*
X74716655Y-74706066D02*
G75*
G02*
X75403934Y-75393345I260503J-426776D01*
G01*
X75360000Y-75549647D02*
G75*
G02*
X75403934Y-75393345I299992J3D01*
G01*
X75403934Y-77106655D02*
G75*
G02*
X74716655Y-77793934I-426776J-260503D01*
G01*
X75403934Y-77106655D02*
G75*
G02*
X75360000Y-76950353I256058J156299D01*
G01*
%TO.C,D117*%
X252935000Y-95250000D02*
X252935000Y-94549647D01*
X252935000Y-95250000D02*
X252935000Y-95950353D01*
X254635000Y-93750000D02*
X253734647Y-93750000D01*
X254635000Y-93750000D02*
X255535353Y-93750000D01*
X254635000Y-96750000D02*
X253734647Y-96750000D01*
X254635000Y-96750000D02*
X255535353Y-96750000D01*
X256335000Y-95250000D02*
X256335000Y-94549647D01*
X256335000Y-95250000D02*
X256335000Y-95950353D01*
X252891066Y-94393345D02*
G75*
G02*
X252934976Y-94549647I-256066J-156255D01*
G01*
X252891066Y-94393345D02*
G75*
G02*
X253578345Y-93706066I426774J260505D01*
G01*
X252935000Y-95950353D02*
G75*
G02*
X252891065Y-96106654I-299680J-87D01*
G01*
X253578345Y-96793934D02*
G75*
G02*
X252891066Y-96106655I-260505J426774D01*
G01*
X253578345Y-96793934D02*
G75*
G02*
X253734647Y-96750024I156255J-256066D01*
G01*
X253734647Y-93750000D02*
G75*
G02*
X253578344Y-93706067I3J300020D01*
G01*
X255535353Y-96750000D02*
G75*
G02*
X255691655Y-96793934I3J-299992D01*
G01*
X255691655Y-93706066D02*
G75*
G02*
X255535353Y-93750000I-156299J256058D01*
G01*
X255691655Y-93706066D02*
G75*
G02*
X256378934Y-94393345I260503J-426776D01*
G01*
X256335000Y-94549647D02*
G75*
G02*
X256378934Y-94393345I299992J3D01*
G01*
X256378934Y-96106655D02*
G75*
G02*
X255691655Y-96793934I-426776J-260503D01*
G01*
X256378934Y-96106655D02*
G75*
G02*
X256335000Y-95950353I256058J156299D01*
G01*
%TO.C,D106*%
X38622500Y-95250000D02*
X38622500Y-94549647D01*
X38622500Y-95250000D02*
X38622500Y-95950353D01*
X40322500Y-93750000D02*
X39422147Y-93750000D01*
X40322500Y-93750000D02*
X41222853Y-93750000D01*
X40322500Y-96750000D02*
X39422147Y-96750000D01*
X40322500Y-96750000D02*
X41222853Y-96750000D01*
X42022500Y-95250000D02*
X42022500Y-94549647D01*
X42022500Y-95250000D02*
X42022500Y-95950353D01*
X38578566Y-94393345D02*
G75*
G02*
X38622476Y-94549647I-256066J-156255D01*
G01*
X38578566Y-94393345D02*
G75*
G02*
X39265845Y-93706066I426774J260505D01*
G01*
X38622500Y-95950353D02*
G75*
G02*
X38578565Y-96106654I-299680J-87D01*
G01*
X39265845Y-96793934D02*
G75*
G02*
X38578566Y-96106655I-260505J426774D01*
G01*
X39265845Y-96793934D02*
G75*
G02*
X39422147Y-96750024I156255J-256066D01*
G01*
X39422147Y-93750000D02*
G75*
G02*
X39265844Y-93706067I3J300020D01*
G01*
X41222853Y-96750000D02*
G75*
G02*
X41379155Y-96793934I3J-299992D01*
G01*
X41379155Y-93706066D02*
G75*
G02*
X41222853Y-93750000I-156299J256058D01*
G01*
X41379155Y-93706066D02*
G75*
G02*
X42066434Y-94393345I260503J-426776D01*
G01*
X42022500Y-94549647D02*
G75*
G02*
X42066434Y-94393345I299992J3D01*
G01*
X42066434Y-96106655D02*
G75*
G02*
X41379155Y-96793934I-426776J-260503D01*
G01*
X42066434Y-96106655D02*
G75*
G02*
X42022500Y-95950353I256058J156299D01*
G01*
%TO.C,D144*%
X283862000Y-133250000D02*
X283862000Y-132549647D01*
X283862000Y-133250000D02*
X283862000Y-133950353D01*
X285562000Y-131750000D02*
X284661647Y-131750000D01*
X285562000Y-131750000D02*
X286462353Y-131750000D01*
X285562000Y-134750000D02*
X284661647Y-134750000D01*
X285562000Y-134750000D02*
X286462353Y-134750000D01*
X287262000Y-133250000D02*
X287262000Y-132549647D01*
X287262000Y-133250000D02*
X287262000Y-133950353D01*
X283818066Y-132393345D02*
G75*
G02*
X283861976Y-132549647I-256066J-156255D01*
G01*
X283818066Y-132393345D02*
G75*
G02*
X284505345Y-131706066I426774J260505D01*
G01*
X283862000Y-133950353D02*
G75*
G02*
X283818065Y-134106654I-299680J-87D01*
G01*
X284505345Y-134793934D02*
G75*
G02*
X283818066Y-134106655I-260505J426774D01*
G01*
X284505345Y-134793934D02*
G75*
G02*
X284661647Y-134750024I156255J-256066D01*
G01*
X284661647Y-131750000D02*
G75*
G02*
X284505344Y-131706067I3J300020D01*
G01*
X286462353Y-134750000D02*
G75*
G02*
X286618655Y-134793934I3J-299992D01*
G01*
X286618655Y-131706066D02*
G75*
G02*
X286462353Y-131750000I-156299J256058D01*
G01*
X286618655Y-131706066D02*
G75*
G02*
X287305934Y-132393345I260503J-426776D01*
G01*
X287262000Y-132549647D02*
G75*
G02*
X287305934Y-132393345I299992J3D01*
G01*
X287305934Y-134106655D02*
G75*
G02*
X286618655Y-134793934I-426776J-260503D01*
G01*
X287305934Y-134106655D02*
G75*
G02*
X287262000Y-133950353I256058J156299D01*
G01*
%TO.C,D108*%
X81485000Y-95250000D02*
X81485000Y-94549647D01*
X81485000Y-95250000D02*
X81485000Y-95950353D01*
X83185000Y-93750000D02*
X82284647Y-93750000D01*
X83185000Y-93750000D02*
X84085353Y-93750000D01*
X83185000Y-96750000D02*
X82284647Y-96750000D01*
X83185000Y-96750000D02*
X84085353Y-96750000D01*
X84885000Y-95250000D02*
X84885000Y-94549647D01*
X84885000Y-95250000D02*
X84885000Y-95950353D01*
X81441066Y-94393345D02*
G75*
G02*
X81484976Y-94549647I-256066J-156255D01*
G01*
X81441066Y-94393345D02*
G75*
G02*
X82128345Y-93706066I426774J260505D01*
G01*
X81485000Y-95950353D02*
G75*
G02*
X81441065Y-96106654I-299680J-87D01*
G01*
X82128345Y-96793934D02*
G75*
G02*
X81441066Y-96106655I-260505J426774D01*
G01*
X82128345Y-96793934D02*
G75*
G02*
X82284647Y-96750024I156255J-256066D01*
G01*
X82284647Y-93750000D02*
G75*
G02*
X82128344Y-93706067I3J300020D01*
G01*
X84085353Y-96750000D02*
G75*
G02*
X84241655Y-96793934I3J-299992D01*
G01*
X84241655Y-93706066D02*
G75*
G02*
X84085353Y-93750000I-156299J256058D01*
G01*
X84241655Y-93706066D02*
G75*
G02*
X84928934Y-94393345I260503J-426776D01*
G01*
X84885000Y-94549647D02*
G75*
G02*
X84928934Y-94393345I299992J3D01*
G01*
X84928934Y-96106655D02*
G75*
G02*
X84241655Y-96793934I-426776J-260503D01*
G01*
X84928934Y-96106655D02*
G75*
G02*
X84885000Y-95950353I256058J156299D01*
G01*
%TO.C,D80*%
X72050000Y-47750000D02*
X72050000Y-47049647D01*
X72050000Y-47750000D02*
X72050000Y-48450353D01*
X73750000Y-46250000D02*
X72849647Y-46250000D01*
X73750000Y-46250000D02*
X74650353Y-46250000D01*
X73750000Y-49250000D02*
X72849647Y-49250000D01*
X73750000Y-49250000D02*
X74650353Y-49250000D01*
X75450000Y-47750000D02*
X75450000Y-47049647D01*
X75450000Y-47750000D02*
X75450000Y-48450353D01*
X72006066Y-46893345D02*
G75*
G02*
X72049976Y-47049647I-256066J-156255D01*
G01*
X72006066Y-46893345D02*
G75*
G02*
X72693345Y-46206066I426774J260505D01*
G01*
X72050000Y-48450353D02*
G75*
G02*
X72006065Y-48606654I-299680J-87D01*
G01*
X72693345Y-49293934D02*
G75*
G02*
X72006066Y-48606655I-260505J426774D01*
G01*
X72693345Y-49293934D02*
G75*
G02*
X72849647Y-49250024I156255J-256066D01*
G01*
X72849647Y-46250000D02*
G75*
G02*
X72693344Y-46206067I3J300020D01*
G01*
X74650353Y-49250000D02*
G75*
G02*
X74806655Y-49293934I3J-299992D01*
G01*
X74806655Y-46206066D02*
G75*
G02*
X74650353Y-46250000I-156299J256058D01*
G01*
X74806655Y-46206066D02*
G75*
G02*
X75493934Y-46893345I260503J-426776D01*
G01*
X75450000Y-47049647D02*
G75*
G02*
X75493934Y-46893345I299992J3D01*
G01*
X75493934Y-48606655D02*
G75*
G02*
X74806655Y-49293934I-426776J-260503D01*
G01*
X75493934Y-48606655D02*
G75*
G02*
X75450000Y-48450353I256058J156299D01*
G01*
%TO.C,D86*%
X195800000Y-47750000D02*
X195800000Y-47049647D01*
X195800000Y-47750000D02*
X195800000Y-48450353D01*
X197500000Y-46250000D02*
X196599647Y-46250000D01*
X197500000Y-46250000D02*
X198400353Y-46250000D01*
X197500000Y-49250000D02*
X196599647Y-49250000D01*
X197500000Y-49250000D02*
X198400353Y-49250000D01*
X199200000Y-47750000D02*
X199200000Y-47049647D01*
X199200000Y-47750000D02*
X199200000Y-48450353D01*
X195756066Y-46893345D02*
G75*
G02*
X195799976Y-47049647I-256066J-156255D01*
G01*
X195756066Y-46893345D02*
G75*
G02*
X196443345Y-46206066I426774J260505D01*
G01*
X195800000Y-48450353D02*
G75*
G02*
X195756065Y-48606654I-299680J-87D01*
G01*
X196443345Y-49293934D02*
G75*
G02*
X195756066Y-48606655I-260505J426774D01*
G01*
X196443345Y-49293934D02*
G75*
G02*
X196599647Y-49250024I156255J-256066D01*
G01*
X196599647Y-46250000D02*
G75*
G02*
X196443344Y-46206067I3J300020D01*
G01*
X198400353Y-49250000D02*
G75*
G02*
X198556655Y-49293934I3J-299992D01*
G01*
X198556655Y-46206066D02*
G75*
G02*
X198400353Y-46250000I-156299J256058D01*
G01*
X198556655Y-46206066D02*
G75*
G02*
X199243934Y-46893345I260503J-426776D01*
G01*
X199200000Y-47049647D02*
G75*
G02*
X199243934Y-46893345I299992J3D01*
G01*
X199243934Y-48606655D02*
G75*
G02*
X198556655Y-49293934I-426776J-260503D01*
G01*
X199243934Y-48606655D02*
G75*
G02*
X199200000Y-48450353I256058J156299D01*
G01*
%TO.C,D125*%
X143397500Y-114250000D02*
X143397500Y-113549647D01*
X143397500Y-114250000D02*
X143397500Y-114950353D01*
X145097500Y-112750000D02*
X144197147Y-112750000D01*
X145097500Y-112750000D02*
X145997853Y-112750000D01*
X145097500Y-115750000D02*
X144197147Y-115750000D01*
X145097500Y-115750000D02*
X145997853Y-115750000D01*
X146797500Y-114250000D02*
X146797500Y-113549647D01*
X146797500Y-114250000D02*
X146797500Y-114950353D01*
X143353566Y-113393345D02*
G75*
G02*
X143397476Y-113549647I-256066J-156255D01*
G01*
X143353566Y-113393345D02*
G75*
G02*
X144040845Y-112706066I426774J260505D01*
G01*
X143397500Y-114950353D02*
G75*
G02*
X143353565Y-115106654I-299680J-87D01*
G01*
X144040845Y-115793934D02*
G75*
G02*
X143353566Y-115106655I-260505J426774D01*
G01*
X144040845Y-115793934D02*
G75*
G02*
X144197147Y-115750024I156255J-256066D01*
G01*
X144197147Y-112750000D02*
G75*
G02*
X144040844Y-112706067I3J300020D01*
G01*
X145997853Y-115750000D02*
G75*
G02*
X146154155Y-115793934I3J-299992D01*
G01*
X146154155Y-112706066D02*
G75*
G02*
X145997853Y-112750000I-156299J256058D01*
G01*
X146154155Y-112706066D02*
G75*
G02*
X146841434Y-113393345I260503J-426776D01*
G01*
X146797500Y-113549647D02*
G75*
G02*
X146841434Y-113393345I299992J3D01*
G01*
X146841434Y-115106655D02*
G75*
G02*
X146154155Y-115793934I-426776J-260503D01*
G01*
X146841434Y-115106655D02*
G75*
G02*
X146797500Y-114950353I256058J156299D01*
G01*
%TO.C,D155*%
X362472500Y-152250000D02*
X362472500Y-151549647D01*
X362472500Y-152250000D02*
X362472500Y-152950353D01*
X364172500Y-150750000D02*
X363272147Y-150750000D01*
X364172500Y-150750000D02*
X365072853Y-150750000D01*
X364172500Y-153750000D02*
X363272147Y-153750000D01*
X364172500Y-153750000D02*
X365072853Y-153750000D01*
X365872500Y-152250000D02*
X365872500Y-151549647D01*
X365872500Y-152250000D02*
X365872500Y-152950353D01*
X362428566Y-151393345D02*
G75*
G02*
X362472476Y-151549647I-256066J-156255D01*
G01*
X362428566Y-151393345D02*
G75*
G02*
X363115845Y-150706066I426774J260505D01*
G01*
X362472500Y-152950353D02*
G75*
G02*
X362428565Y-153106654I-299680J-87D01*
G01*
X363115845Y-153793934D02*
G75*
G02*
X362428566Y-153106655I-260505J426774D01*
G01*
X363115845Y-153793934D02*
G75*
G02*
X363272147Y-153750024I156255J-256066D01*
G01*
X363272147Y-150750000D02*
G75*
G02*
X363115844Y-150706067I3J300020D01*
G01*
X365072853Y-153750000D02*
G75*
G02*
X365229155Y-153793934I3J-299992D01*
G01*
X365229155Y-150706066D02*
G75*
G02*
X365072853Y-150750000I-156299J256058D01*
G01*
X365229155Y-150706066D02*
G75*
G02*
X365916434Y-151393345I260503J-426776D01*
G01*
X365872500Y-151549647D02*
G75*
G02*
X365916434Y-151393345I299992J3D01*
G01*
X365916434Y-153106655D02*
G75*
G02*
X365229155Y-153793934I-426776J-260503D01*
G01*
X365916434Y-153106655D02*
G75*
G02*
X365872500Y-152950353I256058J156299D01*
G01*
%TO.C,D100*%
X186260000Y-76250000D02*
X186260000Y-75549647D01*
X186260000Y-76250000D02*
X186260000Y-76950353D01*
X187960000Y-74750000D02*
X187059647Y-74750000D01*
X187960000Y-74750000D02*
X188860353Y-74750000D01*
X187960000Y-77750000D02*
X187059647Y-77750000D01*
X187960000Y-77750000D02*
X188860353Y-77750000D01*
X189660000Y-76250000D02*
X189660000Y-75549647D01*
X189660000Y-76250000D02*
X189660000Y-76950353D01*
X186216066Y-75393345D02*
G75*
G02*
X186259976Y-75549647I-256066J-156255D01*
G01*
X186216066Y-75393345D02*
G75*
G02*
X186903345Y-74706066I426774J260505D01*
G01*
X186260000Y-76950353D02*
G75*
G02*
X186216065Y-77106654I-299680J-87D01*
G01*
X186903345Y-77793934D02*
G75*
G02*
X186216066Y-77106655I-260505J426774D01*
G01*
X186903345Y-77793934D02*
G75*
G02*
X187059647Y-77750024I156255J-256066D01*
G01*
X187059647Y-74750000D02*
G75*
G02*
X186903344Y-74706067I3J300020D01*
G01*
X188860353Y-77750000D02*
G75*
G02*
X189016655Y-77793934I3J-299992D01*
G01*
X189016655Y-74706066D02*
G75*
G02*
X188860353Y-74750000I-156299J256058D01*
G01*
X189016655Y-74706066D02*
G75*
G02*
X189703934Y-75393345I260503J-426776D01*
G01*
X189660000Y-75549647D02*
G75*
G02*
X189703934Y-75393345I299992J3D01*
G01*
X189703934Y-77106655D02*
G75*
G02*
X189016655Y-77793934I-426776J-260503D01*
G01*
X189703934Y-77106655D02*
G75*
G02*
X189660000Y-76950353I256058J156299D01*
G01*
%TO.C,D82*%
X110050000Y-47750000D02*
X110050000Y-47049647D01*
X110050000Y-47750000D02*
X110050000Y-48450353D01*
X111750000Y-46250000D02*
X110849647Y-46250000D01*
X111750000Y-46250000D02*
X112650353Y-46250000D01*
X111750000Y-49250000D02*
X110849647Y-49250000D01*
X111750000Y-49250000D02*
X112650353Y-49250000D01*
X113450000Y-47750000D02*
X113450000Y-47049647D01*
X113450000Y-47750000D02*
X113450000Y-48450353D01*
X110006066Y-46893345D02*
G75*
G02*
X110049976Y-47049647I-256066J-156255D01*
G01*
X110006066Y-46893345D02*
G75*
G02*
X110693345Y-46206066I426774J260505D01*
G01*
X110050000Y-48450353D02*
G75*
G02*
X110006065Y-48606654I-299680J-87D01*
G01*
X110693345Y-49293934D02*
G75*
G02*
X110006066Y-48606655I-260505J426774D01*
G01*
X110693345Y-49293934D02*
G75*
G02*
X110849647Y-49250024I156255J-256066D01*
G01*
X110849647Y-46250000D02*
G75*
G02*
X110693344Y-46206067I3J300020D01*
G01*
X112650353Y-49250000D02*
G75*
G02*
X112806655Y-49293934I3J-299992D01*
G01*
X112806655Y-46206066D02*
G75*
G02*
X112650353Y-46250000I-156299J256058D01*
G01*
X112806655Y-46206066D02*
G75*
G02*
X113493934Y-46893345I260503J-426776D01*
G01*
X113450000Y-47049647D02*
G75*
G02*
X113493934Y-46893345I299992J3D01*
G01*
X113493934Y-48606655D02*
G75*
G02*
X112806655Y-49293934I-426776J-260503D01*
G01*
X113493934Y-48606655D02*
G75*
G02*
X113450000Y-48450353I256058J156299D01*
G01*
%TO.C,D83*%
X129050000Y-47750000D02*
X129050000Y-47049647D01*
X129050000Y-47750000D02*
X129050000Y-48450353D01*
X130750000Y-46250000D02*
X129849647Y-46250000D01*
X130750000Y-46250000D02*
X131650353Y-46250000D01*
X130750000Y-49250000D02*
X129849647Y-49250000D01*
X130750000Y-49250000D02*
X131650353Y-49250000D01*
X132450000Y-47750000D02*
X132450000Y-47049647D01*
X132450000Y-47750000D02*
X132450000Y-48450353D01*
X129006066Y-46893345D02*
G75*
G02*
X129049976Y-47049647I-256066J-156255D01*
G01*
X129006066Y-46893345D02*
G75*
G02*
X129693345Y-46206066I426774J260505D01*
G01*
X129050000Y-48450353D02*
G75*
G02*
X129006065Y-48606654I-299680J-87D01*
G01*
X129693345Y-49293934D02*
G75*
G02*
X129006066Y-48606655I-260505J426774D01*
G01*
X129693345Y-49293934D02*
G75*
G02*
X129849647Y-49250024I156255J-256066D01*
G01*
X129849647Y-46250000D02*
G75*
G02*
X129693344Y-46206067I3J300020D01*
G01*
X131650353Y-49250000D02*
G75*
G02*
X131806655Y-49293934I3J-299992D01*
G01*
X131806655Y-46206066D02*
G75*
G02*
X131650353Y-46250000I-156299J256058D01*
G01*
X131806655Y-46206066D02*
G75*
G02*
X132493934Y-46893345I260503J-426776D01*
G01*
X132450000Y-47049647D02*
G75*
G02*
X132493934Y-46893345I299992J3D01*
G01*
X132493934Y-48606655D02*
G75*
G02*
X131806655Y-49293934I-426776J-260503D01*
G01*
X132493934Y-48606655D02*
G75*
G02*
X132450000Y-48450353I256058J156299D01*
G01*
%TD*%
M02*
